<svg id="Camada_1" data-name="Camada 1" xmlns="http://www.w3.org/2000/svg" viewBox="0 0 826.08 708.51">
  <defs>
    <style>
      .cls-1 {
        fill: #4b3a68;
        stroke: #4b3a68;
        stroke-miterlimit: 10;
      }
    </style>
  </defs>
  <g id="Camada_1-2" data-name="Camada 1">
    <path class="cls-1" d="M606.24,209.59c-2-25.06-14.69-46.16-27.25-66.66a296.7,296.7,0,0,1-18-32.54A206.44,206.44,0,0,1,548.2,72.12a213.66,213.66,0,0,1-5.61-45.68l-7,3.3c27.65,38.3,44.33,84.49,53.28,131.68q3.78,20.31,5.61,40.88a4.21,4.21,0,0,0,8.41.41,2.81,2.81,0,0,0,0-.41l8.25-90.05c1.31-14.31,2.24-28.72,4.23-43,1.8-13.12,4.74-26.41,11.22-37.82C632.8,20.53,642.2,11.58,654.14,9l-4.2-7.71c-15.48,19.45-23.76,43.64-29.45,68.13a856,856,0,0,0-14.81,85.66q-3.2,25.3-5.18,50.73a4.4,4.4,0,0,0,4.09,4.67,4.06,4.06,0,0,0,3.28-1.49c36.12-42,52.27-99.38,90.75-139.27a111.66,111.66,0,0,1,34.18-25l-3.22-8.23c-50.4,39.48-89.61,93.12-113.3,155-2.8,7.06-6,19.81-14.83,20.26-3.9.21-6.25-3.3-7.15-7-1.32-5.4.36-11.14,1.68-16.36a4.52,4.52,0,0,0-3.21-5.36,4.17,4.17,0,0,0-4.89,3c-2.33,9-4.35,19.6,1.23,27.91a14.56,14.56,0,0,0,19.63,4.72c7.63-4.12,11-12.76,14-20.77q4.8-12.79,10.46-25.16A356.91,356.91,0,0,1,691.33,84a328.28,328.28,0,0,1,42.43-39.65c3.5-2.73,1.54-10.36-3.23-8.23C680.05,58.52,656.86,114.82,630,161.5a264.9,264.9,0,0,1-28.18,41.15l7.18,3.18q3.36-43.21,10.4-86c4.27-25.76,8.7-52.14,17.5-76.66A124.14,124.14,0,0,1,656,7.65a4.78,4.78,0,0,0-.25-6.45,4.08,4.08,0,0,0-3.8-1.08c-24.61,5.4-38.1,31.57-43,55.79a416.68,416.68,0,0,0-5.24,44.4l-4.26,48-4.94,54h8.44c-4.74-49.89-16.63-99.5-39.46-143.56a282.78,282.78,0,0,0-21.85-35.36c-2.32-3.18-7.23-.42-7.18,3.18a222.75,222.75,0,0,0,15.4,78.82c9.17,23.38,23.86,43.25,35.59,65.4a100.76,100.76,0,0,1,12.5,38.77c.45,5.74,8.86,5.77,8.41,0Z" transform="translate(0.51 0.49)"/>
    <path class="cls-1" d="M355.73,504.89l67.69-144.71-8.57.73L482,497.35l5.62-6.76L325.88,414.5l-1.69,9.31a1085.55,1085.55,0,0,1,176.86,11l-.79-9.43a411.52,411.52,0,0,0-149.9,74.69c-4.79,3.76,1.5,10.81,6.25,7.08a400.61,400.61,0,0,1,145.75-72.31,4.8,4.8,0,0,0,4.3-5.22,4.72,4.72,0,0,0-5-4.4h0a1085.48,1085.48,0,0,0-176.86-11,4.72,4.72,0,0,0-5.47,3.83v.06a4.79,4.79,0,0,0,3.77,5.61l161.75,76.1c3.86,1.85,7.29-3.36,5.59-6.76l-67.22-136.6a4.66,4.66,0,0,0-6.3-1.92l-.13.07a4.8,4.8,0,0,0-2.13,2.58L346.88,501.91a4.8,4.8,0,0,0,3,6,4.73,4.73,0,0,0,5.87-2.91Z" transform="translate(0.51 0.49)"/>
    <path class="cls-1" d="M42.78,240.24c25.83,43.28,72.18,61.23,117.44,69.57,27.37,5.05,55.11,8.41,82.73,11.44q42.06,4.65,84.52,6.9a1525.6,1525.6,0,0,0,169.47-.39,1569.17,1569.17,0,0,0,172.8-19.84q21.12-3.57,42.07-7.77a285.48,285.48,0,0,0,35-8,81.6,81.6,0,0,0,32.67-19,53.81,53.81,0,0,0,15.46-41.35,64.93,64.93,0,0,0-22.44-44.24c-12.08-10.23-25.68-16.51-39.82-22.84a480.84,480.84,0,0,0-73.89-26.08c-51.88-13.78-105.55-19.78-158.92-21.37-52.58-1.54-105.19,1.23-157.63,5.1-51.73,3.78-104,7.63-154.45,20.63a344.44,344.44,0,0,0-74,28.21A223.71,223.71,0,0,0,82,191c-11.89,9-23.53,20-29.59,34.58a74.2,74.2,0,0,0-6.22,26.83,61.15,61.15,0,0,0,5.71,26.52,21.39,21.39,0,0,0,12.6,10.35A20.22,20.22,0,0,0,80.75,287c10.32-7.11,12.51-19.33,7.54-30.79,2.81,6.3.79,2,.34.3-.33-1.36-.59-2.73-.79-4.12l.73,6a44.94,44.94,0,0,1,0-9.7l-.73,6A62.33,62.33,0,0,1,90,245.14c1.12-3.69-.76,2.07-.78,2a11.35,11.35,0,0,1,1-2.22c.9-1.8,1.94-3.51,3-5.22s1.87-1.08-1.18,1.59a19.23,19.23,0,0,0,1.48-1.89q1.55-1.89,3.2-3.6c1.09-1.18,2.24-2.29,3.39-3.37l1.8-1.62c2.8-2.49-3.14,2.46-1.07.84a231.14,231.14,0,0,1,34.78-21.82c2.8-1.5,5.83-3,8.77-4.35a45.68,45.68,0,0,1,4.43-2.07c-.28,0-4.9,2.16-1.68.75L150,203q9.26-4,18.76-7.29a370.4,370.4,0,0,1,38.64-11.26c15.11-3.57,30.43-6.3,45.79-8.55l-5.61.81c43.25-6.22,86.94-9,130.49-11.68,44.87-2.73,89.74-4.14,134.6-2.19,25,1.08,50,3.24,74.77,6.78l-5.61-.78a565.07,565.07,0,0,1,80.42,17.41q19.47,5.79,38.53,13.24c6.37,2.49,12.68,5.16,18.93,7.92,3.28,1.44-1.15-.54-1.48-.69l2.35,1.08,4.69,2.19c3,1.47,6.14,3,9.14,4.62a87.82,87.82,0,0,1,9.22,5.77l1.46,1.08c3.54,2.58-3.64-3.51-.5-.39a44.51,44.51,0,0,1,3.9,3.87c.5.6.95,1.23,1.48,1.8,1.63,1.68-3-4.8-.84-1.23.93,1.53,1.85,3,2.81,4.62.42.84,1.45,3.45.16,0s0-.18.17.66a41.56,41.56,0,0,1,1.29,5.83l-.76-6a35.08,35.08,0,0,1,0,8.32l.76-6c-.31,2.2-1.12,4.24-1.51,6.37s1.06-3.21,1.26-3.18a12,12,0,0,0-.59,1.26c-.53.93-1.07,1.83-1.6,2.79-1.48,2.67,3.62-4.32.87-1.29-.62.69-1.2,1.38-1.82,2-.23.21-2.33,2.22-2.36,2.19s4-3,2.47-2c-.5.33-1,.75-1.49,1.08a52.49,52.49,0,0,1-5.18,3.27L741,246.71c-2.8,1.5,5-2.13,1.07-.48a95.48,95.48,0,0,1-12.42,4.2c-10.66,3-21.6,4.78-32.39,6.91q-18,3.57-36,6.63-20.41,3.51-40.91,6.48l5.61-.81a1521.71,1521.71,0,0,1-168.93,14.8,1521.2,1521.2,0,0,1-169.47-4.05q-47.38-3.78-94.58-10.57l5.6.81a395.79,395.79,0,0,1-58.67-11.78c-4.49-1.35-8.95-3-13.32-4.54-2.11-.78-4.18-1.62-6.26-2.52a16.24,16.24,0,0,1-1.87-.81c-.4-.24,4.71,2.19,2.66,1.2l-3.7-1.77a130.72,130.72,0,0,1-12-6.75q-2.81-1.74-5.47-3.69c-1-.69-1.94-1.38-2.81-2.1-1.4-1.05-5-4.39.29.33a116.25,116.25,0,0,1-11.17-10.69c-1.79-2-3.3-4.62-5.21-6.51-.25-.27,3,4.29,1.74,2.4-.37-.6-.79-1.17-1.18-1.77-.9-1.35-1.74-2.73-2.58-4.14-5.92-9.91-19-14.83-28.77-8.08-9.26,6.4-13.88,20.2-7.55,30.83Z" transform="translate(0.51 0.49)"/>
    <path class="cls-1" d="M71.08,205.66c-17.7-1.29-35.14,11.59-42.77,28.27a63.35,63.35,0,0,0,1.57,56.31c8.67,16.75,23.39,28,39.68,35,15.4,6.6,32.36,8,48.77,9.43,68.81,6,137.86,8.28,206.87,9.63,67.69,1.35,135.47,3,203.17,1.59,68.31-1.41,136.74-6.54,204-19.84A298.72,298.72,0,0,0,775,315.76c13.18-4.72,27.09-11.65,36.45-23.12a58.59,58.59,0,0,0,11.92-51.59c-4.43-17.17-16.07-29.78-29-40.13-11.22-9-24.09-15-36.71-21-15.59-7.57-31.4-14.65-47.42-21a728.89,728.89,0,0,0-90.88-30A799.32,799.32,0,0,0,426.79,103.2a894.83,894.83,0,0,0-199.33,21A962.57,962.57,0,0,0,131,150.34Q107.52,158,84.4,166.79C69.94,172.28,55.26,177.84,42,186.12S15.61,206.5,8.37,221.57A82.32,82.32,0,0,0,1.3,272.35c3.45,17.48,14.44,32.17,29.64,39.59A197.89,197.89,0,0,0,80.24,327a315.73,315.73,0,0,0,52.3,5.73c11.58-.11,20.93-10.12,21-22.51-.24-12.32-9.52-22.25-21-22.51-7.82-.18-15.64-.63-23.44-1.47-1.93-.21-3.9-.42-5.83-.69-1,0-2-.33-2.81-.36.54,0,5,.78,1.24,0s-7.74-1.26-11.61-2c-7.71-1.5-15.37-3.36-22.94-5.52-3.65-1.05-7.29-2.16-10.91-3.36-1.43-.49-2.8-1-4.26-1.54-.87-.36-3.23-1.77-.45,0s-.28,0-1-.54a48.44,48.44,0,0,1-4.43-2.7c-2.11-1.35.22-1.14,1.2,1.11-.19-.48-1.4-1.32-1.71-1.65s-3.42-4.26-1-.9S44,266.92,43.5,266a10.63,10.63,0,0,1-.9-1.86c0-.18,2,6,.95,2.46-.39-1.35-.84-2.67-1.14-4.05s-.93-5.67-.4-1.23,0-1.32,0-2.43c-.07-1.48-.07-3,0-4.45a12.36,12.36,0,0,0,.17-2.19c0,.15-1,6-.31,2.65A70.38,70.38,0,0,1,44,246.15a15.29,15.29,0,0,0,.72-2.1c0,.21-2.38,5.4-.89,2.28.64-1.35,1.23-2.67,1.9-4a35.19,35.19,0,0,1,1.94-3.3c.7-1.08,2-3-.17,0s0,0,.53-.63a76.76,76.76,0,0,1,6.37-6.88l2-1.89c-2.44,2.28-.42.39.31,0l2.46-1.8A118.14,118.14,0,0,1,76.32,218l2.24-1c-.28.15-4.88,2.13-1.62.75l3.73-2.16c3.28-1.36,6.59-2.65,9.92-3.94q11-4.23,22.13-8.25,44.42-16,90.07-27.76a933.38,933.38,0,0,1,91.9-18.82l5.07-.75-1.26.18,2.81-.39c4.09-.58,8.21-1.12,12.31-1.63,7.74-.93,15.48-1.8,23.25-2.55q23.24-2.19,46.63-3.18a805.91,805.91,0,0,1,90.89,1.38q22.42,1.62,44.87,4.53l5.6.75,2.81.4-2.1-.31c4,.7,7.9,1.21,11.86,1.84q11.22,1.8,22.26,4a742.38,742.38,0,0,1,87.72,22.42q21.63,6.93,42.82,15.25,10.6,4.14,21.09,8.64l9.82,4.29c3.39,1.5-.68-.3-1.13-.51.85.42,1.74.78,2.61,1.17l5.84,2.74a289.94,289.94,0,0,1,37,19.38c2.38,1.6,4.65,3.31,7,5.05,2.81,2.07-1.48-1.26-1.62-1.35a12.46,12.46,0,0,1,1.71,1.53c1.26,1.11,2.47,2.31,3.64,3.54a28.62,28.62,0,0,1,2.61,3c.84,1.11.93,1.17,1.38,1.74,2.18,2.58-1.38-1.71-1.35-1.92a21.52,21.52,0,0,0,2.27,3.69c.51.93,2.81,6,1.18,2.13s0,.36.25,1.35.31,1.39.48,2.08c1,3.57-.51-3-.28-2.8a17.91,17.91,0,0,1,0,4.39,13,13,0,0,0-.14,2.25c-.37-1,1.2-6,.14-2.16-.34,1.14-.65,2.34-1,3.51-.93,3.39.87-2.73,1-2.52a11.94,11.94,0,0,1-.87,1.8c-.26.48-1.55,3.33-2.05,3.42s3.79-4.68,1.51-2.16c-.56.6-1.06,1.26-1.62,1.86s-1.69,1.65-2.5,2.49c-2.35,2.37,2-1.62,2-1.56a6.93,6.93,0,0,1-1.62,1.23,57.6,57.6,0,0,1-7.46,4.68c-1.07.57-2.24,1.05-3.28,1.65,5.61-3.33,2-.9.17,0-2.81,1.11-5.61,2.1-8.42,3a403.16,403.16,0,0,1-42.06,9.48q-11.7,2.25-23.47,4.14c-3.9.66-7.83,1.26-11.75,1.86a13.34,13.34,0,0,0-2.81.42c.54,0,5-.69,1.15-.15l-5.89.81c-31.49,4.24-63.15,6.91-94.84,8.53-63.6,3.24-127.31,2.28-190.94,1.26-65.45-1-130.93-2.07-196.3-5.58q-24.54-1.29-49-3l-24.45-2c-3.45-.3-6.87-.6-10.32-1l-5.39-.66c-2.8-.33,4.38.72,1.55.24l-3.34-.57c-3.31-.6-6.62-1.35-9.9-2.25-1.74-.51-3.45-1-5.16-1.65l-1.91-.69-1.88-.75q-2.22-.94,1.91.9c0-.18-7.12-4-7.91-4.53s-5.16-3.93-2.1-1.44c2.58,2.07.87.72.34.21s-1.72-1.62-2.56-2.49-2.13-2.35-3.17-3.55c-2.38-2.76,2.81,4.48,0,.21A46.8,46.8,0,0,1,66,268l-.81-1.62c-2-3.81,1.54,5.1.31,1-.4-1.38-.84-2.7-1.15-4.08-.2-.78-.31-1.59-.51-2.37-.62-2.76.39,5.22.28,2.34v-4.65c0-2.1-.39,3-.45,3a20.49,20.49,0,0,0,.65-3.39c.25-1.08,1.82-5.38.34-1.71s.67-1.23,1.09-2,.78-1.3,1.18-2c1.29-2.31-3.09,3.82-1.38,1.83.84-1,1.74-1.89,2.55-2.85,2.22-2.64-1.85,1.38-1.85,1.38a7.56,7.56,0,0,1,1.68-1.3c.59-.39,1.2-.69,1.79-1.08,1.74-1.14,1.77.51-2.24,1a15.52,15.52,0,0,0,3.39-1c2.38-.87-5.1.3-2.55.45h2.58c11,.81,21.51-10.92,21-22.51-.27-12.31-9.53-22.22-21-22.51Z" transform="translate(0.51 0.49)"/>
    <path class="cls-1" d="M39.5,310.77c-9.38,69.23,9,139.44,50.44,193.42a209.36,209.36,0,0,0,76.69,62.4c35.11,16.6,72.58,24,110.41,29.45,40.38,5.67,81,9.66,121.62,12.54s80.94,5.42,121.28,4.09c38.93-1.26,77.74-7.66,113.24-25.49a251.34,251.34,0,0,0,79-64.41c49.13-59.1,75-135.37,87.66-212.33,1.63-9.84,3-19.72,4.29-29.62.87-7-1.57-15-8.83-16.63-5.92-1.44-14.55,1.95-15.51,9.45A631.25,631.25,0,0,1,755.18,388.9a374.61,374.61,0,0,1-20.61,51.45,337.31,337.31,0,0,1-26,44.72l-2.1,3c-.22.33-1.46,2-.17.24-1.2,1.65-2.41,3.27-3.64,4.9-2.81,3.54-5.44,7.05-8.42,10.44q-7.9,9.54-16.57,18.28c-2.66,2.67-5.38,5.31-8.16,7.86-1.46,1.35-2.8,2.68-4.4,4l-2.81,2.34c-.39.33-3,2.55-1.06.93a217.72,217.72,0,0,1-19.83,14.62,210.51,210.51,0,0,1-20.08,11.7c-1.74.87-3.45,1.71-5.21,2.52-.23,0-3.73,1.71-1.18.57l-2.13.93c-4.35,1.89-8.81,3.61-13.27,5.14a238,238,0,0,1-52.49,11.37c-38.31,4-77.18,1.8-115.54-.27q-60.57-3.27-120.92-10.32c-9.54-1.11-19-2.28-28.55-3.58l-6.48-.9c-2.46-.33,3,.45-1.17-.15l-3.26-.51c-4.51-.69-9.06-1.41-13.57-2.19a378.64,378.64,0,0,1-52.19-12.54,198.17,198.17,0,0,1-65.76-34.76c-2.8-2.28,2,1.71-.81-.69l-1.68-1.41-3.85-3.6q-4.46-4.07-8.72-8.44a218.81,218.81,0,0,1-15-17.2c-1-1.32-2.08-2.64-3.09-4-.22-.3-2.44-3.33-.67-.9l-1.32-1.83c-2.35-3.36-4.65-6.81-6.84-10.36A230.58,230.58,0,0,1,86,449.43c-1.62-3.24-3.14-6.54-4.62-9.84-.76-1.77-1.52-3.51-2.25-5.28L78,431.63c1.09,2.74-.17-.48-.39-1.05A250.43,250.43,0,0,1,65,384.33c-.34-1.89-.65-3.81-.93-5.73-.14-.87-.76-5.8-.39-2.73-.51-4.24-.93-8.47-1.21-12.73a236.42,236.42,0,0,1-.42-24.4q.21-5.81.7-11.62c.17-1.74.34-3.48.54-5.19,0-.75.39-3.39,0-.48.14-1.14.3-2.31.47-3.45,1-7-1.62-15-8.83-16.63-6-1.47-14.44,2-15.51,9.45Z" transform="translate(0.51 0.49)"/>
    <path class="cls-1" d="M183.05,567.82l-59.06,81a20.51,20.51,0,0,0-4.91,12.76A19,19,0,0,0,124,674.31c6.06,6,18,7.92,23.81,0l59-81a20.58,20.58,0,0,0,4.94-12.73,19,19,0,0,0-4.94-12.76c-6-6-18-7.92-23.78,0Z" transform="translate(0.51 0.49)"/>
    <path class="cls-1" d="M397.69,613.87l-5.61,75.64c-.7,9.39,8.25,18.39,16.83,18,9.2-.23,16.6-8.16,16.82-18l5.61-75.64c.7-9.43-8.22-18.43-16.82-18C405.32,596.1,397.94,604,397.69,613.87Z" transform="translate(0.51 0.49)"/>
    <path class="cls-1" d="M622.34,585a275.33,275.33,0,0,0,58.89,97.91,16.07,16.07,0,0,0,22.68,1.3c.39-.35.76-.72,1.12-1.11a18.93,18.93,0,0,0,.17-25.47l-.19-.2a241.78,241.78,0,0,1-16.82-19.63c-.85-1-4.69-6-1.8-2.31-1.26-1.62-2.38-3.39-3.53-5.07q-3.71-5.42-7.07-11-6.66-11-12.2-22.57c-1.79-3.81-3.5-7.63-5.13-11.53a31.47,31.47,0,0,0-1.43-3.51c1,1.68,1,2.49,0,.18s-1.63-4.35-2.38-6.54c-3.12-8.77-11.5-15.76-20.73-12.58-8,2.79-15.06,12.73-11.75,22.15Z" transform="translate(0.51 0.49)"/>
    <path class="cls-1" d="M603.61,110.78l-10.07,79.36,8.27,1.2a304.24,304.24,0,0,1,11.92-89.08l-8.27-1.2q-3.12,45.29-8.41,90.4c-.65,5.41,6.7,5.53,8.24,1.17a284.32,284.32,0,0,0,16.65-86.56,4.5,4.5,0,0,0-3.6-5.15,4.32,4.32,0,0,0-4.8,3.76s0,.07,0,.1h0l-18.06,83.59h8.1L576,95.92l-7.68,3.46a306.39,306.39,0,0,1,28.32,81.91l7.1-4.47a835.31,835.31,0,0,1-55.16-84.65l-6.65,5.44a82.61,82.61,0,0,1,16.83,22.33,117.24,117.24,0,0,1,9.36,28.24c4,17.44,10.46,38.3,28.72,43.4a4.22,4.22,0,0,0,5.08-3.13c0-.06,0-.13,0-.19a4.76,4.76,0,0,0-1-4.18,343.77,343.77,0,0,0-60.88-61.5l-3.22,8.22c32.16,14.11,57.4,41.89,69.68,76.69a4.23,4.23,0,0,0,5.13,3.06l.2-.06a4.38,4.38,0,0,0,2.36-1.94c9-18,17.92-36.23,27.31-54A300.79,300.79,0,0,1,672,106.17l-6.62-5.46A372,372,0,0,0,613.84,205c-1.59,5.07,5.14,7.5,7.69,3.48a507.08,507.08,0,0,1,81.77-99c3.67-3.45-1-9.48-5.1-7-36.91,21.85-75.3,48-89.88,92.72-1.82,5.61,6.08,7.56,8.1,2.4L668.7,64.8l-8.14-2.37L628.09,170.27c-1.65,5.53,6.45,7.9,8.13,2.4L668.81,64.8c1.71-5.67-6.09-7.53-8.13-2.37L608.43,195.06l8.11,2.41c13.79-42.36,51.29-66.76,86-87.35l-5.1-7.12a514.87,514.87,0,0,0-83.06,100.79l7.68,3.48a363.93,363.93,0,0,1,50.76-102c2.8-4-3.54-9.34-6.62-5.46-24.79,30.91-41.22,68.64-59.11,104.27l7.68,1.08c-13.21-37.77-40.63-67.88-75.58-83-4.76-2-6.75,5.46-3.22,8.22a337.07,337.07,0,0,1,59.17,60l4.09-7.62c-17.8-5-20.72-29.06-24.7-45a95.17,95.17,0,0,0-26.59-46.67,4.33,4.33,0,0,0-6.59,5.47,860.75,860.75,0,0,0,56.45,86.71c2.8,3.84,7.82-.42,7-4.38a315,315,0,0,0-29.13-84,4.08,4.08,0,0,0-5.56-1.54l-.3.19A4.71,4.71,0,0,0,568,98.38l27.51,92.44a4.19,4.19,0,0,0,5.09,3.05l.2-.05a4.37,4.37,0,0,0,2.82-3l18.06-83.59-8.27-1.2a277.1,277.1,0,0,1-16.3,84l8.28,1.2q5.37-45,8.41-90.4c.36-5.23-6.9-6-8.25-1.2a311.68,311.68,0,0,0-12.22,91.48c0,4.87,7.6,6.4,8.24,1.2L611.62,113a4.73,4.73,0,0,0-3-5.55,4.25,4.25,0,0,0-5,3.31Z" transform="translate(0.51 0.49)"/>
  </g>
  <g id="Camada_3" data-name="Camada 3">
    <path class="cls-1" d="M307.94,285c5.59-6.25,6-15.19,2.14-22.47s-12.44-11.32-20.61-10.7a27.77,27.77,0,0,0-12.53,3.87,32.55,32.55,0,0,0-9.36,9.05c-5.05,7.09-7,15.85-7.74,24.38-.76,9.14-.24,18.41-.13,27.57l.35,28.08.33,27.84c.06,4.47.17,8.94,0,13.41-.07,2.27-.2,4.54-.46,6.8a2.35,2.35,0,0,1-.08.7s.17-1.15.06-.43c-.09.54-.16,1.08-.26,1.62-.2,1.15-.44,2.3-.72,3.44a48.11,48.11,0,0,1-1.69,5.22c-.24.62.24-.56.23-.55-.13.21-.21.48-.32.7s-.32.7-.5,1c-.43.86-.89,1.69-1.4,2.51s-1,1.48-1.49,2.21c-.38.53.37-.47.36-.46a3.83,3.83,0,0,0-.36.44c-.33.38-.66.76-1,1.13-.6.64-1.23,1.26-1.89,1.84-.36.3-1.47,1-.11.13-.37.23-.71.52-1.07.76a21,21,0,0,1-2.25,1.31c-.44.22-1.61.55,0,0-.44.14-.86.33-1.3.47a18.19,18.19,0,0,1-2.17.56l-.51.1c-1,.2.48-.06.57-.06-.46,0-.92.09-1.38.12a16.74,16.74,0,0,1-2.24,0c-.4,0-.8-.09-1.19-.11-.07,0,1.39.24.75.09l-.84-.16a15.52,15.52,0,0,1-2.12-.6c-1.34-.47.94.49,0,0-.4-.2-.8-.39-1.19-.61s-.67-.4-1-.62c-1.08-.73.75.68,0,0a18.91,18.91,0,0,1-1.68-1.67c-2.06-2.38-6.4-2.28-8.48,0a6.13,6.13,0,0,0,0,8.48c5.34,6.16,13.85,8,21.61,6.71,8-1.28,14.57-6.85,18.87-13.45,4.68-7.19,6.45-15.78,7-24.22.6-8.84.13-17.78,0-26.63q-.34-27.46-.67-54.93c-.06-4.45-.16-8.91-.05-13.36.05-2.16.16-4.32.36-6.47.06-.55.13-1.11.18-1.66.08-.71,0,.36,0,.41a6.22,6.22,0,0,1,.14-1c.17-1.1.38-2.2.63-3.29a42.26,42.26,0,0,1,1.5-5.16,11.7,11.7,0,0,0,.5-1.28s-.5,1.13-.22.52c.11-.23.21-.47.32-.71.38-.83.8-1.65,1.25-2.44s.85-1.46,1.33-2.16c.25-.38.52-.74.78-1.11.37-.54-.35.45-.35.45a5.58,5.58,0,0,0,.49-.6,25,25,0,0,1,1.85-2l.85-.79.59-.5c.6-.52,0,.09-.29.22.71-.35,1.36-1,2.06-1.37l1.17-.63.52-.25c.66-.35-1.42.53-.21.08.77-.28,1.55-.55,2.35-.76.43-.11.86-.21,1.3-.3l.56-.1c.77-.18-1.26.12-.47,0s1.62-.13,2.44-.13a9.58,9.58,0,0,1,1.31.06h.56c-.48,0-1.29-.2-.31,0a19.12,19.12,0,0,1,2.34.6l.53.19c.74.23-1.11-.53-.41-.18.39.19.78.37,1.16.58s.76.45,1.12.69c1.09.74-.72-.69-.05,0s1.06,1,1.56,1.59c.68.75-.7-1.06-.17-.2.2.32.42.62.61.95s.36.65.53,1c.07.14.12.29.2.43.33.62-.41-1.22-.24-.54s.48,1.41.64,2.14c.06.26.22,1.4.09.3s0,.34,0,.63a17,17,0,0,0-.05,2c0-.06.29-1.6.09-.67a.85.85,0,0,1-.09.46c-.07.35-.16.7-.26,1.05s-.56,1.47-.13.44-.09.15-.24.4l-.49.79c-.46.79.3-.39.38-.45a3.14,3.14,0,0,0-.42.48c-2.09,2.33-2.48,6.21,0,8.48,2.29,2.1,6.25,2.5,8.49,0Z" transform="translate(0.51 0.49)"/>
    <path class="cls-1" d="M153.22,241.88q-2.68-5.2-5.12-10.55c-.38-.84-.76-1.69-1.13-2.53l-.6-1.37c-.08-.2-.17-.39-.25-.59s-.56-1.32-.2-.46-.19-.46-.27-.66l-.57-1.38c-.38-.92-.75-1.85-1.11-2.77q-4.29-10.92-7.47-22.22t-5.28-22.85c-.35-2-.69-3.92-1-5.89-.14-.91-.28-1.83-.41-2.74l-.21-1.48c0-.17-.12-.91,0,0s0-.08,0-.26q-.75-5.82-1.23-11.67a244.48,244.48,0,0,1,.71-46.85c.11-1,.23-2,.35-3,.06-.43.11-.85.17-1.27s.18-1.17,0,.32l.12-.84q.39-2.85.86-5.69.94-5.79,2.18-11.52a229.48,229.48,0,0,1,6-22.61c1.11-3.43,2.29-6.84,3.65-10.18l.21-.51c.25-.62-.26.61-.25.58.18-.4.34-.8.52-1.2.35-.79.71-1.58,1.08-2.36.72-1.5,1.49-3,2.31-4.42S148,42,149,40.57c.24-.34.48-.69.73-1s.88-1.17.29-.4.28-.33.43-.51c.3-.37.61-.73.92-1.09a38.39,38.39,0,0,1,3.38-3.37l.94-.79c.82-.7-1,.7-.1.07.72-.51,1.43-1,2.18-1.48s1.33-.78,2-1.13l1-.47a5.37,5.37,0,0,0,.65-.29c-.07,0-1.38.57-.43.19a6.61,6.61,0,0,0,3.58-2.76,6.07,6.07,0,0,0,.61-4.62c-.91-2.81-4.26-5.44-7.38-4.2a39.78,39.78,0,0,0-10.56,6.2,45.52,45.52,0,0,0-7.63,8.3c-4.36,5.89-7.39,12.7-9.94,19.54a221.66,221.66,0,0,0-11.42,45.88,249.72,249.72,0,0,0,5,97.8,243,243,0,0,0,16.92,46.24q1.31,2.69,2.67,5.34a6.05,6.05,0,0,0,8.21,2.15,6.13,6.13,0,0,0,2.15-8.21Z" transform="translate(0.51 0.49)"/>
    <path class="cls-1" d="M584.14,292.41a32.49,32.49,0,0,1-.19-4.3,13.33,13.33,0,0,1,.08-1.78c0-.35.07-.7.1-1.06.09-1.09-.25,1.53,0-.17a35.47,35.47,0,0,1,.84-3.81c.37-1.34,1.11-2.69,1.38-4-.29,1.46-.28.64,0,.12l.46-1c.28-.59.58-1.17.9-1.75a40.61,40.61,0,0,1,2.38-3.82c.27-.39,1.6-1.81.35-.53.5-.51.91-1.13,1.38-1.67a38.66,38.66,0,0,1,3-3.14c.52-.5,1.06-1,1.62-1.46.36-.3,2-1.35.48-.43,1.28-.77,2.45-1.77,3.74-2.55a39.3,39.3,0,0,1,3.66-2l1-.46c.5-.22.63,0-.43.19a18.22,18.22,0,0,0,2.37-.88,42.78,42.78,0,0,1,4.13-1.13c.76-.17,1.53-.32,2.3-.45a5.71,5.71,0,0,0,1.16-.18l-.82.11.77-.08a47.12,47.12,0,0,1,9.35-.05l1.16.12c.51.05.72.33-.43-.07a18.1,18.1,0,0,0,2.32.38c1.55.28,3.09.64,4.6,1.06s2.77.83,4.13,1.32c.44.16,2,.47,2.21.86l-.7-.3.73.31,1.43.67a58.07,58.07,0,0,1,7.87,4.55c.65.45,1.29.92,1.93,1.39.87.64-.2-.2-.28-.22.26.07.71.57.92.74q1.86,1.53,3.58,3.19c1.15,1.12,2.26,2.27,3.33,3.47.44.5.88,1,1.31,1.51l.76.93c.17.2.34.41.5.62.4.51.34.42-.2-.26a18.83,18.83,0,0,1,2.56,3.58c.9,1.34,1.74,2.7,2.55,4.09s1.5,2.69,2.2,4.07c.33.66.65,1.32,1,2a13.54,13.54,0,0,1,1.15,2.58c-.23-1.15-.31-.75-.13-.32l.45,1.13c.3.75.59,1.5.86,2.26q.84,2.28,1.54,4.61,1.38,4.55,2.31,9.21c.34,1.69.63,3.4.88,5.11,0,.26.31,1.88,0,.32.06.31.09.64.12.95q.21,1.68.36,3.36a145.28,145.28,0,0,1,.2,22.66c-.23,3.7-.58,7.4-1,11.09-.11,1-.23,1.92-.35,2.88,0,.26-.24,1.89,0,.33a7.73,7.73,0,0,1-.14,1c-.28,2.08-.6,4.16-.93,6.23-1.17,7.39-2.56,14.74-3.93,22.09s-2.8,15-3.94,22.57c-.92,6.15-1.9,12.36-1.3,18.59s2.28,12.27,6.63,16.88c4.92,5.22,12.48,6.88,19.3,5.05,14.43-3.89,20.67-19.7,22.68-33.14.64-4.26.86-8.76-.75-12.85a18,18,0,0,0-7.29-9,12.84,12.84,0,0,0-19.21,7,10.57,10.57,0,0,0-.57,4.39,11.76,11.76,0,0,0,2.78,6.55,6,6,0,0,0,10.25-4.24,7,7,0,0,0-1.76-4.24c1.19,1.51.56.55.31.24l.4.91a3.58,3.58,0,0,1-.14-.54c.44,1,.17,1.38.12.48,0-.54.39-.61-.12.75.09-.25.14-.57.21-.84.26-1.07-.73,1.31-.15.35a5.14,5.14,0,0,0,.38-.64c.25-.38.09-.18-.5.61.12-.16.26-.31.39-.46s.48-.39.66-.62c-.83,1.05-.93.61-.36.33a5.13,5.13,0,0,0,.66-.34c-1.09.75-1,.44-.31.22,1.08-.34-1.62,0-.35.07a4.09,4.09,0,0,0,.7,0l-.91-.13a2.77,2.77,0,0,1,.68.15,6.18,6.18,0,0,1,.65.21c-.89-.4-1-.46-.48-.19.25.15.51.28.76.44.77.49.06.43-.21-.22a8.41,8.41,0,0,0,1.52,1.52c-.48-.12-.69-1-.29-.34.19.31.4.6.58.92a4.64,4.64,0,0,0,.49,1c-.36-.88-.43-1-.21-.43.06.17.12.34.17.51q.15.54.27,1.08l.09.45c.11.69.1.61,0-.22a6.46,6.46,0,0,1,.08,2.32,8.11,8.11,0,0,1-.08,1.39c0,.29-.1,1.87,0,.27a19,19,0,0,1-.51,2.79,76.34,76.34,0,0,1-2.62,9.5c-.23.65-.49,1.3-.74,1.95-.52,1.34.58-1.21,0,.09-.18.37-.35.75-.53,1.12A32.73,32.73,0,0,1,694,432c-.32.44-.39,1.05.07-.07a4.53,4.53,0,0,1-.8.95A18.86,18.86,0,0,1,692,434.2c-.27.26-.56.5-.84.74-1,.88,1.13-.75,0,0-.63.41-1.24.83-1.9,1.2-.33.18-.67.34-1,.51-1.17.63,1.31-.44.06,0-.58.2-1.16.41-1.75.57-.36.1-.72.18-1.08.26-.16,0-1.37.27-.28.06s-.09,0-.29,0a11.53,11.53,0,0,1-1.44,0h-.36c-.65-.06-.48,0,.52.1a3.42,3.42,0,0,0-.71-.13,8.48,8.48,0,0,1-1-.28c-.56-.17-1.15-.7.06.1-.42-.28-1-.46-1.39-.73-.27-.15-.52-.33-.78-.49-.86-.55,1.19,1,0,0a12.4,12.4,0,0,1-1-1.05c-.2-.22-.38-.47-.58-.68,1.08,1.15.64.86.41.5s-.66-1-.95-1.54c-.14-.27-.28-.54-.41-.81-.22-.47-.35-1.36.11.3-.31-1.12-.76-2.18-1-3.32-.15-.63-.28-1.27-.38-1.92a3.65,3.65,0,0,0-.1-.65c.42,1.95.06.44,0-.06a47.87,47.87,0,0,1-.06-7.76c.08-1.15.21-2.3.34-3.44,0-.32.14-1.14,0,.14.07-.48.14-1,.2-1.44.14-1,.28-1.93.43-2.9.55-3.7,1.17-7.38,1.82-11.06,1.27-7.21,2.67-14.39,4-21.58,5.14-28.24,9.15-58.44-.93-86.11-4.4-12.08-11.15-23.47-20.72-32.18a63.25,63.25,0,0,0-35.08-16.11c-12.17-1.47-25,1.46-34.83,8.92C581,261,574,272,572.44,284.69a34.35,34.35,0,0,0-.07,7.85,6.55,6.55,0,0,0,1.76,4.25,6.11,6.11,0,0,0,4.24,1.75c3-.13,6.36-2.65,6-6Z" transform="translate(0.51 0.49)"/>
    <path class="cls-1" d="M261.32,407.56a57.19,57.19,0,0,0,9.73,14.18,6,6,0,0,0,8.48,0,6.11,6.11,0,0,0,0-8.48c-1.08-1.17-2.11-2.38-3.09-3.65l.94,1.21a52.27,52.27,0,0,1-5.7-9.32,6,6,0,0,0-11,1.43h0l-.21,1.59a6,6,0,0,0,.82,3Z" transform="translate(0.51 0.49)"/>
    <path class="cls-1" d="M266.46,376.43a54.22,54.22,0,0,0,20,21.8,6,6,0,0,0,8.2-2.16,6.11,6.11,0,0,0-2.15-8.21c-.94-.58-1.86-1.19-2.76-1.84l-.63-.46c-.19-.15-1-.75-.15-.11s0,0-.14-.12l-.73-.6a48.19,48.19,0,0,1-4.65-4.5c-.71-.78-1.38-1.59-2-2.41-.46-.56.87,1.15.26.34-.19-.25-.38-.5-.56-.76l-.91-1.29a48.88,48.88,0,0,1-3.32-5.74c-1.39-2.82-5.62-3.82-8.21-2.15a6.15,6.15,0,0,0-2.15,8.21Z" transform="translate(0.51 0.49)"/>
    <path class="cls-1" d="M260.94,341.38a88.59,88.59,0,0,0,17.24,20.19,6.4,6.4,0,0,0,4.24,1.76,6.2,6.2,0,0,0,4.25-1.76c2.06-2.25,2.54-6.3,0-8.49a82.52,82.52,0,0,1-11.59-12.19l.94,1.21c-1.68-2.18-3.26-4.45-4.72-6.78-1.66-2.66-5.43-3.95-8.21-2.15A6.1,6.1,0,0,0,260.94,341.38Z" transform="translate(0.51 0.49)"/>
    <path class="cls-1" d="M260.08,307.84a59.45,59.45,0,0,0,23.95,27,6,6,0,0,0,6.28-10.23l-.23-.13c-1.17-.71-2.32-1.44-3.44-2.23l-.79-.57-.47-.35c-.36-.27-.21-.15.44.34a6.63,6.63,0,0,1-1.52-1.22,53.74,53.74,0,0,1-5.85-5.74c-.43-.48-.85-1-1.27-1.49l-.61-.76c-.46-.58.76,1,.11.13-.81-1.1-1.59-2.22-2.32-3.38a53,53,0,0,1-3.92-7.41,6,6,0,0,0-11,1.43h0a7,7,0,0,0,.6,4.62Z" transform="translate(0.51 0.49)"/>
    <path class="cls-1" d="M256.69,388.64a38.86,38.86,0,0,1-9,2.41l1.59-.21a38.92,38.92,0,0,1-10,0l1.6.22-.71-.1a6.59,6.59,0,0,0-4.63.6,6,6,0,0,0-2.15,8.21h0a5.83,5.83,0,0,0,3.59,2.76,43.77,43.77,0,0,0,22.91-2.35,6.61,6.61,0,0,0,3.58-2.76,6,6,0,0,0-2.15-8.21h0a5.85,5.85,0,0,0-4.62-.6Z" transform="translate(0.51 0.49)"/>
    <path class="cls-1" d="M257.59,363.63a14.13,14.13,0,0,1-1.49,2.4l.94-1.22a15.23,15.23,0,0,1-2.6,2.6l1.21-.94a16.37,16.37,0,0,1-3.37,2l1.43-.61a15.27,15.27,0,0,1-3.75,1.05l1.6-.21a14.17,14.17,0,0,1-3.68,0l1.6.21a1.12,1.12,0,0,1-.44-.06,6.51,6.51,0,0,0-4.62.61,6.15,6.15,0,0,0-2.76,3.58,6.07,6.07,0,0,0,.61,4.62,5.79,5.79,0,0,0,3.58,2.76,25.13,25.13,0,0,0,3.87.39,24.85,24.85,0,0,0,3.75-.4,20.61,20.61,0,0,0,5.85-2.07,20,20,0,0,0,8.63-8.66,6.4,6.4,0,0,0,.6-4.62,6.1,6.1,0,0,0-2.76-3.59,6,6,0,0,0-4.62-.6,5.93,5.93,0,0,0-3.58,2.75Z" transform="translate(0.51 0.49)"/>
    <path class="cls-1" d="M261.6,330.93a52.38,52.38,0,0,1-4,3.43l1.21-.94a52.23,52.23,0,0,1-11.6,6.77l1.44-.6-1.64.65a6.55,6.55,0,0,0-3.57,2.76,6,6,0,0,0,2.15,8.21h0a5.85,5.85,0,0,0,4.62.6,59.46,59.46,0,0,0,19.88-12.4,6.05,6.05,0,0,0,0-8.48A6.12,6.12,0,0,0,261.6,330.93Z" transform="translate(0.51 0.49)"/>
    <path class="cls-1" d="M258.09,302.57c-.2.64-.43,1.27-.68,1.89L258,303a20.87,20.87,0,0,1-2.68,4.53l.94-1.22a22.69,22.69,0,0,1-3.73,3.73l1.21-.94a22.51,22.51,0,0,1-4.75,2.81l1.43-.61a20.33,20.33,0,0,1-5.07,1.41l1.59-.21-.5.06a6.5,6.5,0,0,0-4.24,1.76,6,6,0,0,0,0,8.48,5.74,5.74,0,0,0,4.24,1.76,29.12,29.12,0,0,0,8.6-2.29,27.44,27.44,0,0,0,6.37-4.06,26.38,26.38,0,0,0,8.25-12.48,6.05,6.05,0,0,0-4.2-7.38,6.12,6.12,0,0,0-7.38,4.19Z" transform="translate(0.51 0.49)"/>
    <path class="cls-1" d="M263.79,276.68c-1.09.5-2.19,1.1-3.32,1.5,1.52-.54-.39.15-.68.26l-1.27.47a32.65,32.65,0,0,1-3.47,1,6.32,6.32,0,0,1-1.77.35c.82-.1.93-.12.32-.05l-.57.05a22.74,22.74,0,0,1-2.86,0c-.66-.07-.51,0,.46.08l-.75-.13c-.43-.09-.86-.2-1.29-.32-.23-.07-1-.49-1.24-.43.85.37,1,.42.4.15-.22-.11-.44-.22-.66-.35l-.63-.39c-.52-.36-.42-.27.31.28,0-.17-1-.86-1.1-1a6,6,0,0,0-8.49,8.48,20.37,20.37,0,0,0,15.47,5.69c6.15-.3,11.68-2.75,17.19-5.27,2.87-1.32,3.79-5.68,2.16-8.21C270.09,275.84,266.85,275.28,263.79,276.68Z" transform="translate(0.51 0.49)"/>
    <path class="cls-1" d="M272.73,261.35A14.25,14.25,0,0,1,270,262l1.6-.21a14.52,14.52,0,0,1-3.36,0l1.6.22a14,14,0,0,1-3.24-.87l1.43.6a13.57,13.57,0,0,1-2.9-1.69l1.21.93a14.08,14.08,0,0,1-2.31-2.32l.93,1.21A14.88,14.88,0,0,1,263.3,257l.61,1.43c-.16-.39-.31-.78-.44-1.19a6.29,6.29,0,0,0-2.76-3.58,6.16,6.16,0,0,0-4.62-.61c-3,1-5.22,4.19-4.19,7.39a19.23,19.23,0,0,0,8.86,11,19,19,0,0,0,15.18,1.45,6.37,6.37,0,0,0,3.58-2.76,6.07,6.07,0,0,0,.61-4.62c-.95-2.93-4.21-5.3-7.38-4.19Z" transform="translate(0.51 0.49)"/>
    <path class="cls-1" d="M286.8,251.64l-.14.07,1.43-.61a6.69,6.69,0,0,1-1.75.48l1.6-.22a6.86,6.86,0,0,1-1.81,0l1.59.21a7.73,7.73,0,0,1-2-.56l1.44.61a7.44,7.44,0,0,1-1.56-.92l1.21.94a7.26,7.26,0,0,1-1.17-1.18l.94,1.21a7.86,7.86,0,0,1-.79-1.34l.61,1.43a7.09,7.09,0,0,1-.5-1.8l.21,1.59a8.36,8.36,0,0,1,0-2l-.21,1.6a8.28,8.28,0,0,1,.48-1.82l-.6,1.44a7,7,0,0,1,.84-1.49l-.93,1.21c.12-.16.26-.32.4-.48a6.33,6.33,0,0,0,1.75-4.24,6,6,0,0,0-6-6h0a6,6,0,0,0-4.24,1.76,12.57,12.57,0,0,0-2,2.75,12.9,12.9,0,0,0-1.22,3.29,14.44,14.44,0,0,0-.33,3.47,13.76,13.76,0,0,0,.58,3.43,12.09,12.09,0,0,0,3.7,5.68,13,13,0,0,0,6,3,13.21,13.21,0,0,0,3.71.25,11.56,11.56,0,0,0,4.91-1.35,6,6,0,0,0-1.43-11h0l-1.59-.21a6,6,0,0,0-3,.81Z" transform="translate(0.51 0.49)"/>
    <path class="cls-1" d="M265.05,285.75a21,21,0,0,0,2.29,7.77,17.61,17.61,0,0,0,4.22,5.25,20.56,20.56,0,0,0,7.12,3.93,17.69,17.69,0,0,0,7.12.72,6.6,6.6,0,0,0,4.25-1.76,6,6,0,0,0,0-8.48,5.76,5.76,0,0,0-4.25-1.76,13.73,13.73,0,0,1-3.39,0l1.59.21a14.29,14.29,0,0,1-3.5-1l1.43.61a14.23,14.23,0,0,1-2.72-1.59l1.21.94a14,14,0,0,1-2.46-2.47l.93,1.21a14,14,0,0,1-1.73-3l.6,1.43a14,14,0,0,1-.9-3.35l.22,1.59v-.23a6.5,6.5,0,0,0-1.76-4.24,6,6,0,0,0-8.48,0,5.74,5.74,0,0,0-1.76,4.24Z" transform="translate(0.51 0.49)"/>
    <path class="cls-1" d="M139.94,225.55a46.65,46.65,0,0,0-30-13.44,6,6,0,0,0-6,6,6.14,6.14,0,0,0,6,6,14.75,14.75,0,0,1,1.62.14c.11,0,1.45.17.42,0s0,0,.21,0c1.14.18,2.27.42,3.38.7s2.23.62,3.32,1c.51.17,1,.36,1.53.56l.22.09c-.91-.38.32.15.4.18a41,41,0,0,1,5.85,3.3,9.87,9.87,0,0,0,1.49,1.07c-.29-.12-.87-.69-.25-.19l.63.51c.94.79,1.83,1.62,2.7,2.48a6,6,0,0,0,8.78-8.18l-.3-.3Z" transform="translate(0.51 0.49)"/>
    <path class="cls-1" d="M132.41,196.63a44.31,44.31,0,0,0-25.28-17.22c-3-.73-6.65,1-7.38,4.19a6,6,0,0,0,4.19,7.38c1,.25,2.09.54,3.12.88.48.16,1,.34,1.44.52l.8.31c.71.27-1.18-.53-.49-.21a42.32,42.32,0,0,1,5.69,3.1c.43.28.85.57,1.27.87l.55.4c1,.72-.82-.67-.27-.2.83.69,1.66,1.38,2.44,2.12s1.46,1.44,2.14,2.21c.38.42.75.86,1.11,1.3l.42.53c-1.14-1.37-.34-.43-.11-.12a6.45,6.45,0,0,0,3.58,2.76,6.16,6.16,0,0,0,4.62-.61c2.51-1.61,4.14-5.5,2.16-8.21Z" transform="translate(0.51 0.49)"/>
    <path class="cls-1" d="M128.94,169.84A52.44,52.44,0,0,0,96.1,146.91c-3.06-.64-6.63.9-7.38,4.2-.68,3,.91,6.68,4.19,7.38,1.44.3,2.87.66,4.27,1.1.68.21,1.34.44,2,.68l1.08.41c.36.14,1.46.75,0,0A70.59,70.59,0,0,1,108,165c.59.4,1.15.82,1.72,1.23.36.27.21.15-.45-.35l.45.35.74.61a45.67,45.67,0,0,1,3.38,3.14,39.64,39.64,0,0,1,2.8,3.15c.26.32.84,1.34,0,0,.19.32.46.62.68.93.44.62.87,1.26,1.29,1.91,1.69,2.63,5.4,4,8.21,2.15,2.63-1.7,4-5.39,2.15-8.21Z" transform="translate(0.51 0.49)"/>
    <path class="cls-1" d="M124.45,139.39A44.34,44.34,0,0,0,104.25,112a6,6,0,0,0-6.06,10.36h0c1,.63,2,1.32,3,2s-.76-.63-.19-.16l.71.58c.46.39.92.79,1.37,1.2.9.83,1.75,1.69,2.57,2.6.41.45.8.92,1.19,1.39.13.17.82,1,.21.25s.11.18.19.28a38.28,38.28,0,0,1,3.7,6.1c.13.28.25.56.38.83.53,1.16-.37-1-.11-.25s.44,1.14.64,1.71c.42,1.21.77,2.44,1.07,3.69a6,6,0,0,0,7.38,4.19h0a6.14,6.14,0,0,0,4.19-7.38Z" transform="translate(0.51 0.49)"/>
    <path class="cls-1" d="M124.48,107.73a55.42,55.42,0,0,0-13.54-27.67,6,6,0,0,0-8.49,0h0a6.13,6.13,0,0,0,0,8.48,24.66,24.66,0,0,0,2.14,2.53c-.26-.22-.64-.85-.18-.23l.61.84c.32.45.63.9.94,1.36a49,49,0,0,1,3.33,6c.24.5.47,1,.7,1.51.32.72,0,0-.12-.29a5.63,5.63,0,0,0,.31.77c.4,1,.77,2.07,1.1,3.12a50,50,0,0,1,1.63,6.84c.52,3.1,4.52,5.12,7.38,4.19,3.36-1.09,4.75-4.06,4.19-7.38Z" transform="translate(0.51 0.49)"/>
    <path class="cls-1" d="M133.61,71.53a47.91,47.91,0,0,0-8.67-20.16,6.52,6.52,0,0,0-3.58-2.76,6.09,6.09,0,0,0-4.63.61A6,6,0,0,0,114,52.8a5.85,5.85,0,0,0,.6,4.62,45.26,45.26,0,0,1,5.26,9.19l-.61-1.44A44.11,44.11,0,0,1,122,74.72a6,6,0,0,0,2.76,3.58,6.18,6.18,0,0,0,4.63.61A6,6,0,0,0,133,76.15a6.79,6.79,0,0,0,.61-4.62Z" transform="translate(0.51 0.49)"/>
    <path class="cls-1" d="M145,41.4c3-10-1.73-21.43-11.23-25.94a6.43,6.43,0,0,0-4.63-.61,6.08,6.08,0,0,0-3.58,2.76c-1.41,2.67-.88,6.77,2.15,8.21a16.66,16.66,0,0,1,3,1.82l-1.22-.93a16.87,16.87,0,0,1,2.9,2.89l-.94-1.21A16.25,16.25,0,0,1,133.56,32l-.62-1.47A16.91,16.91,0,0,1,134,34.41l-.21-1.59a17.67,17.67,0,0,1,0,4.36l.22-1.6a18.15,18.15,0,0,1-.58,2.63A6,6,0,1,0,145,41.4Z" transform="translate(0.51 0.49)"/>
    <path class="cls-1" d="M142.24,61.81a50.58,50.58,0,0,1,5.1-5.25c.47-.42.94-.83,1.43-1.23l.65-.53c1.08-.87-.72.52-.06.05,1-.73,2-1.47,3.1-2.14s2-1.24,3.07-1.81a15,15,0,0,1,3.41-1.67c-.36.08-1,.36-.23.11l1-.34c.32-.1.56-.12.83-.2.71-.21-1,0-.34.06a3.54,3.54,0,0,0,.92,0c-.1.07-1.42-.19-.51,0s-.8-.48-.26-.12-1.11-1-.21-.16c2.27,2.17,6.26,2.42,8.48,0a6.1,6.1,0,0,0,0-8.49,12.36,12.36,0,0,0-11.9-2.72,36.48,36.48,0,0,0-8.9,4.1,55.2,55.2,0,0,0-14.07,11.85c-2,2.4-2.53,6.17,0,8.49,2.22,2,6.32,2.56,8.48,0Z" transform="translate(0.51 0.49)"/>
    <path class="cls-1" d="M129.52,95.08c.21-.31.43-.61.65-.92.78-1.09-.87,1,0,0,.44-.53.88-1.06,1.35-1.57a36.84,36.84,0,0,1,3.12-3,8.64,8.64,0,0,0,.88-.72l-.62.48c.2-.16.4-.31.61-.45.55-.41,1.13-.8,1.71-1.18A39,39,0,0,1,141,85.59l1-.48c1-.47-.92.36-.22.09s1.29-.51,1.95-.73a34.69,34.69,0,0,1,4.36-1.19q.47-.11.93-.18c.23,0,1.57-.17.51-.1s.09,0,.32,0l1.13-.1a34.09,34.09,0,0,1,4.52,0,6,6,0,0,0,6-6,6.14,6.14,0,0,0-6-6c-14.31-.9-28.25,6.43-36.35,18.1-1.79,2.59-.56,6.77,2.16,8.21a6.16,6.16,0,0,0,8.21-2.16Z" transform="translate(0.51 0.49)"/>
    <path class="cls-1" d="M129.11,126.54A23.69,23.69,0,0,1,130,123c.14-.33.27-.66.38-1-.1.47-.5,1.13-.1.26.25-.55.53-1.1.82-1.63a17.51,17.51,0,0,1,1-1.55c.17-.26.35-.5.52-.75.7-1-.65.74-.16.2a28.79,28.79,0,0,1,2.65-2.76l.71-.59c.58-.5-1.22.82-.12.11.54-.36,1.08-.73,1.64-1.06s1.14-.63,1.73-.91c.09,0,1.27-.59.35-.18s.18-.05.38-.12a34.39,34.39,0,0,1,4-1c.75-.17-1.56.14-.24,0l1-.08c.72,0,1.43-.06,2.15,0a6,6,0,0,0,0-12c-13.82-.32-26.65,9.75-29.08,23.48a6.51,6.51,0,0,0,.61,4.62,6.1,6.1,0,0,0,3.59,2.76c2.92.67,6.79-.89,7.38-4.19Z" transform="translate(0.51 0.49)"/>
    <path class="cls-1" d="M129.5,156.66a20.82,20.82,0,0,1,.12-3.7l-.21,1.59a20.45,20.45,0,0,1,.61-3q.21-.72.48-1.44c.35-.94-.12,0-.17.34a2.8,2.8,0,0,1,.28-.61,20.07,20.07,0,0,1,1.52-2.62c.09-.13.78-1,.13-.21s.07-.07.17-.18c.32-.38.66-.74,1-1.09s.71-.68,1.09-1c.13-.11.34-.36.5-.41-.32.11-1.11.82-.29.24a20.49,20.49,0,0,1,2.55-1.53l.59-.28c1-.46-.22-.06-.37.15.19-.27,1.09-.4,1.4-.5a20.07,20.07,0,0,1,3-.69l-1.6.22,1-.11a6.5,6.5,0,0,0,4.24-1.76,6.16,6.16,0,0,0,1.76-4.24c-.14-3-2.66-6.33-6-6a25.59,25.59,0,0,0-23.85,26.81c.18,3.12,2.64,6.15,6,6,3.1-.14,6.19-2.65,6-6Z" transform="translate(0.51 0.49)"/>
    <path class="cls-1" d="M133.86,189.82a36,36,0,0,1-1.23-5.12c-.07-.47,0-.28.08.54a3.36,3.36,0,0,0-.06-.63q-.06-.63-.09-1.26v-2.53a6.62,6.62,0,0,1,.08-1.25c.15-1.6-.22,1,0-.28.17-.82.32-1.63.55-2.44a7.92,7.92,0,0,1,.81-2.37l-.28.66.36-.76.52-1c.37-.64.87-1.22,1.21-1.86-.65,1.23-.39.48,0,0,.24-.28.48-.55.74-.82.51-.54,1.06-1,1.61-1.52.92-.82-1,.67,0,0,.3-.2.6-.42.91-.62a17,17,0,0,1,1.91-1.08l.66-.31-.76.33a4.84,4.84,0,0,0,1-.37,22.67,22.67,0,0,1,2.3-.56c.59-.13-1.55.14-.15,0h1.28a6,6,0,0,0,0-12c-8.57,0-16.49,5.1-20.84,12.38-4.62,7.72-4.91,17.57-2.17,26,1,3,4.2,5.22,7.38,4.19,3-1,5.23-4.19,4.19-7.38Z" transform="translate(0.51 0.49)"/>
    <path class="cls-1" d="M146.5,217.6l-1.68-8c-.28-1.34-.57-2.67-.82-4a10.31,10.31,0,0,1-.32-1.83s.12,1.25,0,.22c0-.38-.07-.76-.09-1.14V201c0-.17.13-1.18,0-.34s0-.17.08-.33a6,6,0,0,1,.19-.73c.06-.22.39-1,0-.13s0-.06.14-.26l.36-.62c.15-.19.28-.39.41-.59-.12.24-.82.93-.26.4l.51-.5c.61-.61-.23.31-.4.29a3,3,0,0,0,.74-.45c.52-.37-1.12.34-.5.2a4,4,0,0,0,.66-.18c.62-.22-1.57.12-.39.07,3.13-.12,6.15-2.67,6-6-.14-3.14-2.64-6.13-6-6a13.05,13.05,0,0,0-9.34,4.34,17.27,17.27,0,0,0-4.17,10.37c-.28,3.44.5,6.94,1.19,10.29s1.4,6.66,2.09,10a6,6,0,0,0,7.38,4.19h0a6.15,6.15,0,0,0,4.19-7.38Z" transform="translate(0.51 0.49)"/>
    <path class="cls-1" d="M152,235.12c-.17-.33-1.18-1.9-.3-.54a7.22,7.22,0,0,1-.59-1.63,28.35,28.35,0,0,1-.7-3c-.1-.67-.09-.57,0,.3,0-.29-.06-.58-.08-.86v-1.31a16.67,16.67,0,0,1,.06-1.73,8.52,8.52,0,0,1,.08-.87c-.12.83-.14,1-.07.56.21-1,.41-2,.72-3,.12-.39.26-.77.4-1.15.24-.61.19-.51-.14.3.11-.25.23-.5.35-.74a20.93,20.93,0,0,1,1.42-2.48c.15-.23.3-.45.46-.67.39-.52.32-.44-.2.24.1-.38.81-.95,1.08-1.23,2.13-2.31,2.45-6.24,0-8.49a6,6,0,0,0-8.49,0,27.7,27.7,0,0,0-7.23,14.41,28.93,28.93,0,0,0,2.87,17.89,6,6,0,0,0,8.21,2.15h0a6.14,6.14,0,0,0,2.15-8.21Z" transform="translate(0.51 0.49)"/>
    <path class="cls-1" d="M594.43,261.84a39.64,39.64,0,0,0,2,16.91,6.43,6.43,0,0,0,2.76,3.59,6,6,0,0,0,8.21-2.15,6,6,0,0,0,.61-4.63,35.86,35.86,0,0,1-1.67-6.85l.22,1.59a35.73,35.73,0,0,1-.14-8.46,6,6,0,0,0-1.76-4.24,6,6,0,0,0-8.48,0l-.94,1.22a5.86,5.86,0,0,0-.82,3Z" transform="translate(0.51 0.49)"/>
    <path class="cls-1" d="M626.56,258l-4.09,23.41a6.51,6.51,0,0,0,.61,4.62,6.1,6.1,0,0,0,3.59,2.76c2.91.66,6.8-.89,7.38-4.19l4.08-23.41a6.48,6.48,0,0,0-.61-4.63,6.06,6.06,0,0,0-3.58-2.75C631,253.14,627.13,254.69,626.56,258Z" transform="translate(0.51 0.49)"/>
    <path class="cls-1" d="M664,286.21a6,6,0,1,0-6-6A6,6,0,0,0,664,286.21Z" transform="translate(0.51 0.49)"/>
    <path class="cls-1" d="M657.94,275.11l-1,1.35c-.44.6.8-1,.13-.17l-.46.6c-.74.94-1.5,1.87-2.26,2.79q-2.24,2.69-4.59,5.25a136,136,0,0,1-10,9.8,6,6,0,0,0,0,8.48,6.13,6.13,0,0,0,8.48,0,148.46,148.46,0,0,0,20-22,6,6,0,0,0-6.78-8.81h0a7,7,0,0,0-3.58,2.76Z" transform="translate(0.51 0.49)"/>
    <path class="cls-1" d="M670,302.12c-.32.95-.66,1.89-1,2.83-.09.23-.19.46-.28.7-.29.74.06-.14.17-.39-.21.45-.4.92-.6,1.38-.86,1.89-1.8,3.73-2.84,5.53s-2.08,3.44-3.23,5.08c-.29.41-.59.82-.89,1.22l-.45.6c-.46.64.74-.93.25-.31l-2,2.46c-2,2.38-2.51,6.19,0,8.49,2.25,2.07,6.29,2.53,8.49,0a73.73,73.73,0,0,0,14-24.4,6,6,0,0,0-4.19-7.38h0a6.14,6.14,0,0,0-7.38,4.19Z" transform="translate(0.51 0.49)"/>
    <path class="cls-1" d="M671.86,346.23l-21.38,19.83a6.05,6.05,0,0,0,0,8.48,6.12,6.12,0,0,0,8.49,0l21.38-19.83a6.05,6.05,0,0,0,0-8.48A6.12,6.12,0,0,0,671.86,346.23Z" transform="translate(0.51 0.49)"/>
    <path class="cls-1" d="M666.94,379.08c-.41.57-.83,1.14-1.26,1.7l.94-1.22a60.65,60.65,0,0,1-10.28,10.35,6,6,0,0,0,4.24,10.24l1.6-.22a6,6,0,0,0,2.64-1.54,65.74,65.74,0,0,0,12.49-13.26,6,6,0,0,0-6.78-8.81h0l-1.43.61a6.09,6.09,0,0,0-2.16,2.15Z" transform="translate(0.51 0.49)"/>
    <path class="cls-1" d="M663.77,414.25a51.91,51.91,0,0,1-9.07,9.07l1.22-.94a52.14,52.14,0,0,1-9.37,5.78,6,6,0,0,0,1.43,11,6.68,6.68,0,0,0,4.62-.6,55.41,55.41,0,0,0,19.66-15.79,6.51,6.51,0,0,0,1.75-4.24,6,6,0,0,0-6-6,5.74,5.74,0,0,0-4.24,1.76Z" transform="translate(0.51 0.49)"/>
    <path class="cls-1" d="M664.94,436.53,662.55,447a6.31,6.31,0,0,0,.6,4.62,6.14,6.14,0,0,0,3.59,2.76,6,6,0,0,0,7.38-4.19h0l2.4-10.43a6.31,6.31,0,0,0-.6-4.62,6.14,6.14,0,0,0-3.59-2.76,6,6,0,0,0-7.38,4.19h0Z" transform="translate(0.51 0.49)"/>
    <path class="cls-1" d="M370.63,241.28a6.76,6.76,0,0,0,5.22,8l.21,0c3.7.66,7.3-1.79,8.84-5.09a12.75,12.75,0,0,0-5.45-16.16c-6.23-3.42-14.17-.86-17.89,5a15.68,15.68,0,0,0,1.91,18.71c5.31,5.89,14.53,6.75,21.07,2.44a3,3,0,0,0-2.65-5.39,4.05,4.05,0,0,0-.35.21,10.65,10.65,0,0,1-11.88.22,10,10,0,0,1-4.31-9.51,8.72,8.72,0,0,1,2.85-5.31,8,8,0,0,1,5-1.89h.67c1,0-.19-.07.38,0a9.42,9.42,0,0,1,1.48.37c.89.26-.3-.23.43.18.18.09.35.18.53.29l.51.32.11.08c.11.09.23.19.34.3a11.11,11.11,0,0,1,.93,1c-.34-.41.24.37.24.37l.32.52c.1.18.18.36.28.54.41.77-.1-.45.17.39.15.48.28,1,.39,1.45.19.85,0-.48,0,.39v1.49c.07-.57-.08.26-.11.37a4.35,4.35,0,0,1-1.33,2.29,2.17,2.17,0,0,1-.91.51c-.59.17-.3.09-.16.05h-.14c-.31-.11-.39-.13-.24,0,.33.17-.57-.34-.48-.29.38.22-.41-.3,0,0-.18-.14-.3-.28-.11-.1-.09-.35-.11-.38-.07-.07v-.11a3,3,0,0,0-5.79-1.59Z" transform="translate(0.51 0.49)"/>
    <path class="cls-1" d="M501.33,187c-1.86.92-3.92,2-6.05,2a3.81,3.81,0,0,1-3.58-2.14,3.57,3.57,0,0,1,.19-3.71,5.44,5.44,0,0,1,3.36-2.45c3.43-.89,7.05,1.32,9.18,4a20.65,20.65,0,0,1,3,5.44c.63,1.7,1.35,4,.74,5.59a6.27,6.27,0,0,1-3.89,3.3,23.91,23.91,0,0,1-7.76.78c-3.86,0-3.86,6,0,6,6.07,0,13.06-.64,16.5-6.43,1.73-2.92,1.61-6.43.63-9.58a27.75,27.75,0,0,0-4-8.13c-3.64-4.92-9.86-8.52-16.13-6.75-5.64,1.6-9.83,7.8-7.58,13.58a10,10,0,0,0,7.3,6.27c4,.74,7.68-.89,11.15-2.61a3,3,0,0,0,1.08-4.1h0a3.06,3.06,0,0,0-4.1-1.07Z" transform="translate(0.51 0.49)"/>
    <path class="cls-1" d="M642.86,215.19A14.18,14.18,0,0,0,636,225.85a12.71,12.71,0,0,0,4.48,10.9A11.75,11.75,0,0,0,651.94,239c4.19-1.5,7.53-5.14,7.65-9.75a7.27,7.27,0,0,0-3.58-6.57,6.55,6.55,0,0,0-7.52.71,3,3,0,0,0,0,4.24,3.08,3.08,0,0,0,4.24,0c-.07.06-.49.37,0,.08,0,0-.44.28-.2.09s.56,0,.16-.05,0,0,.06,0c.57.1,0,0-.11,0l.45.13c-.07,0-.42-.26-.17-.08s.34.2.5.31c-.12-.09-.39-.39-.07,0,0,.06.26.36.07.06s.24.78.08.2a5.09,5.09,0,0,1,.14.56h0v.44c0,.31.11-.31,0,.21a2.37,2.37,0,0,1-.14.57s-.15.47,0,.2-.25.49-.35.65-.68.85-.26.42c-.24.24-.45.5-.7.73l-.38.33s.38-.26.1-.09-.49.32-.75.47-1,.45-.43.23a9.75,9.75,0,0,1-1,.32c-.36.09-.58.13-.87.19s.49,0,0,0h-1.38c-.06,0-.47-.06-.1,0s-.27-.07-.35-.09c-.3-.06-.58-.18-.87-.25-.44-.1.37.2,0,0l-.36-.17c-.31-.17-.61-.35-.91-.55,0,0-.38-.27-.12-.07s-.25-.23-.31-.27a8.08,8.08,0,0,1-.65-.66c-.12-.13-.58-.75-.29-.32a10.88,10.88,0,0,1-1.05-1.85c.22.53-.06-.24-.11-.41s-.16-.59-.23-.9c-.12-.56,0-.12,0,0v-1.64c0-.11.06-.6,0,0a5.3,5.3,0,0,1,.1-.55,9.63,9.63,0,0,1,.32-1.2c0-.13.1-.26.14-.39-.18.5,0-.08.09-.18a11.72,11.72,0,0,1,.6-1.1c.09-.13.68-.92.35-.52a8.39,8.39,0,0,1,.75-.83l.4-.39s.61-.5.34-.3.13-.08.15-.09c.23-.16.46-.31.7-.45a3,3,0,1,0-2.65-5.39,4.05,4.05,0,0,0-.35.21Z" transform="translate(0.51 0.49)"/>
    <path class="cls-1" d="M481.3,259.62a12.46,12.46,0,0,0,6.92,11.88,14,14,0,0,0,14.72-1.9,16.06,16.06,0,0,0,5.72-13,12.26,12.26,0,0,0-2.5-7.55,7.78,7.78,0,0,0-6.72-2.62c-6.49.69-9.62,7.49-7.67,13.35a3.07,3.07,0,0,0,3.69,2.09,3,3,0,0,0,2.09-3.69,5.14,5.14,0,0,1,0-4c-.12.3.32-.55.41-.68-.2.29.43-.45.52-.53-.34.3.32-.18.45-.26.41-.24-.38.12.07,0,.23-.09.46-.14.69-.21.52-.16.21,0,0,0h.57a3.49,3.49,0,0,1,.54.12c.18,0,.46.16.17,0s.19.12.26.16c.4.24-.29-.3.08,0,.09.08.48.51.25.21a4.86,4.86,0,0,1,.33.54s.26.5.1.14a6.66,6.66,0,0,1,.34,1.07c.05.2.1.41.14.62,0,.06.1.7.07.4s0,.35,0,.41V257a10.26,10.26,0,0,1-.91,4.63c.13-.3-.35.67-.4.75a10.18,10.18,0,0,1-.6,1,9.2,9.2,0,0,1-1.57,1.67s-.44.34-.14.12c-.17.13-.35.24-.53.36a9.15,9.15,0,0,1-3.13,1.25,7.67,7.67,0,0,1-4-.32l-.2-.08c.26.12-.4-.21-.46-.24l-.52-.32s-.72-.55-.36-.25a11.51,11.51,0,0,1-.88-.83c-.14-.15-.27-.3-.4-.46.27.33-.12-.18-.16-.24a10.54,10.54,0,0,1-.67-1.18c.19.39,0,0,0-.12a6.16,6.16,0,0,0-.23-.71c-.07-.24-.09-.39-.14-.58s0,.3,0-.24a9.39,9.39,0,0,1,0-1.5,3,3,0,0,0-3-3,3.06,3.06,0,0,0-3,3Z" transform="translate(0.51 0.49)"/>
    <path class="cls-1" d="M208.65,243.16a6,6,0,0,1-3.15,4.27,3.31,3.31,0,0,1-1.09.47l-.78.21c-.11,0-.78.12-.33.07a7.31,7.31,0,0,1-1.62,0c.45.07-.22-.07-.32-.1s-1-.35-.63-.2a5,5,0,0,1-2.14-1.65,7.72,7.72,0,0,1-1.16-2.15,5.31,5.31,0,0,1,.63-4.94,8.83,8.83,0,0,1,4.68-3.14,14.22,14.22,0,0,1,6.7-.41c4.9.79,9.52,3.76,11,8.66a8.86,8.86,0,0,1-.65,7,7.9,7.9,0,0,1-5.25,3.86,3.1,3.1,0,0,0-3,3c0,1.46,1.38,3.2,3,3a14.1,14.1,0,0,0,12.29-15.05c-.67-7.83-6.54-13.86-14-15.87-6.36-1.72-14.59-.8-19,4.63a12.11,12.11,0,0,0,2,17c.3.24.6.45.92.66,6.6,4.32,16.21-.14,17.7-7.74a3.07,3.07,0,0,0-2.09-3.69,3,3,0,0,0-3.69,2.1h0Z" transform="translate(0.51 0.49)"/>
    <path class="cls-1" d="M136.13,254.08c.36-.2.71-.38,1.08-.56-.58.28-.12.06.22-.06.7-.23,1.4-.36,2.11-.52-1,.22.21,0,.39,0h1a16.65,16.65,0,0,1,2.23.1c1.33.1-.88-.18.45.05l1,.19c.76.14,1.51.32,2.25.52,1.48.39,2.93.86,4.37,1.37,6.81,2.41,13.79,4.92,21.07,3.05a4.5,4.5,0,1,0-2.4-8.68c-.44.11-.88.2-1.32.3.8-.18-.5,0-.59,0a20.19,20.19,0,0,1-2.46,0,8.64,8.64,0,0,1-1.13-.11c.85.12-.57-.12-.59-.12-.83-.16-1.66-.36-2.47-.58-3.29-.89-6.43-2.2-9.67-3.24-6.56-2.11-13.87-3-20.11.54a4.5,4.5,0,1,0,4.43,7.83l.11-.06Z" transform="translate(0.51 0.49)"/>
    <path class="cls-1" d="M561.68,212.39c.33-.35.68-.67,1-1,.61-.55.08-.06-.06,0,.2-.14.39-.28.6-.41.41-.26.83-.47,1.26-.7.19-.11.78-.3-.09,0l.85-.3a13.74,13.74,0,0,1,1.4-.37c.15,0,.91-.19.29-.07s.14,0,.3,0a9,9,0,0,1,1.27,0h.72c1.14,0-.89-.22.23,0,.47.11.94.21,1.4.35.23.07.46.16.68.24-.18-.07-.71-.35.08,0a24.53,24.53,0,0,1,2.88,1.71c1.91,1.31,3.71,2.78,5.7,4,8.32,4.93,18.27,5.74,27.73,5.66,5.73,0,11.47-.29,17.2-.46a4.5,4.5,0,0,0,0-9c-5.31.16-10.63.36-15.94.44-2.39,0-4.77,0-7.15-.07-1.12,0-2.24-.12-3.35-.23L597,212c-.89-.1-.22,0,0,0l-1.23-.19a41.09,41.09,0,0,1-6.74-1.71c-.51-.18-1-.37-1.52-.58.83.34-.61-.3-.78-.39a28.46,28.46,0,0,1-3.22-1.84c-1.93-1.28-3.72-2.78-5.7-4a18.58,18.58,0,0,0-7.27-2.64A18,18,0,0,0,555.32,206a4.5,4.5,0,1,0,6.14,6.58c.07-.07.15-.14.22-.22Z" transform="translate(0.51 0.49)"/>
    <path class="cls-1" d="M193.75,211.54c.29-.37,1.11-1.59,1.6-1.68,0,0-.71.48-.27.21.19-.11.36-.25.54-.37.36-.23.74-.43,1.12-.63a1.19,1.19,0,0,1,.44-.21c-.07,0-1,.35-.17.08.31-.1.62-.22.93-.31s.75-.2,1.13-.28a3.06,3.06,0,0,0,.66-.12c.62-.15-.84.07-.2,0a27.83,27.83,0,0,1,5,0c.11,0,.7.1.1,0s.12,0,.28.05l1.21.23c.79.18,1.58.38,2.36.61,1.91.58,3.74,1.35,5.58,2.1.48.19,0,0-.07,0l.81.34,2.09.88c1,.43,2,.84,3,1.24a32.61,32.61,0,0,0,12.63,2.55,33.26,33.26,0,0,0,11.42-2.59c1.93-.77,3.84-1.61,5.74-2.46.83-.38,1.67-.76,2.5-1.12l.91-.39c-.48.19.12,0,.18-.08l.9-.36a40,40,0,0,1,5.14-1.65q.66-.15,1.32-.27l.75-.13c-.06,0-.77.07-.24,0a29.42,29.42,0,0,1,3.25-.12c.53,0,1.06.05,1.59.1l.68.07c-.2,0-.76-.12.16,0s2.11.39,3.15.64c2.18.52,4.33,1.16,6.48,1.78,9.12,2.62,19.22,4,27.1-2.47,1.82-1.5,1.67-4.83,0-6.37a4.64,4.64,0,0,0-6.37,0c-.17.15-.67.41,0,0l-.47.32c-.36.23-.74.45-1.12.65-.17.08-.34.15-.5.24-.58.31.68-.21.05,0-.47.14-.93.33-1.41.46s-.85.21-1.28.29-1.1.13-.29.07c-1,.07-1.91.14-2.87.13s-1.82-.07-2.72-.16l-.58-.07c.92.1.23,0,0,0l-1.53-.27c-2-.4-3.95-1-5.9-1.52-4.52-1.3-9.05-2.62-13.78-2.86a30.35,30.35,0,0,0-12,2c-3.74,1.37-7.3,3.15-11,4.68l-.54.22-1.09.41c-.9.34-1.81.65-2.73.92s-1.72.46-2.59.63l-.56.1c-.14,0-1,.13-.34.06s-.08,0-.16,0l-1,.07a20,20,0,0,1-2.68,0,2.74,2.74,0,0,1-.85-.09c.09,0,.65.12.14,0s-1.12-.21-1.68-.34a42.54,42.54,0,0,1-5.95-1.92l-1.42-.57-.74-.31c-1.17-.49-2.33-1-3.5-1.47a52.68,52.68,0,0,0-5.54-2.06c-7.73-2.28-17.87-2.11-23.35,4.72-1.47,1.84-1.92,4.6,0,6.37,1.64,1.5,4.79,2,6.37,0Z" transform="translate(0.51 0.49)"/>
    <path class="cls-1" d="M355.18,272.5A30.75,30.75,0,0,0,373,276.38a31.59,31.59,0,0,0,9.69-2.48c1.32-.57,2.58-1.24,3.85-1.91.64-.33,1.28-.67,1.94-1,.05,0,1.35-.55.5-.24.41-.15.81-.29,1.22-.41s.71-.15,1.05-.26c.68-.23-.94,0,.3-.05h2.12c1.29.06-.45-.16.28,0,.35.09.71.14,1.05.22.85.2,1.69.45,2.51.72,2.91,1,5.69,2.27,8.64,3.09a35.87,35.87,0,0,0,34.24-8.88,4.56,4.56,0,0,0,0-6.37,4.62,4.62,0,0,0-6.37,0c-.45.45-.91.88-1.39,1.3-.24.2-.49.39-.73.6-.55.49.85-.6-.13.11a33.36,33.36,0,0,1-3.19,2.06q-.83.47-1.68.87l-.86.4c-.67.33,1-.37-.15.06a32.43,32.43,0,0,1-3.61,1.19,29.52,29.52,0,0,1-3.72.75c1-.14-.57,0-.88.07-.69,0-1.39.08-2.08.08a34.24,34.24,0,0,1-3.79-.2c.17,0,.93.15.07,0l-.93-.17a19.53,19.53,0,0,1-2-.46c-5.77-1.52-11.17-5-17.36-4.51a24,24,0,0,0-9.55,3.17c-.65.34-1.29.69-1.94,1-.25.13-.51.26-.78.38.07,0-1.21.54-.59.28s-.63.24-.59.22l-.77.27c-.77.25-1.55.46-2.34.64l-.79.16c-.14,0-1.53.24-1,.18.69-.08-.63.05-.6.05-.41,0-.81.06-1.22.07h-2.22a5.54,5.54,0,0,1-1-.06c-.11,0-1.44-.17-.41,0a24.72,24.72,0,0,1-4.33-1c-.39-.12-.76-.27-1.15-.4-.9-.3.53.28-.42-.16q-1.1-.51-2.16-1.11a4.5,4.5,0,1,0-4.54,7.78Z" transform="translate(0.51 0.49)"/>
    <path class="cls-1" d="M430.71,220.69c.64,7.4,7.1,12.15,14.21,12.6,7.49.47,13.85-4,20.93-5.48.38-.08.76-.16,1.14-.21-.89.13.58,0,.62,0a17,17,0,0,1,2.26,0c-.89-.08.55.1.61.12.4.09.79.2,1.17.32.11,0,1.34.52.43.13.37.16.73.34,1.09.52,2.79,1.45,5.23,3.47,7.94,5a30,30,0,0,0,17.48,3.85,31.14,31.14,0,0,0,18.93-8.3,4.5,4.5,0,1,0-6.36-6.36c-.44.42-.9.81-1.35,1.21-.9.79.75-.5-.24.18l-.74.52a26,26,0,0,1-3.29,1.87c-.16.08-1.28.54-.25.13l-.67.27q-.94.34-1.89.63a29.37,29.37,0,0,1-3.72.82c1.15-.19-.62.05-1,.07-.67,0-1.33.07-2,.07a15.06,15.06,0,0,1-1.81-.07l-.9-.08c-1.06-.08.73.15-.24,0a29.12,29.12,0,0,1-3.69-.88c-.57-.18-1.13-.4-1.7-.61s1,.48-.09,0l-1-.47c-2.53-1.32-4.77-3.09-7.18-4.58a21.56,21.56,0,0,0-9.6-3.33c-7-.57-13.09,3.17-19.6,5-.81.23-1.63.41-2.45.58-1.38.29.78,0-.62.08-.45,0-.91.06-1.36.06a3.88,3.88,0,0,1-1.27,0l.51.08-.69-.13a8.68,8.68,0,0,1-1-.27c-.23-.07-1.23-.47-.24,0a14.22,14.22,0,0,1-1.84-1c-.69-.43,0,0,.08.08-.34-.31-.66-.63-1-.95s-.37-.63.07.13c-.16-.27-.69-.82-.68-1.15,0,0,.3,1,.09.15-.07-.28-.26-1.69-.15-.46-.2-2.34-1.92-4.61-4.5-4.5-2.26.1-4.72,2-4.5,4.5Z" transform="translate(0.51 0.49)"/>
    <path class="cls-1" d="M684.1,234a12.82,12.82,0,0,1,.65-1.28c.11-.19,1-1.42.32-.57a14.54,14.54,0,0,1,2-2c-.61.48-.06.08.26-.13s.84-.47,1.26-.71.43-.21-.09,0c.22-.09.44-.18.67-.25a13.62,13.62,0,0,1,1.39-.38,5.73,5.73,0,0,0,.7-.13c-.54.07-.64.08-.3,0s.84,0,1.26,0a8.65,8.65,0,0,1,.88.05h.11c.58.13,1.15.25,1.72.42a24.11,24.11,0,0,1,5.42,2.47c4.26,2.36,8.5,4.77,13.43,5.32,4.42.5,9.31-.86,12.32-4.26,1.56-1.77,1.87-4.66,0-6.37-1.7-1.57-4.69-1.88-6.36,0a9.44,9.44,0,0,1-1,1c.87-.71-.36.13-.56.25-.46.22-.42.21.11,0l-.68.23a13.45,13.45,0,0,1-1.4.31c1.19-.2-.36,0-.61,0a9.79,9.79,0,0,1-1.45-.07c.78.05.24,0-.23-.06a16.52,16.52,0,0,1-1.71-.45c-.56-.18-1.12-.38-1.66-.61.72.31-.81-.39-.95-.46-1.06-.53-2.11-1.1-3.14-1.68a63.18,63.18,0,0,0-6.63-3.33c-4.35-1.81-9.24-2.4-13.72-.67a17.59,17.59,0,0,0-9.81,8.83c-1,2.13-.69,4.94,1.61,6.15,2,1.05,5.12.68,6.16-1.61Z" transform="translate(0.51 0.49)"/>
    <path class="cls-1" d="M356.78,194.31a12,12,0,0,0,19.91,4.51,4.5,4.5,0,0,0-6.14-6.58c-.07.07-.15.14-.22.22-.23.22-.47.44-.72.64l.91-.71a8.64,8.64,0,0,1-1.65,1l1.08-.46a8.63,8.63,0,0,1-2,.57l1.19-.16a7.39,7.39,0,0,1-2.1,0l1.19.17a7.8,7.8,0,0,1-1.77-.51l1.08.46a9,9,0,0,1-1.73-1l.91.7a8.61,8.61,0,0,1-1.4-1.43l.7.91a7.93,7.93,0,0,1-.91-1.57l.45,1.07-.07-.17a4.92,4.92,0,0,0-2.07-2.69,4.5,4.5,0,0,0-6.15,1.62,4.33,4.33,0,0,0-.46,3.46Z" transform="translate(0.51 0.49)"/>
    <path class="cls-1" d="M546.34,247.21a17.09,17.09,0,0,1,2.54-1.58l.6-.29c1-.46-.59.19,0,0s.93-.34,1.41-.48,1-.26,1.45-.36a3.06,3.06,0,0,0,.66-.12c.56-.12-.92.08,0,0a21.48,21.48,0,0,1,3-.09c.27,0,1.12.23,1.34.11-.59-.09-.72-.1-.37,0h.32l.66.13a18.86,18.86,0,0,1,2.87.83h0l.6.29c.45.22.88.46,1.31.72a6.88,6.88,0,0,1,1.24.83s-.69-.57-.13-.09c.26.22.51.44.75.67a4.5,4.5,0,1,0,6.37-6.37c-7.74-7.13-20.5-8.35-29.11-2-1.88,1.4-3,4-1.61,6.16,1.2,1.86,4.13,3.11,6.15,1.61Z" transform="translate(0.51 0.49)"/>
    <path class="cls-1" d="M431.43,181.36a18.27,18.27,0,0,0,17.08.28,4.5,4.5,0,0,0-1.06-8.22h0a5.15,5.15,0,0,0-3.47.45l-.56.26,1.07-.45a14.25,14.25,0,0,1-3.57,1l1.19-.16a15.35,15.35,0,0,1-3.71,0l1.2.16a14.89,14.89,0,0,1-3.58-1l1.08.45c-.38-.16-.75-.34-1.12-.54a4.5,4.5,0,1,0-4.65,7.71l.11.06Z" transform="translate(0.51 0.49)"/>
    <path class="cls-1" d="M314.88,236.59c0-.07.38-1,.09-.31s.09-.14.16-.28c.23-.45.51-.86.78-1.28.44-.69-.43.46-.05.08.17-.18.33-.38.5-.56s.82-1,1.11-1c-.28,0-.71.52-.06.08.21-.14.42-.28.64-.41l.66-.36.28-.13c.3-.14.17-.09-.39.16.09-.21,1.2-.41,1.43-.46l.74-.16c.55-.14-1.14.06-.15,0h1.54c.54,0,0,0-.28-.06a9.12,9.12,0,0,0,.91.17,13.93,13.93,0,0,1,1.47.45c.47.17-.13,0-.22-.09.06.11.55.27.69.35.45.25.87.54,1.3.82s-.67-.59-.07,0l.57.53c.18.18.34.38.52.56.58.58-.32-.52,0-.07a15.43,15.43,0,0,1,.89,1.38,4.55,4.55,0,0,0,6.16,1.61,4.6,4.6,0,0,0,1.61-6.16,16.24,16.24,0,0,0-15.35-8.5,16.54,16.54,0,0,0-14.12,11.21,4.51,4.51,0,0,0,3.14,5.53,4.6,4.6,0,0,0,5.54-3.14Z" transform="translate(0.51 0.49)"/>
    <path class="cls-1" d="M288.8,189.55c.85-.45,1.7-.9,2.56-1.33l1.31-.62.66-.29c-.53.21-.55.23-.08,0a26.18,26.18,0,0,1,2.72-.89,5.13,5.13,0,0,1,1.4-.29c-.58.07-.65.08-.2,0h2.31c.5.06.39,0-.33,0,.06.06,2.24.56,2.22.58-.63-.28-.73-.32-.29-.12l.51.26a5.76,5.76,0,0,0,.94.6c-.53-.42-.62-.48-.25-.17a4.89,4.89,0,0,1,.4.39,5,5,0,0,1,.37.42c-.4-.55-.47-.62-.19-.23,1.32,1.94,4,3,6.15,1.61,1.93-1.24,3-4.08,1.62-6.15a14.59,14.59,0,0,0-12.31-6.19c-5.06,0-9.69,2.33-14.07,4.64a4.54,4.54,0,0,0-1.61,6.16,4.6,4.6,0,0,0,6.16,1.61Z" transform="translate(0.51 0.49)"/>
    <path class="cls-1" d="M295.27,290.21a66.45,66.45,0,0,1,9.57.14c.74.06,1.47.15,2.2.23.52.07.49.06-.1,0l.55.08,1.27.2c1.58.27,3.14.6,4.69,1a4.5,4.5,0,1,0,2.72-8.58l-.33-.09a70.51,70.51,0,0,0-20.57-1.93,4.57,4.57,0,0,0-4.5,4.5c.1,2.32,2,4.64,4.5,4.5Z" transform="translate(0.51 0.49)"/>
  </g>
</svg>
