<svg id="books" xmlns="http://www.w3.org/2000/svg" viewBox="0 0 766.78 614.19">
  <defs>
    <style>
      .cls-1 {
        fill: #4b3a68;
      }
    </style>
  </defs>
  <g>
    <path class="cls-1" d="M634.94,169.73c2-19-17.55-35.33-36.67-35.22S562,147,550,161.87s-20.32,32.86-21.35,51.82,5.87,38.71,20.18,51.2,36.19,16.48,53.1,7.83,26.51-30.46,19.56-48.13c-8.3,10.47-25.27,11.29-36.17,3.56s-15.87-22-15-35.32c1.05-15.71,10.55-31.47,25.43-36.61s34,3.52,37.21,18.94" transform="translate(-4.97 -4.52)"/>
    <path class="cls-1" d="M640.94,169.73c1.15-11.76-5-23.36-14-30.62-9.5-7.66-21.47-11.73-33.7-10.29-26.08,3.08-46.9,23.66-59,45.81a92.35,92.35,0,0,0-11.55,38.85,74,74,0,0,0,7.54,36.76,59.62,59.62,0,0,0,25.2,26.38,56.9,56.9,0,0,0,36.53,5.78,46.59,46.59,0,0,0,37.26-52.2,33.93,33.93,0,0,0-1.91-7.21,6.28,6.28,0,0,0-4.19-4.19c-1.89-.52-4.54-.07-5.84,1.55a23,23,0,0,1-2.74,2.85c-.24.21-.52.4-.75.62,1.23-1.17.56-.44.17-.16s-1.09.72-1.65,1-1.14.63-1.73.91-1.42.41.24-.08c-.31.09-.62.24-.92.35a26.45,26.45,0,0,1-3.8,1.06c-.32.07-.65.13-1,.18-.53.09-1.46,0,.28,0-.54,0-1.11.12-1.66.15a28.59,28.59,0,0,1-4.34-.06l-.84-.08c-.83-.08,1.63.26.43.05-.66-.11-1.32-.22-2-.37a30.55,30.55,0,0,1-3.86-1.15c-.42-.16-1.4-.7.19.11-.3-.16-.62-.27-.92-.42-.61-.28-1.2-.59-1.78-.92s-1-.56-1.43-.87l-.83-.56-.6-.44c.73.57.84.65.34.26a38.18,38.18,0,0,1-3.1-2.86c-.47-.49-.91-1-1.35-1.5a4.75,4.75,0,0,0-.69-.85c.56.73.65.84.27.34l-.43-.6a37.66,37.66,0,0,1-2.14-3.42c-.36-.65-.69-1.3-1-2-.16-.33-.31-.67-.47-1-.26-.58-.2-.45.17.42-.1-.23-.19-.46-.28-.69a44.77,44.77,0,0,1-2.32-8.25l-.18-1.11c-.23-1.34.15,1.46,0,.11-.08-.74-.16-1.49-.22-2.24-.1-1.49-.14-3-.1-4.47s.15-2.68.28-4-.24,1.47,0,.16c0-.36.11-.72.17-1.07.14-.84.31-1.67.5-2.5.3-1.3.65-2.59,1.06-3.86.22-.69.46-1.38.72-2.06l.39-1c.43-1.11-.57,1.3,0-.07a43.72,43.72,0,0,1,4.16-7.4c.2-.3.41-.59.63-.88l.21-.29c.38-.5.29-.38-.28.36a13.75,13.75,0,0,0,1.38-1.64,35.86,35.86,0,0,1,3-3c.53-.48,1.07-.93,1.62-1.38.95-.8-.91.66-.24.17l.72-.52a35.88,35.88,0,0,1,3.93-2.4c.53-.27,1.07-.52,1.61-.77,1.18-.55-1.34.5-.12,0l1-.39a28.1,28.1,0,0,1,3.72-1c.57-.11,2.74-.24.61-.14.63,0,1.27-.13,1.9-.16a30.75,30.75,0,0,1,3.84,0l1,.09c1.64.17-1.08-.19,0,0,.63.11,1.26.22,1.89.36a32.09,32.09,0,0,1,4.3,1.26c.3.11.59.25.89.34-1.64-.5-.71-.3-.26-.1.68.31,1.34.64,2,1a33.75,33.75,0,0,1,3.47,2.19c1,.69-1.14-.93-.22-.17l.95.8c.54.48,1.07,1,1.57,1.51s.85.9,1.24,1.38.76,1.24-.17-.25c.22.35.49.67.72,1,.75,1.12,1.27,2.34,1.94,3.5-.86-1.49-.32-.77-.13-.28s.28.78.41,1.18c.22.71.4,1.42.56,2.14a6,6,0,0,0,7.38,4.19,6.14,6.14,0,0,0,4.19-7.38c-2.65-12.36-13.91-21.44-26-23.95a35.45,35.45,0,0,0-18.81.88,40.78,40.78,0,0,0-16.88,11.29,51.39,51.39,0,0,0-12.72,37.94c1.17,13.95,7.84,28.37,20.59,35.28,11.89,6.45,27.27,5.69,37.76-3.11a22.17,22.17,0,0,0,3-3.06l-10-2.65a56.29,56.29,0,0,1,1.91,7.21c-.47-1.95,0-.12,0,.41s.09,1.12.11,1.68a35.84,35.84,0,0,1-.06,3.88c0,.62-.11,1.24-.17,1.85-.1,1,.07-.52.08-.59-.08.33-.1.68-.16,1-.21,1.23-.48,2.45-.8,3.65s-.67,2.29-1.08,3.41c-.22.59-.49,1.16-.69,1.76,0-.09.62-1.39.2-.49-.19.41-.38.83-.58,1.24a42.43,42.43,0,0,1-3.68,6.19c-.2.28-.4.56-.61.83-.71,1,.73-.89.2-.26s-.79,1-1.21,1.45c-.82.95-1.7,1.86-2.61,2.73s-1.69,1.53-2.58,2.25,1.15-.84.13-.1l-.55.4c-.61.43-1.22.85-1.85,1.24a35.19,35.19,0,0,1-3.17,1.78c-.55.28-1.12.54-1.69.8-1.21.56,1.31-.5.06,0l-1,.4A42.72,42.72,0,0,1,588,271l-.73.12c-1.33.2,1.47-.16.13,0-.62.07-1.23.13-1.85.18-1.36.1-2.73.14-4.09.12s-2.73-.1-4.1-.23c-.5-.05-2.55-.4-.63-.05-.74-.14-1.48-.23-2.22-.37a51.47,51.47,0,0,1-7.61-2c-.71-.25-1.41-.53-2.11-.79-.43-.17-.7-.51.39.17a8.71,8.71,0,0,0-1-.46c-1.26-.56-2.49-1.18-3.7-1.85s-2.17-1.25-3.22-1.94c-.57-.37-1.14-.76-1.7-1.16l-.76-.56c-1-.69,1.06.85-.12-.09a50.82,50.82,0,0,1-6-5.65c-.43-.47-.86-.95-1.27-1.44-.25-.3-.5-.59-.74-.89l-.24-.3c-.32-.41-.32-.4,0,0l.24.3-.47-.61-.68-.93c-.45-.63-.88-1.27-1.3-1.91a60.31,60.31,0,0,1-4-7c-.31-.64-.6-1.28-.89-1.93-.48-1.1.19.06.08.18a8.11,8.11,0,0,0-.44-1.07c-.52-1.33-1-2.67-1.42-4a67.13,67.13,0,0,1-2-8.1c-.14-.71-.26-1.41-.37-2.11,0-.26-.07-.52-.11-.77-.21-1.39.16,1.44,0,.05s-.3-2.84-.38-4.27a68.55,68.55,0,0,1,0-8.6c.09-1.4.24-2.8.4-4.19s-.22,1.38,0-.08l.12-.83c.13-.83.28-1.66.43-2.48a84,84,0,0,1,2.24-9c.42-1.34.86-2.67,1.34-4,.24-.66.49-1.31.75-2,.15-.39.31-.78.47-1.17s.21-.52.32-.78l-.28.65a33.4,33.4,0,0,1,1.93-4.22c.68-1.4,1.4-2.78,2.14-4.14q2.24-4.08,4.84-8c.79-1.17,1.6-2.32,2.43-3.46.41-.57.84-1.14,1.26-1.7.88-1.17-.81,1,.09-.13l.79-1q2.73-3.41,5.76-6.56c1.94-2,4-3.93,6.08-5.75q.83-.72,1.68-1.41l.78-.62c1.08-.88-1.08.8,0,0s2.33-1.73,3.54-2.54a63.72,63.72,0,0,1,7.28-4.25c.64-.32,1.28-.63,1.94-.93l.7-.32c1.26-.56-1.28.51,0,0s2.65-1,4-1.45,2.59-.77,3.91-1.07c.69-.16,1.38-.31,2.08-.43l.76-.14.77-.12c.65-.1.51-.08-.45.05a9.1,9.1,0,0,0,1.93-.2q1-.09,2-.12a36,36,0,0,1,4,0c.64,0,1.28.11,1.92.18.84.09-1.61-.26-.38-.05.35.06.7.11,1,.18a38.41,38.41,0,0,1,3.78.9c1.13.33,2.24.72,3.34,1.15.38.15,1.47.71-.12-.07.21.11.43.19.65.29.69.32,1.38.66,2.06,1,1.1.58,2.17,1.2,3.21,1.88.49.32,1,.64,1.46,1,.29.2.57.41.85.62.91.66-1-.86-.11-.08a41.05,41.05,0,0,1,5.43,5.36l.44.54c-1.16-1.34-.36-.46-.12-.13s.66.93,1,1.41A30.16,30.16,0,0,1,627,158c.15.31.28.61.43.92.43.87-.18-.43-.2-.51.17.58.45,1.14.65,1.72a28,28,0,0,1,1,3.73c0,.22.07.44.11.66.23,1.24-.14-1.52,0-.26.05.56.1,1.12.13,1.69a28.19,28.19,0,0,1-.12,3.79c-.31,3.13,3,6.13,6,6,3.51-.16,5.67-2.65,6-6Z" transform="translate(-4.97 -4.52)"/>
  </g>
  <path class="cls-1" d="M445.69,75.1l168.38-.71L697.72,74c13.69-.06,27.46-.53,41.15-.12,1.42,0,2.83.14,4.24.26.37,0,1.7.35.11,0,.55.12,1.1.2,1.64.32.8.18,1.58.45,2.38.64.31.07,1.61.63.12,0a13,13,0,0,1,1.44.73c.47.26.93.55,1.37.85-.63-.5-.71-.55-.23-.13A17.41,17.41,0,0,1,751.35,78c-.27-.31-.83-1.33,0,.08.27.45.51.92.78,1.36,1.19,2-.28-1.48.31.75.28,1,.62,2,.84,3.1.05.26.42,2.91.18.85.1.82.17,1.65.22,2.48.38,6.09,0,12.24-.12,18.33l-.41,21.21-.81,41.88-1.63,84.31-3.26,168.07L744.17,589l-.4,20.67,9-9-166-8.64-83-4.32c-13.58-.7-27.22-1.09-40.78-2.16-.54-.05-3.62-.37-2.05-.16a37.64,37.64,0,0,1-4.33-.85,23.89,23.89,0,0,1-3.33-1.06c1.66.69-.89-.54-1-.59-.38-.22-2.45-1.68-.89-.45a19.5,19.5,0,0,1-2.2-2.06s-1.48-1.89-.72-.81-.57-.93-.57-.93c-.6-1-1.06-2-1.6-3-.67-1.26.63,2-.11-.31-.24-.74-.52-1.46-.74-2.2a53.16,53.16,0,0,1-1.57-6.94l-.24-1.58c.26,1.87,0,.08,0-.39-.16-1.45-.28-2.9-.39-4.36-.47-6.52-.79-13-1.14-19.58q-1.12-20.48-1.94-41-1.67-41.25-2.13-82.52-.94-82.56,2.85-165.07,3.78-82.2,12.26-164.09,1.05-10.2,2.18-20.39c.52-4.69-4.51-9.2-9-9-5.32.24-8.44,4-9,9q-9.22,83.4-13.6,167.24-4.33,83.52-3.82,167.2.26,41.82,1.73,83.61.74,21,1.79,42c.65,12.91.8,26,2.45,38.86,1.55,12,5.18,23.72,15.54,31,10.65,7.52,25.54,6.53,37.94,7.17l84.61,4.4,168.14,8.75,20.61,1.08c4.93.25,8.91-4.34,9-9l3.31-170.79,3.32-171.33L771.71,96.8c.25-12.93-.36-26.85-11.8-35.16-10.4-7.55-25.11-5.76-37.21-5.71l-85.27.36L466.33,57l-20.64.09c-4.71,0-9.22,4.13-9,9a9.15,9.15,0,0,0,9,9Z" transform="translate(-4.97 -4.52)"/>
  <path class="cls-1" d="M449.18,70.5q44.4-9.72,89.1-18t89.63-15.17q25.3-3.87,50.68-7.28l-2.39.32q31.65-4.25,63.39-7.8c2.46-.27,4.55-.82,6.36-2.63a9,9,0,0,0,0-12.73c-1.64-1.51-4-2.9-6.36-2.64q-28.87,3.23-57.69,7Q652.19,15.52,622.55,20,594,24.41,565.49,29.37T508.34,39.91q-28.51,5.56-56.92,11.71c-2.34.5-4.69,1-7,1.53-4.6,1-7.73,6.61-6.28,11.07a9.2,9.2,0,0,0,11.07,6.28Z" transform="translate(-4.97 -4.52)"/>
  <path class="cls-1" d="M734.61,15.84l.62,41c.07,4.71,4.09,9.22,9,9s9.08-3.95,9-9l-.62-41c-.07-4.7-4.09-9.22-9-9s-9.07,4-9,9Z" transform="translate(-4.97 -4.52)"/>
  <path class="cls-1" d="M15.13,504.88l159.15-1.71,158.35-1.7,89.32-1c4.7-.05,9.22-4.1,9-9s-4-9.05-9-9l-159.16,1.72-158.34,1.7-89.32,1c-4.71.05-9.22,4.1-9,9a9.15,9.15,0,0,0,9,9Z" transform="translate(-4.97 -4.52)"/>
  <path class="cls-1" d="M5.55,499.68,5,581.77a9.16,9.16,0,0,0,9,9q82.11,3.48,164.32,4.13t164.36-1.54q46.11-1.23,92.2-3.35c4.69-.21,9.22-4,9-9-.21-4.69-4-9.23-9-9q-82.11,3.78-164.31,4.72t-164.37-.94q-46.11-1.06-92.2-3l9,9,.58-82.09c0-4.7-4.17-9.21-9-9a9.16,9.16,0,0,0-9,9Z" transform="translate(-4.97 -4.52)"/>
  <path class="cls-1" d="M48.17,486.67l.53-49.82L49,412.13c.08-7.87,0-15.78.3-23.64,0-.81.09-1.62.16-2.43l.09-.91c.15-1.62,0,.41-.09.59a16.29,16.29,0,0,0,.47-2.35c.21-.86.51-1.69.78-2.53.36-1.14-.82,1.56-.22.54.2-.34.36-.7.56-1s.43-.66.62-1c.45-.81-.44.6-.51.64a9.62,9.62,0,0,0,1.54-1.58c1-1-.33.32-.55.4a7.82,7.82,0,0,0,1.13-.74c.31-.19.63-.36,1-.53s1.4-.42.15-.12-.18.07.2-.06.69-.24,1-.36a33,33,0,0,1,4.4-1c2.25-.37-1.84.18.45,0,.76-.07,1.53-.14,2.3-.19,1.67-.1,3.35-.15,5-.2q24.66-.65,49.33-1,49.34-.64,98.68,0,49.71.62,99.41,2.53,49.31,1.89,98.54,5.05L426,383c4.71.32,9.21-4.36,9-9a9.22,9.22,0,0,0-9-9q-50.39-3.37-100.84-5.46-50.26-2.06-100.56-2.8-50.49-.75-101-.17-25.25.29-50.48.91c-7.24.17-14.81,0-21.83,2.07A26.36,26.36,0,0,0,33.42,375.8c-2.72,7.12-2.23,15.31-2.31,22.81l-.27,25.1-.54,50.6-.13,12.36c-.05,4.71,4.18,9.22,9,9a9.16,9.16,0,0,0,9-9Z" transform="translate(-4.97 -4.52)"/>
  <path class="cls-1" d="M128.46,367.23c4-7.55,4.36-15.86,3.41-24.18-.73-6.33-1.83-12.57-1-18.95l-.32,2.39a27,27,0,0,1,1.78-6.68l-.91,2.15a18.83,18.83,0,0,1,1.27-2.44c.2-.32.46-.63.65-1-1.33,2.29-.91,1.13-.3.46.31-.33.63-.66,1-1,.64-.58,1.62-.8-.58.4,1-.52,1.83-1.15,2.85-1.6l-2.15.91a23,23,0,0,1,5.72-1.47l-2.39.32a109.14,109.14,0,0,1,12.92-.33h13.78l27.54,0,55.69,0,110.78.06,62.28,0c4.71,0,9.22-4.14,9-9a9.16,9.16,0,0,0-9-9l-70.66,0-70.66,0-70.66,0h-53.3c-5.38,0-10.85-.28-16.22.17-6.68.55-13,2.39-17.95,7.13a27.09,27.09,0,0,0-7.32,13.45,47.46,47.46,0,0,0-1,14.31c.39,4.87,1.34,9.68,1.6,14.56a39.24,39.24,0,0,1-.23,7.27l.32-2.39a24.41,24.41,0,0,1-1.52,5.69l.91-2.15c-.26.62-.55,1.22-.86,1.81-2.19,4.16-1.2,10,3.23,12.31,4.15,2.19,10,1.22,12.31-3.23Z" transform="translate(-4.97 -4.52)"/>
  <path class="cls-1" d="M422.64,227.58l-74.49,1.57-74.84,1.57-74.49,1.57-74.49,1.56-18.88.4c-6,.13-11.82.48-17.38,2.9a19.67,19.67,0,0,0-11.16,14.49c-1.07,6.1-.74,12.34-.75,18.5l0,18.8c0,5.34-.31,11.14,1.67,16.19a20.28,20.28,0,0,0,7,9.39,19.46,19.46,0,0,0,9.1,3.35c6,.81,12.19.43,18.24.43l74.56,0,74.59,0,75,0,74.61,0h18.23c4.71,0,9.22-4.14,9-9a9.16,9.16,0,0,0-9-9l-73.24,0-72.9,0-73.23,0-72.84,0c-12.23,0-24.46,0-36.69,0-1.16,0-2.33,0-3.49-.11-.27,0-.54-.06-.8-.07-1-.07,1.12.16,1.07.14-.54-.23-1.23-.25-1.8-.43a6.23,6.23,0,0,0-.73-.24c1.79.33,1.4.68.74.25-.21-.13-.44-.29-.66-.41-.79-.42.8.59.81.63a2.24,2.24,0,0,0-.51-.51c-.65-.51.64.88.66.91a10,10,0,0,1-1-1.62c.07-.05.69,1.91.45,1-.07-.23-.16-.46-.23-.69a15.51,15.51,0,0,1-.42-1.66,2.93,2.93,0,0,1-.14-.73c.05-.05.23,2.09.15,1.15,0-.59-.11-1.17-.15-1.76-.16-2.64-.08-5.3-.07-7.95l0-18.12c0-3.08,0-6.15,0-9.23,0-1.21,0-2.41.07-3.62a15.07,15.07,0,0,0,.12-1.64c0-.05-.35,2-.15,1,.08-.35.13-.71.2-1.06s.63-1.5.51-1.79c0,0-.86,1.71-.4.93.13-.22.23-.47.36-.7s.3-.44.42-.67c.43-.8-.58.78-.62.8a5.57,5.57,0,0,0,.68-.69c.77-.87-.42.39-.72.52a14.15,14.15,0,0,0,1.21-.75l.64-.31c1-.52-1.89.66-.82.36s2-.58,3.09-.8c1.49-.31-2.17.22-.14,0,.5-.05,1-.09,1.51-.12,1.2-.08,2.39-.12,3.59-.14l9.27-.2,72.78-1.53L258.89,249l72.78-1.53L404.79,246l17.85-.38c4.7-.1,9.22-4.07,9-9s-4-9.1-9-9Z" transform="translate(-4.97 -4.52)"/>
  <path class="cls-1" d="M145.91,237.57a674.41,674.41,0,0,1,1.58-78.77c.57-7.15,1.15-14.32,2.08-21.44l-.32,2.39A46.62,46.62,0,0,1,152,128.39l-.9,2.15a24.72,24.72,0,0,1,1.87-3.66l.51-.77c.81-1.24-1.15,1.35-.44.54.45-.51.89-1,1.37-1.51s.85-.78,1.29-1.16c1.21-1-1.44,1-.63.5.24-.15.47-.33.71-.48a24,24,0,0,1,3.58-1.89l-2.15.91a35.81,35.81,0,0,1,8.47-2.2l-2.4.32c7.59-1,15.33-.44,23-.22l26.84.76,53.69,1.53,108,3.07L435.56,128c4.71.13,9.21-4.24,9-9a9.19,9.19,0,0,0-9-9l-84.41-2.41-84.41-2.4-84.11-2.39c-11.88-.34-25.06-1.13-35.6,5.41-6.3,3.9-10.42,9.76-12.9,16.66-2.12,5.91-2.61,12.36-3.24,18.56a669.4,669.4,0,0,0-3.3,83.76c.08,3.45.19,6.91.32,10.36.18,4.7,4,9.23,9,9,4.73-.21,9.2-4,9-9Z" transform="translate(-4.97 -4.52)"/>
  <path class="cls-1" d="M91.75,261.85l129.39-3.42L349.88,255l72.62-1.92c1.93-.05,1.94-3.05,0-3l-129.4,3.42-128.73,3.4-72.62,1.92c-1.93,0-1.94,3,0,3Z" transform="translate(-4.97 -4.52)"/>
  <path class="cls-1" d="M95.28,270.07l129.4-3.42,128.74-3.4L426,261.33c1.93-.05,1.93-3.05,0-3l-129.4,3.42-128.74,3.4-72.62,1.92c-1.92.05-1.93,3.05,0,3Z" transform="translate(-4.97 -4.52)"/>
  <path class="cls-1" d="M91.75,297.53l129.39-3.42,128.74-3.4,72.62-1.92c1.93-.05,1.94-3.05,0-3l-129.4,3.42-128.73,3.4-72.62,1.92c-1.93.05-1.94,3.05,0,3Z" transform="translate(-4.97 -4.52)"/>
  <path class="cls-1" d="M91.75,289.69l129.39-3.42,128.74-3.4L422.5,281c1.93-.05,1.94-3.05,0-3l-129.4,3.42-128.73,3.4-72.62,1.92c-1.93.05-1.94,3.05,0,3Z" transform="translate(-4.97 -4.52)"/>
  <path class="cls-1" d="M91.75,283.8l129.39-3.42L349.88,277l72.62-1.92c1.93-.05,1.94-3.05,0-3l-129.4,3.42-128.73,3.4L91.75,280.8c-1.93.05-1.94,3.05,0,3Z" transform="translate(-4.97 -4.52)"/>
  <path class="cls-1" d="M91.75,275.77l129.39-3.42L349.88,269,422.5,267c1.93,0,1.94-3,0-3l-129.4,3.42-128.73,3.4-72.62,1.92c-1.93.05-1.94,3.05,0,3Z" transform="translate(-4.97 -4.52)"/>
  <path class="cls-1" d="M10.3,510.65l162.93.78,162.1.77,91.44.44a1.5,1.5,0,0,0,0-3l-162.93-.78-162.1-.78-91.44-.43a1.5,1.5,0,0,0,0,3Z" transform="translate(-4.97 -4.52)"/>
  <path class="cls-1" d="M10.3,518.55l162.93.78,162.1.78,91.44.44a1.5,1.5,0,0,0,0-3l-162.93-.78L101.74,516l-91.44-.44a1.5,1.5,0,0,0,0,3Z" transform="translate(-4.97 -4.52)"/>
  <path class="cls-1" d="M10.3,527.46l162.93.78,162.1.78,91.44.44a1.5,1.5,0,0,0,0-3l-162.93-.79-162.1-.77-91.44-.44a1.5,1.5,0,0,0,0,3Z" transform="translate(-4.97 -4.52)"/>
  <path class="cls-1" d="M20.72,536.37l162.93.78,162.11.77,91.44.44a1.5,1.5,0,0,0,0-3l-162.93-.78-162.11-.78-91.44-.43a1.5,1.5,0,0,0,0,3Z" transform="translate(-4.97 -4.52)"/>
  <path class="cls-1" d="M10.3,543.37l162.93.78,162.1.78,91.44.43a1.5,1.5,0,0,0,0-3l-162.93-.78-162.1-.77-91.44-.44a1.5,1.5,0,0,0,0,3Z" transform="translate(-4.97 -4.52)"/>
  <path class="cls-1" d="M16.17,550.37l162.93.78,162.1.78,91.45.44a1.5,1.5,0,0,0,0-3l-162.94-.78-162.1-.78-91.44-.44a1.5,1.5,0,0,0,0,3Z" transform="translate(-4.97 -4.52)"/>
  <path class="cls-1" d="M14.24,557.37l162.93.79,162.11.77,91.44.44a1.5,1.5,0,0,0,0-3l-162.93-.78-162.11-.78-91.44-.44a1.5,1.5,0,0,0,0,3Z" transform="translate(-4.97 -4.52)"/>
  <path class="cls-1" d="M10.3,564.38l162.93.78,162.1.77,91.44.44a1.5,1.5,0,0,0,0-3l-162.93-.78-162.1-.77-91.44-.44a1.5,1.5,0,0,0,0,3Z" transform="translate(-4.97 -4.52)"/>
  <path class="cls-1" d="M12.32,571.38l162.93.78,162.1.78,91.44.44a1.5,1.5,0,0,0,0-3l-162.93-.78-162.1-.78-91.44-.44a1.5,1.5,0,0,0,0,3Z" transform="translate(-4.97 -4.52)"/>
  <path class="cls-1" d="M543.12,368.46a1.5,1.5,0,0,0,0-3,1.5,1.5,0,0,0,0,3Z" transform="translate(-4.97 -4.52)"/>
  <path class="cls-1" d="M550,360.6l-.48-.48a9.24,9.24,0,0,0-12.72,0l-1.41,1.82a8.94,8.94,0,0,0-1.23,4.54l.32,2.39a8.93,8.93,0,0,0,2.32,4l.48.48a9.24,9.24,0,0,0,12.72,0l1.41-1.82A8.94,8.94,0,0,0,552.6,367l-.32-2.39a8.93,8.93,0,0,0-2.32-4Z" transform="translate(-4.97 -4.52)"/>
  <path class="cls-1" d="M704.88,192.6c4.71,0,9.22-4.14,9-9a9.15,9.15,0,0,0-9-9c-4.71,0-9.22,4.14-9,9a9.15,9.15,0,0,0,9,9Z" transform="translate(-4.97 -4.52)"/>
  <path class="cls-1" d="M700.56,518.76c4.71,0,9.22-4.14,9-9a9.15,9.15,0,0,0-9-9c-4.71,0-9.22,4.14-9,9a9.15,9.15,0,0,0,9,9Z" transform="translate(-4.97 -4.52)"/>
  <path class="cls-1" d="M504.72,562c4.71,0,9.22-4.14,9-9a9.15,9.15,0,0,0-9-9c-4.71,0-9.22,4.14-9,9a9.15,9.15,0,0,0,9,9Z" transform="translate(-4.97 -4.52)"/>
  <path class="cls-1" d="M481.68,537.48c4.71,0,9.22-4.14,9-9a9.15,9.15,0,0,0-9-9c-4.71,0-9.22,4.14-9,9a9.15,9.15,0,0,0,9,9Z" transform="translate(-4.97 -4.52)"/>
  <path class="cls-1" d="M579.6,424.44c4.71,0,9.22-4.14,9-9a9.15,9.15,0,0,0-9-9c-4.71,0-9.22,4.14-9,9a9.15,9.15,0,0,0,9,9Z" transform="translate(-4.97 -4.52)"/>
  <path class="cls-1" d="M627.12,566.28c4.71,0,9.22-4.14,9-9a9.15,9.15,0,0,0-9-9c-4.71,0-9.22,4.14-9,9a9.15,9.15,0,0,0,9,9Z" transform="translate(-4.97 -4.52)"/>
  <path class="cls-1" d="M690.48,392c4.71,0,9.22-4.14,9-9a9.15,9.15,0,0,0-9-9c-4.71,0-9.22,4.14-9,9a9.15,9.15,0,0,0,9,9Z" transform="translate(-4.97 -4.52)"/>
  <path class="cls-1" d="M481.68,125.64c4.71,0,9.22-4.14,9-9a9.15,9.15,0,0,0-9-9c-4.71,0-9.22,4.14-9,9a9.15,9.15,0,0,0,9,9Z" transform="translate(-4.97 -4.52)"/>
  <path class="cls-1" d="M468.72,274.68c4.71,0,9.22-4.14,9-9a9.15,9.15,0,0,0-9-9c-4.71,0-9.22,4.14-9,9a9.15,9.15,0,0,0,9,9Z" transform="translate(-4.97 -4.52)"/>
  <path class="cls-1" d="M559.44,112.68c4.71,0,9.22-4.14,9-9a9.15,9.15,0,0,0-9-9c-4.71,0-9.22,4.14-9,9a9.15,9.15,0,0,0,9,9Z" transform="translate(-4.97 -4.52)"/>
  <path class="cls-1" d="M689,132.12c4.71,0,9.22-4.14,9-9a9.15,9.15,0,0,0-9-9c-4.71,0-9.22,4.14-9,9a9.15,9.15,0,0,0,9,9Z" transform="translate(-4.97 -4.52)"/>
  <path class="cls-1" d="M678.24,285.48c4.71,0,9.22-4.14,9-9a9.15,9.15,0,0,0-9-9c-4.71,0-9.22,4.14-9,9a9.15,9.15,0,0,0,9,9Z" transform="translate(-4.97 -4.52)"/>
  <path class="cls-1" d="M490.32,395.64c4.71,0,9.22-4.14,9-9a9.15,9.15,0,0,0-9-9c-4.71,0-9.22,4.14-9,9a9.15,9.15,0,0,0,9,9Z" transform="translate(-4.97 -4.52)"/>
  <path class="cls-1" d="M708.48,577.08c4.71,0,9.22-4.14,9-9a9.15,9.15,0,0,0-9-9c-4.71,0-9.22,4.14-9,9a9.15,9.15,0,0,0,9,9Z" transform="translate(-4.97 -4.52)"/>
  <path class="cls-1" d="M576.72,508c4.71,0,9.22-4.14,9-9a9.15,9.15,0,0,0-9-9c-4.71,0-9.22,4.14-9,9a9.15,9.15,0,0,0,9,9Z" transform="translate(-4.97 -4.52)"/>
  <path class="cls-1" d="M120.62,423.07a13,13,0,0,0-5.81-9.88c-3.18-2.14-7-2.46-10.72-1.86-5.87.95-11.1,5.43-13.89,10.55a25.47,25.47,0,0,0-2.59,16.89,28.32,28.32,0,0,0,8.1,14.59c15.7,15.52,43.87,11.62,55.27-7.1a37.39,37.39,0,0,0,3.31-30.66,35.19,35.19,0,0,0-8.74-14.06,42.5,42.5,0,0,0-15.1-9.25A48.33,48.33,0,0,0,73,413.39a49.71,49.71,0,0,0-5.92,32.45C69,457.92,76.28,469,87.88,473.56a25.94,25.94,0,0,0,8.63,1.67,6.05,6.05,0,0,0,6-6,6.12,6.12,0,0,0-6-6l-.8,0-.41,0c-.53-.06-.53-.05,0,0l.4.05-.6-.09-.78-.16c-.59-.13-1.17-.29-1.74-.47l-.76-.25-.38-.14c-.61-.24-.5-.19.32.15-.31.06-1.17-.55-1.45-.7-.48-.25-.94-.52-1.4-.81s-.9-.59-1.34-.9c-.92-.61.17.19.24.21-.3-.08-.68-.56-.93-.78a25.44,25.44,0,0,1-2.42-2.45c-.17-.21-.34-.43-.52-.63-.58-.67.83,1.2.06.07-.35-.51-.7-1-1-1.53a30.35,30.35,0,0,1-1.7-3.05l-.35-.75c-.46-.95.08.14.11.3a20.67,20.67,0,0,0-.72-1.94,42.62,42.62,0,0,1-1.67-6.86c-.14-.8.14,1.26.06.45,0-.32-.07-.64-.11-1,0-.52-.08-1-.11-1.54-.07-1.15-.09-2.3-.06-3.46s.1-2.18.21-3.26c0-.26.06-.51.08-.76.09-.82-.19,1.25-.06.45.11-.64.21-1.27.33-1.9A42.67,42.67,0,0,1,80.77,425c.17-.49.36-1,.55-1.44.36-1-.11.25-.17.36.12-.22.21-.47.31-.7.51-1.11,1.05-2.2,1.65-3.27s1.1-1.88,1.7-2.79c.28-.43.57-.85.87-1.27l.45-.62c.81-1.09-.86,1,0,0a44.8,44.8,0,0,1,4.5-4.74c.43-.38.87-.76,1.32-1.12l.15-.12c.4-.32.4-.32,0,0l-.3.23.62-.46c.93-.68,1.89-1.32,2.87-1.92s1.77-1,2.68-1.51l1.38-.68.88-.4c.83-.37.34-.07-.19.08,1-.28,2-.79,3.07-1.12s2.34-.7,3.53-1c1-.23,2-.42,3-.59a4,4,0,0,0,.76-.11c-1.08.4-1,.12-.45.07l1.92-.18a43.07,43.07,0,0,1,6.72.07l1,.1c.58.05.51.33-.45-.07a7.42,7.42,0,0,0,1.52.24q1.71.31,3.39.78c1.09.3,2.17.64,3.23,1l.75.29c.2.08,1,.42.2.07s.28.13.39.18l.9.43c1,.5,2,1,3,1.64.45.27.9.56,1.34.86l.65.45c.31.23,1.2,1.08.06,0a64.68,64.68,0,0,1,4.95,4.85c.5.58-.73-1-.28-.36.18.24.36.48.53.73s.53.79.79,1.2a31.16,31.16,0,0,1,1.54,2.84c.1.21.18.45.29.65-.69-1.3-.33-.81-.18-.44s.34.9.5,1.35a28.64,28.64,0,0,1,.92,3.29c.11.46.2.94.29,1.41a6.6,6.6,0,0,0,.14.89c0-.09-.17-1.55-.07-.52s.18,2.15.2,3.23,0,1.93-.1,2.89c0,.29-.23,2.09-.08,1s0-.15,0,.1-.1.59-.15.88q-.32,1.59-.78,3.15c-.14.46-.29.91-.45,1.36-.08.23-.16.45-.25.68l-.2.5c-.17.42-.08.22.26-.61a19.85,19.85,0,0,0-1.28,2.57c-.54.94-1.14,1.83-1.76,2.72s.19-.3.28-.36a3.76,3.76,0,0,0-.56.68c-.3.36-.61.7-.93,1a27,27,0,0,1-2.41,2.25c-.17.15-.37.29-.53.44.07-.06,1.18-.87.38-.31l-1.13.8c-.87.57-1.77,1.11-2.69,1.59-.46.24-.93.47-1.4.69-1.32.61,1.18-.46-.17.08-1,.38-2,.72-3,1s-1.91.5-2.88.68c-.45.08-.93.12-1.37.23,1.84-.47.12,0-.49,0a35.17,35.17,0,0,1-6.07-.11c-.84-.08,1.61.27.39.05l-.69-.11-1.35-.28a27.87,27.87,0,0,1-3-.87c-.43-.14-.87-.39-1.3-.49,1.23.28.92.41.47.2l-.78-.37a28.29,28.29,0,0,1-2.89-1.64,13.43,13.43,0,0,0-1.39-1s1.16.95.32.25l-.58-.49a25.77,25.77,0,0,1-2.43-2.36c-.16-.18-.77-1.13-1-1.15.27,0,.74,1,.26.32-.15-.2-.29-.4-.43-.61a22.84,22.84,0,0,1-1.77-3.07c-.63-1.34.4,1.1-.12-.28-.19-.53-.37-1.06-.52-1.59s-.25-1-.35-1.46a3.82,3.82,0,0,0-.13-.71c.12,1,.15,1.2.1.72l-.06-.52a19,19,0,0,1,0-2.82c0-.2.21-1.33,0-.25s0,.17,0-.08c.09-.52.2-1,.33-1.55s.29-1,.46-1.52c.08-.22.17-.43.25-.65.28-.78-.69,1.39-.12.3a29.42,29.42,0,0,1,1.58-2.71c.36-.52.4-.07-.31.39a3.72,3.72,0,0,0,.45-.53c.3-.35.63-.68,1-1,.17-.15.35-.3.51-.46.87-.84-.93.64-.26.18.43-.3.85-.6,1.31-.86.29-.17.6-.3.88-.47.71-.42-1,.33-.23.09.25-.07,1.69-.69,1.88-.53,0,0-1.57.07-.32,0,.29,0,.58,0,.86,0,.83,0,0-.23-.31-.09.25-.12.93.23,1.18.29.8.19-.33.24-.44-.19,0,0,.65.36.62.35.52.29.21.49-.34-.3a3.06,3.06,0,0,0,.52.49c.7.61-.21-.19-.26-.39a3.25,3.25,0,0,0,.37.6c.66,1-.25-1-.13-.3.08.45.18,1.29,0-.38a6.45,6.45,0,0,0,1.76,4.24,6.12,6.12,0,0,0,4.24,1.76c3-.14,6.34-2.66,6-6Z" transform="translate(-4.97 -4.52)"/>
  <path class="cls-1" d="M181.21,435.87q42.4-1.11,84.81-1t84.55,1.47q23.82.76,47.61,1.92a6,6,0,0,0,6-6,6.12,6.12,0,0,0-6-6q-42.36-2.06-84.76-2.87T228.85,423q-23.82.24-47.64.86c-3.13.08-6.14,2.7-6,6a6.1,6.1,0,0,0,6,6Z" transform="translate(-4.97 -4.52)"/>
  <path class="cls-1" d="M172.57,150.34l.72-.38c-.08,0-.63.21-.14.07s.87-.29,1.32-.39,1.16-.15.37-.1c.53,0,1-.07,1.59-.07s.93.06,1.4.08-.1,0-.18,0l.61.11a24.49,24.49,0,0,1,3,.78l1.2.43.79.3c-.08,0-.57-.25-.1,0,1,.44,1.91.88,2.84,1.37,1.73.91,3.43,1.89,5.16,2.79,4,2.09,8.19,3.81,12.75,4.13a21.15,21.15,0,0,0,11.18-2.67c2.93-1.5,5.58-3.5,8.36-5.25a39.26,39.26,0,0,1,4.27-2.33c-.8.38,0,0,.35-.11s.65-.22,1-.31.77-.21,1.16-.29c.17,0,.34-.05.5-.09.56-.12-.87,0,0,0a19.65,19.65,0,0,1,2.17,0l.5,0c.89.07-.16,0-.22,0a3.72,3.72,0,0,1,1.3.26,21.47,21.47,0,0,1,2.08.6l1.11.41c.09,0,.64.24.09,0s.15.07.25.11c3,1.33,5.79,3,8.7,4.5a32.47,32.47,0,0,0,9.69,3.55,24.33,24.33,0,0,0,12.31-1.45c1.93-.7,3.84-1.48,5.82-2,1-.28,2-.5,3-.69.31,0,.62-.09.93-.15.52-.11.07,0,0,0,.62-.09,1.25-.14,1.87-.2a119.07,119.07,0,0,1,13.09-.11l55.49,1.19,55.3,1.19,7,.15a4.5,4.5,0,0,0,0-9l-55.78-1.2-55.74-1.2c-9.05-.19-18.61-1.12-27.44,1.35-2,.55-3.89,1.33-5.83,2-.95.34-1.92.67-2.9.94-.42.12-.84.23-1.26.32l-.85.16c.47-.09.26,0-.09,0a16.83,16.83,0,0,1-2.46,0l-.5-.05c-.53,0,.38.05.37.05a3.81,3.81,0,0,1-1.3-.26,21.7,21.7,0,0,1-2.26-.66q-.48-.16-1-.36l-.63-.25c.32.13.61.27.13,0-6-2.79-11.71-7-18.35-8a21,21,0,0,0-11.74,1.61,55.51,55.51,0,0,0-8.43,5c-1.37.91-2.75,1.79-4.2,2.56-.36.19-.72.37-1.09.54l-.46.22c.13-.06.89-.34.12-.06a20.11,20.11,0,0,1-2.28.72c-.21,0-1.34.26-.75.16s-.06,0-.17,0l-.85.05c-.42,0-.84,0-1.26,0l-.84-.07c.47,0,.34,0,0,0a25.54,25.54,0,0,1-2.86-.74l-1.21-.44c-.12,0-.8-.32-.12,0l-.79-.35c-7.5-3.42-14.72-9-23.44-8.2a17.35,17.35,0,0,0-6.81,2,4.53,4.53,0,0,0-1.62,6.15,4.6,4.6,0,0,0,6.16,1.62Z" transform="translate(-4.97 -4.52)"/>
  <path class="cls-1" d="M155.23,183.88c3.36,4,8.48,6.09,13.53,7,5.65,1,11.44,1,17.16,1.36a154.65,154.65,0,0,0,18.14.31c1.66-.11,3.32-.29,5-.51l2.31-.33.86-.13a2.56,2.56,0,0,1,.54-.07,26.37,26.37,0,0,1,3.87-.23c.35,0,.7,0,1,.06.74,0-.95-.28.25,0,.27.07.54.12.81.2.11,0,1.24.52.49.13.5.26.94.57,1.43.84s-.78-.68.08,0l.54.47c.9.79,1.73,1.65,2.62,2.45a14.85,14.85,0,0,0,7,3.95c4.62.86,8.67-1.06,12.27-3.8,1-.73,1.9-1.48,2.85-2.23.2-.15.4-.32.61-.47-.09.06-.81.6-.17.13.41-.3.82-.61,1.24-.9.78-.54,1.6-1,2.43-1.45s0,.18-.15,0c0,0,.58-.21.54-.2.24-.08,1.29-.21,1.38-.36-.19.3-1.06,0-.2,0,.26,0,.52,0,.78,0a6.22,6.22,0,0,0,.68.05c-.28.23-.81-.19-.2,0s1.07.31,1.6.5c-1-.38.45.26.78.44,2,1.08,3.76,2.44,5.72,3.54a17.29,17.29,0,0,0,8.06,2.39,18.23,18.23,0,0,0,8.56-2.26,45.43,45.43,0,0,0,7.17-4.9l.82-.64c.1-.08.66-.51.08-.07.52-.39,1-.77,1.57-1.14a28.86,28.86,0,0,1,3.55-2.11c-.07,0,1.21-.54.63-.3s.71-.25.64-.22c.59-.2,1.2-.3,1.79-.48s-1,0,.2,0c.27,0,.53,0,.8,0s.53,0,.79,0c-1-.08.14.06.38.13,0,0,1.23.48.56.17s.22.13.28.16c.33.18.63.4.94.6.78.51-.51-.55-.13-.1a4.69,4.69,0,0,0,.53.47c.35.33.68.68,1,1s.57.67.85,1,.6.33-.06-.09a3.08,3.08,0,0,1,.35.48c.59.8,1.16,1.61,1.75,2.42a29.64,29.64,0,0,0,4,4.81c3.55,3.2,8.34,4.48,12.86,2.57,3.64-1.53,6.2-4.5,8.83-7.34.58-.62,1.16-1.24,1.78-1.83.33-.31.68-.61,1-.91s.36,0-.28.2a3.65,3.65,0,0,0,.65-.46c.33-.21.67-.39,1-.58.88-.5-.92.28.23-.08.21-.06,1.49-.35.66-.18s0,0,.19,0h.31c.51,0,.42,0-.28-.07a7.85,7.85,0,0,1,1.31.33c.55,0-.93-.51-.12-.06l.54.28c.4.23.77.49,1.16.75s.8.3,0,0a3.59,3.59,0,0,1,.74.61c1.53,1.33,2.94,2.79,4.52,4.07a17.27,17.27,0,0,0,6.89,3.75,15.84,15.84,0,0,0,8.39-.41c5.15-1.67,9.34-5.15,14.18-7.45.26-.12.53-.25.8-.36-.7.29.18,0,.35-.12.62-.22,1.24-.42,1.88-.6s1.26-.34,1.9-.47l1.07-.21c.18,0,1.43-.23.54-.11a49.34,49.34,0,0,1,8.42-.29c5.9.23,11.78,1,17.64,1.55l9.17.9c2.35.23,4.6-2.23,4.5-4.5a4.63,4.63,0,0,0-4.5-4.5l-18.77-1.84c-5.47-.53-11-1-16.46-.32a34.06,34.06,0,0,0-8.8,2.11,52.57,52.57,0,0,0-7.4,3.87c-1.06.64-2.11,1.28-3.18,1.89-.53.3-1.06.59-1.6.86l-.71.35c-.28.13-1.09.45-.35.17a15.84,15.84,0,0,1-3.23.91c1-.16.19,0-.08,0s-.61,0-.91,0-.8-.16.1,0c-.38-.08-.74-.15-1.11-.26a3.07,3.07,0,0,1-.67-.22l.49.21-.43-.2c-.41-.24-.83-.46-1.24-.72l-.53-.37c-.88-.58.51.46,0,0s-.84-.71-1.24-1.07c-1.72-1.53-3.34-3.12-5.17-4.52a12.66,12.66,0,0,0-13.59-1.51c-3.35,1.63-5.76,4.72-8.26,7.37-.58.61-1.17,1.21-1.79,1.78-.13.11-1.19,1-.58.51s-.08,0-.18.12l-.65.41c-.22.13-.66.49-.91.47.48,0,.92-.3.26-.14a6.06,6.06,0,0,0-.61.16c-.39.14-.52-.16.44,0a3.2,3.2,0,0,0-.52,0,3.74,3.74,0,0,0-.67,0c-.37.06,1.06.28.12,0l-.63-.17c-.41-.09-.32-.35.35.18-.28-.22-.71-.35-1-.55a2.66,2.66,0,0,0-.53-.37c.09,0,.82.72.29.21-.33-.31-.66-.61-1-.94s-.62-.69-.92-1c0-.05-.36-.44-.36-.44s.58.77.17.22c-.58-.8-1.16-1.6-1.73-2.41-2.69-3.74-5.63-7.37-10.23-8.77-5.9-1.8-12.08,1-16.78,4.47-1.22.88-2.38,1.83-3.57,2.75.62-.48-.56.41-.77.57-.63.46-1.26.9-1.91,1.33a33.25,33.25,0,0,1-3.24,1.83c-.67.33.95-.28-.23.08-.26.07-.51.17-.76.25l-.76.2c-.36.08-1.16.15-.36.09a10.8,10.8,0,0,1-2,0c.87.09-.31-.1-.62-.18s-.54-.2-.82-.28c-.65-.18.94.49,0,0-.52-.27-1.05-.53-1.55-.82-1.95-1.12-3.74-2.48-5.73-3.53a15.69,15.69,0,0,0-7.44-2.06,15.1,15.1,0,0,0-6.93,1.93,37.69,37.69,0,0,0-5.42,3.8l-1,.77-.6.48c-.52.41.88-.65.06,0s-1.52,1.1-2.32,1.58c-.37.22-.75.41-1.12.61-.67.37.21-.12.31-.11a2.41,2.41,0,0,0-.63.23,6.07,6.07,0,0,0-1.17.29c.52-.33.92-.06.4-.06h-.81c-.89,0,.73.28.23,0a4,4,0,0,0-.76-.18c-.26-.06-.7-.36.11.08l-.61-.32c-.25-.14-.49-.3-.73-.46s-.8-.66-.06,0c-.45-.39-.9-.77-1.33-1.18a26.55,26.55,0,0,0-5.78-4.63,17.72,17.72,0,0,0-9-1.74c-1.56.08-3.11.31-4.66.53l-2.15.32-.14,0-1.46.17a84.59,84.59,0,0,1-9.28.36c-6.08-.08-12.15-.52-18.21-.85-1.25-.06-2.5-.12-3.74-.21l-1.71-.15-1-.09c-.24,0-1.38-.19-.32,0-1.13-.17-2.25-.37-3.35-.64q-.74-.18-1.44-.39l-.88-.29c-.12,0-1.22-.47-.66-.23s-.44-.22-.45-.22l-.64-.34a13.71,13.71,0,0,1-1.38-.84c-.22-.15-.79-.68-.09-.06-.18-.16-.37-.31-.54-.48a13.11,13.11,0,0,1-1.25-1.33c-1.52-1.81-4.82-1.68-6.37,0a4.61,4.61,0,0,0,0,6.36Z" transform="translate(-4.97 -4.52)"/>
  <path class="cls-1" d="M165.65,216.56l23.88,1.36a152.88,152.88,0,0,0,22.95,0c3.7-.34,7.38-.78,11.09-1a96.63,96.63,0,0,1,11.79.07c7.72.47,15.41,1.26,23.14,1.65,15.6.77,31.22,1.37,46.82,2S336.23,222,351.69,222a350,350,0,0,0,52.46-3.51c2.34-.36,3.83-3.42,3.14-5.54-.82-2.55-3-3.52-5.53-3.14l-2.91.42-.75.1-1.45.19c-1.95.25-3.89.47-5.84.67q-5.6.59-11.21,1c-7.66.52-15.33.77-23,.83-15.38.14-30.76-.46-46.12-1.12l-46.56-2c-7.73-.34-15.43-.86-23.13-1.5a126.32,126.32,0,0,0-23,0c-4.35.43-8.69.9-13.06,1s-8.5-.09-12.75-.32c-8.77-.48-17.54-1-26.32-1.5a4.53,4.53,0,0,0-4.5,4.5,4.61,4.61,0,0,0,4.5,4.5Z" transform="translate(-4.97 -4.52)"/>
</svg>
