<svg id="spells-charms-rituals" xmlns="http://www.w3.org/2000/svg" viewBox="0 0 755.36 697.13">
  <defs>
    <style>
      .cls-1 {
        fill: #4b3a68;
      }
    </style>
  </defs>
  <path class="cls-1" d="M288.45,76c-7.65,2.59-15.13,5.19-21.51,9.8-5.89,4.21-9.73,10.29-9.71,17a18,18,0,0,0,9.89,16.11A22.54,22.54,0,0,0,279.06,121c2.32-.19,4.62-.53,6.91-.86l1.34-.2c.61-.09,2,0-.2,0,.86,0,1.74-.16,2.63-.17H291c1.55,0-1.77-.4-.29,0l1.24.3c1.5.36-1.49-.77-.29-.09a5.91,5.91,0,0,0,1,.54l-.9-.61c.19.14.38.3.56.45s.5.5.78.73c-.77-.89-.93-1.06-.48-.52.14.18.28.37.41.56s.36.59.54.87c.68,1.12-.57-1.52-.16-.3a15.39,15.39,0,0,1,.51,1.63c.13.56,0,1.48,0-.4,0,.33.07.68.09,1s0,.74,0,1.12a4.37,4.37,0,0,1-.15,1.83l.12-.82c-.05.31-.1.61-.17.91-.08.45-.18.9-.29,1.35-.23.91-.48,1.81-.73,2.71a53.11,53.11,0,0,0-1.3,5.37,32.78,32.78,0,0,0-.07,11.35,26.24,26.24,0,0,0,12,17.64c5.79,3.73,13.37,4.57,20.33,3.58,7.45-1,13.76-5.31,16.6-11.38a21,21,0,0,0,1.46-6.12c.05-.4.58-2.27.32-2.54l-.14.86a5.55,5.55,0,0,1,.15-.86,11.59,11.59,0,0,1,.32-1.26,7.65,7.65,0,0,0,.35-.94l-.45.92c.11-.2.23-.41.36-.61a6.9,6.9,0,0,0,.63-.87l-.69.77c.16-.17.34-.34.52-.51l.28-.23c.56-.44.36-.32-.63.37a3.87,3.87,0,0,0,1-.51l-1.09.4.72-.18c-1.37.12-1.66.15-.86.11s.53,0-.85-.16a5.81,5.81,0,0,0,.94.2c-1.29-.13-1.59-.6-.67-.19,1.1.5-1.37-1.16-.56-.36.2.2.87.91,0-.06s.18.45.37.75c-1.05-1.56-.5-1.09-.27-.47.14.38.24.77.34,1.15s.11.6.18.86c-.5-2-.16-1.07-.11-.5a18.07,18.07,0,0,1,.07,1.83c0,1.77-.27,3.55-.43,5.32l-2.17,23.16c-.73,7.86-2.14,16.09.34,23.83a25,25,0,0,0,16.83,16.14c8.42,2.5,17.1-.12,23.71-4.64a27.47,27.47,0,0,0,11.58-17.73c1.39-7.79.18-15.34-.16-23.11,0-.82-.06-1.64,0-2.46,0-.41.06-.82.06-1.23.07-1.45-.38,1.52,0,.11.17-.67.35-1.31.58-2,.47-1.33-.88,1.22,0,.06.15-.24.31-.47.48-.71.44-.53.27-.36-.49.54a5,5,0,0,0,.81-.71c1-.86-1.53.79-.28.2a7.6,7.6,0,0,0,1-.49l-1.07.38c.24-.08.48-.16.73-.22.88-.22,1.29.09-.5,0h1.12c1.44,0-1.9-.34-.51,0,1.22.28-1.79-.77-.12,0,1.12.54-1.33-1.14-.51-.31h0c-.89-.93.17.44.37.75-1.08-1.61-.52-1.1-.28-.51.1.28.2.55.29.82.21.67.39,1.34.56,2a18.3,18.3,0,0,0,4.53,8.76c6.69,6.77,19.41,4.53,25.38-1.73,3-3.16,4.72-6.73,6.39-10.51H415.9l6.69,35.06c.84,4.33,1.44,8.77,3.33,12.88,2.12,4.6,5.28,9.11,10.61,11.35A20.43,20.43,0,0,0,447,226a22.39,22.39,0,0,0,10.44-4.11c5.07-3.59,7.65-9.14,8.76-14.6s1.83-11.19,2.72-16.77l2.79-17.66,2.79-17.67c.41-2.6.77-5.19,1.38-7.79a30,30,0,0,1,1.11-3.65c.2-.53.48-1.05.66-1.57-.48,1.41-.41.79-.17.39s.42-.75.66-1.11c.34-.53.73-1,1.1-1.53.53-.73-1.28,1.24-.28.3.19-.17.37-.36.56-.55.38-.35.78-.7,1.2-1,.16-.13,1.27-.87.23-.2s0,0,.28-.14c.6-.34,1.22-.62,1.84-.92s.66.09-.63.22a6.77,6.77,0,0,0,.8-.25c.6-.18,1.2-.28,1.82-.41.92-.19-1.7.11-.75.09h1.25l.84,0c1,0-2-.39-.53,0,.44.11.89.19,1.32.32,1.7.51-1.44-.71-.14,0,.46.23.91.46,1.36.71,1.28.72-1.46-1.1-.15-.09.32.25.62.5.92.77s.71.69,1.06,1,.65.92-.56-.64l.58.7c2.38,3,4.11,6.27,6.42,9.27a27.35,27.35,0,0,0,12.94,9.58c10.54,3.74,23,.41,31.49-5.53,9.5-6.65,13-17.68,14.08-27.79,1.2-11.25,0-22.82-1.81-34-.46-2.84-1-5.67-1.64-8.49-.75-3.33-5.56-5.54-9.19-4.52-3.9,1-6.2,4.53-5.21,8,.66,2.82,1.21,5.64,1.65,8.48,0,.31.08.64.15.94,0-.18-.22-1.49,0-.3.09.63.19,1.26.27,1.9.19,1.42.36,2.84.51,4.27a141.24,141.24,0,0,1,.78,16.7,65.12,65.12,0,0,1-.37,6.83q-.07.78-.18,1.56c0,.25-.1.52-.11.77.09-1.79.14-.86,0-.37-.2,1.16-.45,2.31-.75,3.46a29.56,29.56,0,0,1-1,3.18c-.18.48-.36,1-.56,1.46-.1.23-.21.47-.31.72-.52,1.24.65-1.26.07-.13s-1.08,2-1.71,2.9c-.34.51-.7,1-1.07,1.48l-.51.64-.26.31c-.47.55-.36.43.33-.37a23.58,23.58,0,0,0-2.05,1.94c-.35.3-.72.59-1.1.86-.19.14-1.19.87-.12.11s.09-.07-.15.08a27.9,27.9,0,0,1-2.91,1.55c-.45.21-.9.41-1.37.6l-.69.27c2.11-.87.87-.32.36-.16a29,29,0,0,1-2.91.78c-.55.12-1.11.23-1.66.31l-.75.11c-.81.12,2.13-.18.5-.07-1,.07-2.1.09-3.15.07-.48,0-1-.1-1.46-.11,2.5.05.64.08-.16-.07-.47-.09-.93-.2-1.39-.32s-2.14-.71-.79-.21-.31-.16-.56-.28c-.54-.25-1-.54-1.55-.86-1.3-.75,1.38,1,0-.06-.34-.26-.65-.53-1-.82s-.62-.58-.92-.86l-.44-.46c-.85-.87,1,1.25.33.36-2.32-2.9-4.11-6-6.28-9.06-2.54-3.46-5.8-6.92-10.21-8.65a23.47,23.47,0,0,0-19.63,1,24.71,24.71,0,0,0-11.71,13.68c-1.84,5-2.29,10.38-3.1,15.57L454,190.09c-.83,5.28-1.33,10.7-2.72,15.89a29.21,29.21,0,0,1-1.17,3.37c-.31.81.66-1.17.2-.41-.19.31-.35.63-.53.93-.32.51-.69,1-1.06,1.48-.53.72,1.28-1.23.26-.31l-.58.55c-.39.35-.86.65-1.25,1,1.07-1,1-.63.49-.34l-.71.4a7.45,7.45,0,0,1-.75.37l-.76.32,1-.37a12.79,12.79,0,0,0-1.83.43c-.92.21,1.68-.09.73-.09h-.85c-.72,0-1.36-.31.55.13-.22-.05-.47-.07-.7-.11s-1.5-.22-1.65-.44,1.87.86.88.29l-.58-.28-.56-.32c-1-.51.81.48.73.5s-1-.82-1.1-.87l-.44-.43c-.88-.86.26.44.42.5-.62-.24-1.33-1.82-1.63-2.33a5.23,5.23,0,0,1-.61-1.14s.73,1.64.33.68c-.12-.3-.25-.6-.37-.87a33.14,33.14,0,0,1-1.6-5.35C435.86,192.07,434,181,431.88,170l-1.6-8.41c-.5-2.66-4.19-4.88-7.19-4.76a7.76,7.76,0,0,0-7.2,4.76,17.91,17.91,0,0,0-1,2.19c.46-1.64.31-.61,0-.1-.2.35-.39.71-.6,1-.35.58-.71,1.15-1.12,1.73l-.25.32c-.46.56-.33.43.37-.37-.41.18-.87.86-1.21,1.17l-.33.27c-.63.47-.45.36.55-.33-.34.17-.67.36-1,.56s-1.44.59-.19.15,0,0-.25.05-.78.17-1.17.27c-1.44.34,1.88,0,.39-.06a7.75,7.75,0,0,0-1.18,0c1.33.19,1.61.21.84.09-.26,0-.51-.1-.75-.16-1.22-.24.8.26.73.28l-.34-.16c-.65-.36-.46-.21.55.44a8.17,8.17,0,0,0-.7-.6c-.93-.79,1,1.39.39.41-.15-.24-.32-.49-.47-.74-.65-1,.65,1.61.24.5-.21-.56-.42-1.11-.59-1.67-.81-2.71-1.33-5.43-3-7.89a14.58,14.58,0,0,0-11.71-6.06,17.61,17.61,0,0,0-12.37,4.7c-6.38,6.2-5,14.77-4.38,22.39a68.69,68.69,0,0,1,.25,10.73c-.06.73-.21,1.46-.25,2.2.1-1.83.06-.42,0,0s-.19.86-.3,1.3c-.23.86-.49,1.73-.81,2.59-.12.31-.24.61-.37.91-.6,1.43.72-1.22.06-.13-.73,1.25-1.72,2.37-2.48,3.6.78-1.26.8-.87.41-.48s-.52.55-.8.81a22.7,22.7,0,0,1-2,1.73c-.3.23-.66.43-.94.68,1.45-1.25.73-.49.2-.18a17.6,17.6,0,0,1-1.71.93l-1.06.49c-.67.28-1.56.27.32-.1-.75.15-1.48.47-2.24.63-.38.09-.77.15-1.15.23-1.46.28,1.92-.11.43-.05a23,23,0,0,1-2.35,0c-.71,0-1.65-.42.41.07-.25-.06-.53-.08-.79-.13l-1.17-.28c-.39-.1-.54-.15-.8-.23l.64.23a22.4,22.4,0,0,0-2.14-1.06l-.34-.2c-.62-.4-.45-.28.54.37a3.21,3.21,0,0,0-.65-.5c-.6-.49-1.14-1-1.69-1.53-1-1,1,1.28.16.19-.31-.4-.62-.78-.9-1.19s-.68-1-1-1.57-.34-1.37.09.26a9.47,9.47,0,0,0-.42-1,19,19,0,0,1-.72-2.33c-.08-.29-.14-.59-.21-.86s-.11-.6-.16-.87c.14,1,.17,1.1.07.37a63.23,63.23,0,0,1,.23-10.92q1-11.34,2.12-22.65c.34-3.79.77-7.58,1.05-11.38a18.84,18.84,0,0,0-1.06-8.27A13.66,13.66,0,0,0,346.6,134a15.43,15.43,0,0,0-13.72,3.09c-3.74,3.08-5,7.18-5.63,11.46-.12.85-.23,1.69-.33,2.54s-.24-.21.08-.45a4.94,4.94,0,0,0-.25,1.26,9.12,9.12,0,0,1-.37,1.22c-.24.68-1,1.51.18-.23l-1,1.54c-.43.67,1.34-1.35.5-.56-.22.2-.41.4-.63.59l-.69.56c-.94.77,1.6-1,.52-.34-.49.29-1,.56-1.49.81l-.72.32c-1.09.5,2-.65.28-.11a35.72,35.72,0,0,1-3.55.8c2.64-.55.43-.05-.39,0s-1.6,0-2.4,0l-.86-.07c-1,0,2.11.32.8.08-.67-.12-1.33-.23-2-.39s-1.28-.39-1.93-.58c2.45.72.34.09-.33-.25-.29-.14-.57-.29-.85-.45-.57-.33-.9-.87.31.24-.54-.51-1.25-.92-1.82-1.42s-.84-.93-1.34-1.31c1.38,1.07.65.75.22.21q-.46-.57-.87-1.17a11.62,11.62,0,0,1-1-1.73c-.29-.62-.32-1.17.2.44-.11-.32-.3-.65-.43-1a25.53,25.53,0,0,1-1.18-4.07c-.28-1.31.18,1.66,0,.33,0-.35-.08-.7-.1-1,0-.71-.08-1.41-.07-2.12s0-1.18.06-1.73a9.28,9.28,0,0,1,.1-1.06c.22-1.78-.25,1.13,0,0,1.63-7.1,4.76-14.59,1.57-21.72a17.26,17.26,0,0,0-8.66-9c-4.54-2-9.29-2-14.2-1.39-1.79.23-3.58.51-5.36.79-1.57.25,1.47-.13.42,0l-1.13.09c-.44,0-.88.06-1.33.06a10.4,10.4,0,0,0-1.76-.06l1.18,0-.77-.14c-.33-.06-.66-.14-1-.23-1.72-.5,1.61.74,0,0q-.42-.2-.81-.42c-.63-.37-.86-.86.52.37-.45-.41-1-.86-1.41-1.23-.63-.55,1.18,1.47.51.57-.16-.23-.34-.45-.5-.69-.42-.6-1-2.33-.22-.16-.18-.49-.4-1-.56-1.45-.22-.7-.35-2.75-.19-.33a23.35,23.35,0,0,1,0-3.13c.08-1.18-.37,1.73-.1.59.07-.27.12-.56.2-.86.18-.65.46-1.27.68-1.91-.71,2.06-.3.61.08,0a17.16,17.16,0,0,0,1.22-1.62l-.65.73c.17-.19.34-.38.53-.56l.84-.81c.58-.53,1.18-1,1.82-1.52a7.68,7.68,0,0,0,1-.7c-1.2,1.21-.74.5-.14.12s1.41-.86,2.13-1.23c1.5-.8,3-1.53,4.61-2.19.73-.31,1.46-.61,2.2-.87.34-.13.69-.25,1-.39,1.48-.57-1.66.59-.15.07s3.28-1.16,5-1.73a8.1,8.1,0,0,0,4.46-3,5.89,5.89,0,0,0,.76-5c-1.15-3.08-5.29-5.83-9.19-4.53Z" transform="translate(-3.77)"/>
  <path class="cls-1" d="M314.52,16.83l-.06-.3.27,1.73a7.44,7.44,0,0,1,0-2L314.46,18a8.2,8.2,0,0,1,.59-1.92l-.75,1.55a12.43,12.43,0,0,1,1.12-1.79c.63-.86-1.36,1.34-.1.15.28-.27.56-.52.86-.76.51-.41,1.63-.87-.27.11.36-.19.7-.42,1-.62a20.22,20.22,0,0,1,2.45-1.13l-1.79.66a20.92,20.92,0,0,1,4.23-1l-2,.23a32.3,32.3,0,0,1,7.42.07l-2-.24a106.8,106.8,0,0,1,14.08,3.23c4.64,1.24,9,2.27,13.61,3.23a286,286,0,0,0,29.36,4.45,271.53,271.53,0,0,0,56.79-.2c11-1.21,21.89-3.34,32.83-4.64l-2,.23a90.29,90.29,0,0,1,20.19-.41l-2-.23a50.91,50.91,0,0,1,11.64,2.69L498,21a45.84,45.84,0,0,1,8.5,4.23c.44.29,1.4,1.09-.32-.22.28.22.59.41.88.61.66.49,1.33,1,2,1.51a43.26,43.26,0,0,1,3.28,2.9c.55.52,1.08,1.06,1.59,1.61.24.25.46.51.71.76-1.51-1.53-.58-.65-.26-.28,1,1.12,1.87,2.28,2.73,3.46a52.07,52.07,0,0,1,4.53,7.66l-.75-1.56c4.55,9.51,6.38,19.68,8,29.81l-.27-1.73c.58,3.78,1.19,7.58.61,11.39l.27-1.73a14.66,14.66,0,0,1-1.07,3.8l.75-1.55a10.4,10.4,0,0,1-.84,1.44c-.16.23-.36.44-.51.67,1-1.51.89-1,.38-.48-.22.2-.43.39-.67.58-.56.44-1.25.44.5-.32-.65.29-1.25.68-1.93.95l1.79-.65a19.69,19.69,0,0,1-4.44,1l2-.23q-4.59.38-9.2.34l-10.08.19q-9.84.18-19.68.33c-13.28.2-26.58.35-39.87.37-26.54,0-53.09-.39-79.6-1.85-14.51-.81-29.08-1.73-43.48-3.46l2,.23a68.28,68.28,0,0,1-15.39-3.29l1.78.66a34.41,34.41,0,0,1-4-1.73c-.62-.34-1.2-.75-1.83-1.07,1.85.94.84.58.35.22-.33-.24-.64-.49-1-.74-.54-.45-1.07-.93-1.56-1.42-.18-.19-1.09-1.18-.24-.23s0-.06-.18-.26a20,20,0,0,1-2.16-3.52l.74,1.55a26.32,26.32,0,0,1-2.12-7.13l.26,1.73A56.56,56.56,0,0,1,300,53.57c.32-4.65.7-9.32,1.41-13.94l-.26,1.73a51.41,51.41,0,0,1,4.11-14.08l-.75,1.55a35,35,0,0,1,3-5.1,24.27,24.27,0,0,1,1.85-2.4c.13-.16.92-1,.09-.11s0,.05.11-.09c.34-.37.71-.74,1.08-1.1.75-.71,1.52-1.39,2.35-2,.41-.33.83-.64,1.25-.95.14-.11.49-.26.58-.4-.15.24-1.52,1-.48.34a32.15,32.15,0,0,1,6-2.94l-1.78.66A35.7,35.7,0,0,1,326.1,13l-2,.23a44.13,44.13,0,0,1,9.68.1l-2-.23a69.13,69.13,0,0,1,15.05,3.84l-1.78-.65a160.91,160.91,0,0,1,15.4,6.81c3.39,1.68,8.32.8,10.21-2.32s.83-7-2.68-8.88c-8.33-4.12-17-8.09-26.33-10.26A57,57,0,0,0,327,0,45.21,45.21,0,0,0,311.85,3.2a39.32,39.32,0,0,0-18.33,15.57c-4.86,7.69-6.67,16.29-7.66,24.93-.82,7.18-1.71,14.7-.65,21.86a31.69,31.69,0,0,0,4,12,28.23,28.23,0,0,0,9.71,9.3c7.34,4.5,16.58,5.83,25.28,6.81,9.78,1.11,19.64,1.85,29.49,2.52,20.16,1.39,40.37,2.13,60.59,2.46s40.52.26,60.77,0q15.25-.2,30.51-.48l14.92-.28c5.12-.1,10.68-.48,15-3.15a17.3,17.3,0,0,0,8-10.26A27.61,27.61,0,0,0,544,74.2c-.47-4.33-1.24-8.56-2-12.81a117.52,117.52,0,0,0-2.71-12.11C535,34.32,525.79,19.8,510,11.84c-8.45-4.28-18.22-6.06-27.95-6-9.95,0-19.83,1.73-29.59,3.32-4.54.73-9.07,1.39-13.64,1.93l2-.23a271.09,271.09,0,0,1-48.68,1.23q-7-.45-13.86-1.25l2,.23a263.65,263.65,0,0,1-34.42-6.33c-11.8-3-25.28-7.55-36.73-1.08a20.87,20.87,0,0,0-7.29,6.44A13.37,13.37,0,0,0,300,20.38a6.79,6.79,0,0,0,3.54,3.77,8.62,8.62,0,0,0,5.75.65,7.46,7.46,0,0,0,4.46-3,6.55,6.55,0,0,0,.75-5Z" transform="translate(-3.77)"/>
  <path class="cls-1" d="M513.48,155.35C483.14,200,482.72,255.84,507,302.63c12.1,23.42,30.56,43.92,53.8,59.75,29.2,19.71,64.13,31.38,93.88,50.27,48.24,30.69,80.82,80.68,85.9,131.88,5,50.08-15.83,111.59-76.76,128.41-17.42,4.81-35.68,6-53.84,6.67-20.46.7-41,1-61.43,1.29q-62.17.93-124.38.5t-124.37-2.25c-38-1.1-76.28-1.73-114-5.88-33.14-3.65-66.67-10.94-95.16-26.55C64.48,632.24,44.2,611,32.6,586a115.16,115.16,0,0,1-6.79-80.11c7.67-27.56,24.48-52.81,47.13-73.13,44.91-40.22,108.92-57.83,161.93-88.32,27.14-15.57,51.49-34.74,68-59.36,16.74-24.95,25.22-53.44,24.51-82.32a131.17,131.17,0,0,0-7.86-41c-3.48-9.51-20.77-5.45-17.27,4.14a119.72,119.72,0,0,1,.11,81.64c-9.32,26.53-27.68,49.48-51.95,67.53C201.93,351.17,138,367.86,87.12,401.45,59.58,419.66,36.45,442.67,21.65,470,7,497.11.59,527.06,5.29,556.84c4.6,28.29,18.51,54.82,40.06,76.39,22.7,22.81,53.51,37.7,86.48,46.27,34.47,9,70.82,11.54,106.59,13.1,41.39,1.8,82.86,2.87,124.3,3.61q62.89,1.13,125.83.87c41.32-.18,82.74-.41,124-2,18.8-.7,38-2.18,56-7.14a119.87,119.87,0,0,0,44.55-22.74c23.15-19.09,37.11-46,42.73-73,11.37-54.65-7.34-111.16-46.34-154.65-20.9-23.18-47.27-40.78-76.62-55.19-16.46-8.09-33.33-15.57-49.1-24.69a165.23,165.23,0,0,1-34.48-26.16c-36.64-36.52-50.83-89.28-36.18-135.78A119.29,119.29,0,0,1,529,163.21c5.87-8.65-9.6-16.5-15.46-7.86Z" transform="translate(-3.77)"/>
  <path class="cls-1" d="M436.33,300a9.46,9.46,0,0,1-.92.87l-.51.41c-.88.69,1.28-.78.55-.37a16.59,16.59,0,0,1-2.57,1.27l1.79-.64a17.79,17.79,0,0,1-3.77.86l2-.22a19.14,19.14,0,0,1-3.55,0l2,.22a15.25,15.25,0,0,1-3.43-.78l1.79.66A17.77,17.77,0,0,1,427,301c-1.08-.62,1.13.87.58.39l-.63-.48a13.63,13.63,0,0,1-1.05-.95l-.42-.45c-.52-.51,1.17,1.43.44.49-.27-.36-.56-.73-.82-1.11a19.66,19.66,0,0,1-1.47-2.54l.75,1.55a28.86,28.86,0,0,1-2.34-8l.27,1.73a45.52,45.52,0,0,1,.05-13.54l-.27,1.73a50.42,50.42,0,0,1,4.32-13.77l-.75,1.56a54.32,54.32,0,0,1,6.61-10.42c.3-.38.6-.74.91-1.1s.37-.47.59-.69c-.13.13-1.09,1.2-.46.52s1.48-1.58,2.26-2.34a59.05,59.05,0,0,1,5-4.33l-12.48-2.86c2.08,9.18,7.61,17.4,11.77,25.95l-.76-1.55a48.63,48.63,0,0,1,4.43,13l-.27-1.73a26,26,0,0,1,0,7.78l.27-1.73a19.94,19.94,0,0,1-1.6,5.11l.75-1.55a20.57,20.57,0,0,1-1.94,3.24c-.39.53-1.92,2.16-.26.43-.46.48-.89.95-1.38,1.4s-1,.86-1.51,1.27a3.66,3.66,0,0,1-.81.59l1-.65-.57.35a22.31,22.31,0,0,1-3.66,1.73l1.78-.65a22.14,22.14,0,0,1-4.43,1l2-.23-1.08.1a8.66,8.66,0,0,0-5.28,1.91,6.19,6.19,0,0,0-2.19,4.58,7.13,7.13,0,0,0,7.47,6.49,32.29,32.29,0,0,0,9.27-2,29.42,29.42,0,0,0,6.43-3.59,27.25,27.25,0,0,0,8.85-11c4.29-9.18,1.63-19.74-2.53-28.54-2.47-5.27-5.44-10.38-8-15.57l.75,1.54a51.79,51.79,0,0,1-4.1-11.09,7,7,0,0,0-5.21-4.54,8.48,8.48,0,0,0-7.27,1.67c-11.44,9-19.19,21-22.05,34.15a52.56,52.56,0,0,0-.13,20.87,25.47,25.47,0,0,0,11.66,17.15c8.16,4.93,21,3.6,27.35-3.09a6.58,6.58,0,0,0,2.19-4.59,6.21,6.21,0,0,0-2.19-4.59c-2.76-2.2-7.89-2.79-10.56,0Z" transform="translate(-3.77)"/>
  <path class="cls-1" d="M70.56,444a377.79,377.79,0,0,1,128.49-6.21c43.56,5.49,84.94,20.59,129,23.61a172.22,172.22,0,0,0,62.09-6.92c18.52-5.62,36.19-13.39,55.26-17.65,18.71-4.18,37.1-2.92,55.48,1.91,19.09,5,37.07,12.72,55.77,18.71,38.51,12.33,81.18,13.39,119.85.79q7.37-2.4,14.48-5.37a6.11,6.11,0,0,0,2.68-8.88c-2.18-3.23-6.57-3.84-10.21-2.32-35.73,14.84-77.47,16.43-114.9,5.68-18.66-5.35-36.34-12.91-54.85-18.58-18.91-5.8-38.62-9.13-58.64-6.77-19.7,2.33-37.81,9.52-56.15,15.8a239.42,239.42,0,0,1-27.71,8.09,143.34,143.34,0,0,1-30.76,3c-43.16-.22-83.93-15.39-126-22a399,399,0,0,0-132,1.4q-8,1.43-15.79,3.19c-9.29,2.08-5.35,14.6,4,12.51Z" transform="translate(-3.77)"/>
  <path class="cls-1" d="M217,621.42a18.58,18.58,0,0,0-13.17-3.88,21.45,21.45,0,0,0-7.66,2c-6.15,3.26-9.6,9.29-8.89,15.51a19.6,19.6,0,0,0,6.3,11.79c6.85,6.39,17,9.29,26.86,7.69,9.56-1.61,17.43-8.76,17.54-17.4a15.27,15.27,0,0,0-7.76-13,20.78,20.78,0,0,0-15.26-2.42c-3.94,1.07-6.15,4.71-4.92,8.13s5.07,5.2,8.9,4.39a13,13,0,0,1,1.39-.23l-2,.22a14.55,14.55,0,0,1,2.47,0l-2-.23a13.74,13.74,0,0,1,3.06.7l-1.78-.65a14.92,14.92,0,0,1,1.73.77c.24.14.47.31.72.43-1.64-.81-1-.69-.45-.23.21.17.4.36.61.53.61.54-1.06-1.34-.43-.49a10.63,10.63,0,0,1,1,1.68l-.76-1.56a9.55,9.55,0,0,1,.67,2.19l-.27-1.73a10.28,10.28,0,0,1,0,2.6l.26-1.73a10.13,10.13,0,0,1-.87,2.82l.75-1.54a15.49,15.49,0,0,1-1.19,1.87c-.32.41-.12.19.61-.65l-.49.48a10.38,10.38,0,0,1-.78.69c-.27.23-.57.43-.85.64,1.65-1.29.79-.53.29-.25a19.31,19.31,0,0,1-2.35,1.09L220,641a21.22,21.22,0,0,1-4.81,1.15l2-.23a23,23,0,0,1-5,0l2,.23a26.46,26.46,0,0,1-5.39-1.28l1.78.65A25.63,25.63,0,0,1,207.2,640a6.11,6.11,0,0,1-1.71-1c.08.11,1.34,1,.57.37l-.74-.57c-.44-.35-.87-.72-1.27-1.1l-.51-.52c-.83-.81.81,1,.31.38a18.23,18.23,0,0,1-1.8-2.77l.75,1.55a12,12,0,0,1-.93-2.82l.27,1.73a10.46,10.46,0,0,1,0-3.06l-.27,1.73a10.88,10.88,0,0,1,.86-2.66l-.75,1.55a10.45,10.45,0,0,1,.82-1.36c.47-.65.91-.61-.34.31a8.08,8.08,0,0,0,.6-.57,6.88,6.88,0,0,0,.67-.54c0,.15-1.64,1-.53.38a10.84,10.84,0,0,1,1.66-.76l-1.78.65a13.28,13.28,0,0,1,2.67-.61l-2,.23a14,14,0,0,1,2.75,0l-2-.23a12.37,12.37,0,0,1,2.63.59l-1.78-.66a10.38,10.38,0,0,1,1.18.53c1.56.86-1.08-.87-.19-.12,2.88,2.29,7.75,2.64,10.56,0,2.64-2.51,3.06-6.73,0-9.18Z" transform="translate(-3.77)"/>
  <path class="cls-1" d="M386.05,613.34c-4.49.43-9.11.79-13.33,2.31-4.47,1.6-8.62,4-11,7.78a12.71,12.71,0,0,0-.15,13.52,20.89,20.89,0,0,0,10,8.22c8.24,3.55,18.65,5.93,27.48,2.7a17.39,17.39,0,0,0,10.44-9.52c1.63-3.71,1.42-7.84.73-11.7a18,18,0,0,0-8.26-11.9c-4.09-2.66-10.44-3.74-15.25-2a8.26,8.26,0,0,0-4.46,3c-2.08,3.09-.89,7.06,2.66,8.87h0c1.65.75,4,1.3,5.75.65a9.89,9.89,0,0,1,2.1-.5l-2,.23a13.22,13.22,0,0,1,2.18,0l-2-.23a13,13,0,0,1,2.84.66l-1.79-.65a11.61,11.61,0,0,1,1.64.75l.45.27c.47.29.2.12-.78-.53a6.89,6.89,0,0,0,.65.54c.14.13.63.49.66.64-.05-.26-1.05-1.28-.34-.32a13.12,13.12,0,0,1,1,1.73l-.75-1.55a15.28,15.28,0,0,1,1.26,4l-.27-1.73a17.65,17.65,0,0,1,.09,5.13l.26-1.73a12.33,12.33,0,0,1-1,3.27l.75-1.56c-.28.51-.59,1-.92,1.49-.61.92.95-.87.33-.38-.22.2-.43.41-.66.6s-.4.29-.57.43c1.4-1.16,1-.63.41-.34a13.9,13.9,0,0,1-1.88.86l1.78-.65a19.3,19.3,0,0,1-3.79.86l2-.22a24.81,24.81,0,0,1-5.24-.06l2,.24a47.2,47.2,0,0,1-10.29-2.6l1.78.66c-.9-.33-1.79-.71-2.65-1.12-.42-.21-.84-.43-1.25-.66l-.52-.31c-.61-.4-.44-.28.53.35-.52-.65-1.49-1-2-1.73l.69.76c-.15-.19-.29-.38-.43-.58a11.29,11.29,0,0,1-.73-1.2l.76,1.55a8.25,8.25,0,0,1-.72-2.24l.26,1.73a7.68,7.68,0,0,1,0-1.66l-.27,1.73a7.66,7.66,0,0,1,.65-2.07l-.73,1.58a15,15,0,0,1,1.07-1.61c-1,1.51-.72.79-.24.35.26-.23.52-.46.8-.67l.27-.21c.59-.43.38-.29-.62.4.32-.16.64-.34.94-.53a18.23,18.23,0,0,1,2.06-.93l-1.78.65a37.34,37.34,0,0,1,8.22-1.73l-2,.23,3.13-.32a8.74,8.74,0,0,0,5.28-1.9,5.89,5.89,0,0,0,0-9.15l0,0a7.84,7.84,0,0,0-5.28-1.9Z" transform="translate(-3.77)"/>
  <path class="cls-1" d="M563,494.36c-7.4,2-15.31,4.32-20.83,9.34-6,5.49-8.74,13.69-4.36,20.66,3.59,5.73,11.81,9.18,19.2,8.75,8.06-.51,15.3-4.49,19.29-10.6,5.1-7.71,3.85-16.81-.38-24.54-2.09-3.08-6.66-4.1-10.2-2.28-3.65,2-4.48,5.59-2.68,8.88.25.46.48.91.71,1.38l-.75-1.56a22.55,22.55,0,0,1,1.83,5.81l-.26-1.73a18.05,18.05,0,0,1,0,5.19l.27-1.73a15.76,15.76,0,0,1-1.24,4l.74-1.55a15.36,15.36,0,0,1-1.39,2.29c-.16.22-.34.43-.5.64-.55.73.4-.52.52-.57-.35.15-.79.8-1.06,1s-.64.59-1,.87a3.8,3.8,0,0,0-.69.5c.09-.11,1.49-.93.66-.46a22.9,22.9,0,0,1-2.82,1.36l1.78-.65a17.86,17.86,0,0,1-3.78.93l2-.23a18,18,0,0,1-3.74,0l2,.22a18,18,0,0,1-4-.9l1.78.64a15.13,15.13,0,0,1-1.93-.86c-.16-.09-.93-.41-1-.56,0,.16,1.62,1.18.5.29-.24-.19-.47-.4-.69-.6-1.09-1,.39.44.36.45a9.11,9.11,0,0,1-1.11-1.69l.76,1.55a8.63,8.63,0,0,1-.67-2.07l.26,1.73a9.59,9.59,0,0,1,0-2.51l-.27,1.73a11.44,11.44,0,0,1,1-3.08l-.76,1.55a23.87,23.87,0,0,1,1.88-2.86c-1.08,1.54-.61.7-.2.27l.52-.49a15.68,15.68,0,0,1,1.55-1.25c.56-.39-1.58,1-.39.25.28-.17.56-.35.85-.51.57-.33,1.15-.64,1.75-.94a40.94,40.94,0,0,1,3.91-1.66l-1.78.66c2.73-1,5.53-1.73,8.35-2.54,3.71-1,6.48-4.57,5.2-8a7.76,7.76,0,0,0-9.17-4.53Z" transform="translate(-3.77)"/>
  <path class="cls-1" d="M511.49,648.58a3.93,3.93,0,1,0-4.48-3.9A4.28,4.28,0,0,0,511.49,648.58Z" transform="translate(-3.77)"/>
  <path class="cls-1" d="M280.47,555.28c2.47,0,4.48-1.74,4.48-3.89s-2-3.89-4.48-3.89-4.48,1.74-4.48,3.89h0A4.27,4.27,0,0,0,280.47,555.28Z" transform="translate(-3.77)"/>
  <path class="cls-1" d="M140.69,621.06c2.47,0,4.48-1.74,4.48-3.89s-2-3.89-4.48-3.89-4.48,1.74-4.48,3.89h0A4.26,4.26,0,0,0,140.69,621.06Z" transform="translate(-3.77)"/>
  <path class="cls-1" d="M179.34,498.63a15,15,0,0,0,9.5-3.46,10.63,10.63,0,0,0,0-16.51,14.92,14.92,0,0,0-19,0,10.63,10.63,0,0,0,0,16.51,15,15,0,0,0,9.51,3.46Z" transform="translate(-3.77)"/>
  <path class="cls-1" d="M102.87,560.05a15,15,0,0,0,9.5-3.46,10.63,10.63,0,0,0,0-16.51,14.76,14.76,0,0,0-19,0,10.61,10.61,0,0,0,0,16.49l0,0A15.08,15.08,0,0,0,102.87,560.05Z" transform="translate(-3.77)"/>
  <path class="cls-1" d="M685,494.6a14.94,14.94,0,0,0,9.49-3.46,10.61,10.61,0,0,0,0-16.49l0,0a14.88,14.88,0,0,0-19,0l0,0a10.63,10.63,0,0,0,0,16.51,15,15,0,0,0,9.5,3.46Z" transform="translate(-3.77)"/>
  <path class="cls-1" d="M660.32,639.59a15,15,0,0,0,9.5-3.46,10.62,10.62,0,0,0,0-16.49l0,0a14.9,14.9,0,0,0-19,0,10.63,10.63,0,0,0,0,16.51,15,15,0,0,0,9.5,3.46Z" transform="translate(-3.77)"/>
  <path class="cls-1" d="M454.36,669.77a2.61,2.61,0,1,0,0-5.19A2.61,2.61,0,1,0,454.36,669.77Z" transform="translate(-3.77)"/>
  <path class="cls-1" d="M324.87,662.72a2.61,2.61,0,1,0,0-5.19A2.61,2.61,0,1,0,324.87,662.72Z" transform="translate(-3.77)"/>
  <path class="cls-1" d="M334.73,589.22a2.61,2.61,0,1,0,0-5.19A2.61,2.61,0,1,0,334.73,589.22Z" transform="translate(-3.77)"/>
  <path class="cls-1" d="M280.47,669.77a2.61,2.61,0,1,0,0-5.19A2.61,2.61,0,1,0,280.47,669.77Z" transform="translate(-3.77)"/>
  <path class="cls-1" d="M280.47,645.6a2.61,2.61,0,1,0,0-5.19A2.61,2.61,0,1,0,280.47,645.6Z" transform="translate(-3.77)"/>
  <path class="cls-1" d="M252.1,669.77a2.61,2.61,0,1,0,0-5.19A2.61,2.61,0,1,0,252.1,669.77Z" transform="translate(-3.77)"/>
  <path class="cls-1" d="M151,659.7a2.61,2.61,0,1,0,0-5.19A2.61,2.61,0,1,0,151,659.7Z" transform="translate(-3.77)"/>
  <path class="cls-1" d="M163.31,633.53a2.61,2.61,0,1,0,0-5.19A2.61,2.61,0,1,0,163.31,633.53Z" transform="translate(-3.77)"/>
  <path class="cls-1" d="M114,631.5a2.61,2.61,0,1,0,0-5.19A2.61,2.61,0,1,0,114,631.5Z" transform="translate(-3.77)"/>
  <path class="cls-1" d="M109,604.32a2.61,2.61,0,1,0,0-5.19A2.61,2.61,0,1,0,109,604.32Z" transform="translate(-3.77)"/>
  <path class="cls-1" d="M77,603.32a2.61,2.61,0,1,0,0-5.19A2.61,2.61,0,1,0,77,603.32Z" transform="translate(-3.77)"/>
  <path class="cls-1" d="M479,663.72a2.61,2.61,0,1,0,0-5.19A2.61,2.61,0,1,0,479,663.72Z" transform="translate(-3.77)"/>
  <path class="cls-1" d="M480.26,640.57a2.61,2.61,0,1,0,0-5.19A2.61,2.61,0,1,0,480.26,640.57Z" transform="translate(-3.77)"/>
  <path class="cls-1" d="M558,672.79a2.61,2.61,0,1,0,0-5.19A2.61,2.61,0,1,0,558,672.79Z" transform="translate(-3.77)"/>
  <path class="cls-1" d="M578.92,643.61a2.61,2.61,0,1,0,0-5.19A2.61,2.61,0,1,0,578.92,643.61Z" transform="translate(-3.77)"/>
  <path class="cls-1" d="M598.66,665.74a2.61,2.61,0,1,0,0-5.19A2.61,2.61,0,1,0,598.66,665.74Z" transform="translate(-3.77)"/>
  <path class="cls-1" d="M655.39,659.7a2.61,2.61,0,1,0,0-5.19A2.61,2.61,0,1,0,655.39,659.7Z" transform="translate(-3.77)"/>
  <path class="cls-1" d="M706,586.2a2.61,2.61,0,1,0,0-5.19A2.61,2.61,0,1,0,706,586.2Z" transform="translate(-3.77)"/>
  <path class="cls-1" d="M650.45,544.92a2.61,2.61,0,1,0,0-5.19A2.61,2.61,0,1,0,650.45,544.92Z" transform="translate(-3.77)"/>
  <path class="cls-1" d="M310.06,628.78a3.93,3.93,0,1,0-4.47-3.9A4.26,4.26,0,0,0,310.06,628.78Z" transform="translate(-3.77)"/>
  <path class="cls-1" d="M275.54,618.71a3.93,3.93,0,1,0-4.48-3.89h0A4.26,4.26,0,0,0,275.54,618.71Z" transform="translate(-3.77)"/>
  <path class="cls-1" d="M313.77,502.93a3.93,3.93,0,1,0-4.48-3.89A4.25,4.25,0,0,0,313.77,502.93Z" transform="translate(-3.77)"/>
  <path class="cls-1" d="M503.7,620.72a3.93,3.93,0,1,0-4.48-3.89h0A4.26,4.26,0,0,0,503.7,620.72Z" transform="translate(-3.77)"/>
  <path class="cls-1" d="M434.63,635.83a4.23,4.23,0,0,0,4.48-3.9c0-2.15-2-3.89-4.48-3.89s-4.48,1.74-4.48,3.89A4.28,4.28,0,0,0,434.63,635.83Z" transform="translate(-3.77)"/>
  <path class="cls-1" d="M575.23,635.83a4.23,4.23,0,0,0,4.48-3.9c0-2.15-2-3.89-4.48-3.89s-4.48,1.74-4.48,3.89A4.28,4.28,0,0,0,575.23,635.83Z" transform="translate(-3.77)"/>
  <path class="cls-1" d="M592.49,583.48a4.23,4.23,0,0,0,4.48-3.9c0-2.15-2-3.89-4.48-3.89s-4.48,1.74-4.48,3.89A4.28,4.28,0,0,0,592.49,583.48Z" transform="translate(-3.77)"/>
  <path class="cls-1" d="M606,502.93a3.93,3.93,0,1,0-4.47-3.89A4.21,4.21,0,0,0,606,502.93Z" transform="translate(-3.77)"/>
  <path class="cls-1" d="M707.19,613.67c2.47,0,4.48-1.74,4.48-3.89s-2-3.89-4.48-3.89-4.48,1.74-4.48,3.89h0A4.26,4.26,0,0,0,707.19,613.67Z" transform="translate(-3.77)"/>
  <path class="cls-1" d="M625.79,627.77a3.93,3.93,0,1,0-4.48-3.89A4.25,4.25,0,0,0,625.79,627.77Z" transform="translate(-3.77)"/>
  <path class="cls-1" d="M180.57,588.51c2.47,0,4.48-1.74,4.48-3.89a4.52,4.52,0,0,0-9,0h0A4.26,4.26,0,0,0,180.57,588.51Z" transform="translate(-3.77)"/>
  <path class="cls-1" d="M52.31,588.51a3.93,3.93,0,1,0,0-7.79,4.23,4.23,0,0,0-4.48,3.9h0A4.26,4.26,0,0,0,52.31,588.51Z" transform="translate(-3.77)"/>
  <path class="cls-1" d="M136.17,595.85c3.3,0,6-2.33,6-5.2s-2.67-5.19-6-5.19-6,2.33-6,5.19S132.89,595.81,136.17,595.85Z" transform="translate(-3.77)"/>
  <path class="cls-1" d="M53.55,565.64c3.29,0,6-2.33,6-5.19s-2.68-5.19-6-5.19-6,2.32-6,5.19S50.27,565.6,53.55,565.64Z" transform="translate(-3.77)"/>
  <path class="cls-1" d="M340.9,630.07c3.3,0,6-2.32,6-5.19s-2.67-5.19-6-5.19-6,2.33-6,5.19S337.62,630,340.9,630.07Z" transform="translate(-3.77)"/>
  <path class="cls-1" d="M354.46,670.35c3.3,0,6-2.32,6-5.19s-2.67-5.19-6-5.19-6,2.32-6,5.19S351.18,670.32,354.46,670.35Z" transform="translate(-3.77)"/>
  <path class="cls-1" d="M454.36,596.85c3.3,0,6-2.33,6-5.19s-2.67-5.19-6-5.19-6,2.32-6,5.19S451.08,596.82,454.36,596.85Z" transform="translate(-3.77)"/>
  <path class="cls-1" d="M421.06,667.33c3.3,0,6-2.32,6-5.19s-2.67-5.19-6-5.19-6,2.32-6,5.19S417.78,667.3,421.06,667.33Z" transform="translate(-3.77)"/>
  <path class="cls-1" d="M546.86,579.74c3.3,0,6-2.33,6-5.19s-2.67-5.19-6-5.19-6,2.32-6,5.19S543.58,579.71,546.86,579.74Z" transform="translate(-3.77)"/>
  <path class="cls-1" d="M698.55,548.53c3.3,0,6-2.33,6-5.19s-2.67-5.19-6-5.19-6,2.32-6,5.19S695.27,548.5,698.55,548.53Z" transform="translate(-3.77)"/>
  <path class="cls-1" d="M308.73,32c.1-.23.58-1.29.19-.46s.16-.25.26-.42a17.19,17.19,0,0,1,1.14-1.73c.2-.28.43-.54.65-.82.74-.93-.68.67,0,0,.51-.5,1-1,1.55-1.49s1.13-.93,1.72-1.37l.79-.56c-1.38,1-.22.17.16-.06A33.22,33.22,0,0,1,319.35,23l1.1-.46.48-.19c.9-.37-.36.13-.45.16.79-.23,1.54-.53,2.33-.76a49.44,49.44,0,0,1,4.84-1.17c.81-.15,1.64-.28,2.46-.4l.54-.06c.79-.12-1.31.13-.52.06l1.25-.13c1.84-.14,3.69-.2,5.54-.17a66.64,66.64,0,0,1,6.77.4c.21,0,1.63.2.82.08s.82.1,1.07.14c1.15.15,2.3.32,3.46.51,4.32.7,8.6,1.59,12.86,2.49a265.45,265.45,0,0,0,27.28,4.44,201.14,201.14,0,0,0,26.78,1,251.18,251.18,0,0,0,28-2.69c4.49-.65,9-1.32,13.47-1.91l1.69-.22,1-.12c.12,0,.94-.11.17,0h.17l1-.1,1.94-.2q3.21-.33,6.44-.5a106.61,106.61,0,0,1,12.64,0c1,.06,1.94.14,2.92.23l.66.07c1.17.11-.14,0-.24,0a6.91,6.91,0,0,0,1.76.23c2,.28,4,.64,6,1.1.93.23,1.86.48,2.76.75.5.14,1,.29,1.48.45a6.09,6.09,0,0,0,1.47.51s-1.16-.44-.57-.21l.52.2,1.19.48q1.26.54,2.49,1.14a45.61,45.61,0,0,1,4.4,2.42c.36.21.69.44,1.05.66.53.33-.49-.33-.48-.32l.44.31c.72.5,1.43,1,2.11,1.55a46.17,46.17,0,0,1,3.64,3.17c.53.52,1,1,1.55,1.57.91,1-.55-.65.07.08l.86,1a42.16,42.16,0,0,1,2.69,3.75c.4.64.78,1.3,1.14,1.95.16.29.31.57.46.87s.37.86-.18-.38c.08.2.18.39.27.58a33,33,0,0,1,1.56,4.15c.88,2.76,4.17,4.38,7.35,3.62s5-3.63,4.16-6.39h0c-4.19-13.05-14.85-23.8-29.09-29.32-17.59-6.76-36.82-5.11-55.26-2.49-4.73.67-9.45,1.4-14.19,2l-3.13.4c-1.14.14-.07,0,.13,0-.32,0-.63.07-1,.1l-1.92.21c-2.3.22-4.6.41-6.92.57a203.09,203.09,0,0,1-27.8-.11q-3.46-.26-6.92-.63c-.23,0-1.91-.19-1.1-.13s0,0-.16,0l-.94-.12c-1.19-.14-2.37-.31-3.56-.48-4.52-.66-9-1.51-13.48-2.43-9.19-1.9-18.39-4-27.86-4.59-15.05-1-32.73,3-41.11,14.86a24.23,24.23,0,0,0-2.53,4.73c-1.07,2.55,1.2,5.79,4.17,6.38C304.55,36.42,307.81,34.79,308.73,32Z" transform="translate(-3.77)"/>
  <path class="cls-1" d="M306.66,11.91a73.94,73.94,0,0,0-14.3,35.84c-1.41,12.35.08,26.4,9.87,36.1a32.15,32.15,0,0,0,21.42,9c3.28,0,5.94-2.33,6-5.19s-2.7-5.13-6-5.19a8.93,8.93,0,0,1-1.16,0h-.39c-.65-.06-.5,0,.45.06a8.34,8.34,0,0,0-1.86-.33c-.74-.16-1.46-.35-2.18-.58a5.73,5.73,0,0,0-.7-.23c.83.31,1,.35.37.13l-.68-.29a32.9,32.9,0,0,1-3.58-1.88c-1.06-.63.81.58.16.11l-.72-.53a21.45,21.45,0,0,1-1.79-1.46c-.48-.43-.95-.87-1.39-1.34-.3-.32-.73-1.14,0,0-.11-.18-.3-.36-.42-.53a24.37,24.37,0,0,1-2.52-3.78,8.23,8.23,0,0,1-.53-1c.45,1.19.17.35,0,0-.28-.64-.54-1.28-.77-1.93a33.12,33.12,0,0,1-1.23-4.32c-.14-.62-.25-1.22-.36-1.84-.24-1.28.14,1.2,0-.09,0-.31-.09-.61-.12-.93-.17-1.41-.27-2.83-.33-4.25a62.44,62.44,0,0,1,.24-8.54c.06-.61.13-1.24.21-1.85l.17-1.13c.17-1.29-.22,1.18,0-.1s.5-2.69.81-4a70.61,70.61,0,0,1,2.51-8.3c.6-1.54,1.23-3.06,1.92-4.56l.32-.7c.26-.53.22-.46-.1.2l.35-.68c.35-.69.71-1.38,1.08-2.05a73.94,73.94,0,0,1,5.52-8.54c1.64-2.48.68-5.64-2.14-7.1a6.65,6.65,0,0,0-8.17,1.86Z" transform="translate(-3.77)"/>
</svg>
