<svg id="Camada_1" data-name="Camada 1" xmlns="http://www.w3.org/2000/svg" viewBox="0 0 313.1 141.92">
  <defs>
    <style>
      .cls-1 {
        isolation: isolate;
      }

      .cls-2 {
        fill: #f9f9f9;
        stroke: #e9dfe4;
        stroke-miterlimit: 10;
      }
    </style>
  </defs>
  <g class="cls-1">
    <path class="cls-2" d="M41,53.3l.3,9.1L19.9,59.8V70.9c-.2,29.1,2.5,44.3,11.8,44.1,6.9-.1,11.9-4.7,11.9-10.7,0-6.2-3.2-9.9-10-9.3,3.9,1.3,5.2,3.7,5.2,6.7,0,4-1.8,6.4-5.7,6.4-6,0-8.7-3.7-8.7-7.7,0-7.2,3.5-11.8,10.5-12.4,8.2-.9,15,2.9,14.2,16.9-.8,12-10.2,18.2-19.1,18.6-16.3.9-21.7-23.4-21.5-51.2l.1-14-7-.9.6-9.2,6.4.9L9,7l11.1-.1L20,50.7Z" transform="translate(-1.07 -6.36)"/>
    <path class="cls-2" d="M67.7,47.3c-5.7,26.3-6.3,53.1,1.6,53.6,9.2.4,9-31.7,9-51.9H88.4c-2,31.1.6,54,11.1,53.1,11.8-1.1,7.5-34.3,5-55.5L115,45.5c4.3,28.9,7.9,65-16.2,66.7-10.6.6-15.3-9.1-16.3-22.8-.2,11.5-3.4,20.6-14.4,20.8-17.7.2-16.9-34.5-11.4-62.8Z" transform="translate(-1.07 -6.36)"/>
    <path class="cls-2" d="M133.2,59.3l-1.6,55.3-10.7-1.7,2.8-54.2Zm.2-28,.3,15.8-10.2-1.2V30.8Z" transform="translate(-1.07 -6.36)"/>
    <path class="cls-2" d="M151.1,51.1c27.9-6.4,39.3,12,32.3,58l-11.8.1c6.8-45.2-.2-53.4-20.3-50.3l1.5,49.7-10.7.6-3.9-62.1,12.8-.5Z" transform="translate(-1.07 -6.36)"/>
    <path class="cls-2" d="M190.3,7.8l12.6-.9-.1,74.7c11.5-8.1,18.8-18.2,22.8-30.9l11.2,5.4a56.65,56.65,0,0,1-23.4,28.6c4.3,1.7,5.9,6.5,6.9,11.6,1.2,6,2,10.3,7.1,10s8.4-4.8,8.4-8.1-.8-5.3-2.7-4.9c1.4,6.4-1.8,8.1-5.3,8.3-4.5.1-5.5-3.4-5.7-6.7-.3-6.1,3.4-9.8,9.5-9.8,6.3,0,10.2,4.9,10.2,12.4,0,10.2-5,16.2-15,17.9-9.7,1.7-13.2-4.3-13.4-12.5-.3-10.4-5-11.3-10.5-11.1V114l-9.6,1.7Z" transform="translate(-1.07 -6.36)"/>
    <path class="cls-2" d="M246.1,7.3l12.6-.4-.9,104.5-9.6,1.5Z" transform="translate(-1.07 -6.36)"/>
    <path class="cls-2" d="M278.6,48.2c-3.9,32.8-2.9,57,23.1,47.4,0-.9,0-2-.1-4.3-.3-11.6-1.4-25.1-2.9-39.2L309.9,51c1.6,18.4,15.8,91.7-23.8,96.6-13.1,1.7-19.4-8.8-20.4-19.7-.8-7.7,1.6-14.8,10.2-15.1,9.1-.2,15.3,4.3,15.3,15.4a8.07,8.07,0,0,1-7.9,7.6c-4.3,0-7.7-3.2-7.7-7,0-4.5,6.2-9.4,10.4-5.3,0-4.5-5.1-6.1-7.2-6.1-6.2,0-6.9,5.6-5.6,10.8,1.6,6.2,5.9,13.3,12.8,11.3,10.5-3.4,15.4-15.4,15.8-36.1-34.6,14.8-38.1-16.6-34.9-55Z" transform="translate(-1.07 -6.36)"/>
  </g>
</svg>
