<svg id="correlations" xmlns="http://www.w3.org/2000/svg" viewBox="0 0 575.21 531.81">
  <defs>
    <style>
      .cls-1 {
        fill: #4b3a68;
        stroke: #4b3a68;
        stroke-miterlimit: 10;
      }
    </style>
  </defs>
  <path class="cls-1" d="M287.15,131.53c-8.49.58-17,1.19-25.42,2.34a120.75,120.75,0,0,0-22.66,5.29,69.47,69.47,0,0,0-17.93,9.08,40.72,40.72,0,0,0-12.78,14.5c-5.63,11-3.31,24.22,7.21,32.91,9.91,8.21,24.73,10.62,38.5,11.87q23.76,2,47.7,2.16c7.71.08,15.45.11,23.15-.38a108.37,108.37,0,0,0,23.25-3.62,60.51,60.51,0,0,0,19.7-9.46,35.41,35.41,0,0,0,11.58-14.34c4.83-11.62-1.34-24.1-12.59-32.1-11.69-8.31-27.28-11.85-42.46-14.24a297.5,297.5,0,0,0-49.61-3.67q-5.82.07-11.62.38a11.12,11.12,0,0,0-6.37,2.05,6.49,6.49,0,0,0-2.65,5c.21,3.59,4,7.28,9,7a287.3,287.3,0,0,1,44.49,1.18l-2.4-.25q10.2,1.08,20.24,2.87a132.83,132.83,0,0,1,17.68,4.26l-2.16-.71a62.4,62.4,0,0,1,12.24,5.45l-1.83-1.1a39.78,39.78,0,0,1,7.44,5.77l-1.42-1.48a27.77,27.77,0,0,1,4.52,5.92l-.9-1.67a20.35,20.35,0,0,1,2.14,6l-.32-1.86a17.18,17.18,0,0,1,0,5.45l.32-1.86a19.78,19.78,0,0,1-2,5.7l.9-1.68a27.83,27.83,0,0,1-4.65,6.15l1.42-1.42a39.44,39.44,0,0,1-7.43,5.73l1.84-1.09a51.13,51.13,0,0,1-10,4.52l2.15-.71A86.24,86.24,0,0,1,327.85,195l2.41-.25c-10,1-20.17.93-30.24.78q-16.27-.21-32.49-1.18c-5.36-.32-10.73-.66-16-1.22l2.4.26a88.68,88.68,0,0,1-18-3.53l2.16.71a42.14,42.14,0,0,1-8.14-3.53l1.82,1.09a27.86,27.86,0,0,1-5.32-4.15l1.41,1.42a21.24,21.24,0,0,1-3.36-4.54l.95,1.71a20.32,20.32,0,0,1-2-5.89l.32,1.87a22,22,0,0,1,0-7.06l-.32,1.87a24.53,24.53,0,0,1,2.53-7.18l-.91,1.68a30.59,30.59,0,0,1,5-6.7l-1.41,1.42a45.18,45.18,0,0,1,8.52-6.57l-1.82,1.1a68.8,68.8,0,0,1,13.6-6.07l-2.15.7a126.09,126.09,0,0,1,25.86-5.06l-2.41.25c5.64-.59,11.3-1,17-1.36a11.33,11.33,0,0,0,6.38-2.06c3.52-2.74,3.52-7.18,0-9.92h0a10.26,10.26,0,0,0-6.38-2.05Z" transform="translate(0.5 -4.38)"/>
  <path class="cls-1" d="M207.46,173.56l-4.74,77.73L198,328.7l-4.67,77.42c-.69,11.32-1.94,22.74-1,34.08.87,11,3.79,22.33,11.95,31.53,7.83,8.86,18.89,14.81,31.63,18.71,12,3.64,24.93,5,37.66,5.9a335.16,335.16,0,0,0,36.42.78c12.75-.54,25.78-2.24,37.07-7.15,12.54-5.45,20.78-14.81,24.36-25.5a78.94,78.94,0,0,0,3.19-17c.64-6.23,1.16-12.53,1.69-18.81q3.31-38.51,5.67-77.08t3.74-77.47q1.38-38.58,1.8-77.17.09-9.45.15-18.91c0-3.67-4.16-7.18-9-7s-8.92,3.17-9,7q-.18,38-1.29,75.95t-3.16,75.86q-2,37.78-5,75.53-1.5,19-3.22,38.05c-.24,2.64-.48,5.28-.83,7.92-.08.6-.16,1.21-.25,1.81a5.27,5.27,0,0,0-.17,1s.26-1.38.1-.57c-.27,1.36-.54,2.73-.89,4.08a40.46,40.46,0,0,1-2.65,7.38c-.11.24-.23.48-.34.71-.59,1.22.12-.11.15-.27a6.07,6.07,0,0,1-1,1.61,33,33,0,0,1-2.63,3.5c-.25.28-.52.55-.76.83-.58.69.51-.49.52-.51-.51.42-1,.91-1.45,1.35a34,34,0,0,1-2.92,2.34c-.47.33-1,.65-1.44,1-1.15.78.37-.26.53-.31a6.2,6.2,0,0,0-.87.51c-1.12.62-2.26,1.19-3.44,1.73s-2.39,1-3.64,1.49c-.32.11-2.35.77-.94.34,1.23-.41.31-.1.05,0l-1.29.38a78.58,78.58,0,0,1-8.13,1.86c-1.41.25-2.82.47-4.24.66l-2,.26c-.36,0-1.67.17-.25,0,1.59-.17-.37,0-.55,0-2.93.27-5.89.45-8.84.56-5.9.21-11.81.14-17.7,0s-11.91-.43-17.84-.84c-1.42-.1-2.82-.2-4.23-.32l-2.41-.22-.9-.08c-2-.19.23.13.29,0a33.7,33.7,0,0,1-4.18-.49c-1.59-.2-3.16-.42-4.73-.67a125.31,125.31,0,0,1-16.94-3.81c-1.47-.44.44.1.56.2a6.3,6.3,0,0,0-1.06-.36l-1.82-.66c-1.28-.47-2.54-1-3.78-1.55s-2.45-1.12-3.62-1.74c-.55-.28-1.1-.56-1.63-.87a7.33,7.33,0,0,0-.91-.51c.36.15,1.4.87.48.29a50.6,50.6,0,0,1-6.21-4.59c-.52-.45-1-.91-1.51-1.38h0c.8.78,0-.07-.24-.28a39.41,39.41,0,0,1-4.78-6.38l-.52-.89c-.44-.71.29.53.29.55a11.63,11.63,0,0,0-1-2.07,44.94,44.94,0,0,1-2.52-7.14c-.31-1.15-.57-2.29-.79-3.45-.36-1.81.12.93-.08-.38-.11-.78-.22-1.51-.31-2.27-.31-2.54-.47-5.09-.54-7.64-.14-5.11.1-10.21.41-15.32q2.3-38,4.64-76.08l4.56-75.87,4.65-76.15,1.13-18.65c.23-3.67-4.29-7.17-9-7-4.93.09-8.91,3.18-9,7Z" transform="translate(0.5 -4.38)"/>
  <path class="cls-1" d="M189.89,407.86A382.42,382.42,0,0,0,80,419.06c-16.7,4.29-33.51,9.59-48.27,17.15C18.52,442.93,5.43,452.13,1.28,464.5c-4.23,12.63,2.5,25,13.27,34.41,11.76,10.27,28,16.74,44.53,21.05,17.59,4.58,36.07,6.68,54.47,8.29,19.58,1.7,39.26,2.89,58.92,3.89,40.07,2.05,80.14,3,120.21,3.38s80.35.1,120.53-.31c18.74-.18,37.52-.17,56.25-.78,17-.53,34.38-1.69,50.82-5.36,15.26-3.41,30.69-9.35,40.79-19.14,9.47-9.22,14.45-20.87,12.84-32.74-3.49-25.57-31.31-43-59.67-52.82-34.79-12.09-73-15.52-110.7-17.25-9.38-.44-18.77-.78-28.15-1.09-5,0-9,3.16-9,7s4.08,6.93,9,7c18.58.64,37.17,1.29,55.67,2.76q3.36.27,6.69.57l3.09.3,1.54.15c.62.07.68.07.16,0l1,.11c4.42.47,8.83,1,13.23,1.62q13.08,1.81,25.87,4.68,5.91,1.33,11.71,2.95c1.7.47,3.4,1,5.08,1.47l2.92.91s1.37.45.57.18l1,.33a165.24,165.24,0,0,1,20.67,8.57c1.54.78,3,1.56,4.51,2.34l2,1.14c.07,0,1.15.68.4.23l.69.42a93,93,0,0,1,8,5.62c1.19.93,2.36,1.9,3.47,2.89.51.46,1,.91,1.5,1.38l1,.93c.85.78-.77-.86,0,0a59.12,59.12,0,0,1,5.4,6.77c.33.51.65,1,1,1.56.74,1.23-.37-.82.24.45s1.19,2.5,1.67,3.79a30,30,0,0,1,1.1,3.57c.16.64.29,1.28.42,1.93-.29-1.44,0,0,0,.64a41.64,41.64,0,0,1-.14,7.49c.1-1.25.07-.36-.08.33s-.3,1.28-.49,1.91a32.24,32.24,0,0,1-1.24,3.49c-.26.62-.63,1.22-.87,1.85-.29.78.17-.29.22-.38l-.45.78a33.89,33.89,0,0,1-2.41,3.53,36.37,36.37,0,0,1-2.72,3.12c.91-1-.09.08-.49.45-.67.61-1.36,1.21-2.08,1.8a46.15,46.15,0,0,1-3.76,2.77l-.94.62s-1.11.7-.38.25-.35.21-.41.24l-1.61.89a79.11,79.11,0,0,1-9,4.06c-.85.33-1.71.63-2.57.94-1.55.55.73-.2-.85.3-1.79.56-3.61,1.08-5.44,1.56-3.63.95-7.32,1.74-11,2.42s-7.72,1.26-11.6,1.73l-2.65.31c1.46-.17-.71.07-1.15.11q-3.12.3-6.26.53c-16.82,1.26-33.75,1.26-50.63,1.45-38.56.43-77.13.78-115.67.71s-77-.63-115.48-2.06q-28.78-1.08-57.53-2.85-13.92-.87-27.85-2-6.66-.53-13.3-1.16l-3-.29-1.53-.18c-2.27-.24-4.56-.52-6.83-.77q-13-1.6-25.61-4.39c-4.08-.91-8.14-1.95-12.12-3.11L55.49,504h0l-1.28-.44c-2-.68-3.89-1.39-5.79-2.15a97.4,97.4,0,0,1-10.26-4.84c-.72-.39-1.43-.78-2.13-1.2,1.13.65-.9-.57-1.21-.78-1.52-1-3-2-4.4-3.08s-2.5-2-3.67-3c-.53-.48-1-1-1.56-1.45,1,1-.43-.46-.73-.78A39.45,39.45,0,0,1,21.79,483c-.44-.59-.84-1.2-1.23-1.81s-1-2-.44-.71c-.51-1.16-1-2.34-1.45-3.5-.18-.55-.32-1.09-.47-1.64-.06-.24-.27-1.43-.11-.44s0-.27,0-.45a21.76,21.76,0,0,1,0-3.61c.06-.68.37-1.56,0-.36.22-.78.36-1.49.61-2.23A26.25,26.25,0,0,1,20,465c-.74,1.48.23-.31.45-.66.4-.6.81-1.19,1.25-1.77.84-1.11,1.78-2.14,2.73-3.18.59-.65-.14.15-.23.23.34-.31.66-.63,1-.93.61-.55,1.22-1.08,1.85-1.61a71,71,0,0,1,8.21-5.8c-1.1.67.55-.32.89-.51.83-.47,1.65-.92,2.48-1.36,1.56-.85,3.15-1.65,4.78-2.43a192.48,192.48,0,0,1,21.73-8.67l1.33-.44,3.06-1c2-.65,4.13-1.27,6.21-1.87,3.89-1.12,7.83-2.17,11.78-3.12q12.51-3.1,25.35-5.27A346.52,346.52,0,0,1,164,421.72q12.94-.33,25.89.21c4.72.18,9.23-3.37,9-7-.1-3.84-4.08-6.94-9-7Z" transform="translate(0.5 -4.38)"/>
  <path class="cls-1" d="M397.69,227.26c8.86,1.3,18-1.06,24.05-6.23,6.26-5.24,9-12.05,10-19a73.74,73.74,0,0,0,.58-11.69h-12c1.12,8.08,2.53,16.1,6.91,23.56a34.9,34.9,0,0,0,19.36,15.29,37.08,37.08,0,0,0,17,1.45c2.93-.42,4.68-3,4.31-5.14-.4-2.3-2.92-4-5.9-4.05a50.79,50.79,0,0,0-23.51,6.31c-7.21,4.16-12.56,10-15.31,16.62a25.65,25.65,0,0,0-1.9,11.32c.14,2.44,2.66,4.79,6,4.68s6-2.12,6-4.68c0-6.66-.34-13.62-3.47-19.9a28.17,28.17,0,0,0-16-14.4,32.54,32.54,0,0,0-15.43-1.56c-3.1.43-5.12,3.5-4.19,5.75,1.08,2.6,4.06,3.72,7.39,3.26.66-.08.52-.07-.43,0l.79-.05h1.57a8.71,8.71,0,0,0,1.57.09c-1-.11-1.1-.12-.43,0l.77.12c.38.06,3,.45,3,.73-.82-.28-.93-.32-.34-.11.25.08.48.18.72.27s.71.29,1.05.44.92.43,1.36.66l.65.36-.27-.17a25.49,25.49,0,0,1,2.33,1.72c.37.3.71.62,1.06.94s.34.33-.2-.2c.16.16.32.33.47.51a20.13,20.13,0,0,1,1.62,2c.49.69.93,1.4,1.35,2.12.26.47.22.38-.13-.24l.3.58c.19.4.37.78.54,1.2a28.7,28.7,0,0,1,1.58,5.11c.06.25.36,1.64.1.4.1.5.15,1,.22,1.49.12,1,.21,2,.28,3,.13,2,.15,4,.16,6h12a21.24,21.24,0,0,1,.12-4.14,3.42,3.42,0,0,1,.09-.63s-.2,1-.07.46c.07-.32.12-.63.2-.94a20.84,20.84,0,0,1,.63-2.18q.34-1,.78-2c.13-.29.27-.6.42-.89l.22-.45c.28-.59-.48.78-.13.24a33.84,33.84,0,0,1,2.6-3.78c.47-.59,1-1.14,1.52-1.71.37-.41-.31.31-.32.32a3.41,3.41,0,0,0,.38-.38l.93-.84a33.36,33.36,0,0,1,3.87-2.9,3.82,3.82,0,0,0,.48-.29s-1,.56-.44.26l1.13-.64c.71-.38,1.43-.74,2.17-1.08s1.5-.67,2.27-1c.36-.14.72-.28,1.08-.4l.72-.26c-.26.13-1.08.33-.33.12a45,45,0,0,1,5.5-1.34c1-.18,2-.26,2.93-.42,0,0-1.3.11-.61.07l1-.08,1.6-.07-1.69-9.22-.79.1s1.26-.08.59-.07c-.47,0-.94.07-1.41.08-1,0-2,0-3-.09-.67,0,.62,0,.61.06l-.8-.1c-.4-.06-.8-.12-1.19-.2-1-.19-1.95-.42-2.9-.7-1.42-.41.71.29-.26-.07-.43-.16-.87-.32-1.29-.49-.9-.37-1.78-.78-2.63-1.22-.2-.1-1.41-.83-.71-.38l-.66-.42c-.72-.48-1.41-1-2.07-1.52s-1.26-1.08-1.87-1.65c-.26-.24-.44-.65.19.21-.1-.13-.25-.26-.36-.38-.32-.34-.63-.69-.93-1a31.47,31.47,0,0,1-2.91-4l-.59-1c-.29-.48.21.39.2.39a3.36,3.36,0,0,1-.3-.6c-.36-.68-.68-1.38-1-2.08a41.31,41.31,0,0,1-1.79-5.07c-.56-1.93-1-3.9-1.36-5.84a5.3,5.3,0,0,1-.1-.55v0c-.08-.49-.15-1-.23-1.47q-.24-1.56-.45-3.12a4.59,4.59,0,0,0-1.76-3.31,7.28,7.28,0,0,0-8.5.06,4.23,4.23,0,0,0-1.72,3.24c0,3.12,0,6.24-.28,9.31-.07.74-.17,1.48-.27,2.22-.13.93.15-.7,0,.23-.09.42-.18.85-.28,1.28a27.53,27.53,0,0,1-1.23,3.9c-.24.61-.51,1.21-.8,1.8l-.23.44c-.23.5.21-.38.21-.38a6.11,6.11,0,0,0-.6,1,27.28,27.28,0,0,1-2.73,3.5c-.37.42.31-.31.32-.32a2.25,2.25,0,0,0-.39.36c-.26.25-.52.48-.8.71-.59.49-1.21,1-1.86,1.39l-.45.3c-.49.32.44-.27.44-.27a7.24,7.24,0,0,0-1,.52c-.72.37-1.46.7-2.22,1l-.53.2c-.72.28.07-.07.36-.11q-.66.15-1.29.36c-.87.22-1.75.35-2.64.51-.65.12.66-.06.65-.06-.26,0-.53.05-.78.06h-1.35a12.18,12.18,0,0,1-1.35,0c-.18,0-.88-.07,0,0s-.22,0-.35-.07c-3.08-.48-6.64.69-7.39,3.27-.69,2.34.9,5.24,4.19,5.75Z" transform="translate(0.5 -4.38)"/>
  <path class="cls-1" d="M166.78,96.21c15.83-3.6,25.52-16,22.34-28.61-.5-2.28-3.91-3.63-6.6-3.35-3.14.33-4.91,2.25-5.21,4.6-1.52,13.2,11,24.87,28,26.05h0a38.69,38.69,0,0,0,4.57.06c3.12-.16,6.16-2,6-4.68-.14-2.39-2.66-4.85-6-4.68a21.49,21.49,0,0,1-2.78,0l-1.19-.06-.59-.05.62.07c-.9-.2-1.81-.35-2.73-.46-.76-.15-1.52-.35-2.26-.56l-.74-.22.71.22a5.36,5.36,0,0,1-1.25-.47c-.77-.3-1.51-.63-2.24-1-.34-.17-.65-.35-1-.53-1-.51,1,.64-.2-.11a20,20,0,0,1-1.87-1.37c-.43-.35-1.43-.94-1.57-1.39.53.54.61.61.23.2-.12-.12-.23-.25-.34-.38l-.76-.9c-.4-.54-.78-1.08-1.12-1.64l-.33-.56c.32.6.39.73.22.4s-.32-.67-.47-1a17.48,17.48,0,0,1-.65-1.79c-.09-.29-.17-.6-.24-.9s-.09-.41-.13-.61c.12.73.14.84.06.32a17.83,17.83,0,0,1,0-4l-11.81,1.24a2.88,2.88,0,0,0,.11.49c.07.35,0,.21-.08-.44.14.1.08.68.09.78,0,.59.07,1.19.06,1.79s-.1,1.19-.16,1.79.23-1,0-.11c-.08.32-.15.64-.24,1a16.13,16.13,0,0,1-.58,1.74,14.27,14.27,0,0,0-.78,1.69c.11-.47.39-.69,0-.07q-.27.43-.57.87c-.36.51-.75,1-1.16,1.49-.18.22-.36.42-.55.62-.75.83.14-.1.13-.11a18.14,18.14,0,0,1-1.52,1.36c-.44.36-.91.71-1.38,1l-.88.6c-.89.59,1-.56,0,0a35.22,35.22,0,0,1-3.44,1.66l-.86.32-.7.25.72-.24c-.72.12-1.47.42-2.18.59-3,.71-5.22,3.31-4.2,5.76s4.2,3.91,7.39,3.26Z" transform="translate(0.5 -4.38)"/>
  <path class="cls-1" d="M179.64,73.86a27.44,27.44,0,0,1-2.33,3.26c-.4.49-.83.95-1.26,1.42-.68.78.86-.83-.08.08l-.71.66a39.13,39.13,0,0,1-3.21,2.6c-.59.42-1.2.83-1.82,1.22-1.16.78.87-.48-.09.07l-.9.51a43.17,43.17,0,0,1-3.93,1.9c-.71.3-1.42.58-2.16.85-.33.12-.68.22-1,.36,1.53-.6.47-.16.07,0-1.49.45-3,.83-4.57,1.14-.73.14-1.45.26-2.17.37l-1.1.14c-.65.08-.48.06.5,0l-.74.07v9.36c1-.1,2.06-.14,3.09-.14h1.55a8.73,8.73,0,0,0,1.54.11c-1-.11-1.11-.12-.45,0l.76.1c.5.07,1,.16,1.51.26.88.17,1.74.38,2.59.62.24.06.49.13.73.21.6.19.48.14-.37-.13,0,0,1.28.46,1.4.52a27,27,0,0,1,2.68,1.21l1,.5c.52.3.42.24-.29-.18l.6.38a21.93,21.93,0,0,1,2.24,1.65c.36.3.69.62,1,.92s.33.31-.21-.23l.46.49c.53.59,1,1.2,1.47,1.81.26.36.5.72.73,1.09l.33.55-.15-.27a10,10,0,0,1,1,2.34,21.42,21.42,0,0,1,.59,2.08c.1.52.09.4,0-.33l.09.61c.05.4.08.78.1,1.21a16.54,16.54,0,0,1-.06,2.44,1.79,1.79,0,0,1-.07.61q-.12.78.06-.33a3.9,3.9,0,0,0-.29,1.2l11.56,2.49a56.58,56.58,0,0,1,3-10.41c.63-1.55,1.36-3.11,2.11-4.67.25-.47.19-.38-.16.28.1-.19.21-.38.32-.56s.32-.56.49-.83a20.54,20.54,0,0,1,1.42-2c.06-.08.75-.87.75-.87-.55.54-.63.63-.23.24l.5-.44c.17-.14.53-.44.8-.64l.56-.4c.5-.31.39-.26-.31.18a10.36,10.36,0,0,0,1-.5,5,5,0,0,1,1.43-.57c-.83.27-.94.31-.33.14l.38-.1c.5-.13,1-.23,1.53-.31l.79-.12-.6.06c.47,0,1-.07,1.42-.09h2.87c1,0,1.94.08,2.91.17a7.54,7.54,0,0,1,1.64.16h-.37l.81.08A8.19,8.19,0,0,0,216.7,98a5.15,5.15,0,0,0,2.76-2.79,4.73,4.73,0,0,0-4.19-5.76c-5.2-.57-10.25-1-15.46-.28A21.85,21.85,0,0,0,187,95.77c-2.77,2.93-4.4,6.51-5.84,9.93a56.49,56.49,0,0,0-3.45,11.46,4.13,4.13,0,0,0,.6,3.6,6.23,6.23,0,0,0,3.6,2.16c3,.53,6.69-.71,7.39-3.27a21.38,21.38,0,0,0-3.7-18.65c-4.16-5.47-10.79-9.55-18.59-11.45a40.21,40.21,0,0,0-12.87-1,7.63,7.63,0,0,0-4.25,1.37,4.31,4.31,0,0,0-1.76,3.3,5.52,5.52,0,0,0,6,4.68c15.41-1.21,28.94-8.5,35.83-19.29a4.24,4.24,0,0,0-2.15-6.4C185.17,71.07,181.11,71.5,179.64,73.86Z" transform="translate(0.5 -4.38)"/>
  <path class="cls-1" d="M295.3,161.83l-.3-44.77-.09-12.84c0-2.59-2.69-4.68-6-4.68s-6,2.09-6,4.68l.3,44.77.09,12.84c0,2.59,2.69,4.68,6,4.68S295.3,164.42,295.3,161.83Z" transform="translate(0.5 -4.38)"/>
  <g>
    <path class="cls-1" d="M285.19,107.05c-14.16-13.52-21.53-30.58-20.73-48l8.15,4.76L284.5,12.17l14.88,29.34a12.1,12.1,0,0,0,3.86,5c3.18,2.14,8.15,1.92,11.86.36s6.43-4.18,9-6.73c5.07,25.43-8.72,52.63-34.77,68.5" transform="translate(0.5 -4.38)"/>
    <path class="cls-1" d="M289.43,103.74l-1.05-1-.38-.38c-.51-.51.66.68.17.17s-1.24-1.31-1.85-2q-1.86-2.06-3.54-4.22c-1.07-1.4-2.09-2.82-3-4.27S278,88.93,277,87.48c0,0,.45.86.2.37-.1-.21-.21-.41-.31-.6l-.54-1.06c-.4-.78-.78-1.63-1.14-2.45-.68-1.56-1.3-3.12-1.84-4.68s-1.07-3.26-1.48-4.92c-.19-.78-.36-1.48-.52-2.23-.08-.38-.16-.78-.23-1.13a3.71,3.71,0,0,1-.12-.65c0,.49.14.78,0,.12a55.42,55.42,0,0,1-.6-11.21l-9,4,8.14,4.76c3,1.73,8.19,0,8.84-2.79l9.26-40.17,2.61-11.49H278.69l12.36,24.36c1,2,2,3.9,3,5.89a16.33,16.33,0,0,0,4.65,6,19.61,19.61,0,0,0,16.12,2.42c5.8-1.56,9.86-5,13.59-8.57l-10-2.07c.06.3.11.58.17.88.16.87-.15-1,0-.08.1.63.19,1.27.27,1.9.15,1.22.26,2.44.33,3.67a58.51,58.51,0,0,1-.1,7.49c-.1,1.22-.24,2.45-.42,3.66a6.56,6.56,0,0,1-.09.88c-.13.88.18-1,0-.08-.12.63-.24,1.26-.39,1.89a67.1,67.1,0,0,1-2,7.18,63.61,63.61,0,0,1-2.92,7c-.29.6-.59,1.19-.91,1.78l-.21.41c-.25.48.25-.46.24-.44-.19.31-.35.63-.53.94-.67,1.13-1.33,2.23-2,3.33-1.41,2.19-3,4.33-4.64,6.41-.84,1-1.72,2.06-2.62,3.06-.43.48-.87,1-1.32,1.43l-.69.71c-.82.84.52-.51-.1.1a85.9,85.9,0,0,1-15.27,11.8,4,4,0,0,0,0,6.61,6.94,6.94,0,0,0,4.26,1.38,8.19,8.19,0,0,0,4.25-1.37,83.5,83.5,0,0,0,25.49-24,68.57,68.57,0,0,0,11.73-31,59.19,59.19,0,0,0-.91-18.1c-.66-3.33-7.37-4.68-10-2.06-1.31,1.28-2.65,2.56-4.12,3.74a22.47,22.47,0,0,0-2.25,1.56c.1-.1,1.12-.62.25-.17l-.5.27c-.5.25-1,.48-1.55.69s-.82.13.41-.11l-.53.15a12.85,12.85,0,0,1-1.26.3,4.57,4.57,0,0,0-.74.12,4,4,0,1,0,.48-.06c-.5,0-1,0-1.49,0a4.48,4.48,0,0,0-.73,0c.18,0,1.44.26.52,0-.28-.07-1.54-.42-.66-.1s-.36-.19-.57-.29c-.87-.37.28.11.33.23-.07-.14-.55-.41-.72-.55s-.75-.62-.15-.11.12.11,0,0c-.26-.37-.54-.72-.78-1.09l-.35-.56c-.07-.12-.34-.64,0,0s0,0-.08-.17l-.4-.78c-.94-1.84-1.88-3.7-2.81-5.55l-5.55-10.91-6.41-12.53a6.25,6.25,0,0,0-5.79-3.44c-2.49.08-5.32,1.37-5.8,3.44l-9.26,40.15-2.65,11.49,8.82-2.79L267.47,55a7.38,7.38,0,0,0-6.07,0,4.72,4.72,0,0,0-3,4c-.86,18.69,7.17,37,22.56,51.33,2,1.9,6.45,1.74,8.49,0,2.39-2,2.15-4.58,0-6.61Z" transform="translate(0.5 -4.38)"/>
  </g>
  <path class="cls-1" d="M242.65,10.15l11.18,17.33A5.31,5.31,0,0,0,260,28.74c2.11-1,2.82-3.12,1.63-4.8L250.44,6.6a5.3,5.3,0,0,0-6.16-1.25c-2.11,1-2.82,3.12-1.63,4.8Z" transform="translate(0.5 -4.38)"/>
  <path class="cls-1" d="M232.53,38.82,250,42.93c2.4.52,4.88-.58,5.54-2.45s-.75-3.8-3.15-4.31h0L234.9,32.1c-2.38-.57-4.9.46-5.64,2.32s.6,3.81,3,4.38l.26.06Z" transform="translate(0.5 -4.38)"/>
  <path class="cls-1" d="M203.6,186.16l-2.82,29.54-1.43,14.57-.68,7.19c-.27,2.83-.6,5.56.19,8.38,1.14,4.08,5,7.4,10.07,8.71a15.74,15.74,0,0,0,7.89-.09,20.52,20.52,0,0,0,3.44-1.3,13.9,13.9,0,0,1,2-.88l-2.16.71a6.67,6.67,0,0,1,1-.19l-2.4.25a7.84,7.84,0,0,1,1.37,0l-2.39-.25a8.3,8.3,0,0,1,1.33.31l-2.15-.71a9.86,9.86,0,0,1,1.54.72l-1.83-1.1a7.45,7.45,0,0,1,1.28,1l-1.41-1.42a8.83,8.83,0,0,1,1.18,1.64l-.91-1.67a12,12,0,0,1,1,3.25l-.32-1.87c.76,4.68,1.21,9.36,1.81,14L221,281.26q1.8,14.17,3.59,28.35a24.15,24.15,0,0,0,1.76,7.61,17.07,17.07,0,0,0,7.75,7.87,19.39,19.39,0,0,0,12.29,1.65,16.1,16.1,0,0,0,9.12-5.35c3.08-3.51,3.6-8.16,4.56-12.23l3.31-14.09,3.67-15.59,1.87-8a25.34,25.34,0,0,1,1.89-5.88l-.9,1.68a9.89,9.89,0,0,1,1.64-2.28l-1.41,1.42a9.09,9.09,0,0,1,1.36-1.08l-1.82,1.1a9.31,9.31,0,0,1,1.69-.78l-2.15.71a9.65,9.65,0,0,1,1.61-.37l-2.39.25a11.13,11.13,0,0,1,2,0l-2.39-.25a11.63,11.63,0,0,1,2.23.48l-2.15-.7a13,13,0,0,1,2.07.95l-1.83-1.1a11.86,11.86,0,0,1,2.26,1.73l-1.41-1.42a9.79,9.79,0,0,1,1.44,1.88l-.9-1.67a10.11,10.11,0,0,1,1,2.82l-.32-1.86a17.35,17.35,0,0,1-.12,5.66l.32-1.86c-.63,3.6-2,7.27-1.75,10.91.3,5,3,9.3,8.35,12.09a18.07,18.07,0,0,0,17.63-1.16c3.72-2.45,4.94-6.23,5.49-9.83.39-2.54-.16-5.07.25-7.6l-.33,1.86a10,10,0,0,1,1-3l-.92,1.67a7.41,7.41,0,0,1,1-1.33L300,275.91a7.1,7.1,0,0,1,1.13-.88l-1.91,1.05a7.14,7.14,0,0,1,1.16-.51l-2.15.71a9.66,9.66,0,0,1,1.07-.22l-2.39.25a7.72,7.72,0,0,1,1.52,0l-2.42-.23a8.58,8.58,0,0,1,1.42.32l-2.16-.7a7.82,7.82,0,0,1,1.27.61l-1.83-1.1a8.42,8.42,0,0,1,1.53,1.23L294.83,275a11.64,11.64,0,0,1,1.66,2.28l-.91-1.68a21.27,21.27,0,0,1,1.94,6.35l-.32-1.86c1.22,7.09.68,14.24.74,21.37a71.53,71.53,0,0,0,1.12,12.12,36.25,36.25,0,0,0,4.17,11.25,23,23,0,0,0,10.45,9.85,20.31,20.31,0,0,0,19.6-1.39,15,15,0,0,0,6.09-9.64,71.41,71.41,0,0,0,.84-12l.34-14.18c.11-4.41-.06-8.9.69-13.25l-.32,1.87a17.84,17.84,0,0,1,1.79-5.25l-.91,1.68a13.53,13.53,0,0,1,2.15-2.87l-1.41,1.42a16.13,16.13,0,0,1,2.61-2l-1.82,1.09a16.83,16.83,0,0,1,3.12-1.46l-2.15.71a15.14,15.14,0,0,1,3.09-.64L345,279a14.67,14.67,0,0,1,2.48,0l-2.4-.25a14.14,14.14,0,0,1,2.44.54l-2.16-.71c2.61.87,4.77,2.33,7.31,3.26a23.37,23.37,0,0,0,13.78,1.13A21.06,21.06,0,0,0,381.89,268a129.36,129.36,0,0,0,3.53-17.84,140.45,140.45,0,0,0,1.37-17,142.08,142.08,0,0,0-.9-18.89,6.81,6.81,0,0,0-2.63-5,10.92,10.92,0,0,0-12.75,0h0c-1.54,1.3-2.85,3.12-2.65,5a142.5,142.5,0,0,1-1.08,40l.32-1.87c-.48,2.81-1.05,5.62-1.7,8.41a31.17,31.17,0,0,1-2.44,7.44l.9-1.67a13.13,13.13,0,0,1-2,2.83l1.41-1.42a13.73,13.73,0,0,1-2.48,1.94l1.82-1.1a12.66,12.66,0,0,1-2.33,1.06l2.15-.71a13.43,13.43,0,0,1-2.55.54l2.39-.25a12.05,12.05,0,0,1-1.9,0l2.39.25a13,13,0,0,1-2.42-.52l2.15.71q-3.25-1.31-6.33-2.87a24.23,24.23,0,0,0-10.75-2.16c-7.7.48-14.58,3.93-18.32,9.19-3.54,4.92-4.19,10.6-4.35,16.12-.15,5.2-.26,10.41-.38,15.58l-.21,8.58a52.58,52.58,0,0,1-.4,7.2l.32-1.86a13.65,13.65,0,0,1-1.29,3.95l.91-1.68a9.52,9.52,0,0,1-1.34,1.86l1.41-1.43a7.25,7.25,0,0,1-1.42,1.14l1.82-1.1a7.79,7.79,0,0,1-1.52.7l2.15-.71a9.48,9.48,0,0,1-2,.42l2.39-.25a13.07,13.07,0,0,1-1.77,0l2.39.25a12.13,12.13,0,0,1-2-.47l2.15.71a14.18,14.18,0,0,1-2.23-1l1.82,1.09a15.72,15.72,0,0,1-3-2.38l1.41,1.42a20.2,20.2,0,0,1-3.11-4.37l.91,1.68a32.5,32.5,0,0,1-3.32-9.9l.32,1.86c-1.61-9.73.1-19.59-1.18-29.35-.75-5.75-1.87-11.69-7.12-16.12-4.67-4-12.29-4.8-18.18-2a14.31,14.31,0,0,0-4.93,4,15.59,15.59,0,0,0-2.94,8.82c-.11,2.06.24,4.08-.08,6.13l.32-1.86a9.54,9.54,0,0,1-.91,2.78l.91-1.68a6.26,6.26,0,0,1-1,1.33l1.41-1.42a5.57,5.57,0,0,1-1,.78l1.83-1.09a7.64,7.64,0,0,1-1.19.56l2.16-.71a8.77,8.77,0,0,1-1.54.32l2.4-.25a8,8,0,0,1-1.38,0l2.39.25a7.43,7.43,0,0,1-1.34-.29l2.12.75a9.36,9.36,0,0,1-1.84-.85l1.83,1.1a9.85,9.85,0,0,1-1.29-1l1.41,1.42a8.13,8.13,0,0,1-1.14-1.46l.91,1.67a7.92,7.92,0,0,1-.77-2.22l.32,1.87a13.06,13.06,0,0,1,.1-4.09l-.32,1.86c.61-3.55,1.72-7.08,1.85-10.68a15.33,15.33,0,0,0-3.64-10.85,20.55,20.55,0,0,0-11.83-6.57c-5.54-.82-11.43.28-15.32,3.63-5.72,4.92-6.33,11.88-7.8,18.11L245.42,294l-2.65,11.23c-.71,3.06-1.11,6.3-2.62,9.18l.9-1.67a8.85,8.85,0,0,1-1.44,2l1.41-1.41a9.2,9.2,0,0,1-1.08.85l1.82-1.1a7.29,7.29,0,0,1-1.32.63l2.15-.71a8.06,8.06,0,0,1-1.65.35l2.39-.25a8.42,8.42,0,0,1-1.42,0l2.41.25a10,10,0,0,1-1.74-.38l2.16.71a10.94,10.94,0,0,1-1.9-.87l1.83,1.09a9.29,9.29,0,0,1-1.59-1.22l1.41,1.42a9.3,9.3,0,0,1-1.41-1.89l.92,1.68a14.1,14.1,0,0,1-1.34-4.25l.32,1.86c-.84-5.15-1.35-10.34-2-15.51l-2-15.44-2-15.82L236,257c-.35-2.81-.44-5.78-1.56-8.48-1.55-4.22-5.64-7.59-11-9a17.77,17.77,0,0,0-7.85-.12c-2.25.45-3.76,1.48-5.73,2.26l2.15-.71a6.67,6.67,0,0,1-1,.26l2.39-.25a5.57,5.57,0,0,1-1,0l2.39.26a8.52,8.52,0,0,1-1.33-.29l2.16.7a7.78,7.78,0,0,1-.93-.42l1.83,1.1a6.78,6.78,0,0,1-1.29-1l1.41,1.41a6,6,0,0,1-.78-.92l.91,1.67a6.71,6.71,0,0,1-.59-1.66l.32,1.86a19.61,19.61,0,0,1,.12-5.19l.53-5.64,1.1-11.31L220.38,199l1.23-12.82c0-3.88-4-7-9-7a10.48,10.48,0,0,0-6.37,2,7,7,0,0,0-2.64,5Z" transform="translate(0.5 -4.38)"/>
  <path class="cls-1" d="M204.12,178.87l-1.28,9.7c0,3.87,4,7,9,7a10.55,10.55,0,0,0,6.37-2.06l1.41-1.42a5.87,5.87,0,0,0,1.24-3.54l1.3-9.7a4.38,4.38,0,0,0-.78-2.7,7.44,7.44,0,0,0-4.76-3.71,8.3,8.3,0,0,0-3.48-.6,10.53,10.53,0,0,0-6.38,2l-1.4,1.42a5.73,5.73,0,0,0-1.23,3.54Z" transform="translate(0.5 -4.38)"/>
  <path class="cls-1" d="M385.94,188.17c3-12.41-1.66-25.19-12.58-34.53-9.7-8.5-23.64-13.59-37.51-16.51q-12.39-2.41-25.05-3.79a12.21,12.21,0,0,0-6.94.71c-4.28,1.95-5.73,6.23-3.24,9.57a8.92,8.92,0,0,0,5.39,3.23c12.58,1.55,25.31,3.11,37.07,7l-2.16-.71a74.13,74.13,0,0,1,14.54,6.5l-1.82-1.09a47.44,47.44,0,0,1,9,6.93L361.24,164a33.26,33.26,0,0,1,5.41,7.21l-.91-1.68a29.12,29.12,0,0,1,3.06,8.82l-.32-1.87a27.13,27.13,0,0,1,0,8.81l.32-1.86c-.06.33-.12.65-.19,1a6.12,6.12,0,0,0,.91,5.4c2.52,3.35,8,4.48,12.34,2.52,1.85-.93,3.76-2.42,4.14-4.19Z" transform="translate(0.5 -4.38)"/>
  <path class="cls-1" d="M195.64,438.44c-20.42.77-41.88,1.66-60.24,9.43-7.58,3.2-14.79,7.79-19,13.72-4.08,5.79-5.4,13.07-2.33,19.34,7.12,14.59,29.54,16.88,46.8,19.08q32.19,4.11,64.68,6.58a1284.08,1284.08,0,0,0,129.71,3.32q32.43-.78,64.73-3.25c9.83-.78,19.86-1.56,28.87-4.89,7.66-2.81,13.52-7.92,16.26-14.16a20.17,20.17,0,0,0-1.5-18.4c-3.55-6.11-10.21-11-17.32-14.59C429.53,446,408.92,443.93,389.38,443c-5.09-.22-10.18-.36-15.28-.5-2.49,0-4.51,1.57-4.51,3.5s2,3.51,4.51,3.51c19.11.52,39,.91,56.89,6.7a57.87,57.87,0,0,1,19.12,9.9,25.43,25.43,0,0,1,2.94,2.82c.54.62,1.05,1.26,1.52,1.91.23.3.44.61.64.92.07.11.78,1.3.48.78a15.21,15.21,0,0,1,1.86,9.15s-.17,1.17,0,.42c-.06.33-.13.67-.22,1a16.68,16.68,0,0,1-.51,1.66c-.12.32-.25.64-.39,1-.05.11-.65,1.33-.34.78a17.8,17.8,0,0,1-2.36,3.32s-.86.92-.36.41a7.32,7.32,0,0,1-.88.78,22.81,22.81,0,0,1-2.31,1.78,32.5,32.5,0,0,1-9.36,3.95A86.3,86.3,0,0,1,428.16,499c-9.84,1-19.81,1.56-29.7,2.14q-15.36.9-30.75,1.44c-41.29,1.42-82.65.86-123.85-1.69Q213.32,499,183,495.63c-10-1.12-20-2.29-29.92-3.72-8.19-1.18-16.41-2.56-23.21-6.18a22.44,22.44,0,0,1-3.68-2.5l-1-.88c.43.43-.5-.56-.45-.51a20.66,20.66,0,0,1-1.67-2.24c0-.06-.36-.61-.12-.16-.18-.34-.33-.69-.48-1a16.27,16.27,0,0,1-.72-2.1s-.26-1.18-.14-.49c-.06-.36-.1-.73-.13-1.08a15.86,15.86,0,0,1,0-2.18,10,10,0,0,1,.1-1.09c.13-1.14-.19.61.1-.52.17-.66.34-1.32.57-2a13.41,13.41,0,0,1,2-3.83,25.43,25.43,0,0,1,6.81-6.43c13-9.08,32.6-11.51,49.91-12.55,4.9-.3,9.81-.5,14.73-.7,2.47,0,4.46-1.58,4.51-3.5s-2-3.5-4.51-3.51Z" transform="translate(0.5 -4.38)"/>
</svg>
