<svg id="correlations" xmlns="http://www.w3.org/2000/svg" viewBox="0 0 575.71 486.78">
  <defs>
    <style>
      .cls-1 {
        fill: #4b3a68;
        stroke: #4b3a68;
        stroke-miterlimit: 10;
      }
    </style>
  </defs>
  <path class="cls-1" d="M285.69,107c-10.14.58-20.32,1.19-30.38,2.34a168.51,168.51,0,0,0-27.09,5.29,90.12,90.12,0,0,0-21.43,9.08,44.08,44.08,0,0,0-15.27,14.5c-6.73,11-4,24.22,8.62,32.91,11.84,8.21,29.56,10.62,46,11.87q28.41,2,57,2.16c9.21.08,18.46.11,27.67-.38a152.89,152.89,0,0,0,27.79-3.62,79.19,79.19,0,0,0,23.55-9.46A37.47,37.47,0,0,0,396,157.35c5.77-11.62-1.61-24.1-15-32.1-14-8.31-32.61-11.85-50.75-14.24a423.85,423.85,0,0,0-59.3-3.67q-7,.07-13.89.38a15.07,15.07,0,0,0-7.61,2,6.27,6.27,0,0,0-3.17,5c.25,3.59,4.78,7.28,10.76,7A410.17,410.17,0,0,1,310.18,123l-2.86-.25q12.18,1.08,24.19,2.87a184.65,184.65,0,0,1,21.13,4.26l-2.58-.71a82.65,82.65,0,0,1,14.63,5.45l-2.19-1.1a47.28,47.28,0,0,1,8.89,5.77l-1.69-1.48a29,29,0,0,1,5.4,5.92L374,142a18.21,18.21,0,0,1,2.56,6l-.38-1.86a14.28,14.28,0,0,1,0,5.45l.38-1.86a17.75,17.75,0,0,1-2.39,5.7l1.08-1.68a29.07,29.07,0,0,1-5.56,6.15l1.7-1.42a47.36,47.36,0,0,1-8.88,5.73l2.19-1.09a66.92,66.92,0,0,1-12,4.52l2.57-.71a120.88,120.88,0,0,1-21,3.53l2.88-.25c-12,1-24.11.93-36.14.78q-19.45-.21-38.84-1.18c-6.4-.32-12.82-.66-19.12-1.22l2.87.26a124,124,0,0,1-21.52-3.53l2.58.71a56.38,56.38,0,0,1-9.73-3.53l2.18,1.09a33.32,33.32,0,0,1-6.36-4.15l1.69,1.42a21.77,21.77,0,0,1-4-4.54L212,158a18.3,18.3,0,0,1-2.4-5.89l.39,1.87a18.23,18.23,0,0,1,0-7.06l-.39,1.87a22.15,22.15,0,0,1,3-7.18l-1.09,1.68a31.75,31.75,0,0,1,6-6.7l-1.69,1.42A53.84,53.84,0,0,1,226,131.48l-2.18,1.1a91.2,91.2,0,0,1,16.26-6.07l-2.57.7a177.51,177.51,0,0,1,30.91-5.06l-2.88.25c6.74-.59,13.5-1,20.31-1.36a15.36,15.36,0,0,0,7.63-2.06c4.21-2.74,4.21-7.18,0-9.92h0a13.94,13.94,0,0,0-7.63-2Z" transform="translate(0 0.5)"/>
  <path class="cls-1" d="M187.9,151.46,186,224.3l-1.91,72.54-1.86,72.54c-.28,10.61-1.22,21.34.44,31.87,1.55,10.21,5.56,20.61,15.68,28.7,9.71,7.8,23.12,12.68,38.43,15.55,14.41,2.67,29.82,3.16,45,3.23q21.63.18,43.26-1.48c15.1-1.27,30.49-3.65,43.65-8.92,14.62-5.84,24-15.08,27.69-25.27a59.55,59.55,0,0,0,3-16.06c.46-5.86.78-11.77,1.11-17.66q2.1-36.15,3.06-72.29t.75-72.53q-.21-36.09-1.54-72.14-.35-8.82-.72-17.66c-.18-3.42-5.28-6.45-11-6s-10.43,3.49-10.35,7.07q1.61,35.49,2.09,71t-.14,71q-.57,35.39-2.33,70.8-.89,17.82-2,35.7c-.16,2.48-.32,5-.61,7.45-.07.56-.13,1.14-.21,1.7a4.4,4.4,0,0,0-.16.94s.25-1.3.1-.53c-.26,1.28-.51,2.58-.87,3.86a32.74,32.74,0,0,1-2.79,7.05l-.37.68c-.64,1.17.14-.11.17-.26a5.72,5.72,0,0,1-1.11,1.56,32.75,32.75,0,0,1-3,3.43c-.28.28-.59.54-.86.82-.66.68.58-.49.59-.51-.58.42-1.14.91-1.65,1.35-1.07.83-2.19,1.62-3.36,2.36-.54.34-1.15.67-1.66,1-1.33.8.43-.26.62-.32a6.44,6.44,0,0,0-1,.53c-1.3.64-2.63,1.25-4,1.82s-2.79,1.08-4.25,1.61c-.38.12-2.75.86-1.1.38,1.44-.46.36-.12.06,0l-1.51.44q-4.71,1.31-9.56,2.22c-1.67.32-3.33.61-5,.88l-2.37.36c-.42,0-2,.26-.29,0,1.88-.26-.44,0-.65,0-3.47.43-7,.78-10.47,1.06-7,.55-14,.84-21,1.07s-14.16.32-21.22.3c-1.69,0-3.35,0-5,0l-2.87-.06-1.07,0c-2.39,0,.28.11.34,0q-2.5,0-5-.21c-1.9-.09-3.77-.2-5.65-.34a181.78,181.78,0,0,1-20.28-2.53c-1.77-.32.52.07.67.16a9,9,0,0,0-1.27-.28l-2.19-.5c-1.55-.36-3.07-.78-4.56-1.22s-3-.9-4.38-1.4c-.67-.23-1.34-.46-2-.72a9.62,9.62,0,0,0-1.1-.42c.43.12,1.7.73.58.24a60.29,60.29,0,0,1-7.59-3.91c-.64-.38-1.23-.78-1.86-1.19h0c1,.68,0-.07-.29-.25a39.33,39.33,0,0,1-6-5.66l-.66-.8c-.56-.64.37.47.37.49a10.41,10.41,0,0,0-1.29-1.87,37.39,37.39,0,0,1-3.33-6.51c-.42-1.06-.78-2.1-1.1-3.17-.51-1.67.19.86-.11-.35-.17-.72-.33-1.4-.48-2.1a58.87,58.87,0,0,1-1-7.1,126.66,126.66,0,0,1-.24-14.32q.92-35.61,1.88-71.3l1.8-71.08L209,167.75l.45-17.48c.1-3.44-5.43-6.43-11-6-5.85.39-10.42,3.51-10.35,7.08Z" transform="translate(0 0.5)"/>
  <path class="cls-1" d="M574.91,427.27c-3.49-25.57-31.34-43-59.72-52.82-34.82-12.09-73.06-15.52-110.8-17.25-6.79-.32-13.58-.57-20.37-.81a54.25,54.25,0,0,1,.57,9.15c0,1.62-.06,3.24-.14,4.86,15.86.56,31.7,1.22,47.49,2.47q3.36.27,6.69.57l3.09.3,1.55.15c.62.07.68.07.16,0l1,.11c4.42.47,8.83,1,13.24,1.62q13.09,1.81,25.89,4.68,5.91,1.33,11.72,2.95c1.7.47,3.4,1,5.09,1.47l2.92.91s1.37.45.57.18l1,.33a166.59,166.59,0,0,1,20.69,8.57c1.54.78,3,1.56,4.51,2.34l2,1.14c.07,0,1.15.68.4.23l.69.42a92.82,92.82,0,0,1,8,5.62c1.19.93,2.36,1.9,3.47,2.89.51.46,1,.91,1.51,1.38l1,.93a58.71,58.71,0,0,1,5.4,6.77c.33.51.65,1,1,1.56a2.36,2.36,0,0,0,.13.2l.11.25c.61,1.27,1.19,2.5,1.67,3.79a30,30,0,0,1,1.1,3.57c.12.45.21.91.3,1.36a9.73,9.73,0,0,1,.13,1.21,42.45,42.45,0,0,1-.11,7c0-.28,0-.17,0,.1s0,.23,0,.35c0-.14,0-.24,0-.33,0,.19-.06.43-.1.66-.16.69-.31,1.28-.5,1.91a30.79,30.79,0,0,1-1.24,3.49c-.26.62-.63,1.22-.87,1.85h0l-.23.4a32.79,32.79,0,0,1-2.41,3.53,38.45,38.45,0,0,1-2.72,3.12c.91-1-.09.08-.49.45-.67.61-1.36,1.21-2.08,1.8a46.19,46.19,0,0,1-3.77,2.77l-.94.62-.51.33-.28.16-1.61.89a78.28,78.28,0,0,1-9,4.06c-.85.33-1.71.63-2.57.94l-.57.21-.28.09q-2.68.84-5.45,1.56c-3.63.95-7.32,1.74-11,2.42s-7.72,1.26-11.61,1.73l-2.65.31c1.46-.17-.71.07-1.15.11q-3.12.3-6.26.53c-16.84,1.26-33.78,1.26-50.68,1.45-38.59.43-77.2.78-115.77.71S245,471,206.52,469.57q-28.8-1.08-57.58-2.85-13.94-.87-27.87-2-6.67-.53-13.32-1.16l-3-.29-1.53-.18c-2.27-.24-4.56-.52-6.84-.77q-13-1.6-25.63-4.39c-4.08-.91-8.15-1.95-12.13-3.11L56,454.08l-1.28-.44c-2-.68-3.9-1.39-5.8-2.15a98.05,98.05,0,0,1-10.27-4.84c-.61-.33-1.22-.67-1.82-1,.22.12-1.26-.77-1.52-.95-1.52-1-3-2-4.4-3.08s-2.51-2-3.68-3c-.47-.43-.91-.89-1.39-1.3l-.9-.93a38.2,38.2,0,0,1-2.67-3.28c-.44-.59-.84-1.2-1.23-1.81-.29-.45-.69-1.31-.67-1.23-.42-1-.84-2-1.22-3-.18-.55-.32-1.09-.47-1.64a1.65,1.65,0,0,1-.06-.24c0-.22-.05-.56-.05-.65a21.76,21.76,0,0,1,0-3.61c.06-.68.37-1.56,0-.36.22-.78.36-1.49.61-2.23a24.89,24.89,0,0,1,1.08-2.75c.14-.24.54-.95.67-1.16.4-.6.81-1.19,1.25-1.77.81-1.07,1.72-2.07,2.64-3.08l.86-.8c.61-.55,1.22-1.08,1.85-1.61a72.05,72.05,0,0,1,7.94-5.62l1.17-.69c.83-.47,1.65-.92,2.48-1.36,1.57-.85,3.16-1.65,4.79-2.43a193.14,193.14,0,0,1,21.75-8.67L67,388l3.06-1c2-.65,4.13-1.27,6.22-1.87C80.2,384,84.14,382.91,88.1,382q12.51-3.1,25.37-5.27a347,347,0,0,1,51.17-4.89q13-.33,25.92.21c4.72.18,9.23-3.37,9-7-.1-3.84-4.08-6.94-9-7v-.07a383.3,383.3,0,0,0-110,11.2c-16.71,4.29-33.54,9.59-48.31,17.15C19,393,5.93,402.21,1.78,414.58c-4.23,12.63,2.5,25,13.28,34.41,11.77,10.27,28,16.74,44.57,21.05,17.61,4.58,36.1,6.68,54.52,8.29,19.6,1.7,39.29,2.89,59,3.89,40.11,2,80.21,3,120.32,3.38s80.42.1,120.63-.31c18.76-.18,37.55-.17,56.3-.78,17-.53,34.41-1.69,50.86-5.36,15.28-3.41,30.72-9.35,40.83-19.14C571.54,450.79,576.52,439.14,574.91,427.27Z" transform="translate(0 0.5)"/>
  <path class="cls-1" d="M416.91,202.73c8.86,1.3,18-1.06,24-6.23,6.26-5.24,9-12.05,10-19a73.62,73.62,0,0,0,.58-11.69h-12c1.12,8.08,2.53,16.1,6.91,23.56a34.93,34.93,0,0,0,19.36,15.29,37,37,0,0,0,17,1.45c2.93-.42,4.68-3,4.31-5.14-.4-2.3-2.92-4-5.9-4.05a50.82,50.82,0,0,0-23.51,6.31c-7.21,4.16-12.56,10-15.31,16.62a25.65,25.65,0,0,0-1.9,11.32c.14,2.44,2.66,4.79,6,4.68s6-2.12,6-4.68c0-6.66-.34-13.62-3.47-19.9a28.16,28.16,0,0,0-16-14.4,32.51,32.51,0,0,0-15.43-1.56c-3.1.43-5.12,3.5-4.19,5.75,1.08,2.6,4.06,3.72,7.39,3.26.66-.08.52-.07-.43,0l.79,0h1.57a8.28,8.28,0,0,0,1.57.09c-1-.11-1.1-.12-.43,0l.77.12c.38.06,3,.45,3,.73-.82-.28-.93-.32-.34-.11.25.08.48.18.72.27s.71.29,1.05.44.92.43,1.36.66l.65.36-.27-.17a24.55,24.55,0,0,1,2.33,1.72c.37.3.71.62,1.06.94s.34.33-.2-.2c.16.16.32.33.47.51a20.81,20.81,0,0,1,1.62,2c.49.69.93,1.4,1.35,2.12.26.47.22.38-.13-.24l.3.58c.19.4.37.78.54,1.2a29.34,29.34,0,0,1,1.58,5.11c.06.25.36,1.64.1.4.1.5.15,1,.22,1.49.12,1,.21,2,.28,3,.13,2,.15,4,.16,6h12a21.21,21.21,0,0,1,.12-4.14,3.42,3.42,0,0,1,.09-.63s-.2,1-.07.46c.07-.32.12-.63.2-.94a20.84,20.84,0,0,1,.63-2.18c.23-.67.49-1.33.78-2,.13-.29.27-.6.42-.89l.22-.45c.28-.59-.48.78-.13.24a33.76,33.76,0,0,1,2.6-3.78c.47-.59,1-1.14,1.52-1.71.37-.41-.31.31-.32.32a3.41,3.41,0,0,0,.38-.38l.93-.84a33.08,33.08,0,0,1,3.87-2.9,2.92,2.92,0,0,0,.48-.29s-1,.56-.44.26l1.13-.64c.71-.38,1.43-.74,2.17-1.08s1.5-.67,2.27-1c.36-.14.72-.28,1.08-.4l.72-.26c-.26.13-1.08.33-.33.12a45,45,0,0,1,5.5-1.34c1-.18,2-.26,2.93-.42,0,0-1.3.11-.61.07l1-.08,1.6-.07-1.69-9.22-.79.1s1.26-.08.59-.07c-.47,0-.94.07-1.41.08-1,0-2,0-3-.09-.67,0,.62,0,.61.06l-.8-.1c-.4-.06-.8-.12-1.19-.2-1-.19-1.95-.42-2.9-.7-1.42-.41.71.29-.26-.07-.43-.16-.87-.32-1.29-.49-.9-.37-1.78-.78-2.63-1.22-.2-.1-1.41-.83-.71-.38l-.66-.42c-.72-.48-1.41-1-2.07-1.52s-1.26-1.08-1.87-1.65c-.26-.24-.44-.65.19.21-.1-.13-.25-.26-.36-.38-.32-.34-.63-.69-.93-1a31,31,0,0,1-2.91-4l-.59-1c-.29-.48.21.39.2.39a3.36,3.36,0,0,1-.3-.6c-.36-.68-.68-1.38-1-2.08a41.21,41.21,0,0,1-1.79-5.07c-.56-1.93-1-3.9-1.36-5.84a4.86,4.86,0,0,1-.1-.55h0c-.08-.49-.15-1-.23-1.47q-.24-1.56-.45-3.12a4.6,4.6,0,0,0-1.76-3.31,7.28,7.28,0,0,0-8.5.06,4.22,4.22,0,0,0-1.72,3.24c0,3.12,0,6.24-.28,9.31-.07.74-.17,1.48-.27,2.22-.13.93.15-.7,0,.23-.09.42-.18.85-.28,1.28a26.74,26.74,0,0,1-1.23,3.9c-.24.61-.51,1.21-.8,1.8l-.23.44c-.23.5.21-.38.21-.38a6.31,6.31,0,0,0-.6,1,27.18,27.18,0,0,1-2.73,3.5c-.37.42.31-.31.32-.32a2.64,2.64,0,0,0-.39.36c-.26.25-.52.48-.8.71a15.51,15.51,0,0,1-1.86,1.39l-.45.3c-.49.32.44-.27.44-.27a7.29,7.29,0,0,0-1,.52c-.72.37-1.46.7-2.22,1l-.53.2c-.72.28.07-.07.36-.11q-.66.15-1.29.36c-.87.22-1.75.35-2.64.51-.65.12.66-.06.65-.06-.26,0-.53.05-.78.06H421.8a10.14,10.14,0,0,1-1.35,0c-.18,0-.88-.07,0,0s-.22,0-.35-.07c-3.08-.48-6.64.69-7.39,3.27-.69,2.34.9,5.24,4.19,5.75Z" transform="translate(0 0.5)"/>
  <path class="cls-1" d="M167.28,87.72c15.83-3.6,25.52-16,22.34-28.61-.5-2.28-3.91-3.63-6.6-3.35-3.14.33-4.91,2.25-5.21,4.6-1.52,13.2,11,24.87,28,26.05h0a38.72,38.72,0,0,0,4.57.06c3.12-.16,6.16-2,6-4.68-.14-2.39-2.66-4.85-6-4.68a21.49,21.49,0,0,1-2.78,0l-1.19-.06-.59,0,.62.07c-.9-.2-1.81-.35-2.73-.46-.76-.15-1.52-.35-2.26-.56l-.74-.22.71.22a5.26,5.26,0,0,1-1.25-.47c-.77-.3-1.51-.63-2.24-1-.34-.17-.65-.35-1-.53-1-.51,1,.64-.2-.11a20.84,20.84,0,0,1-1.87-1.37c-.43-.35-1.43-.94-1.57-1.39.53.54.61.61.23.2-.12-.12-.23-.25-.34-.38l-.76-.9c-.4-.54-.78-1.08-1.12-1.64L191,67.9c.32.6.39.73.22.4s-.32-.67-.47-1a15.91,15.91,0,0,1-.65-1.79c-.09-.29-.17-.6-.24-.9s-.09-.41-.13-.61c.12.73.14.84.06.32a17.83,17.83,0,0,1,0-4L178,61.56a2.68,2.68,0,0,0,.11.49c.07.35,0,.21-.08-.44.14.1.08.68.09.78,0,.59.07,1.19.06,1.79S178,65.37,178,66s.23-1,0-.11c-.08.32-.15.64-.24,1a15.43,15.43,0,0,1-.58,1.74,13.57,13.57,0,0,0-.78,1.69c.11-.47.39-.69,0-.07q-.27.44-.57.87c-.36.51-.75,1-1.16,1.49-.18.22-.36.42-.55.62-.75.83.14-.1.13-.11a17.78,17.78,0,0,1-1.52,1.36,13,13,0,0,1-1.38,1l-.88.6c-.89.59,1-.56,0,0A34,34,0,0,1,167,77.71l-.86.32-.7.25.72-.24c-.72.12-1.47.42-2.18.59-3,.71-5.22,3.31-4.2,5.76s4.2,3.91,7.39,3.26Z" transform="translate(0 0.5)"/>
  <path class="cls-1" d="M177.48,65.3a28.81,28.81,0,0,1-2.33,3.26c-.4.49-.83,1-1.26,1.42-.68.78.86-.83-.08.08l-.71.66c-1,.92-2.1,1.79-3.21,2.6-.59.42-1.2.83-1.82,1.22-1.16.78.87-.48-.09.07l-.9.51c-1.28.7-2.59,1.33-3.93,1.9-.71.3-1.42.58-2.16.85-.33.12-.68.22-1,.36,1.53-.6.47-.16.07,0-1.49.45-3,.83-4.57,1.14-.73.14-1.45.26-2.17.37l-1.1.14c-.65.08-.48.06.5,0L152,80v9.36c1-.1,2.06-.14,3.09-.14h1.55a8.8,8.8,0,0,0,1.54.11c-1-.11-1.11-.12-.45,0l.76.1c.5.07,1,.16,1.51.26.88.17,1.74.38,2.59.62.24.06.49.13.73.21.6.19.48.14-.37-.13,0,0,1.28.46,1.4.52A26.81,26.81,0,0,1,167,92.07l1,.5c.52.3.42.24-.29-.18l.6.38a21.17,21.17,0,0,1,2.24,1.65c.36.3.69.62,1,.92s.33.31-.21-.23l.46.49c.53.59,1,1.2,1.47,1.81.26.36.5.72.73,1.09l.33.55-.15-.27a10.31,10.31,0,0,1,1,2.34c.23.68.42,1.38.59,2.08.1.52.09.4,0-.33l.09.61c0,.4.08.78.1,1.21a16.58,16.58,0,0,1-.06,2.44,2.12,2.12,0,0,1-.07.61q-.12.78.06-.33a3.83,3.83,0,0,0-.29,1.2l11.56,2.49a56.09,56.09,0,0,1,3-10.41c.63-1.55,1.36-3.11,2.11-4.67.25-.47.19-.38-.16.28.1-.19.21-.38.32-.56s.32-.56.49-.83a18.57,18.57,0,0,1,1.42-2c.06-.08.75-.87.75-.87-.55.54-.63.63-.23.24l.5-.44c.17-.14.53-.44.8-.64l.56-.4c.5-.31.39-.26-.31.18.34-.15.67-.32,1-.5a4.81,4.81,0,0,1,1.43-.57c-.83.27-.94.31-.33.14l.38-.1a14.79,14.79,0,0,1,1.53-.31l.79-.12-.6.06c.47,0,1-.07,1.42-.09h2.87c1,0,1.94.08,2.91.17a7.54,7.54,0,0,1,1.64.16h-.37l.81.08a8.18,8.18,0,0,0,4.64-.46,5.17,5.17,0,0,0,2.76-2.79A4.73,4.73,0,0,0,213.73,81a4.22,4.22,0,0,0-.62-.1c-5.2-.57-10.25-1-15.46-.28a21.81,21.81,0,0,0-12.81,6.6c-2.77,2.93-4.4,6.51-5.84,9.93a56,56,0,0,0-3.45,11.46,4.12,4.12,0,0,0,.6,3.6,6.21,6.21,0,0,0,3.6,2.16c3,.53,6.69-.71,7.39-3.27a21.39,21.39,0,0,0-3.7-18.65C179.28,87,172.65,82.89,164.85,81A40.12,40.12,0,0,0,152,80a7.57,7.57,0,0,0-4.25,1.37,4.29,4.29,0,0,0-1.76,3.3,5.51,5.51,0,0,0,6,4.68c15.41-1.21,28.94-8.5,35.83-19.29a4.24,4.24,0,0,0-1.13-5.89,3.9,3.9,0,0,0-1-.51C183,62.51,179,62.94,177.48,65.3Z" transform="translate(0 0.5)"/>
  <path class="cls-1" d="M295.8,151.05l-.3-44.77-.09-12.84c0-2.59-2.69-4.68-6-4.68s-6,2.09-6,4.68l.3,44.77.09,12.84c0,2.59,2.69,4.68,6,4.68S295.8,153.64,295.8,151.05Z" transform="translate(0 0.5)"/>
  <g>
    <path class="cls-1" d="M285.23,107.07c-14.16-13.52-21.53-30.58-20.73-48l8.15,4.76,11.89-51.64,14.88,29.34a12.08,12.08,0,0,0,3.86,5c3.18,2.14,8.15,1.92,11.86.36s6.43-4.18,9-6.73c5.07,25.43-8.72,52.63-34.77,68.5" transform="translate(0 0.5)"/>
    <path class="cls-1" d="M289.47,103.76l-1.05-1-.38-.38c-.51-.51.66.68.17.17s-1.24-1.31-1.85-2c-1.24-1.38-2.42-2.78-3.54-4.22s-2.09-2.82-3-4.27S278,89,277,87.5c0,0,.45.86.2.37-.1-.21-.21-.41-.31-.6l-.54-1.06c-.4-.78-.78-1.63-1.14-2.45-.68-1.56-1.3-3.12-1.84-4.68s-1.07-3.26-1.48-4.92c-.19-.78-.36-1.48-.52-2.23-.08-.38-.16-.78-.23-1.13a3.71,3.71,0,0,1-.12-.65c0,.49.14.78,0,.12a55.38,55.38,0,0,1-.6-11.21l-9,4,8.14,4.76c3,1.73,8.19,0,8.84-2.79l9.26-40.17,2.61-11.49H278.73l12.36,24.36c1,2,2,3.9,3,5.89a16.34,16.34,0,0,0,4.65,6A19.64,19.64,0,0,0,314.86,52c5.8-1.56,9.86-5,13.59-8.57l-10-2.07c.06.3.11.58.17.88.16.87-.15-1,0-.08.1.63.19,1.27.27,1.9.15,1.22.26,2.44.33,3.67a60.42,60.42,0,0,1-.1,7.49c-.1,1.22-.24,2.45-.42,3.66a6.56,6.56,0,0,1-.09.88c-.13.88.18-1,0-.08-.12.63-.24,1.26-.39,1.89a68.83,68.83,0,0,1-2,7.18,65.83,65.83,0,0,1-2.92,7c-.29.6-.59,1.19-.91,1.78l-.21.41c-.25.48.25-.46.24-.44-.19.31-.35.63-.53.94-.67,1.13-1.33,2.23-2,3.33-1.41,2.19-3,4.33-4.64,6.41-.84,1-1.72,2.06-2.62,3.06-.43.48-.87,1-1.32,1.43l-.69.71c-.82.84.52-.51-.1.1a86.47,86.47,0,0,1-15.27,11.8,4,4,0,0,0-1.06,5.56,4.07,4.07,0,0,0,1.06,1.05,7,7,0,0,0,4.26,1.38,8.3,8.3,0,0,0,4.25-1.37,83.67,83.67,0,0,0,25.49-24,68.72,68.72,0,0,0,11.73-31,59.44,59.44,0,0,0-.91-18.1c-.66-3.33-7.37-4.68-10-2.06-1.31,1.28-2.65,2.56-4.12,3.74a20.49,20.49,0,0,0-2.25,1.56c.1-.1,1.12-.62.25-.17l-.5.27a16.88,16.88,0,0,1-1.55.69c-.55.21-.82.13.41-.11l-.53.15q-.63.18-1.26.3a4.57,4.57,0,0,0-.74.12,4,4,0,1,0,.48-.06h-1.49a4.45,4.45,0,0,0-.73,0c.18,0,1.44.26.52,0-.28-.07-1.54-.42-.66-.1s-.36-.19-.57-.29c-.87-.37.28.11.33.23-.07-.14-.55-.41-.72-.55s-.75-.62-.15-.11.12.11,0,0c-.26-.37-.54-.72-.78-1.09l-.35-.56c-.07-.12-.34-.64,0,0s0,0-.08-.17l-.4-.78c-.94-1.84-1.88-3.7-2.81-5.55l-5.55-10.91-6.41-12.53a6.26,6.26,0,0,0-5.79-3.44c-2.49.08-5.32,1.37-5.8,3.44L269.56,51,266.91,62.5l8.82-2.79L267.51,55a7.38,7.38,0,0,0-6.07,0,4.7,4.7,0,0,0-3,4c-.86,18.69,7.17,37,22.56,51.33,2,1.9,6.45,1.74,8.49,0,2.39-2,2.15-4.58,0-6.61Z" transform="translate(0 0.5)"/>
  </g>
  <path class="cls-1" d="M246.71,5.29l11.18,17.33a5.3,5.3,0,0,0,6.17,1.26c2.11-1,2.82-3.12,1.63-4.8L254.5,1.74A5.31,5.31,0,0,0,248.34.49C246.23,1.49,245.52,3.61,246.71,5.29Z" transform="translate(0 0.5)"/>
  <path class="cls-1" d="M233,35.44l17.47,4.11c2.4.52,4.88-.58,5.54-2.45s-.75-3.8-3.15-4.31h0L235.4,28.72c-2.38-.57-4.9.46-5.64,2.32s.6,3.81,3,4.38l.26.06Z" transform="translate(0 0.5)"/>
  <path class="cls-1" d="M189.47,160.52l-2.18,29.64-1.12,14.62-.52,7.22c-.21,2.84-.49,5.58.53,8.36,1.48,4,6.09,7.18,12,8.27a21.19,21.19,0,0,0,9.17-.43,26.19,26.19,0,0,0,4-1.45,18.58,18.58,0,0,1,2.3-1l-2.49.8a11.36,11.36,0,0,1,1.16-.24l-2.78.36a10.57,10.57,0,0,1,1.59-.06l-2.79-.15a10.16,10.16,0,0,1,1.56.26l-2.53-.62a12.28,12.28,0,0,1,1.82.65l-2.17-1a8.53,8.53,0,0,1,1.53.95l-1.69-1.36a9.35,9.35,0,0,1,1.43,1.59l-1.12-1.63a10.78,10.78,0,0,1,1.28,3.2l-.44-1.85c1.06,4.64,1.75,9.3,2.63,13.91l2.62,14.22q2.63,14.08,5.23,28.17a21.21,21.21,0,0,0,2.33,7.53,18.57,18.57,0,0,0,9.3,7.53,25.84,25.84,0,0,0,14.35,1.12,19.56,19.56,0,0,0,10.41-5.74c3.45-3.64,3.88-8.31,4.84-12.42L263,266.77,266.71,251l1.88-8.08a23.2,23.2,0,0,1,2-6l-1,1.72a9.9,9.9,0,0,1,1.82-2.35l-1.59,1.48a11,11,0,0,1,1.54-1.14l-2.07,1.18a11.9,11.9,0,0,1,1.93-.85l-2.47.8a12.91,12.91,0,0,1,1.86-.44l-2.77.36a15,15,0,0,1,2.32-.09l-2.78-.15a16.44,16.44,0,0,1,2.61.39l-2.53-.61a15.68,15.68,0,0,1,2.44.86l-2.17-1a14.36,14.36,0,0,1,2.7,1.63l-1.7-1.36a10,10,0,0,1,1.75,1.82l-1.11-1.63a9.25,9.25,0,0,1,1.27,2.77l-.44-1.84a15.17,15.17,0,0,1,.07,5.66l.3-1.87c-.6,3.62-2.06,7.35-1.63,11,.54,5,3.83,9.16,10.16,11.72a24,24,0,0,0,20.45-1.93c4.24-2.61,5.51-6.44,6-10.06.36-2.55-.37-5.06,0-7.6l-.32,1.87a9.17,9.17,0,0,1,1.05-3l-1,1.71a7.57,7.57,0,0,1,1.11-1.37L304.89,246a8.5,8.5,0,0,1,1.28-.92L304,246.24a8.69,8.69,0,0,1,1.33-.56l-2.47.8c.4-.11.82-.2,1.23-.27l-2.77.36a10.49,10.49,0,0,1,1.77-.07l-2.82-.12a11.46,11.46,0,0,1,1.66.25l-2.54-.6a9.59,9.59,0,0,1,1.5.55l-2.17-1a9.84,9.84,0,0,1,1.83,1.17l-1.69-1.38a11.91,11.91,0,0,1,2,2.2l-1.12-1.63a19,19,0,0,1,2.49,6.26l-.44-1.85c1.68,7,1.32,14.2,1.66,21.32a61.66,61.66,0,0,0,1.75,12.07,32.93,32.93,0,0,0,5.27,11.06A25.52,25.52,0,0,0,323,304.17a27,27,0,0,0,22.74-2.24,14.94,14.94,0,0,0,6.72-9.89,61.36,61.36,0,0,0,.53-12l-.13-14.19c0-4.41-.4-8.89.31-13.27l-.31,1.89a16.27,16.27,0,0,1,1.89-5.33l-1,1.72a13.68,13.68,0,0,1,2.39-3l-1.59,1.48a18,18,0,0,1,3-2.11l-2.07,1.16a21.65,21.65,0,0,1,3.57-1.59l-2.47.8a20.33,20.33,0,0,1,3.56-.77l-2.77.33a20,20,0,0,1,2.89-.1l-2.8-.15a19.74,19.74,0,0,1,2.86.43l-2.54-.61c3.06.75,5.63,2.12,8.62,2.94a31.33,31.33,0,0,0,16.06.53c8.65-2.11,15.32-8.1,17.4-15.63a114.5,114.5,0,0,0,3.44-18,121.45,121.45,0,0,0,1-17,122.8,122.8,0,0,0-1.75-18.84,6.59,6.59,0,0,0-3.25-4.88,14.4,14.4,0,0,0-14.82.55h0c-1.74,1.36-3.2,3.24-2.9,5.11a122.7,122.7,0,0,1,.24,40l.3-1.88c-.45,2.82-1,5.66-1.66,8.47a28.59,28.59,0,0,1-2.56,7.54l1-1.7a13.13,13.13,0,0,1-2.22,2.91l1.59-1.48a16.47,16.47,0,0,1-2.81,2.05l2.07-1.18a16.32,16.32,0,0,1-2.67,1.16l2.47-.8a19.25,19.25,0,0,1-2.94.65l2.77-.36a14.8,14.8,0,0,1-2.21.08l2.79.15a17.71,17.71,0,0,1-2.83-.41l2.52.61q-3.82-1.17-7.47-2.59a31.88,31.88,0,0,0-12.57-1.69c-8.94.81-16.81,4.55-21,10-3.93,5.07-4.48,10.78-4.46,16.3,0,5.2.09,10.41.14,15.58l.07,8.59a45.72,45.72,0,0,1-.19,7.21l.3-1.87a12.45,12.45,0,0,1-1.35,4l1-1.72a9.35,9.35,0,0,1-1.49,1.92l1.59-1.49a8.33,8.33,0,0,1-1.61,1.2l2.08-1.18a9.78,9.78,0,0,1-1.75.77l2.48-.81a12.86,12.86,0,0,1-2.31.51l2.77-.35a17.73,17.73,0,0,1-2.06.07l2.79.15a16.68,16.68,0,0,1-2.35-.38l2.53.61a17.35,17.35,0,0,1-2.63-.9l2.16,1a17.74,17.74,0,0,1-3.58-2.25l1.69,1.36a20.62,20.62,0,0,1-3.77-4.23l1.12,1.64a29.28,29.28,0,0,1-4.23-9.75l.44,1.84c-2.24-9.65-.61-19.58-2.47-29.27-1.08-5.72-2.6-11.61-8.87-15.81-5.58-3.79-14.47-4.26-21.21-1.21a16.5,16.5,0,0,0-5.59,4.21,14.18,14.18,0,0,0-3.09,8.94c0,2.07.43,4.07.14,6.13l.3-1.87a8.71,8.71,0,0,1-.95,2.82l1-1.72a6.29,6.29,0,0,1-1.11,1.37l1.58-1.48a6.71,6.71,0,0,1-1.13.83l2.09-1.17a11.06,11.06,0,0,1-1.36.61l2.48-.8a11.73,11.73,0,0,1-1.78.38l2.78-.35a10.7,10.7,0,0,1-1.6.06l2.79.14a9.14,9.14,0,0,1-1.57-.23l2.49.66a12.42,12.42,0,0,1-2.17-.77l2.17,1a11.94,11.94,0,0,1-1.54-.94l1.69,1.35a8.69,8.69,0,0,1-1.38-1.4l1.12,1.62a7,7,0,0,1-1-2.18l.44,1.85a11.25,11.25,0,0,1,0-4.09l-.3,1.88c.58-3.58,1.73-7.15,1.75-10.76A14,14,0,0,0,286.74,230a25.22,25.22,0,0,0-14-6.06c-6.47-.58-13.28.78-17.68,4.3-6.47,5.16-6.92,12.14-8.39,18.43l-4.56,19.81-2.67,11.34c-.71,3.09-1.05,6.34-2.7,9.29l1-1.71a9,9,0,0,1-1.6,2.06l1.59-1.47a12.39,12.39,0,0,1-1.22.9l2.07-1.18a9.84,9.84,0,0,1-1.51.69l2.47-.81a10.06,10.06,0,0,1-1.9.42l2.77-.35a11.38,11.38,0,0,1-1.65.06l2.81.15a12.72,12.72,0,0,1-2-.31l2.54.62a12.92,12.92,0,0,1-2.24-.79l2.16,1a11,11,0,0,1-1.89-1.15l1.69,1.36a9.53,9.53,0,0,1-1.71-1.83l1.14,1.64a12.72,12.72,0,0,1-1.72-4.19l.44,1.85c-1.17-5.11-1.95-10.28-2.9-15.42l-2.9-15.34-2.92-15.72-1.42-7.68c-.51-2.8-.73-5.76-2.13-8.41-2-4.15-6.84-7.34-13.13-8.52a24.19,24.19,0,0,0-9.13.22c-2.6.55-4.31,1.64-6.57,2.51l2.47-.8a11.43,11.43,0,0,1-1.15.3l2.76-.35a7.46,7.46,0,0,1-1.16,0l2.79.16a11.51,11.51,0,0,1-1.56-.24l2.54.61a11,11,0,0,1-1.1-.38l2.17,1a8.15,8.15,0,0,1-1.53-.94l1.69,1.34a5.63,5.63,0,0,1-.94-.88l1.12,1.63a5.72,5.72,0,0,1-.75-1.63l.44,1.84a16.73,16.73,0,0,1-.05-5.19l.4-5.66.86-11.35,1.64-22.61.95-12.86c-.14-3.88-4.91-6.82-10.72-6.61a13.68,13.68,0,0,0-7.33,2.28,6.78,6.78,0,0,0-2.89,5.11Z" transform="translate(0 0.5)"/>
  <path class="cls-1" d="M403.2,163.64c3.58-12.41-2-25.19-15-34.53-11.57-8.5-28.21-13.59-44.77-16.51q-14.79-2.41-29.9-3.79a17.23,17.23,0,0,0-8.29.71c-5.11,2-6.84,6.23-3.86,9.57a11.13,11.13,0,0,0,6.43,3.23c15,1.55,30.21,3.11,44.25,7l-2.58-.71a98.09,98.09,0,0,1,17.36,6.5L364.65,134A57.06,57.06,0,0,1,375.39,141l-1.67-1.48a34.86,34.86,0,0,1,6.46,7.21L379.09,145a26.25,26.25,0,0,1,3.65,8.82l-.38-1.87a22.91,22.91,0,0,1,0,8.81l.38-1.86c-.07.33-.14.65-.23,1a5.33,5.33,0,0,0,1.09,5.4c3,3.35,9.55,4.48,14.73,2.52,2.21-.93,4.49-2.42,4.94-4.19Z" transform="translate(0 0.5)"/>
  <path class="cls-1" d="M463.7,415.78c-3.55-6.11-10.21-11-17.32-14.59-16.77-8.62-37.38-10.69-56.92-11.62q-4.95-.21-9.9-.34a48.45,48.45,0,0,1-1.05,5.26c-.12.56-.21,1.13-.28,1.7,17.86.49,36.21,1.21,52.84,6.59a57.9,57.9,0,0,1,19.12,9.9,25.27,25.27,0,0,1,2.94,2.82c.54.62,1.05,1.26,1.52,1.91.23.3.44.61.64.92l.52.86a15.23,15.23,0,0,1,1.82,9.07s-.17,1.17,0,.42c-.06.33-.13.67-.22,1a15.91,15.91,0,0,1-.51,1.66c-.12.32-.25.64-.39,1,0,.09-.44.91-.42.91a17.48,17.48,0,0,1-2.28,3.19l-.46.5a7.26,7.26,0,0,1-.78.69,22.16,22.16,0,0,1-2.31,1.78,32.47,32.47,0,0,1-9.36,3.95,86.2,86.2,0,0,1-12.66,2.21c-9.84,1-19.81,1.56-29.7,2.14q-15.36.9-30.75,1.44c-41.29,1.42-82.65.86-123.85-1.69q-30.54-1.89-60.86-5.26c-10-1.12-20-2.29-29.92-3.72-8.19-1.18-16.41-2.56-23.21-6.18a22.49,22.49,0,0,1-3.68-2.5l-.91-.8-.54-.59a21.35,21.35,0,0,1-1.67-2.24c0-.05-.23-.41-.19-.31-.15-.29-.28-.58-.41-.85a15.29,15.29,0,0,1-.72-2.1s-.13-.6-.16-.69c0-.29-.08-.59-.11-.88a15.86,15.86,0,0,1,0-2.18,10,10,0,0,1,.1-1.09c0-.11,0-.18,0-.24s0-.15.07-.28c.17-.66.34-1.32.57-2a13.46,13.46,0,0,1,2-3.83,25.27,25.27,0,0,1,6.81-6.43c13-9.08,32.6-11.51,49.91-12.55,4.9-.3,9.81-.5,14.73-.7,2.47,0,4.46-1.58,4.51-3.5s-2-3.5-4.51-3.51l-.06,0c-20.42.77-41.88,1.66-60.24,9.43-7.58,3.2-14.79,7.79-19,13.72s-5.4,13.07-2.33,19.34c7.12,14.59,29.54,16.88,46.8,19.08q32.19,4.11,64.68,6.58a1284.6,1284.6,0,0,0,129.71,3.32q32.43-.78,64.73-3.25c9.83-.78,19.86-1.56,28.87-4.89,7.66-2.81,13.52-7.92,16.26-14.16A20.18,20.18,0,0,0,463.7,415.78Z" transform="translate(0 0.5)"/>
</svg>
