<svg id="correlations" xmlns="http://www.w3.org/2000/svg" viewBox="0 0 574.21 682">
  <defs>
    <style>
      .cls-1 {
        fill: #4b3a68;
        stroke: #4b3a68;
        stroke-miterlimit: 10;
      }
    </style>
  </defs>
  <path class="cls-1" d="M286.65,162.49c-8.48.74-17,1.53-25.38,3a98.79,98.79,0,0,0-22.62,6.79,65.16,65.16,0,0,0-17.9,11.65A50.44,50.44,0,0,0,208,202.53c-5.62,14.06-3.31,31.07,7.19,42.22,9.9,10.53,24.69,13.63,38.44,15.23a464.55,464.55,0,0,0,47.61,2.77c7.7.1,15.43.15,23.11-.49,7.86-.65,15.8-1.85,23.21-4.64a55.93,55.93,0,0,0,19.67-12.14,45.19,45.19,0,0,0,11.56-18.39c4.82-14.91-1.34-30.92-12.57-41.18-11.67-10.67-27.23-15.21-42.39-18.28a232.59,232.59,0,0,0-49.52-4.7q-5.81.09-11.6.48a9.57,9.57,0,0,0-6.36,2.64,9.19,9.19,0,0,0-2.64,6.36c.21,4.61,4,9.34,9,9a223.54,223.54,0,0,1,44.41,1.52l-2.39-.32q10.18,1.38,20.2,3.68a108.87,108.87,0,0,1,17.65,5.46l-2.15-.91a56.67,56.67,0,0,1,12.21,7l-1.82-1.41a42.59,42.59,0,0,1,7.42,7.4l-1.41-1.9a36.19,36.19,0,0,1,4.51,7.6l-.9-2.15a31.13,31.13,0,0,1,2.14,7.7l-.32-2.39a28.27,28.27,0,0,1,0,7l.32-2.39a30.35,30.35,0,0,1-2,7.31l.9-2.15a36.5,36.5,0,0,1-4.64,7.88l1.41-1.82a42.66,42.66,0,0,1-7.41,7.36l1.83-1.4a46.19,46.19,0,0,1-10,5.79l2.15-.9a69.55,69.55,0,0,1-17.54,4.57l2.4-.32c-10,1.32-20.13,1.2-30.18,1q-16.25-.26-32.44-1.51c-5.35-.41-10.71-.84-16-1.56l2.4.33a71.29,71.29,0,0,1-18-4.53l2.15.91a37.8,37.8,0,0,1-8.12-4.53l1.82,1.4a29.71,29.71,0,0,1-5.31-5.32l1.4,1.82a28.28,28.28,0,0,1-3.35-5.82L225,228a31,31,0,0,1-2-7.56l.32,2.4a36.14,36.14,0,0,1,0-9.06l-.32,2.4a37.8,37.8,0,0,1,2.53-9.21l-.91,2.15a39.86,39.86,0,0,1,5-8.59l-1.41,1.82a48.84,48.84,0,0,1,8.51-8.43l-1.82,1.41a62.23,62.23,0,0,1,13.58-7.78l-2.15.9c8.23-3.45,17-5.3,25.81-6.5l-2.4.33c5.63-.76,11.28-1.26,16.93-1.75a9.72,9.72,0,0,0,6.37-2.64,9,9,0,0,0,0-12.73h0c-1.67-1.53-4-2.84-6.37-2.63Z" transform="translate(0.5 0.5)"/>
  <path class="cls-1" d="M207.1,216.41l-4.73,99.73-4.71,99.31L193,514.77c-.69,14.52-1.93,29.18-1,43.72.87,14.08,3.79,28.65,11.93,40.46,7.82,11.36,18.86,19,31.58,24,11.94,4.67,24.89,6.47,37.59,7.57a259.63,259.63,0,0,0,36.36,1c12.73-.69,25.73-2.88,37-9.17,12.52-7,20.75-19,24.32-32.72a127,127,0,0,0,3.19-21.78c.64-8,1.15-16.08,1.68-24.13q3.31-49.41,5.66-98.89,2.36-49.66,3.74-99.39,1.38-49.5,1.79-99,.1-12.13.15-24.26c0-4.71-4.15-9.22-9-9a9.17,9.17,0,0,0-9,9q-.18,48.72-1.29,97.43t-3.16,97.32q-2,48.48-5,96.9-1.49,24.42-3.21,48.82c-.24,3.39-.48,6.78-.83,10.16-.08.77-.16,1.55-.25,2.32a8.49,8.49,0,0,0-.17,1.33s.26-1.78.1-.74c-.27,1.75-.54,3.5-.89,5.24a62.14,62.14,0,0,1-2.64,9.47c-.11.31-.23.61-.34.91-.59,1.56.12-.14.15-.35a8.72,8.72,0,0,1-1,2.06,41.15,41.15,0,0,1-2.63,4.49c-.25.36-.52.71-.76,1.07-.58.89.51-.63.52-.65-.51.54-1,1.17-1.44,1.73a37.59,37.59,0,0,1-2.92,3c-.47.43-1,.84-1.44,1.26-1.14,1,.37-.33.53-.4a6.16,6.16,0,0,0-.87.65c-1.11.8-2.25,1.53-3.43,2.22s-2.39,1.32-3.63,1.91c-.32.15-2.35,1-.94.44,1.23-.52.31-.13.05,0l-1.29.49a65.18,65.18,0,0,1-8.12,2.39q-2.1.48-4.23.84l-2,.33c-.35,0-1.66.23-.24,0,1.58-.21-.37,0-.55.06-2.93.35-5.88.57-8.83.71-5.89.27-11.79.18-17.67,0s-11.89-.55-17.81-1.07c-1.41-.13-2.81-.26-4.22-.41l-2.4-.28-.9-.11c-2-.24.23.17.29,0-.11.21-3.78-.56-4.18-.62-1.58-.26-3.15-.55-4.72-.86a103.47,103.47,0,0,1-16.91-4.89c-1.47-.57.44.13.56.25a5.23,5.23,0,0,0-1.06-.46c-.6-.27-1.21-.55-1.81-.84-1.28-.61-2.54-1.27-3.78-2s-2.44-1.43-3.61-2.22c-.55-.36-1.1-.73-1.63-1.12a8.44,8.44,0,0,0-.91-.66c.36.2,1.4,1.12.48.37a53.84,53.84,0,0,1-6.2-5.88q-.77-.87-1.5-1.77h0c.79,1-.05-.09-.24-.36-.93-1.29-1.79-2.63-2.59-4s-1.52-2.76-2.19-4.19c-.18-.38-.34-.76-.52-1.14-.43-.91.29.68.29.7a16.59,16.59,0,0,0-1-2.65,69,69,0,0,1-2.52-9.16c-.31-1.47-.57-2.94-.79-4.42-.36-2.33.12,1.19-.08-.49-.11-1-.22-1.94-.31-2.91-.31-3.26-.47-6.53-.54-9.81-.14-6.55.1-13.1.41-19.65q2.3-48.81,4.63-97.61L219.37,338l4.64-97.7,1.13-23.92c.23-4.71-4.29-9.21-9-9a9.21,9.21,0,0,0-9,9Z" transform="translate(0.5 0.5)"/>
  <path class="cls-1" d="M189.56,517A301.2,301.2,0,0,0,79.89,531.37c-16.67,5.5-33.45,12.31-48.19,22C18.49,562,5.42,573.8,1.28,589.67c-4.23,16.2,2.49,32.11,13.24,44.15,11.74,13.17,28,21.47,44.46,27,17.56,5.87,36,8.57,54.37,10.63,19.55,2.19,39.19,3.71,58.82,5,40,2.63,80,3.87,120,4.33s80.21.13,120.32-.39c18.71-.24,37.45-.22,56.15-1,17-.69,34.32-2.17,50.73-6.88,15.24-4.38,30.64-12,40.72-24.56,9.46-11.83,14.43-26.77,12.82-42-3.48-32.8-31.26-55.11-59.57-67.76-34.73-15.52-72.89-19.91-110.5-22.14-9.37-.56-18.74-1-28.1-1.39a9.08,9.08,0,0,0-9,9,9.19,9.19,0,0,0,9,9c18.54.82,37.1,1.65,55.57,3.54q3.35.34,6.68.73l3.08.38,1.54.19c.62.09.68.09.16,0l1,.14q6.62.92,13.2,2.09a253.8,253.8,0,0,1,25.83,6q5.9,1.71,11.69,3.78c1.7.6,3.39,1.24,5.07,1.89l2.91,1.17s1.37.57.57.23l1,.42a146.86,146.86,0,0,1,20.64,11c1.53,1,3,2,4.5,3l2,1.46c.07.05,1.15.87.4.29s.57.45.69.55a95.75,95.75,0,0,1,8,7.2c1.19,1.2,2.35,2.44,3.46,3.71.51.59,1,1.17,1.5,1.77l1,1.2c.85,1-.77-1.11,0,0a76.08,76.08,0,0,1,5.39,8.68c.33.66.65,1.34,1,2,.74,1.58-.37-1.05.24.58s1.18,3.21,1.66,4.86a46.62,46.62,0,0,1,1.1,4.58c.16.82.29,1.65.42,2.48-.29-1.85,0,0,0,.82a68.52,68.52,0,0,1-.14,9.61c.1-1.6.07-.46-.08.42s-.3,1.64-.49,2.45a46.43,46.43,0,0,1-1.24,4.48c-.26.79-.62,1.57-.86,2.37-.29,1,.17-.37.22-.48l-.45,1a45.66,45.66,0,0,1-2.41,4.53c-.83,1.39-1.76,2.72-2.71,4,.9-1.26-.09.1-.49.57-.67.79-1.36,1.56-2.08,2.31a50.41,50.41,0,0,1-3.75,3.56l-.94.79s-1.11.9-.38.32-.35.27-.41.31c-.54.38-1.07.77-1.61,1.14a71.33,71.33,0,0,1-9,5.21c-.85.42-1.71.81-2.57,1.21-1.54.71.73-.26-.85.38q-2.68,1.08-5.43,2c-3.62,1.22-7.3,2.24-11,3.11s-7.7,1.62-11.58,2.22l-2.64.39c1.45-.21-.71.09-1.15.15q-3.12.38-6.25.68c-16.79,1.62-33.69,1.62-50.54,1.86-38.49.55-77,1-115.47.91s-76.88-.81-115.28-2.65q-28.74-1.37-57.43-3.65-13.9-1.12-27.8-2.51-6.65-.68-13.28-1.49l-2.94-.38-1.53-.22c-2.27-.32-4.55-.67-6.82-1a219,219,0,0,1-25.56-5.62c-4.08-1.18-8.13-2.51-12.1-4l-2.61-1c-1-.39-.19-.07,0,0l-1.28-.56c-2-.87-3.88-1.78-5.77-2.76a89,89,0,0,1-10.25-6.21c-.72-.5-1.42-1-2.12-1.54,1.12.84-.9-.73-1.21-1-1.52-1.26-3-2.58-4.39-3.95s-2.5-2.54-3.67-3.88c-.53-.61-1-1.24-1.55-1.86,1,1.23-.43-.59-.73-1q-1.44-2.05-2.67-4.24c-.44-.76-.84-1.54-1.23-2.33-.3-.61-1-2.56-.44-.91-.5-1.49-1-3-1.44-4.49-.18-.7-.32-1.4-.47-2.1-.06-.31-.27-1.83-.11-.57s0-.34,0-.57a35.77,35.77,0,0,1,0-4.63c.06-.88.37-2,0-.47.22-1,.36-1.91.61-2.85A40,40,0,0,1,20,590.33c-.73,1.91.23-.39.45-.84.4-.77.81-1.53,1.25-2.27.84-1.42,1.78-2.75,2.73-4.08.59-.83-.14.19-.23.29.34-.39.66-.8,1-1.19.6-.7,1.21-1.39,1.84-2.06a74.28,74.28,0,0,1,8.2-7.45c-1.1.86.55-.41.89-.65.82-.6,1.64-1.18,2.47-1.75,1.56-1.08,3.15-2.11,4.77-3.11a170,170,0,0,1,21.7-11.12c.29-.13,2.36-1,1.32-.57l3.06-1.25c2-.83,4.12-1.62,6.2-2.39,3.88-1.44,7.81-2.79,11.76-4q12.48-4,25.3-6.77a271.1,271.1,0,0,1,51-6.33q12.93-.43,25.85.26c4.71.24,9.21-4.32,9-9a9.19,9.19,0,0,0-9-9Z" transform="translate(0.5 0.5)"/>
  <path class="cls-1" d="M397,285.31a26,26,0,0,0,24-8c6.25-6.72,9-15.45,10-24.38a123.11,123.11,0,0,0,.58-15h-12c1.12,10.37,2.52,20.65,6.9,30.22,3.92,8.57,10.55,15.93,19.32,19.62a29.27,29.27,0,0,0,16.94,1.86c2.93-.54,4.67-3.87,4.3-6.59a6,6,0,0,0-5.89-5.2,42.4,42.4,0,0,0-23.46,8.09,42.9,42.9,0,0,0-15.29,21.33,41.31,41.31,0,0,0-1.89,14.52c.14,3.13,2.65,6.15,6,6a6.11,6.11,0,0,0,6-6c0-8.55-.33-17.47-3.46-25.53-3-7.76-8.19-15-16-18.48a25.82,25.82,0,0,0-15.4-2c-3.1.55-5.12,4.5-4.19,7.38,1.08,3.34,4.06,4.78,7.38,4.19.66-.11.52-.09-.43,0l.79-.07h1.57c.24,0,1.41.24,1.56.11-.94-.13-1.09-.15-.43,0l.77.16c.38.08,3,.57,3,.93-.82-.36-.93-.4-.34-.14.25.11.48.23.72.35s.71.37,1.05.57.91.55,1.35.84l.65.46q-1-.81-.27-.21a26.93,26.93,0,0,1,2.33,2.2c.37.39.71.8,1.06,1.21s.34.42-.2-.26c.16.21.32.43.47.65a28.21,28.21,0,0,1,1.61,2.56c.49.89.93,1.8,1.35,2.72.26.6.22.49-.13-.31l.3.75c.19.51.37,1,.54,1.54a44.63,44.63,0,0,1,1.58,6.55c.06.32.36,2.1.1.52.1.63.15,1.27.22,1.9.12,1.26.21,2.53.28,3.8.13,2.55.15,5.1.16,7.65h12a36.19,36.19,0,0,1,.12-5.31,5.58,5.58,0,0,1,.09-.81s-.2,1.27-.07.59c.07-.41.12-.81.2-1.21q.26-1.41.63-2.79c.23-.85.49-1.7.78-2.54.13-.38.27-.77.42-1.15l.22-.57c.28-.76-.48,1-.13.3a46,46,0,0,1,2.6-4.85c.47-.75,1-1.46,1.51-2.19.37-.53-.31.4-.32.41a3.48,3.48,0,0,0,.38-.48l.93-1.08a34.87,34.87,0,0,1,3.87-3.72,3.4,3.4,0,0,0,.47-.38s-1,.72-.43.34l1.12-.82c.71-.49,1.43-.95,2.17-1.39s1.5-.86,2.27-1.24c.35-.18.71-.36,1.07-.52a7.89,7.89,0,0,0,.72-.33c-.26.17-1.08.43-.33.15a37.53,37.53,0,0,1,5.49-1.71c1-.23,2-.34,2.93-.54,0,0-1.3.14-.61.09l1-.1c.53-.05,1.06-.07,1.59-.1l-1.68-11.82a6.85,6.85,0,0,0-.79.13s1.26-.11.59-.09c-.47,0-.94.08-1.41.1-1,0-2-.06-3-.12-.67-.05.61.05.6.08l-.79-.13c-.4-.08-.8-.16-1.19-.26a26.94,26.94,0,0,1-2.9-.89c-1.41-.53.71.37-.26-.1-.43-.2-.86-.4-1.28-.62a30.41,30.41,0,0,1-2.63-1.57c-.2-.13-1.41-1.06-.71-.48l-.66-.55c-.72-.61-1.4-1.26-2.06-1.94s-1.26-1.39-1.87-2.12c-.26-.31-.44-.83.19.27-.1-.17-.25-.33-.36-.49-.32-.44-.63-.88-.93-1.33a41,41,0,0,1-2.9-5.12c-.2-.42-.39-.86-.59-1.29-.29-.61.21.51.2.5a5.45,5.45,0,0,1-.3-.76c-.36-.88-.68-1.77-1-2.67a64,64,0,0,1-1.79-6.51c-.56-2.48-1-5-1.35-7.49a5.52,5.52,0,0,1-.1-.71v-.06c-.08-.63-.15-1.26-.23-1.89-.16-1.33-.31-2.67-.45-4a6.55,6.55,0,0,0-1.76-4.25,6,6,0,0,0-10.2,4.24c0,4,0,8-.28,11.94-.07.95-.17,1.9-.27,2.85-.13,1.19.15-.9,0,.29-.09.55-.18,1.1-.28,1.65a42.91,42.91,0,0,1-1.23,5c-.24.78-.51,1.55-.8,2.31-.08.19-.16.38-.23.57-.23.63.21-.49.21-.49a9.48,9.48,0,0,0-.6,1.29,34.84,34.84,0,0,1-2.72,4.49c-.37.54.31-.4.32-.41a2.5,2.5,0,0,0-.39.47c-.26.31-.52.61-.8.91a24,24,0,0,1-1.86,1.78c-.14.13-.3.25-.45.38-.49.42.44-.34.44-.34a6.71,6.71,0,0,0-1,.67,23.08,23.08,0,0,1-2.21,1.28l-.53.25c-.72.36.07-.09.36-.14a11.68,11.68,0,0,0-1.29.47c-.87.28-1.75.44-2.63.65-.65.15.65-.08.64-.08-.25,0-.52.06-.77.08h-1.35a10.17,10.17,0,0,1-1.35-.06c-.18,0-.88-.1,0,0s-.22-.06-.35-.09c-3.07-.62-6.63.88-7.38,4.19-.68,3,.9,6.72,4.19,7.38Z" transform="translate(0.5 0.5)"/>
  <path class="cls-1" d="M166.49,117.18a31.84,31.84,0,0,0,22.3-36.7c-.5-2.93-3.9-4.66-6.59-4.3-3.13.42-4.9,2.88-5.2,5.9a30.79,30.79,0,0,0,27.93,33.42,30.19,30.19,0,0,0,4.56.07c3.12-.2,6.15-2.61,6-6-.14-3.07-2.65-6.22-6-6a18.29,18.29,0,0,1-2.77,0l-1.19-.08-.59-.06.62.08a20.88,20.88,0,0,0-2.72-.58c-.76-.2-1.52-.45-2.26-.72l-.74-.29.71.29c-.12.08-1.1-.52-1.25-.6a23.39,23.39,0,0,1-2.23-1.28c-.34-.22-.65-.45-1-.67-1-.66,1,.82-.2-.15A22.25,22.25,0,0,1,194,97.76c-.43-.45-1.43-1.21-1.57-1.79.53.69.61.78.23.26-.12-.16-.23-.32-.34-.49-.26-.38-.51-.77-.75-1.16-.4-.68-.78-1.38-1.12-2.1l-.33-.72c.32.77.39.94.22.52s-.32-.86-.47-1.3c-.25-.75-.47-1.52-.65-2.29-.09-.38-.17-.77-.24-1.16s-.09-.52-.13-.78c.12.94.14,1.08.06.41a29.3,29.3,0,0,1,0-5.13l-11.79,1.59a4.48,4.48,0,0,0,.11.62c.07.46,0,.28-.08-.56.14.13.08.87.09,1,0,.76.07,1.53.06,2.3s-.1,1.53-.16,2.3.23-1.28,0-.15c-.08.42-.15.83-.24,1.24-.16.75-.35,1.49-.58,2.23a20.76,20.76,0,0,0-.78,2.17c.11-.61.39-.89,0-.1-.18.38-.37.75-.57,1.12-.36.66-.74,1.3-1.15,1.92-.18.27-.36.53-.55.79-.75,1.06.14-.13.13-.14a21,21,0,0,1-1.52,1.74c-.44.46-.91.91-1.38,1.33l-.88.76c-.88.76,1-.71,0,0a31.1,31.1,0,0,1-3.43,2.13c-.28.14-.57.29-.86.42l-.7.32.72-.31c-.72.15-1.47.54-2.18.76-3,.91-5.21,4.24-4.19,7.38a6.1,6.1,0,0,0,7.38,4.19Z" transform="translate(0.5 0.5)"/>
  <path class="cls-1" d="M179.33,88.5A36.53,36.53,0,0,1,177,92.69c-.4.62-.83,1.22-1.26,1.82-.68,1,.86-1.06-.08.1-.23.29-.47.57-.71.85a40.23,40.23,0,0,1-3.2,3.33c-.59.54-1.2,1.07-1.82,1.57-1.16,1,.87-.61-.09.09l-.9.65a38.78,38.78,0,0,1-3.92,2.44c-.71.39-1.42.75-2.15,1.09-.33.16-.68.29-1,.46,1.52-.77.47-.2.07,0a36.79,36.79,0,0,1-4.57,1.46q-1.08.27-2.16.48l-1.1.18c-.65.1-.48.08.5-.06l-.74.09v12a26.68,26.68,0,0,1,3.09-.18h1.54a6.1,6.1,0,0,0,1.54.14c-1-.13-1.11-.15-.45,0l.76.13c.5.1,1,.21,1.51.34a26.42,26.42,0,0,1,2.58.79c.24.08.49.17.73.27.6.24.48.18-.37-.16,0,0,1.28.59,1.4.66a25.39,25.39,0,0,1,2.67,1.55l1,.65c.52.38.42.31-.29-.24l.6.49a24.94,24.94,0,0,1,2.24,2.12c.36.39.69.79,1,1.18s.33.4-.21-.29l.46.63c.53.75,1,1.53,1.46,2.32.26.46.5.92.73,1.39l.33.71-.15-.35a15.1,15.1,0,0,1,1,3c.24.88.42,1.78.59,2.68.1.66.09.51,0-.43l.09.78c.05.52.08,1,.1,1.56a27.25,27.25,0,0,1-.06,3.13,3,3,0,0,1-.07.78c-.08.67-.06.52.06-.43a6.24,6.24,0,0,0-.29,1.55L189,147.2a88.52,88.52,0,0,1,3-13.35c.63-2,1.36-4,2.11-6,.25-.6.19-.48-.16.36.1-.24.21-.48.32-.72s.32-.71.49-1.06a27.44,27.44,0,0,1,1.42-2.54c.06-.1.75-1.12.75-1.12-.55.7-.63.81-.23.31.16-.19.33-.39.5-.57s.52-.56.79-.82l.56-.51c.5-.4.39-.33-.31.23a8.07,8.07,0,0,0,1-.64c.24-.14,1.16-.8,1.43-.73-.83.35-.94.4-.33.18l.38-.13a14.91,14.91,0,0,1,1.53-.4l.79-.15-.6.08c.47,0,.94-.09,1.41-.12h2.87a28.51,28.51,0,0,1,2.9.22,6.09,6.09,0,0,1,1.64.2h-.37l.81.11a6.56,6.56,0,0,0,4.62-.6,6.14,6.14,0,0,0,2.76-3.59c.65-2.83-.87-6.9-4.19-7.38-5.19-.74-10.23-1.35-15.43-.37a20.87,20.87,0,0,0-12.75,8.52c-2.76,3.76-4.39,8.36-5.83,12.75a88.15,88.15,0,0,0-3.44,14.7,6.56,6.56,0,0,0,.6,4.62,6.17,6.17,0,0,0,3.59,2.76c3,.68,6.68-.91,7.38-4.19a33.85,33.85,0,0,0-3.69-23.93,33,33,0,0,0-18.56-14.68,31.43,31.43,0,0,0-12.85-1.33,6.5,6.5,0,0,0-4.24,1.76,6.12,6.12,0,0,0-1.76,4.24c.14,3,2.66,6.36,6,6a45,45,0,0,0,35.77-24.75c1.36-2.82.87-6.61-2.15-8.21C184.85,84.93,180.79,85.48,179.33,88.5Z" transform="translate(0.5 0.5)"/>
  <path class="cls-1" d="M294.79,201.37l-.3-57.44-.09-16.48a6,6,0,1,0-12,0l.3,57.44.09,16.48a6,6,0,0,0,12,0Z" transform="translate(0.5 0.5)"/>
  <g>
    <path class="cls-1" d="M284.69,131.08A92.23,92.23,0,0,1,264,69.5l8.13,6.11L284,9.36,298.86,47c.93,2.36,1.93,4.81,3.85,6.46,3.18,2.74,8.14,2.46,11.84.46s6.42-5.36,9-8.64c5.07,32.63-8.7,67.52-34.7,87.88" transform="translate(0.5 0.5)"/>
    <path class="cls-1" d="M288.93,126.84l-1.05-1.3-.38-.49c-.51-.65.66.88.17.22-.62-.84-1.24-1.68-1.85-2.53q-1.86-2.65-3.53-5.42c-1.07-1.79-2.09-3.62-3-5.48s-1.75-4-2.75-5.86c0,0,.45,1.1.2.47-.1-.26-.21-.52-.31-.77l-.54-1.36c-.4-1-.78-2.09-1.14-3.14-.68-2-1.3-4-1.84-6s-1.06-4.19-1.47-6.31c-.19-1-.36-1.91-.52-2.87-.08-.49-.16-1-.23-1.45a5.72,5.72,0,0,1-.12-.83c0,.63.14,1,0,.15a90.92,90.92,0,0,1-.6-14.38l-9,5.18,8.13,6.11c2.95,2.22,8.18,0,8.82-3.58l9.25-51.53,2.6-14.74H278.2l12.34,31.25c1,2.51,2,5,3,7.55,1.15,2.81,2.39,5.58,4.64,7.72a16,16,0,0,0,16.09,3.1c5.79-2,9.84-6.36,13.57-11l-10-2.65c.06.38.11.75.17,1.13.16,1.12-.15-1.23,0-.1.1.81.19,1.62.27,2.44.15,1.56.26,3.13.33,4.7a93.36,93.36,0,0,1-.1,9.61c-.1,1.57-.24,3.14-.42,4.7A8.57,8.57,0,0,1,318,70.5c-.13,1.13.18-1.22,0-.1-.12.81-.24,1.62-.38,2.43-.53,3.1-1.2,6.18-2,9.21s-1.8,6-2.92,9c-.29.77-.59,1.53-.9,2.29l-.21.52c-.25.62.25-.59.24-.56-.19.4-.35.81-.53,1.21-.67,1.44-1.33,2.86-2,4.27-1.41,2.81-3,5.56-4.63,8.22-.84,1.33-1.72,2.64-2.62,3.93q-.64.92-1.32,1.83l-.68.91c-.82,1.08.52-.65-.1.13a92.16,92.16,0,0,1-15.25,15.14,6,6,0,0,0,4.24,10.25,7,7,0,0,0,4.24-1.76,96.74,96.74,0,0,0,25.44-30.78,104.22,104.22,0,0,0,11.71-39.71,97.14,97.14,0,0,0-.91-23.23c-.65-4.27-7.35-6-10-2.64-1.31,1.64-2.64,3.29-4.11,4.8a25.11,25.11,0,0,0-2.25,2c.1-.13,1.12-.79.25-.21l-.5.34c-.5.32-1,.61-1.54.89s-.82.16.41-.14a4.76,4.76,0,0,0-.53.19,10.77,10.77,0,0,1-1.26.38,4.62,4.62,0,0,0-.74.15c.06-.08,1.55-.11.48-.07a12.34,12.34,0,0,1-1.49,0,3,3,0,0,0-.73-.06c.18,0,1.44.33.52,0-.28-.09-1.54-.54-.66-.14s-.36-.24-.57-.36c-.86-.48.28.14.33.29-.07-.18-.55-.53-.71-.7s-.75-.8-.15-.15.12.14,0,0c-.26-.47-.54-.92-.78-1.4l-.35-.72c-.07-.15-.34-.81,0,0s0,0-.08-.21l-.4-1c-.94-2.37-1.88-4.75-2.81-7.12l-5.54-14L289.81,7.74c-.95-2.4-3-4.53-5.78-4.41-2.48.11-5.31,1.76-5.79,4.41L269,59.26,266.35,74l8.81-3.59L267,64.29c-1.66-1.25-4.37-1-6.06,0a6.11,6.11,0,0,0-3,5.18,97.41,97.41,0,0,0,22.52,65.85c2,2.44,6.44,2.23,8.48,0,2.38-2.59,2.14-5.88,0-8.48Z" transform="translate(0.5 0.5)"/>
  </g>
  <path class="cls-1" d="M242.23,6.77,253.39,29a4.53,4.53,0,0,0,6.15,1.62,4.61,4.61,0,0,0,1.62-6.16L250,2.22A4.52,4.52,0,0,0,243.85.61a4.61,4.61,0,0,0-1.62,6.16Z" transform="translate(0.5 0.5)"/>
  <path class="cls-1" d="M232.12,43.55l17.43,5.28a4.5,4.5,0,1,0,2.39-8.68h0l-17.45-5.22a4.5,4.5,0,1,0-2.4,8.67Z" transform="translate(0.5 0.5)"/>
  <path class="cls-1" d="M203.24,232.58l-2.81,37.89L199,289.17l-.68,9.22c-.27,3.63-.6,7.14.19,10.75a15.19,15.19,0,0,0,10.06,11.18,12.33,12.33,0,0,0,7.87-.12,17.63,17.63,0,0,0,3.44-1.67,12.16,12.16,0,0,1,2-1.12l-2.15.91a4.88,4.88,0,0,1,1-.25l-2.39.32a6.28,6.28,0,0,1,1.37,0l-2.39-.32a6.8,6.8,0,0,1,1.33.4l-2.15-.91a9.22,9.22,0,0,1,1.54.92l-1.83-1.41a8.61,8.61,0,0,1,1.28,1.28l-1.41-1.82a11.49,11.49,0,0,1,1.18,2.11l-.91-2.15a18.78,18.78,0,0,1,1,4.17l-.32-2.39c.76,6,1.21,12,1.81,18l1.81,18.32q1.8,18.18,3.59,36.36c.33,3.26.59,6.68,1.76,9.77a20.3,20.3,0,0,0,7.73,10.1A15.59,15.59,0,0,0,246,412.93c3.88-.93,6.9-3.65,9.1-6.86,3.08-4.5,3.6-10.47,4.56-15.69l3.3-18.08,3.66-20L268.49,342a39.08,39.08,0,0,1,1.89-7.54l-.9,2.15a13.1,13.1,0,0,1,1.64-2.92l-1.41,1.82a9.93,9.93,0,0,1,1.36-1.39l-1.82,1.41a8.45,8.45,0,0,1,1.69-1l-2.15.91a7.61,7.61,0,0,1,1.61-.47l-2.39.32a8.36,8.36,0,0,1,2,0l-2.39-.32a9,9,0,0,1,2.23.62l-2.15-.9a11.92,11.92,0,0,1,2.07,1.21l-1.83-1.41a13.19,13.19,0,0,1,2.26,2.22l-1.41-1.82a12.57,12.57,0,0,1,1.44,2.42l-.9-2.15a15.68,15.68,0,0,1,1,3.62l-.32-2.39a28.54,28.54,0,0,1-.12,7.27l.32-2.39c-.63,4.62-2,9.32-1.75,14,.3,6.37,3,11.93,8.34,15.5,5.57,3.69,12.69,2.69,17.6-1.48,3.71-3.15,4.93-8,5.48-12.61.39-3.26-.16-6.51.25-9.76l-.33,2.39a15.48,15.48,0,0,1,1-3.85l-.91,2.15a9.44,9.44,0,0,1,1-1.71l-1.41,1.82a7.48,7.48,0,0,1,1.12-1.13l-1.9,1.35a5.74,5.74,0,0,1,1.16-.65l-2.15.91a6.78,6.78,0,0,1,1.07-.29l-2.39.32a6.44,6.44,0,0,1,1.52,0l-2.42-.29a7,7,0,0,1,1.42.41l-2.15-.9a7.37,7.37,0,0,1,1.26.78l-1.82-1.41a9.46,9.46,0,0,1,1.52,1.58l-1.4-1.82a15.55,15.55,0,0,1,1.65,2.92l-.91-2.15A33.19,33.19,0,0,1,297,355.5l-.32-2.39c1.22,9.09.68,18.27.74,27.42a117.24,117.24,0,0,0,1.12,15.55,55.76,55.76,0,0,0,4.16,14.43,26.79,26.79,0,0,0,10.43,12.64,16.51,16.51,0,0,0,19.57-1.79c3.49-3,5.4-7.87,6.08-12.36a117.38,117.38,0,0,0,.84-15.45l.34-18.19c.11-5.66-.06-11.42.69-17l-.32,2.39a27.52,27.52,0,0,1,1.78-6.73l-.91,2.15a17.74,17.74,0,0,1,2.15-3.67l-1.41,1.82a17,17,0,0,1,2.61-2.62l-1.82,1.4a15.64,15.64,0,0,1,3.12-1.87l-2.15.91a12.21,12.21,0,0,1,3.08-.83l-2.4.32a11.33,11.33,0,0,1,2.47,0l-2.39-.32a11.42,11.42,0,0,1,2.43.69l-2.15-.91c2.6,1.12,4.76,3,7.3,4.19,4.31,2,9.09,3,13.75,1.45,8.65-2.92,13.5-10.6,15.43-19.17a208.1,208.1,0,0,0,3.53-22.89q1.2-10.86,1.37-21.79a233.5,233.5,0,0,0-.9-24.24,9.68,9.68,0,0,0-2.63-6.36,9,9,0,0,0-12.73,0h0c-1.53,1.67-2.84,4-2.64,6.36a234,234,0,0,1-1.08,51.29l.32-2.4q-.72,5.42-1.7,10.79a48.31,48.31,0,0,1-2.43,9.55l.9-2.15a17.42,17.42,0,0,1-2,3.64l1.41-1.82a14.55,14.55,0,0,1-2.48,2.48l1.82-1.41a11.54,11.54,0,0,1-2.33,1.36l2.15-.91a10.24,10.24,0,0,1-2.55.69l2.39-.32a8.62,8.62,0,0,1-1.9,0l2.39.32a10.21,10.21,0,0,1-2.42-.66l2.15.91a72.26,72.26,0,0,1-6.32-3.68,19.74,19.74,0,0,0-10.73-2.78,23,23,0,0,0-18.29,11.8c-3.53,6.31-4.18,13.59-4.34,20.67-.15,6.68-.26,13.36-.38,20l-.21,11a86.43,86.43,0,0,1-.4,9.24l.32-2.39a21.09,21.09,0,0,1-1.29,5.07l.91-2.15a12.65,12.65,0,0,1-1.34,2.38l1.41-1.83a8.53,8.53,0,0,1-1.42,1.46l1.82-1.41a7.51,7.51,0,0,1-1.52.9l2.15-.91a8.09,8.09,0,0,1-2,.53l2.39-.32a8.72,8.72,0,0,1-1.77,0l2.39.32a9.26,9.26,0,0,1-2-.6l2.15.91a12.88,12.88,0,0,1-2.23-1.33l1.82,1.4a17.38,17.38,0,0,1-3-3.06l1.41,1.82a26.67,26.67,0,0,1-3.11-5.6l.91,2.15a50.26,50.26,0,0,1-3.31-12.7l.32,2.39c-1.61-12.49.1-25.13-1.18-37.65-.75-7.38-1.87-15-7.11-20.69a14.42,14.42,0,0,0-18.15-2.56,15.73,15.73,0,0,0-4.92,5.12,24,24,0,0,0-2.93,11.31c-.11,2.64.24,5.23-.08,7.87l.32-2.39a14.55,14.55,0,0,1-.91,3.56l.91-2.15a8.6,8.6,0,0,1-1,1.71l1.41-1.82a6.75,6.75,0,0,1-1,1l1.82-1.4a6.72,6.72,0,0,1-1.18.71l2.15-.91a6.67,6.67,0,0,1-1.53.42l2.39-.32a6.37,6.37,0,0,1-1.38,0l2.39.32a6.82,6.82,0,0,1-1.34-.37L287,356a8.75,8.75,0,0,1-1.84-1.09l1.83,1.41a11.23,11.23,0,0,1-1.29-1.29l1.41,1.82a10,10,0,0,1-1.14-1.87l.91,2.15a12.27,12.27,0,0,1-.77-2.85l.32,2.4a21.45,21.45,0,0,1,.1-5.25l-.32,2.39c.61-4.56,1.72-9.09,1.85-13.71s-.84-10-3.64-13.91-6.86-7.49-11.81-8.43c-5.53-1.06-11.41.36-15.29,4.65-5.71,6.32-6.32,15.24-7.79,23.24l-4.54,25.32-2.64,14.41c-.71,3.92-1.11,8.08-2.62,11.78l.9-2.15a11.59,11.59,0,0,1-1.44,2.51l1.41-1.82a9.27,9.27,0,0,1-1.08,1.09l1.82-1.4a6.83,6.83,0,0,1-1.32.8l2.15-.91a6.31,6.31,0,0,1-1.65.45l2.39-.32a6.74,6.74,0,0,1-1.42,0l2.4.32a8.71,8.71,0,0,1-1.73-.48l2.15.91a10.57,10.57,0,0,1-1.89-1.12l1.82,1.4a10.2,10.2,0,0,1-1.58-1.57l1.4,1.82a11.91,11.91,0,0,1-1.4-2.42l.91,2.15a21.72,21.72,0,0,1-1.33-5.45l.32,2.39c-.84-6.61-1.35-13.27-2-19.9l-2-19.81-2-20.3-1-9.9c-.35-3.6-.44-7.42-1.56-10.88A17.29,17.29,0,0,0,223.06,301a13.94,13.94,0,0,0-7.84-.16c-2.24.58-3.75,1.9-5.72,2.9l2.15-.91a6.93,6.93,0,0,1-1,.34l2.39-.32a5.57,5.57,0,0,1-1,0l2.39.33a6.13,6.13,0,0,1-1.33-.38l2.15.91a8.51,8.51,0,0,1-.92-.54l1.82,1.41a7.44,7.44,0,0,1-1.29-1.28l1.41,1.82a7.87,7.87,0,0,1-.78-1.19l.91,2.15a10.52,10.52,0,0,1-.59-2.13l.32,2.39a32.33,32.33,0,0,1,.12-6.67l.53-7.23,1.1-14.51L220,249l1.22-16.45a9,9,0,0,0-15.36-6.37,10,10,0,0,0-2.64,6.37Z" transform="translate(0.5 0.5)"/>
  <path class="cls-1" d="M203.76,223.23l-1.27,12.44a9,9,0,0,0,9,9,9.07,9.07,0,0,0,6.36-2.64l1.41-1.82a8.94,8.94,0,0,0,1.23-4.54l1.3-12.44a6.85,6.85,0,0,0-.78-3.47,8.09,8.09,0,0,0-4.75-4.76,6.77,6.77,0,0,0-3.47-.77,9.1,9.1,0,0,0-6.37,2.63l-1.4,1.82a8.88,8.88,0,0,0-1.23,4.55Z" transform="translate(0.5 0.5)"/>
  <path class="cls-1" d="M385.27,235.16a51.66,51.66,0,0,0-12.56-44.3c-9.68-10.91-23.6-17.44-37.45-21.18a236.27,236.27,0,0,0-25-4.87c-2.47-.39-4.69-.41-6.93.91A9,9,0,0,0,300.1,178c1.19,1.84,3.12,3.78,5.38,4.14,12.55,2,25.26,4,37,8.94l-2.15-.91a66.64,66.64,0,0,1,14.51,8.34l-1.82-1.41a50.55,50.55,0,0,1,9,8.9l-1.41-1.82a43.64,43.64,0,0,1,5.4,9.24l-.91-2.15a44.79,44.79,0,0,1,3.06,11.31l-.32-2.39a44.52,44.52,0,0,1,0,11.3l.32-2.39c-.06.42-.12.83-.19,1.24a9.74,9.74,0,0,0,.91,6.94,9,9,0,0,0,12.31,3.23c1.85-1.2,3.76-3.11,4.14-5.38Z" transform="translate(0.5 0.5)"/>
  <path class="cls-1" d="M195.3,556.23c-20.39,1-41.81,2.14-60.14,12.1-7.56,4.11-14.76,10-19,17.6-4.08,7.44-5.39,16.77-2.33,24.82,7.11,18.72,29.49,21.65,46.72,24.48q32.13,5.26,64.57,8.44a999.48,999.48,0,0,0,129.48,4.26q32.37-1,64.62-4.17c9.81-1,19.82-2,28.82-6.27a31.27,31.27,0,0,0,16.23-18.17,32.41,32.41,0,0,0-1.5-23.61c-3.54-7.84-10.19-14.08-17.29-18.72-16.7-11-37.27-13.71-56.78-14.85-5.08-.29-10.16-.47-15.25-.65a4.5,4.5,0,0,0,0,9c19.07.67,38.91,1.17,56.79,8.59a54.64,54.64,0,0,1,19.09,12.71,29.91,29.91,0,0,1,2.93,3.62c.54.79,1.05,1.61,1.52,2.44.23.39.44.79.64,1.19.07.14.78,1.66.48,1a22,22,0,0,1,1.94,9.11,22.94,22.94,0,0,1-.09,2.62c0,.07-.17,1.5,0,.54-.06.43-.13.86-.22,1.29-.14.71-.31,1.42-.51,2.12-.12.42-.25.83-.39,1.25-.05.14-.64,1.71-.33,1a23.93,23.93,0,0,1-2.36,4.26s-.86,1.18-.36.53a9.66,9.66,0,0,1-.88,1,24.75,24.75,0,0,1-2.3,2.28,29.11,29.11,0,0,1-9.35,5.07,69.24,69.24,0,0,1-12.64,2.78c-9.82,1.32-19.77,2-29.64,2.75q-15.34,1.15-30.7,1.84a1002.21,1002.21,0,0,1-123.64-2.16q-30.48-2.42-60.77-6.72c-10-1.43-20-2.93-29.87-4.77-8.17-1.51-16.38-3.28-23.17-7.93a23.27,23.27,0,0,1-3.67-3.2l-1-1.13c.43.55-.5-.72-.45-.65a26.54,26.54,0,0,1-1.66-2.88c0-.07-.36-.78-.12-.21-.18-.43-.33-.88-.48-1.32a24.79,24.79,0,0,1-.72-2.69s-.26-1.51-.14-.63c-.06-.46-.1-.93-.13-1.39a26,26,0,0,1,0-2.79c0-.47.06-.93.1-1.4.13-1.46-.19.78.1-.66.17-.85.34-1.7.57-2.54a19.42,19.42,0,0,1,2-4.91,29.88,29.88,0,0,1,6.8-8.25c13-11.64,32.54-14.76,49.82-16.1,4.9-.38,9.8-.64,14.71-.89a4.6,4.6,0,0,0,4.5-4.5,4.53,4.53,0,0,0-4.5-4.5Z" transform="translate(0.5 0.5)"/>
</svg>
