<svg id="Camada_1" data-name="Camada 1" xmlns="http://www.w3.org/2000/svg" viewBox="0 0 782.73 686.91">
  <defs>
    <style>
      .cls-1 {
        fill: #d66696;
      }

      .cls-2 {
        fill: #f3f3f3;
      }

      .cls-3 {
        fill: #4b3a68;
      }
    </style>
    <style>

  <!-- sparkles -->
    #sparkle-1 {
       animation: opacity-sparkle-1 2s ease-in-out infinite alternate;
    }
  
    @keyframes opacity-sparkle-1 {
      0%   { opacity: 0; }
      100% { opacity: 1; }
    }

    #sparkle-2 {
       animation: opacity-sparkle-2 1.5s ease-in-out infinite alternate;
    }
  
    @keyframes opacity-sparkle-2 {
      0%   { opacity: 0; }
      100% { opacity: 1; }
    }

    #sparkle-3 {
       animation: opacity-sparkle-3 2.3s ease-in-out infinite alternate;
    }
  
    @keyframes opacity-sparkle-3 {
      0%   { opacity: 0; }
      100% { opacity: 1; }
    }

    #sparkle-4 {
       animation: opacity-sparkle-4 2.5s ease-in-out infinite alternate;
    }
  
    @keyframes opacity-sparkle-4 {
      0%   { opacity: 0; }
      100% { opacity: 1; }
    }

    <!-- sparkles -->
    #glitter-1 {
       animation: mov-glitter-1 2s ease-in-out infinite alternate;
    }
  
    @keyframes mov-glitter-1 {
      to {
        transform: rotate(1deg);
      }
    }

    #glitter-2 {
       animation: mov-glitter-2 2.5s ease-in-out infinite alternate;
    }
  
    @keyframes mov-glitter-2 {
      to {
        transform: rotate(-1deg);
      }
    }

    #glitter-3 {
       animation: mov-glitter-3 2.2s ease-in-out infinite alternate;
    }
  
    @keyframes mov-glitter-3 {
      to {
        transform: rotate(2deg);
      }
    }
    </style>
  </defs>
  <g id="book">
    <path class="cls-1" d="M741.08,98.39q-5.88,103.43-7,207.05Q733,408.76,736.74,512q2.1,58.11,5.7,116.16l20.49-8.48c-16.06-17.34-40.1-22.11-62.7-23.44-12-.71-24.06-.61-36.07-.78L622.58,595,540,593.91c-27.8-.38-56-2-83.54,2.45-27,4.38-52.64,16.94-68.91,39.42-3.69,5.1-1,13.59,4.31,16.42,6.22,3.28,12.48,1.14,16.42-4.31.1-.14,1.8-2.36.58-.82s.54-.63.65-.77c.72-.86,1.47-1.7,2.23-2.53a72.79,72.79,0,0,1,6.08-5.83c.43-.36.87-.71,1.3-1.08,1.62-1.36-.15.16-.44.31a30.52,30.52,0,0,0,3.08-2.23,72.71,72.71,0,0,1,6.84-4.26c2.34-1.26,4.52-2.41,6.84-3.48.52-.24,1-.46,1.56-.7,2.59-1.17-1.81.69-.1,0,1.47-.55,2.92-1.14,4.4-1.67a117,117,0,0,1,15.37-4.24,74.55,74.55,0,0,1,9.27-1.61c-2.44.19-.6.07-.08,0l2.59-.3c1.74-.19,3.47-.35,5.21-.49,6.45-.52,12.92-.75,19.39-.82,13.13-.14,26.26.19,39.39.36,52.64.71,105.32.87,158,2.15,5.63.14,11.27.4,16.89.94,1.37.13,2.73.3,4.1.45,1.81.2-3.09-.48-.34,0l2.43.38c2.67.44,5.33,1,8,1.63a79.24,79.24,0,0,1,8,2.42c.61.22,1.22.47,1.84.7,2.23.82-2.28-1.11,0,0,1.18.57,2.36,1.11,3.51,1.72.75.4,6.69,3.36,6.58,4.14.05-.37-2.08-1.68-.27-.18.5.41,1,.84,1.49,1.28,1.18,1.07,2.3,2.2,3.39,3.37,6.84,7.39,21.13,1.87,20.48-8.49q-6.42-103.39-8-207-1.6-103.32,1.58-206.63,1.78-58.12,5.1-116.19c.36-6.28-5.77-12.28-12-12a12.26,12.26,0,0,0-12,12Z" transform="translate(0.15 -0.02)"/>
    <path class="cls-1" d="M398.48,642.66q5.75-97.42,5.33-195.08t-7.07-195Q393,197.71,387.31,143c-.34-3.26-1.11-6.08-3.51-8.48a12.21,12.21,0,0,0-8.49-3.52c-5.94.27-12.69,5.32-12,12q10.1,97.08,14,194.65T379,532.81q-1.29,55-4.53,109.88c-.37,6.27,5.79,12.27,12,12a12.28,12.28,0,0,0,12-12Z" transform="translate(0.15 -0.02)"/>
    <path class="cls-1" d="M29.27,121.52,32.2,289.86,35.14,458.2l1.45,83.66L37,563c.12,7,.06,14,1.52,20.8,2.77,13,13.06,22.48,25.84,25.4,10.89,2.49,21.74,1.23,32.69.16q19.38-1.89,38.85-2.5a602.51,602.51,0,0,1,76.82,2.46q9.69.93,19.34,2.17c.79.1,1.57.19,2.36.31-2.83-.42-.61-.08.1,0l4.23.6c3.45.5,6.9,1,10.33,1.59q19.2,3.12,38.19,7.48a599.61,599.61,0,0,1,73.66,21.94q8.91,3.3,17.71,6.87c2.69,1.09,6.86.19,9.25-1.21a12.19,12.19,0,0,0,5.51-7.17c1.59-7-2.13-12.23-8.38-14.76A621.52,621.52,0,0,0,159.12,582.6q-19.23-.14-38.44,1c-11.93.69-23.79,2.2-35.71,3-2.3.16-4.6.24-6.91.22a32.18,32.18,0,0,1-3.25-.11c-.71,0-1.42-.12-2.13-.17-2.3-.16,2.82.5.39.07-1.13-.21-2.26-.42-3.37-.71a17.73,17.73,0,0,0-3.2-1c.19,0,2.73,1.32,1,.43-.48-.25-1-.48-1.45-.75s-.92-.58-1.38-.85c-2-1.13,2,1.89.36.3a28.29,28.29,0,0,0-2.28-2.37c1.89,1.42,1.15,1.72.67.77-.18-.36-1.35-1.81-1.23-2.21,0,0,.93,2.86.27.54-.2-.67-.42-1.33-.6-2s-.29-1.37-.45-2.06c-.64-2.8.17,2.69,0-.19-.47-6.35-.45-12.72-.56-19.08l-1.43-83.74-2.9-165.76L53.63,142.17l-.36-20.65c-.11-6.27-5.44-12.29-12-12S29.15,114.79,29.27,121.52Z" transform="translate(0.15 -0.02)"/>
    <path class="cls-1" d="M386.83,145.88q3.72-3.28,7.64-6.31L392,141.44a165.77,165.77,0,0,1,36.38-20.88l-2.86,1.21c18.74-7.85,38.57-12.66,58.68-15.37l-3.19.43c34.38-4.54,69.14-3.18,103.69-2.09l105.47,3.34,59.2,1.87c6.28.2,12.29-5.66,12-12a12.25,12.25,0,0,0-12-12l-79.19-2.5L591,80.94c-26-.82-52.09-1.94-78.12-.82C488,81.2,463,84.27,439.09,91.48c-22.77,6.87-44.1,17.35-62.81,32.07q-3.28,2.58-6.42,5.36c-4.72,4.17-4.57,12.77,0,17,5,4.62,11.94,4.45,17,0Z" transform="translate(0.15 -0.02)"/>
    <path class="cls-1" d="M39.06,125.33c22.48,8.63,46.85,11.82,70.83,11.89,24.57.06,49-3.12,73.28-6.63,12.86-1.86,25.69-3.92,38.57-5.66l-3.19.43c23-3.07,46.18-5.06,69.36-4q9.72.47,19.38,1.74l-3.19-.43a166.43,166.43,0,0,1,41.84,11l-2.86-1.21a131,131,0,0,1,26,14.6c2.37,1.73,6.53,2,9.24,1.21a12,12,0,0,0,8.38-14.76h0a13.74,13.74,0,0,0-5.51-7.17c-23.35-17-51.52-25-79.92-28-27.52-2.9-55.34-.72-82.68,2.94-17.78,2.38-35.48,5.3-53.25,7.7l3.19-.43c-22.86,3.07-46,5.36-69,4.35q-9.65-.42-19.23-1.68l3.19.43a169.34,169.34,0,0,1-38-9.54c-2.74-1-6.81-.21-9.25,1.21a12,12,0,0,0-4.3,16.42h0a13.62,13.62,0,0,0,7.17,5.51Z" transform="translate(0.15 -0.02)"/>
    <path class="cls-1" d="M40,599.67c.88,1.06-.66-.84-.64-.84a4.45,4.45,0,0,1,.45.68c.29.46.52,1,.77,1.42.65,1.21-.52-1-.43-1a6.81,6.81,0,0,1,.26.76,19.57,19.57,0,0,1,.52,2l.15.81c.28,1.39-.2-1.21-.15-1.16.21.21.13,1.4.15,1.69a36.43,36.43,0,0,1,0,3.91c-.14,4.91-.88,9.83-.54,14.75.44,6.45,2.36,13,7.33,17.47,6,5.36,13.63,6.73,21.42,7,14.7.4,29.39.58,44.09,1.27q22.49,1,44.92,2.91t44.79,4.56q5.46.66,10.92,1.36c1.87.24,3.75.48,5.62.74-.26,0-2.06-.28-.41-.05l1.32.18,3,.41q11.06,1.53,22.1,3.28,44.47,7,88.35,17.27,10.88,2.55,21.71,5.29c7.43,1.88,14.86,3.41,22.52,2.12a24.46,24.46,0,0,0,17.64-13.53c3.62-7.67,3.85-15.68,2.34-23.92a98.05,98.05,0,0,0-2.67-10.41c-1.33-4.52-6.39-7.81-11.07-6.29s-7.71,6.23-6.28,11.07a103.82,103.82,0,0,1,2.67,10.41c.07.43.13.85.21,1.28.23,1.26-.15-1.74-.06-.47.06.86.15,1.71.18,2.58s0,1.51,0,2.27a5.49,5.49,0,0,1-.06,1c-.06.32,0,.52-.07.77-.08.71,0,.34.14-1.12-.51,1.2-.57,2.73-1,4l-.27.72c-.38,1.07.84-1.74.3-.75-.37.67-.7,1.35-1.11,2a5.75,5.75,0,0,0-.56.83c.34-1.15,1.13-1.35.47-.64-.45.5-.93,1-1.4,1.43-1,1,.45-.41.65-.46a4.86,4.86,0,0,0-.85.57c-.31.19-.64.36-1,.55-1.38.8,1.42-.46.4-.13-.7.22-1.37.46-2.08.62-.35.09-.71.14-1.06.22-1.16.26,2-.16.76-.11a37.48,37.48,0,0,1-4.74,0,8.48,8.48,0,0,0-1.13-.11c.18,0,2.25.36.69.09-.76-.13-1.51-.25-2.27-.4-1.5-.3-3-.65-4.47-1-7.06-1.75-14.1-3.53-21.18-5.2q-42.36-10-85.35-17-44-7.16-88.4-11.21-43.34-3.95-86.89-4.81c-3.54-.07-7.09-.1-10.64-.17-1.32,0-2.64-.07-4-.17l-1-.1c-1.52-.1.69.1.82.13-.84-.2-1.71-.29-2.55-.5-.66-.16-1.3-.37-2-.59-1.44-.47,1.94,1,.08,0-.33-.18-2.19-1.51-1-.52s-.53-.61-.83-.89c-1-1,.77.91.63.88s-.38-.54-.45-.65c-.29-.45-.53-.91-.78-1.37-.67-1.22.83,2.32.16.33a16.84,16.84,0,0,1-.48-1.72c-.08-.37-.41-2.47-.16-.6s0,0,0-.45c-.1-1.28-.11-2.56-.09-3.84,0-2.38.24-4.75.4-7.11.35-5.29.52-10.9-1.14-16a26.08,26.08,0,0,0-5-8.93c-3-3.64-9.65-3.35-12.73,0-3.55,3.87-3.22,8.85,0,12.73Z" transform="translate(0.15 -0.02)"/>
    <path class="cls-1" d="M382.24,643.09c-3.89,7.62-7,15.19-5.68,23.88,1.18,7.7,7.1,14.9,14.92,16.4,8.06,1.56,16.21-1.6,24-3.5q10.66-2.62,21.41-4.89,21.48-4.51,43.24-7.59l2.72-.38,1-.14c1.31-.18-1.66.22-.35,0l5.78-.74q5.46-.68,10.91-1.26,10.92-1.15,21.87-2a662.55,662.55,0,0,1,87.43-.62q21.93,1.31,43.72,4l2.39.31,1.36.18c1.71.22-.13,0-.35,0a13.09,13.09,0,0,0,2.71.37l3.06.44q5.43.78,10.85,1.66,10.85,1.76,21.62,3.87c14.42,2.84,30,7.08,44.41,1.67,7.16-2.69,13.63-7,17.67-13.69a28.43,28.43,0,0,0,3.33-21.2,24.79,24.79,0,0,0-5.48-10.16c-3.06-3.6-9.63-3.38-12.73,0-3.52,3.84-3.26,8.89,0,12.73,1,1.15-.46-.53-.47-.62a5.28,5.28,0,0,0,.55.84c.2.33,1.06,2.19.44.71s.09.39.2.8.16.65.24,1c.3,1.21-.08-.6-.08-.9,0,1.27.09,2.52,0,3.8s.37-2,.12-.86c-.06.25-.09.5-.15.75a19,19,0,0,1-.61,2.24c-.63,1.86.76-1.37,0,0-.28.54-.54,1.08-.85,1.6-.16.28-1.57,2.26-.59,1,.83-1.09.22-.29,0-.08s-.62.69-.94,1-.94.88-1.41,1.32c-1.13,1,.35-.37.53-.38a5.08,5.08,0,0,0-.9.64,26.49,26.49,0,0,1-3.61,2c-2,1,1.66-.59-.42.17-.61.23-1.23.43-1.86.62a40.83,40.83,0,0,1-4.38,1c-1.61.31,2.14-.21-.12,0l-2,.15c-1.86.09-3.73.09-5.59,0-.82,0-1.63-.12-2.44-.19a8.29,8.29,0,0,1-2.43-.28c1,.57,1.22.19.31,0l-1.39-.22c-.93-.15-1.85-.31-2.77-.49-3.43-.63-6.85-1.37-10.27-2a673.85,673.85,0,0,0-84.3-11.32,662.45,662.45,0,0,0-83-.64,681.06,681.06,0,0,0-84.46,10q-20.43,3.72-40.58,8.73c-3.27.82-6.51,1.72-9.79,2.49-.72.17-1.44.32-2.17.46-1.8.35.53-.08.52-.07a10.31,10.31,0,0,1-1.24.07h-.92c-1.2.09,1.73.45.58.11-.28-.09-.6-.15-.89-.22-1.74-.39.91.6.33.16a6.36,6.36,0,0,0-.83-.51c-.74-.43.87.63.88.66a6.34,6.34,0,0,0-.69-.68c-1-.93.47.47.5.68a6.16,6.16,0,0,0-.88-1.48c-.57-1,.65,1.86.32.78-.13-.4-.28-.78-.39-1.19s-.45-2.45-.23-.78,0-.36,0-.81v-1c0-1.11.46-.35-.1.47a10.79,10.79,0,0,0,.57-2.5c.2-.73.44-1.44.7-2.15.11-.31.7-1.57.14-.43s0,.09.06-.12c.72-1.58,1.49-3.13,2.28-4.68,2.13-4.19,1.24-9.95-3.23-12.31-4.11-2.17-10-1.25-12.31,3.23Z" transform="translate(0.15 -0.02)"/>
    <path class="cls-1" d="M80.58,191.94l50.21-3.81c16.59-1.26,33.21-2.72,49.87-2.68a214.79,214.79,0,0,1,27.76,1.77L206,186.9a195.51,195.51,0,0,1,32.26,7.18,9.1,9.1,0,0,0,11.08-6.28,9.2,9.2,0,0,0-6.29-11.07,210.15,210.15,0,0,0-63.15-9.28c-21.13,0-42.25,2.16-63.3,3.75l-36,2.74a9.61,9.61,0,0,0-6.36,2.63,9,9,0,0,0,0,12.73,8.88,8.88,0,0,0,6.36,2.64Z" transform="translate(0.15 -0.02)"/>
    <path class="cls-1" d="M274.62,188.11a52.78,52.78,0,0,0,24.34,7A53.67,53.67,0,0,0,311.6,194a62.28,62.28,0,0,0,12.16-4.21l-2.15.91A36.54,36.54,0,0,1,330,188l-2.39.32a12.75,12.75,0,0,1,3.49,0l-2.39-.33a11.46,11.46,0,0,1,2.22.63l-2.15-.9c.37.17.72.35,1.07.55,4.08,2.35,10,1.09,12.31-3.23a9.15,9.15,0,0,0-3.23-12.31c-4.49-2.59-9.32-2.87-14.31-2-3.74.68-7.27,2.42-10.74,3.88l2.15-.9A47.43,47.43,0,0,1,304.17,177l2.4-.32a45.32,45.32,0,0,1-11.52,0l2.4.32a44.15,44.15,0,0,1-11.11-3l2.15.9a42.69,42.69,0,0,1-4.78-2.4c-4.08-2.37-10-1.07-12.32,3.23a9.15,9.15,0,0,0,3.23,12.31Z" transform="translate(0.15 -0.02)"/>
    <path class="cls-1" d="M352,243.6a20,20,0,0,0-11.89-9.22c-4.6-1.36-9.47-1.07-14.12-.18-8.86,1.69-15.81,7.55-23.91,11.07l2.15-.91a27.62,27.62,0,0,1-6.67,1.95L300,246a18.16,18.16,0,0,1-4.42,0l2.39.32a16.84,16.84,0,0,1-4-1.1l2.15.91a20.1,20.1,0,0,1-4.25-2.54l1.83,1.41c-4-3.2-7-7.46-10.29-11.34-4.32-5.08-9.44-9.2-15.83-11.33-7.07-2.36-15.19-1.65-22.18.6s-13.15,5.92-19.12,10.07-12.05,8.71-18.9,11.63l2.15-.9a46,46,0,0,1-11.16,3l2.4-.32a61,61,0,0,1-16.09-.19l2.4.32c-13.47-1.88-26-7-38.93-11a123.49,123.49,0,0,0-18-4.33c-6.59-1-13.26-1.67-19.92-.9-7.89.91-15.5,3.05-22.23,7.42a9.46,9.46,0,0,0-4.14,5.37,9.24,9.24,0,0,0,.91,6.94c2.54,3.94,8.09,6,12.31,3.23a40,40,0,0,1,6-3.18l-2.15.91a43.14,43.14,0,0,1,10.94-2.91l-2.39.32a64.4,64.4,0,0,1,16.47.21l-2.4-.32c16.59,2.25,31.81,9.41,47.93,13.48,8.9,2.25,18.35,3.79,27.54,2.88a53.68,53.68,0,0,0,14.32-3.16,70.36,70.36,0,0,0,12.5-6.37c7.61-4.89,14.6-10.86,23-14.42l-2.15.9a40.76,40.76,0,0,1,9.92-2.77l-2.39.32a28.59,28.59,0,0,1,7.16,0l-2.4-.32a22.23,22.23,0,0,1,5.31,1.45l-2.15-.91a21.86,21.86,0,0,1,4.57,2.69l-1.82-1.4c6,4.67,9.6,11.62,15.37,16.5a29.87,29.87,0,0,0,5.94,4.15,27.18,27.18,0,0,0,9.62,2.74c6,.65,12-1.52,17.36-4.11,4.71-2.28,9-5.42,13.81-7.45l-2.15.9a31.64,31.64,0,0,1,7.65-2.08l-2.4.32a23,23,0,0,1,5.37,0L333,251.3a14.94,14.94,0,0,1,3.72,1l-2.15-.91a12.45,12.45,0,0,1,2.47,1.44l-1.82-1.41a11.56,11.56,0,0,1,1.83,1.87l-1.41-1.82a11.74,11.74,0,0,1,.84,1.28c2.33,4.09,8.26,5.84,12.31,3.23a9.17,9.17,0,0,0,3.23-12.31Z" transform="translate(0.15 -0.02)"/>
    <path class="cls-1" d="M90.61,300.84a63.48,63.48,0,0,0,25.22,6.31c7.63.43,15.27-.2,22.86-.81,17-1.37,34.08-1.51,51.16-1.38l52,.39c17.32.13,34.64.25,52,.8s34.58,1.52,51.79,3.34c2.19.23,4.38.47,6.57.74s4.92-1.19,6.37-2.64a9,9,0,0,0,0-12.73h0l-1.82-1.41a9.07,9.07,0,0,0-4.55-1.22c-31.87-3.78-64-4.47-96-4.77q-24.08-.21-48.16-.37c-16-.12-32.08-.42-48.1.05-8.57.25-17.09.91-25.63,1.56-7.87.59-15.79,1-23.64,0L113,289a51,51,0,0,1-12.62-3.3l2.15.91c-1-.4-1.88-.83-2.8-1.3a9.55,9.55,0,0,0-6.93-.9,9.15,9.15,0,0,0-5.4,4.09c-2.16,4.09-1.27,10.06,3.23,12.32Z" transform="translate(0.15 -0.02)"/>
    <path class="cls-1" d="M326,333c-.73.38-1.46.74-2.21,1.06l2.15-.91a28.45,28.45,0,0,1-7.07,1.9l2.39-.32a30,30,0,0,1-7.33,0l2.39.33a28.51,28.51,0,0,1-6.67-1.81l2.15.91c-4-1.71-7.56-4.25-11.65-5.84a18,18,0,0,0-15.12,1c-5.84,3.22-8.38,9.41-12.25,14.45l1.41-1.83a15.11,15.11,0,0,1-2.62,2.68l1.82-1.41a9.83,9.83,0,0,1-2,1.18l2.15-.91a8.55,8.55,0,0,1-2,.53l2.39-.32a8.91,8.91,0,0,1-2,0l2.39.33a9.27,9.27,0,0,1-1.93-.56l2.15.91a9.77,9.77,0,0,1-1.75-1l1.82,1.41a9,9,0,0,1-1.44-1.39l1.4,1.82a9,9,0,0,1-1-1.73l.91,2.15A9.25,9.25,0,0,1,274,344l.32,2.4a9.16,9.16,0,0,1,0-2.34l-.32,2.39a9.48,9.48,0,0,1,.54-1.94l-.91,2.15a9.86,9.86,0,0,1,1-1.76l-1.4,1.83a8.61,8.61,0,0,1,1.39-1.44l-1.82,1.41a9.43,9.43,0,0,1,.84-.56c4-2.43,5.89-8.2,3.23-12.32a9.12,9.12,0,0,0-12.32-3.23,17.39,17.39,0,0,0-8.3,14.3c-.28,5.88,3.06,11.16,7.85,14.31a17.52,17.52,0,0,0,8.14,2.54,16.37,16.37,0,0,0,8.22-1.76c3.51-1.57,6-4.52,8.21-7.52,1.75-2.36,3.12-5,4.9-7.31L292.18,347a16.08,16.08,0,0,1,2.6-2.68L293,345.68a9.83,9.83,0,0,1,2-1.18l-2.15.91a9.73,9.73,0,0,1,2.05-.56l-2.4.32a11.24,11.24,0,0,1,2.32,0l-2.4-.33a15.52,15.52,0,0,1,3.39,1l-2.15-.9c2.78,1.21,5.27,3,8,4.27A39,39,0,0,0,314,352.74a36,36,0,0,0,21.15-4.15,9.06,9.06,0,0,0,3.23-12.31A9.19,9.19,0,0,0,326,333Z" transform="translate(0.15 -0.02)"/>
    <path class="cls-1" d="M217.88,333.86c-13.32-9.37-32.8-9.7-46.51-.95-4.23,2.71-7.92,6.17-11.88,9.24l1.82-1.41a32,32,0,0,1-6.51,4l2.15-.9a21,21,0,0,1-5.28,1.45l2.39-.32a17,17,0,0,1-3.91,0l2.39.33a13.06,13.06,0,0,1-3-.81l2.15.9a12.12,12.12,0,0,1-2.1-1.2l1.82,1.41a12.61,12.61,0,0,1-2-2l1.4,1.82c-1.94-2.6-2.87-5.73-4.36-8.58a20.69,20.69,0,0,0-9.16-9.18c-7.59-3.55-16.12-2.78-23.81.12-4.39,1.66-8.5,3.9-12.8,5.74l2.15-.91a37.63,37.63,0,0,1-9.34,2.78l2.39-.32a20,20,0,0,1-4.77,0l2.4.32a15.58,15.58,0,0,1-3.42-.92l2.15.91a15.52,15.52,0,0,1-1.82-.92c-4.06-2.38-10-1.06-12.31,3.23A9.15,9.15,0,0,0,81.34,350c6.35,3.73,13.85,3.86,20.8,1.9,5.76-1.63,11-4.61,16.42-7l-2.15.91a38.79,38.79,0,0,1,9.37-2.75l-2.39.32a21.69,21.69,0,0,1,5.46-.09l-2.39-.32a14.34,14.34,0,0,1,3.75,1l-2.15-.91a13.21,13.21,0,0,1,2.5,1.49l-1.83-1.41a14.3,14.3,0,0,1,2,1.94l-1.41-1.82c1.91,2.49,2.86,5.48,4.24,8.26a19.86,19.86,0,0,0,9,9.29,23.45,23.45,0,0,0,8,2.15,25.32,25.32,0,0,0,6.67-.48A27.8,27.8,0,0,0,167.83,358c4-2.66,7.55-5.94,11.34-8.88l-1.82,1.41a36.19,36.19,0,0,1,7.84-4.69l-2.15.91a34.22,34.22,0,0,1,8.42-2.29l-2.39.32a36.92,36.92,0,0,1,9.51,0l-2.39-.32a35.25,35.25,0,0,1,8.79,2.4l-2.15-.91a32.92,32.92,0,0,1,6,3.34,9,9,0,0,0,13.22-10.17,10.26,10.26,0,0,0-4.14-5.38Z" transform="translate(0.15 -0.02)"/>
    <path class="cls-1" d="M94.27,390.55a5.56,5.56,0,0,1,.79-.45l-2.15.91A4.83,4.83,0,0,1,94,390.7l-2.39.32A4.94,4.94,0,0,1,93,391l-2.39-.32a5.17,5.17,0,0,1,1.28.35l-2.15-.91a5,5,0,0,1,1,.58l-1.83-1.41a4,4,0,0,1,.77.76l-1.41-1.83.2.28A6.66,6.66,0,0,0,90.74,391a8.09,8.09,0,0,0,6.65,1.77,6.76,6.76,0,0,0,3.35-1.06l1.82-1.41a8.88,8.88,0,0,0,2.31-4l.33-2.4A9,9,0,0,0,104,379.4a24.65,24.65,0,0,0-1.65-2.16c-.11-.12-.22-.25-.34-.36l-.38-.33c-.69-.55-1.38-1.14-2.12-1.62a17.07,17.07,0,0,0-2.93-1.3,5,5,0,0,0-1-.28c-.92-.17-1.88-.29-2.81-.38a3.38,3.38,0,0,0-.45,0,18,18,0,0,0-3.27.39,5,5,0,0,0-1,.28,23.36,23.36,0,0,0-2.52,1.09,4.94,4.94,0,0,0-.42.27,10.21,10.21,0,0,0-4.14,5.38,7.05,7.05,0,0,0-.16,3.59,6.67,6.67,0,0,0,1.07,3.35l1.41,1.82a9.07,9.07,0,0,0,4,2.31l2.39.32a8.88,8.88,0,0,0,4.55-1.23Z" transform="translate(0.15 -0.02)"/>
    <path class="cls-1" d="M121.33,387.72c13,7.25,28,8.58,42.66,9.21,15.37.67,30.74,1.27,46.11,1.91,15.17.63,30.34,1.21,45.52,1.22s30.69-.44,46.06-1.33c8.43-.49,16.87-1.07,25.27-1.91,9-.91,17.68-2.38,25.75-6.62a9.06,9.06,0,0,0,3.23-12.31,9.2,9.2,0,0,0-12.32-3.23c-.9.48-1.83.92-2.77,1.33l2.15-.91a55.48,55.48,0,0,1-14,3.55l2.39-.32c-11.78,1.56-23.76,2.14-35.61,2.75q-18.07.93-36.17,1c-24.33.1-48.64-1.19-73-2.19L166.16,379c-6.09-.25-12.19-.54-18.23-1.33l2.39.32a68.65,68.65,0,0,1-17.43-4.47l2.15.91a46.09,46.09,0,0,1-4.63-2.27c-4.11-2.29-10-1.13-12.31,3.23s-1.17,9.87,3.23,12.31Z" transform="translate(0.15 -0.02)"/>
    <path class="cls-1" d="M352.34,450.2c1.14-2.66,2.09-5.24,1.92-8.21A19.27,19.27,0,0,0,352,433.8a21.94,21.94,0,0,0-9.62-9.06,22.85,22.85,0,0,0-6.39-2.16,25.66,25.66,0,0,0-9.08.19,33.38,33.38,0,0,0-12.19,5.42c-4.25,2.9-8.08,6.35-12.13,9.52l1.82-1.41a42.4,42.4,0,0,1-9,5.52l2.15-.91a23.3,23.3,0,0,1-5.67,1.63l2.39-.32a18,18,0,0,1-4.15,0l2.39.32c-.56-.08-1.11-.19-1.67-.32L293,458.67a16.44,16.44,0,0,0,7.63-15.05A20.11,20.11,0,0,0,292,428.34a21,21,0,0,0-9.84-3.22,25.8,25.8,0,0,0-8.88.75c-5.31,1.3-10,4.15-14.36,7.39s-8.78,6.79-14,9l2.15-.91a45.59,45.59,0,0,1-11,2.92l2.39-.32a76.14,76.14,0,0,1-19.72-.34l2.39.32c-7.29-1-14.46-2.61-21.64-4.18l-24-5.28c-8.09-1.78-16.18-3.82-24.36-5.2a67.2,67.2,0,0,0-13.58-1.2,57,57,0,0,0-12.43,2c-7.33,2-14.39,5.07-21.94,6.15l2.39-.33a27.59,27.59,0,0,1-7.09.11l2.39.32a21.05,21.05,0,0,1-5-1.37l2.15.91c-.6-.26-1.18-.55-1.75-.86-4.15-2.23-10-1.16-12.32,3.23-2.21,4.19-1.19,9.93,3.23,12.32a30.09,30.09,0,0,0,13.91,3.64A47.5,47.5,0,0,0,114,452.33c7.46-2,14.62-5.13,22.31-6.23l-2.4.32a47.41,47.41,0,0,1,12.48.18l-2.4-.32c4.73.66,9.39,1.75,14,2.77l14,3.07,27.82,6.11A170.81,170.81,0,0,0,226,462.34c8.46.5,17.44-.22,25.37-3.38a56.54,56.54,0,0,0,13.53-7.72c3.75-2.84,7.45-5.83,11.8-7.7l-2.15.91a23.78,23.78,0,0,1,5.61-1.58l-2.39.32a18.4,18.4,0,0,1,4.45,0l-2.39-.32a14.51,14.51,0,0,1,3.47,1l-2.15-.91a11.43,11.43,0,0,1,2.06,1.2l-1.82-1.4a10.79,10.79,0,0,1,1.66,1.65l-1.41-1.82a11.68,11.68,0,0,1,1.48,2.56L282.2,443a12.14,12.14,0,0,1,.75,2.84l-.32-2.39a11,11,0,0,1,0,2.56l.32-2.39a8.52,8.52,0,0,1-.5,1.86l.91-2.15a7.52,7.52,0,0,1-.95,1.65l1.41-1.82a7.74,7.74,0,0,1-1.2,1.16l1.8-1.5a5,5,0,0,1-.47.33,9.09,9.09,0,0,0-4.3,9,8.93,8.93,0,0,0,6.45,7.48c7.59,1.77,15.08-.08,21.74-3.91,5.43-3.12,10-7.48,14.94-11.3L321,445.83a40.58,40.58,0,0,1,8.67-5.31l-2.15.91a23.52,23.52,0,0,1,5-1.4l-2.4.32a14.56,14.56,0,0,1,3.49-.06l-2.39-.32a15.6,15.6,0,0,1,3.61,1l-2.15-.9a16.66,16.66,0,0,1,3.54,2.05l-1.83-1.41a15.29,15.29,0,0,1,2.36,2.33l-1.41-1.82a12.34,12.34,0,0,1,1.48,2.43l-.91-2.15a10.09,10.09,0,0,1,.67,2.34l-.32-2.39a8.36,8.36,0,0,1,0,2.12l.32-2.39A8.94,8.94,0,0,1,336,443l.91-2.15-.13.3c-1,2.32-1.61,4.4-.91,6.94A9,9,0,0,0,347,454.4c2.07-.67,4.48-2,5.38-4.14Z" transform="translate(0.15 -0.02)"/>
    <path class="cls-1" d="M91.09,499.87l28.74-.2c9.15-.07,18.39.17,27.51-.77a77.53,77.53,0,0,0,16.73-3.27L153,489.34a22.4,22.4,0,0,0,9.08,12,29.09,29.09,0,0,0,11.06,4.3c9.14,1.68,18.35.72,27.54-.13,20.33-1.88,40.63-4.51,61-5.23a203,203,0,0,1,34.06,1.35l-2.32-.31c8.57,1.16,16.92,3.34,25.4,5a113.45,113.45,0,0,0,14.34,2,60.6,60.6,0,0,0,14.79-.89,9,9,0,0,0,5.38-4.14,9.21,9.21,0,0,0,.9-6.93A9.07,9.07,0,0,0,350.1,491a10.24,10.24,0,0,0-6.94-.91c-.63.11-1.27.21-1.9.3l2.39-.32a58.69,58.69,0,0,1-15.27-.22l2.39.32c-10-1.36-19.69-4.27-29.65-5.81a198.62,198.62,0,0,0-32.23-2.26c-20.37.19-40.67,2.69-60.91,4.69-5.85.58-11.7,1.16-17.56,1.53a66.17,66.17,0,0,1-13.2-.11l2.39.33a30.74,30.74,0,0,1-7.31-1.9l2.15.9a18.26,18.26,0,0,1-4-2.29l1.82,1.41a13.84,13.84,0,0,1-2.29-2.3l1.41,1.82a13.32,13.32,0,0,1-1.51-2.61l.91,2.15c-.15-.39-.29-.78-.42-1.18-1.39-4.46-6.32-7.87-11.07-6.29a64,64,0,0,1-11.51,2.62l2.39-.32c-9.53,1.27-19.22,1-28.82,1.09l-30.26.21c-4.7,0-9.21,4.12-9,9a9.15,9.15,0,0,0,9,9Z" transform="translate(0.15 -0.02)"/>
    <path class="cls-1" d="M96.79,551.94a7.74,7.74,0,0,1,.38-1.15l-.91,2.15a8,8,0,0,1,.74-1.26l-1.41,1.82A8.23,8.23,0,0,1,97,552.06l-1.82,1.41A10.62,10.62,0,0,1,97,552.42l-2.15.91a12.58,12.58,0,0,1,2.7-.75l-2.39.32a12.85,12.85,0,0,1,3.16,0L96,552.58a13,13,0,0,1,2.87.79l-2.15-.9a20.29,20.29,0,0,1,4.38,2.63l-1.82-1.4c3,2.38,5.47,5.33,8.3,7.9,3.65,3.32,8.09,6.54,13,7.5a21.1,21.1,0,0,0,16-3,37.36,37.36,0,0,0,10-10.51c2.27-3.39,4.11-7,6.6-10.29l-1.41,1.82a23.23,23.23,0,0,1,3.82-3.92l-1.82,1.4a17.25,17.25,0,0,1,3.49-2l-2.15.9a16.14,16.14,0,0,1,3.48-.94l-2.39.32a18.45,18.45,0,0,1,4.33,0l-2.39-.32a25.52,25.52,0,0,1,6.29,1.78l-2.15-.91c7,3,12.45,8.2,18.87,12.1a40.25,40.25,0,0,0,11.88,5.1c4.74,1,9.94,1.13,14.5-.72a28.77,28.77,0,0,0,6.56-3.51c2.06-1.52,4-3.15,6-4.73l-1.82,1.4a26,26,0,0,1,5.07-3.21l-2.15.9a10.81,10.81,0,0,1,2.49-.68l-2.4.32a13.26,13.26,0,0,1,3.21,0l-2.39-.33a11.86,11.86,0,0,1,2.74.76l-2.15-.91a9.41,9.41,0,0,1,1.83,1.09l-1.82-1.41a7.15,7.15,0,0,1,1.06,1.07l-1.41-1.86a6.16,6.16,0,0,1,.62,1.05l-.91-2.15a5.09,5.09,0,0,1,.33,1.2l-.32-2.4a7.39,7.39,0,0,1,0,1.33c-.22,2.16,1.16,4.89,2.64,6.36a9.19,9.19,0,0,0,6.36,2.64,9.07,9.07,0,0,0,6.36-2.64,10.23,10.23,0,0,0,2.64-6.36,13.46,13.46,0,0,0-4.64-11,19.79,19.79,0,0,0-11.66-4.55c-8-.63-13.87,4.67-19.72,9.23l1.82-1.4a26.09,26.09,0,0,1-5.14,3.22l2.15-.91a16,16,0,0,1-3.9,1.09l2.4-.32a18.07,18.07,0,0,1-4.41,0l2.4.32a25,25,0,0,1-6-1.68l2.15.9a62.09,62.09,0,0,1-12.5-7.72,62.16,62.16,0,0,0-14-8.13,26.81,26.81,0,0,0-17.16-1.28c-6.18,1.78-10.68,5.92-14.45,10.94-2.88,3.83-4.92,8.2-7.81,12l1.41-1.82a27,27,0,0,1-4.45,4.61l1.82-1.41a16.66,16.66,0,0,1-3.41,2l2.15-.91a12.9,12.9,0,0,1-3.1.82l2.39-.32a11.92,11.92,0,0,1-2.67,0l2.39.32a13.58,13.58,0,0,1-3.37-.92l2.14.9a20.62,20.62,0,0,1-4.44-2.67l1.82,1.41c-2.88-2.26-5.25-5-7.9-7.51a30.51,30.51,0,0,0-12-7.48c-9.11-2.75-20.57,1.84-23,11.59-1.14,4.56,1.47,10,6.29,11.08,4.66,1.06,9.85-1.4,11.07-6.29Z" transform="translate(0.15 -0.02)"/>
    <path class="cls-1" d="M276.74,551.94a57.65,57.65,0,0,0,26.17,6.25,58.25,58.25,0,0,0,13.28-1.65,88.28,88.28,0,0,0,13.17-4.9l-2.15.9a42.29,42.29,0,0,1,10-3.15l-2.39.32a17.76,17.76,0,0,1,4.49,0l-2.39-.32a17.09,17.09,0,0,1,4.16,1.13l-2.15-.91a14.42,14.42,0,0,1,2.8,1.61l-1.82-1.41a12.61,12.61,0,0,1,2,2L340.5,550a11.2,11.2,0,0,1,1.11,1.85l-.91-2.15a9.81,9.81,0,0,1,.62,2.11A9,9,0,0,0,357.77,554a10.22,10.22,0,0,0,.91-6.93c-1.36-7.71-8.91-13.54-16.32-14.85a29.31,29.31,0,0,0-12.94.55,89.47,89.47,0,0,0-11.63,4.48l2.15-.91a53.39,53.39,0,0,1-13.52,3.82l2.39-.32a49.59,49.59,0,0,1-12.65,0l2.39.32a48.2,48.2,0,0,1-12.2-3.34l2.15.91c-.9-.39-1.8-.81-2.68-1.25a9.56,9.56,0,0,0-6.93-.91,9.15,9.15,0,0,0-5.38,4.14c-2.16,4.08-1.27,10.06,3.23,12.31Z" transform="translate(0.15 -0.02)"/>
    <path class="cls-1" d="M415,179.89a17.57,17.57,0,0,0,6.18,5.69,19.36,19.36,0,0,0,8.27,2.09,25,25,0,0,0,13.32-3.75,36.33,36.33,0,0,0,9.27-8.69c2.44-3,4.81-6.11,7.9-8.49l-1.83,1.4a20.44,20.44,0,0,1,4-2.32l-2.15.9a20.12,20.12,0,0,1,4.5-1.22l-2.39.32a24.29,24.29,0,0,1,6.26,0l-2.39-.32a37.53,37.53,0,0,1,9.06,2.58l-2.15-.91c12.31,5.21,22.22,15.69,35.84,17.87a35.26,35.26,0,0,0,19.43-2,85.84,85.84,0,0,0,14.69-8.12c4.71-3.14,9.4-6.42,14.63-8.66l-2.15.91a29.66,29.66,0,0,1,7.44-2.1l-2.4.32a23,23,0,0,1,5.86,0l-2.39-.32c7.31,1.06,13.6,5.49,20.87,6.7a25.81,25.81,0,0,0,12.1-.62,23,23,0,0,0,10.1-6,19,19,0,0,0,4.08-6.92,17.39,17.39,0,0,0,.26-8.42c-.33-2.09-2.4-4.36-4.14-5.38a9,9,0,0,0-12.31,3.23,10.33,10.33,0,0,0-.91,6.93l0,.3-.33-2.39a8.36,8.36,0,0,1,0,2l.32-2.39a7.91,7.91,0,0,1-.5,1.85l.91-2.15a9.23,9.23,0,0,1-1.12,1.89l1.41-1.82a12.59,12.59,0,0,1-1.83,1.82l1.82-1.41a15.7,15.7,0,0,1-3.43,2l2.15-.91a17.11,17.11,0,0,1-4.28,1.13l2.4-.47a16.22,16.22,0,0,1-4.06,0l2.39.32c-5.29-.77-10.07-3.4-15-5.17a38.16,38.16,0,0,0-9.68-2,32.53,32.53,0,0,0-8,.59c-8.75,1.49-16.36,6.91-23.59,11.71a77.69,77.69,0,0,1-12.25,7l2.15-.91a31.45,31.45,0,0,1-7.6,2.17l2.39-.32a25.45,25.45,0,0,1-6.64,0l2.39.33a33.52,33.52,0,0,1-8.2-2.38l2.15.91a95.28,95.28,0,0,1-13.7-7.84,84.12,84.12,0,0,0-15.5-8.19,35.08,35.08,0,0,0-16.55-2.45,28.75,28.75,0,0,0-10.84,3.33,31,31,0,0,0-7.1,5.64c-3.63,3.79-6.38,8.49-10.52,11.78l1.83-1.41a19.76,19.76,0,0,1-4.29,2.49l2.15-.9a17.51,17.51,0,0,1-4.08,1.12l2.4-.32a13.65,13.65,0,0,1-3.38,0l2.39.32a9.25,9.25,0,0,1-2.26-.63l2.15.91a8.43,8.43,0,0,1-1.75-1l1.82,1.41a9.75,9.75,0,0,1-1.28-1.29l1.41,1.82-.19-.25c-1.46-1.95-2.93-3.47-5.38-4.14A9,9,0,0,0,414.08,173c-.5,2.2-.51,5,.91,6.93Z" transform="translate(0.15 -0.02)"/>
    <path class="cls-1" d="M638.68,165.29a32.69,32.69,0,0,0,10.61,9.89,34,34,0,0,0,14,4.2c9.07.8,18.54-3.29,24.66-9.92a32.38,32.38,0,0,0,7.68-13.81c1.15-4.55-1.49-10-6.29-11.07s-9.83,1.4-11.07,6.29a23.41,23.41,0,0,1-1,3.07l.91-2.15a24.33,24.33,0,0,1-3.08,5.26l1.41-1.82a25.53,25.53,0,0,1-4.34,4.29l1.82-1.41a24.18,24.18,0,0,1-5,2.89l2.15-.91a22.65,22.65,0,0,1-5.54,1.52l2.39-.32a23.53,23.53,0,0,1-5.81,0l2.39.32a25.4,25.4,0,0,1-6-1.64l2.15.91a25.33,25.33,0,0,1-5.34-3.13l1.82,1.41a24.23,24.23,0,0,1-3.85-3.86l1.41,1.82c-.22-.29-.43-.59-.64-.89a9.69,9.69,0,0,0-5.38-4.13,9.19,9.19,0,0,0-6.94.9,9.07,9.07,0,0,0-4.13,5.38c-.52,2.25-.48,5,.9,6.94Z" transform="translate(0.15 -0.02)"/>
    <path class="cls-1" d="M683.81,209.5l-56.6-4.79c-9.26-.78-18.54-1.79-27.82-2.3a56.6,56.6,0,0,0-15.31,1.06,50.32,50.32,0,0,0-12.35,4.8c-7.63,4-14.42,9.48-22.38,12.89l2.15-.91a52.47,52.47,0,0,1-13.08,3.55l2.4-.32a75.78,75.78,0,0,1-20.07-.29l2.39.32c-12.51-1.72-24.62-5.43-36.82-8.54-12.39-3.17-25.39-6-38.26-5.2A64.07,64.07,0,0,0,425,215.59c-1.94.89-3.59,3.41-4.14,5.38a9.24,9.24,0,0,0,.91,6.94A9.07,9.07,0,0,0,427.1,232a10.21,10.21,0,0,0,6.93-.91l1.59-.7-2.15.91a51.78,51.78,0,0,1,13-3.5l-2.39.33a75.09,75.09,0,0,1,19.64.3l-2.4-.33c15.72,2.15,30.78,7.44,46.25,10.79a118.28,118.28,0,0,0,25,3.1,63.85,63.85,0,0,0,24.78-4.88c9.72-4.1,17.79-11.14,27.49-15.25l-2.15.91a36.55,36.55,0,0,1,9-2.48l-2.39.32c6-.75,11.92-.14,17.86.36l18.53,1.57,36.89,3.12,21.22,1.8a9,9,0,0,0,6.37-15.37,10.06,10.06,0,0,0-6.37-2.63Z" transform="translate(0.15 -0.02)"/>
    <path class="cls-1" d="M427,287.76a14.42,14.42,0,0,0,10.68,9.75c4.41.88,9.44.36,13.2-2.3a25.37,25.37,0,0,0,8.34-10.29c1.38-3,2.52-6,4.49-8.68l-1.4,1.82a14.39,14.39,0,0,1,2.23-2.32l-1.82,1.41a10.33,10.33,0,0,1,2.11-1.28l-2.15.91a9.53,9.53,0,0,1,2.41-.64l-2.39.32a10,10,0,0,1,2.05,0l-2.4-.33a11.35,11.35,0,0,1,2.62.74l-2.15-.9a15.83,15.83,0,0,1,3.06,1.84l-1.82-1.4a28.53,28.53,0,0,1,4.81,4.95l-1.44-1.81c3.16,4.09,5.73,8.68,9.68,12.1,5.32,4.58,11.92,7.37,18.95,5.37,4.52-1.28,7.79-6.42,6.28-11.07a9.16,9.16,0,0,0-11.07-6.29,13.45,13.45,0,0,1-1.4.31l2.4-.33a9.55,9.55,0,0,1-2,0l2.39.32a11.29,11.29,0,0,1-2.62-.71l2.15.91a15.9,15.9,0,0,1-3.08-1.82l1.82,1.41a29.26,29.26,0,0,1-5.08-5.23l1.41,1.83c-2.37-3.1-4.39-6.41-7-9.35a27.34,27.34,0,0,0-10.95-7.66,17.44,17.44,0,0,0-14.48,1.47,23.42,23.42,0,0,0-8.67,9.65c-1.73,3.35-2.86,7-5.15,10l1.41-1.82a13.54,13.54,0,0,1-2.11,2.17l1.82-1.41a8.61,8.61,0,0,1-1.82,1.09l2.15-.91a9.47,9.47,0,0,1-2.28.6l2.39-.32a9.55,9.55,0,0,1-2,0l2.39.32a8.38,8.38,0,0,1-1.91-.49l2.15.91a6.8,6.8,0,0,1-1.4-.83l1.83,1.41a5.39,5.39,0,0,1-.75-.76l1.4,1.82a6.64,6.64,0,0,1-.56-.92l.91,2.15a3.39,3.39,0,0,1-.2-.53,9.6,9.6,0,0,0-4.14-5.38,9.19,9.19,0,0,0-6.94-.91c-4.38,1.42-8,6.31-6.28,11.07Z" transform="translate(0.15 -0.02)"/>
    <path class="cls-1" d="M532.61,288q31.44-2.47,62.92-4.22c21-1.17,42-2.05,62.93-3l35.4-1.56a9.47,9.47,0,0,0,6.37-2.63,9.21,9.21,0,0,0,2.63-6.37c-.21-4.7-4-9.22-9-9l-63,2.78q-31.5,1.38-62.85,3.41Q550.3,268.6,532.6,270a9.67,9.67,0,0,0-6.36,2.64,9,9,0,0,0,0,12.72A8.79,8.79,0,0,0,532.6,288Z" transform="translate(0.15 -0.02)"/>
    <path class="cls-1" d="M698.51,319.84q-23.13.17-46.26.43c-7.65.08-15.3.11-23,.25-7.93.14-16,.64-23.69,2.88-8.17,2.4-15.71,6.54-23.53,9.84l2.15-.9a71.81,71.81,0,0,1-17.61,4.85l2.39-.32a130.24,130.24,0,0,1-24.26.51c-8.51-.46-17-1.12-25.51-1.7l-51.7-3.53-29-2c-3.22-.22-6.11,1.91-7.77,4.46l-5.22,8c-2.58,3.95-.93,10.12,3.23,12.31A9.2,9.2,0,0,0,441,351.7l5.22-8-7.77,4.45,66.73,4.56,33.1,2.26c11.07.75,22,1.11,33-.43a69.18,69.18,0,0,0,16.3-4.32c5.85-2.36,11.5-5.18,17.31-7.64l-2.15.91A63.88,63.88,0,0,1,618.65,339l-2.39.33c10.39-1.37,21.06-.94,31.52-1l32.33-.32,18.4-.15c4.71,0,9.22-4.12,9-9a9.15,9.15,0,0,0-9-9Z" transform="translate(0.15 -0.02)"/>
    <path class="cls-1" d="M485.88,390.55a151.31,151.31,0,0,0,84.44,1.83c7.06-1.9,13.91-4.73,21.18-5.75l-2.39.32a28.69,28.69,0,0,1,7.23-.09l-2.4-.32a20.09,20.09,0,0,1,4.56,1.22l-2.15-.91a18.75,18.75,0,0,1,4,2.31l-1.82-1.41c2.81,2.18,5.08,4.93,7.81,7.19a26.22,26.22,0,0,0,6.08,4.08,24.38,24.38,0,0,0,9.27,2.25c9.77.35,18-5.68,26.6-9.37l-2.15.91a61.47,61.47,0,0,1,15.41-4.22l-2.39.32a65.16,65.16,0,0,1,17.2,0l-2.39-.32a63.76,63.76,0,0,1,15.8,4.34l-2.15-.91a60.91,60.91,0,0,1,8.17,4.26c4,2.49,10.08,1,12.31-3.23a9.19,9.19,0,0,0-3.23-12.31c-17.74-11-41.06-13.59-60.72-6.4-6,2.19-11.47,5.46-17.33,8l2.15-.9a29.6,29.6,0,0,1-6.85,2l2.39-.32a17.84,17.84,0,0,1-4,.06l2.39.32a14.29,14.29,0,0,1-3.52-.93l2.15.91a17.62,17.62,0,0,1-3.68-2.21l1.82,1.41c-3.67-2.92-6.67-6.49-10.48-9.27a27.27,27.27,0,0,0-15.77-4.75c-10.11-.06-19.55,4.23-29.16,6.71a143.27,143.27,0,0,1-16.56,3.23l2.39-.33a143.78,143.78,0,0,1-37.76,0l2.39.32a142.83,142.83,0,0,1-24-5.38,9.09,9.09,0,0,0-11.07,6.28,9.19,9.19,0,0,0,6.29,11.07Z" transform="translate(0.15 -0.02)"/>
    <path class="cls-1" d="M433.22,429.52H522.5c4.71,0,9.22-4.13,9-9a9.17,9.17,0,0,0-9-9H433.22c-4.71,0-9.22,4.14-9,9A9.15,9.15,0,0,0,433.22,429.52Z" transform="translate(0.15 -0.02)"/>
    <path class="cls-1" d="M457.13,465.32c17.79,11.38,42.53,10.39,60-1.13a54.79,54.79,0,0,0,14.08-13.46l-16.45-2.15c2.23,10.33,10,19.28,19.39,23.9s20.91,6.3,30.86,2.27a38.71,38.71,0,0,0,9.39-5.42c2.68-2.08,5.22-4.33,7.89-6.42l-1.82,1.41a27.62,27.62,0,0,1,6.17-3.76l-2.15.9a16.55,16.55,0,0,1,3.79-1l-2.39.32a14.75,14.75,0,0,1,3.87,0l-2.34-.36a16.88,16.88,0,0,1,4,1.12l-2.15-.91a25.84,25.84,0,0,1,5.51,3.35L593,462.57c6.81,5.33,12.09,12.42,19.62,16.87a26.75,26.75,0,0,0,15.84,3.93,34.79,34.79,0,0,0,11-3,49.41,49.41,0,0,0,7.18-4c5.11-3.31,9.94-7,15.56-9.4l-2.14.9a51.41,51.41,0,0,1,12.71-3.48l-2.39.32a53.78,53.78,0,0,1,14,0l-2.4-.32A52.29,52.29,0,0,1,695.05,468L692.9,467a50.09,50.09,0,0,1,7.86,4.25c3.93,2.62,10.13.9,12.31-3.23a9.2,9.2,0,0,0-3.23-12.31c-19.29-12.85-45.72-12.39-65,.17-4.86,3.17-9.5,6.8-14.87,9.08l2.15-.91a23.89,23.89,0,0,1-5.74,1.6l2.39-.32a19,19,0,0,1-4.52,0l2.39.32a19.22,19.22,0,0,1-4.52-1.26l2.15.9a28.22,28.22,0,0,1-6-3.63l1.82,1.41c-6-4.69-10.86-10.59-17-15.13a24.73,24.73,0,0,0-27.2-2.16c-5,2.59-9,6.72-13.36,10.13l1.82-1.41a29.37,29.37,0,0,1-6.19,3.75l2.15-.9a26.18,26.18,0,0,1-6.57,1.77l2.39-.32a29.8,29.8,0,0,1-7.43,0l2.39.32a32.81,32.81,0,0,1-8.41-2.31l2.15.91a33.43,33.43,0,0,1-7-4.1l1.82,1.41a30.16,30.16,0,0,1-5.27-5.26l1.41,1.82a26.56,26.56,0,0,1-3.28-5.62l.91,2.15a25.81,25.81,0,0,1-1.34-4.3c-.74-3.46-4.16-6-7.48-6.45a8.69,8.69,0,0,0-4.67.61,10,10,0,0,0-4.3,3.69l-.61.8,1.41-1.82a42.82,42.82,0,0,1-7.54,7.5l1.82-1.41a47.5,47.5,0,0,1-10.35,6l2.15-.91A51,51,0,0,1,490,455.29l2.39-.32a50.51,50.51,0,0,1-13,0l2.4.32a45.69,45.69,0,0,1-11.53-3.12l2.15.9a41.64,41.64,0,0,1-6.19-3.28A9.08,9.08,0,0,0,453.91,453a9.2,9.2,0,0,0,3.22,12.32Z" transform="translate(0.15 -0.02)"/>
    <path class="cls-1" d="M694.85,491.36a29.33,29.33,0,0,0-12.88-.48,40.33,40.33,0,0,0-10.41,3.57c-5.87,2.68-11.25,6.3-17.19,8.86l2.15-.91a38.58,38.58,0,0,1-9.94,2.72l2.39-.32a59.78,59.78,0,0,1-15-.3l2.39.33c-9.21-1.24-18.24-3.5-27.43-4.89q-15-2.25-30.07-3.15a526.12,526.12,0,0,0-57,.24c-10.69.54-21.37,1.24-32.05,2a9.6,9.6,0,0,0-6.39,2.64,9.14,9.14,0,0,0-2.63,6.36c.2,4.61,4,9.34,9,9,29.24-1.94,58.58-3.88,87.89-2.26,8.21.46,16.41,1.2,24.56,2.29l-2.39-.32c11.68,1.58,23.13,4.44,34.83,5.9a62.4,62.4,0,0,0,18-.31,51.74,51.74,0,0,0,15.37-5.63c4.66-2.43,9.13-5.22,14-7.27l-2.15.91a30.14,30.14,0,0,1,7.38-2.13l-2.39.32a19.92,19.92,0,0,1,5,0l-2.39-.33a19.82,19.82,0,0,1,2.54.56c4.53,1.29,10-1.58,11.07-6.29a9.17,9.17,0,0,0-6.28-11.07Z" transform="translate(0.15 -0.02)"/>
    <path class="cls-1" d="M431.58,562.26a49.57,49.57,0,0,1,6.27-3.24l-2.15.9a65.68,65.68,0,0,1,16.88-4.37l-2.4.32c12.68-1.65,25.62-1.06,38.36-1L531,555l84.63.15,48,.09c4.71,0,9.22-4.15,9-9a9.15,9.15,0,0,0-9-9L566.26,537c-31.91-.06-63.83-.26-95.74-.16-16.4,0-33.68,1.11-48,9.91-4,2.46-5.9,8.17-3.23,12.32s8,5.86,12.32,3.22Z" transform="translate(0.15 -0.02)"/>
    <path class="cls-1" d="M550,585.72a30.7,30.7,0,0,1,3.29-1.66l-2.15.91a34.23,34.23,0,0,1,8.54-2.28l-2.4.32a65.83,65.83,0,0,1,17,.43l-2.39-.32c8,1.08,15.92,2.6,23.94,3.6q11.54,1.42,23.17,1.79a268,268,0,0,0,48.76-3.1,253.46,253.46,0,0,0,26-5.37c4.56-1.19,7.77-6.49,6.29-11.07A9.17,9.17,0,0,0,689,562.69a257.23,257.23,0,0,1-30.25,6l2.4-.32a255.24,255.24,0,0,1-53,1.59c-5-.37-10.08-.91-15.1-1.58l2.39.32c-18-2.45-37.62-8.3-54.49,1.51-4.08,2.37-5.86,8.24-3.23,12.31A9.16,9.16,0,0,0,550,585.75Z" transform="translate(0.15 -0.02)"/>
  </g>
  <g id="sparkle-1">
    <g>
      <path class="cls-2" d="M4.42,284.28c7.06,1.14,14.4-1.64,19.75-6.38s8.89-11.27,11.1-18.07,3.22-13.92,4.21-21c2.65,10.87,5.38,21.92,11.08,31.55s14.9,17.82,26,19.54c-9.49-.84-18.57,5-24.17,12.74s-8.38,17-11.06,26.19c-.91-10.14-2-20.79-7.76-29.19A30.54,30.54,0,0,0,4.87,287" transform="translate(0.15 -0.02)"/>
      <path class="cls-3" d="M3.25,288.62A29.77,29.77,0,0,0,28.59,280c6.47-6.38,10.27-15,12.42-23.73A158.62,158.62,0,0,0,43.85,240H35.17c2.37,9.73,4.86,19.48,9.31,28.51a51.22,51.22,0,0,0,17.39,20.35,34.91,34.91,0,0,0,13.48,5.38l1.2-8.84c-8.14-.64-15.92,3-22,8.18-6.36,5.51-10.36,13.09-13.33,20.83-1.66,4.33-3,8.78-4.28,13.23l8.84,1.19c-.87-9.59-1.86-19.39-6.35-28.07a34.91,34.91,0,0,0-20.21-16.91,33,33,0,0,0-14.36-1.41c-2.33.3-4.62,1.85-4.5,4.5.1,2.18,2,4.82,4.5,4.5a29.33,29.33,0,0,1,5.54-.21,14.28,14.28,0,0,1,1.48.13c.21,0,.87.14-.1,0a2.53,2.53,0,0,1,.55.09c1,.16,1.94.37,2.9.62s1.78.53,2.65.84c.18.07,1.32.52.84.32s.07,0,.14.07l.84.39a33.75,33.75,0,0,1,4.91,3c.06.05.55.43.14.1s.16.14.26.23l1,.85A29.43,29.43,0,0,1,28.1,300c.29.32.57.65.85,1,.08.11.56.73.22.28l.1.13c.62.89,1.21,1.79,1.75,2.72a28.88,28.88,0,0,1,1.42,2.76l.25.57c-.32-.72,0-.07,0,.07.22.58.44,1.16.65,1.74a52.28,52.28,0,0,1,1.66,6c.25,1.16.46,2.34.66,3.51.09.56.17,1.12.25,1.68.14.89,0,.25,0,.06a9.41,9.41,0,0,0,.13,1.05c.3,2.44.53,4.89.75,7.34a4.51,4.51,0,0,0,8.84,1.2c1.08-3.69,2.16-7.37,3.45-11,.29-.82.59-1.63.9-2.44l.56-1.41.11-.26c-.16.39.17-.39.2-.46q1.13-2.56,2.49-5a43.49,43.49,0,0,1,3-4.7c.07-.1.57-.74.23-.32s.09-.1.13-.15c.25-.3.5-.6.76-.89.59-.69,1.22-1.35,1.87-2s1.13-1.08,1.73-1.59l.76-.63c-.4.31.11-.09.16-.13l.63-.45A29,29,0,0,1,67,296.12c.17-.08.35-.15.52-.24.62-.31-1,.36.16-.06.42-.16.83-.31,1.26-.45a21.84,21.84,0,0,1,2.75-.73l.56-.11c.1,0,.91-.12.33-.06s.07,0,.16,0c.25,0,.5-.05.76-.06a22.32,22.32,0,0,1,3.06,0c2.22.18,4.14-1.85,4.42-3.9s-1-4.58-3.23-4.94a30.16,30.16,0,0,1-5.6-1.46l-.69-.26c-.64-.23.65.3,0,0l-1.18-.55c-.9-.43-1.77-.91-2.63-1.42s-1.69-1.07-2.5-1.65l-.46-.34c-.55-.38.54.44,0,0s-.89-.71-1.32-1.08a45.37,45.37,0,0,1-4.18-4.14c-.64-.71-1.24-1.44-1.83-2.19.53.68-.17-.23-.33-.46-.34-.46-.67-.93-1-1.4a54.13,54.13,0,0,1-3.24-5.49c-.51-1-1-2-1.46-3-.25-.54-.49-1.08-.72-1.63,0,.09.22.53,0,.05s-.28-.69-.41-1c-.85-2.15-1.61-4.34-2.31-6.54-1.6-5.07-2.86-10.23-4.12-15.39a4.54,4.54,0,0,0-4.34-3.3c-1.8.08-4.07,1.32-4.34,3.3-.62,4.41-1.23,8.82-2.15,13.18q-.69,3.27-1.63,6.46a27.27,27.27,0,0,1-1,2.93c-.14.39-.28.78-.43,1.16l-.31.77c-.1.25-.21.5,0,.08a47.07,47.07,0,0,1-2.63,5.15q-.74,1.25-1.56,2.43l-.72,1c.46-.63-.42.5-.58.69a32.21,32.21,0,0,1-4.09,4c-.12.1-.68.48-.05,0l-.49.36c-.39.27-.79.54-1.19.79a22.48,22.48,0,0,1-2.48,1.4l-.73.34c-.35.17-.47.19-.05,0-.5.19-1,.39-1.52.56a25.48,25.48,0,0,1-3.12.8l-.6.1c-.71.14,1.06-.08-.2,0-.46,0-.93.07-1.4.08s-1.07,0-1.61,0H5.9c-.11,0-1.42-.18-.4,0-2.32-.35-5,.58-5.54,3.14-.49,2.14.65,5.17,3.14,5.54Z" transform="translate(0.15 -0.02)"/>
    </g>
  </g>
  <g id="sparkle-2">
    <g>
      <path class="cls-2" d="M274.05,611.2c7.06,1.14,14.4-1.64,19.75-6.38s8.88-11.27,11.1-18.06,3.22-13.93,4.21-21c2.65,10.87,5.38,21.92,11.08,31.56s14.9,17.82,26,19.53c-9.48-.84-18.56,5-24.16,12.75s-8.38,17-11.06,26.19c-.92-10.15-2-20.8-7.76-29.2a30.54,30.54,0,0,0-28.7-12.7" transform="translate(0.15 -0.02)"/>
      <path class="cls-3" d="M272.85,615.54a29.82,29.82,0,0,0,25.34-8.66c6.47-6.38,10.27-15,12.42-23.74a155.89,155.89,0,0,0,2.83-16.2h-8.67c2.37,9.73,4.86,19.48,9.31,28.51a51.22,51.22,0,0,0,17.39,20.35A34.7,34.7,0,0,0,345,621.18l1.19-8.84c-8.13-.64-15.91,2.95-22,8.19-6.36,5.5-10.36,13.08-13.33,20.82-1.67,4.33-3,8.78-4.28,13.23l8.84,1.2c-.87-9.59-1.87-19.4-6.36-28.08a34.89,34.89,0,0,0-20.24-16.91,33.08,33.08,0,0,0-14.35-1.41c-2.33.3-4.62,1.85-4.5,4.5.09,2.18,2,4.83,4.5,4.5a29.33,29.33,0,0,1,5.54-.21c.49,0,1,.09,1.48.13.21,0,.86.15-.1,0l.55.09a28.81,28.81,0,0,1,2.9.63c.89.24,1.78.52,2.65.84.18.06,1.32.52.84.32l.14.06.84.4a32.4,32.4,0,0,1,4.91,3c.06,0,.55.43.14.1s.16.14.26.22l1,.85a29.43,29.43,0,0,1,2.09,2.09c.29.33.57.65.85,1,.08.1.56.72.22.27s0,.07.09.14a32.37,32.37,0,0,1,1.76,2.72,28.75,28.75,0,0,1,1.42,2.76c.08.18.17.37.25.56-.32-.72,0-.07,0,.07.22.58.44,1.16.64,1.75a49.85,49.85,0,0,1,1.67,6c.25,1.17.46,2.34.66,3.52.09.55.17,1.11.25,1.67.14.9,0,.25,0,.06a7.35,7.35,0,0,0,.13,1c.3,2.44.53,4.89.75,7.35a4.51,4.51,0,0,0,8.84,1.19c1.08-3.68,2.16-7.37,3.45-11,.29-.82.59-1.63.9-2.44.18-.47.37-.94.56-1.41,0,0,.28-.68.11-.26l.2-.45q1.13-2.56,2.49-5a43.49,43.49,0,0,1,3-4.7c.07-.1.57-.74.23-.31l.13-.16.75-.89c.6-.69,1.23-1.35,1.88-2s1.13-1.08,1.73-1.59c.16-.13,1.08-.89.75-.63s.12-.09.17-.12l.63-.46a29,29,0,0,1,4.34-2.54c.17-.08.35-.15.52-.24.62-.31-1,.36.16-.06.42-.16.83-.31,1.25-.45a23.85,23.85,0,0,1,2.76-.73l.55-.1c.11,0,.92-.13.34-.06s.07,0,.16,0l.76-.06a22.18,22.18,0,0,1,3.05,0,4.45,4.45,0,0,0,4.42-3.9c.28-2-1-4.58-3.22-4.94a30.16,30.16,0,0,1-5.6-1.46l-.69-.26c-.64-.22.65.3,0,0-.4-.18-.79-.35-1.18-.54-.9-.44-1.77-.92-2.63-1.43s-1.69-1.07-2.5-1.65l-.46-.34c-.55-.38.54.44,0,0s-.89-.71-1.32-1.08a44,44,0,0,1-4.18-4.13c-.64-.72-1.25-1.45-1.84-2.2.54.68-.16-.23-.32-.46-.34-.46-.67-.92-1-1.4A54.13,54.13,0,0,1,322.3,592c-.51-1-1-2-1.46-3-.25-.54-.49-1.09-.72-1.63,0,.08.22.52,0,0l-.42-1c-.84-2.15-1.6-4.34-2.3-6.54-1.6-5.07-2.86-10.23-4.13-15.39a4.54,4.54,0,0,0-4.33-3.3c-1.81.08-4.07,1.32-4.34,3.3-.62,4.41-1.24,8.82-2.15,13.18q-.69,3.27-1.63,6.47a26.37,26.37,0,0,1-1,2.92l-.43,1.17c-.1.25-.21.51-.31.77s-.21.49,0,.07a47.21,47.21,0,0,1-2.63,5.16c-.49.82-1,1.63-1.56,2.42l-.72,1c.46-.63-.42.5-.58.69a32.21,32.21,0,0,1-4.09,4c-.12.1-.68.49,0,0l-.49.36c-.39.28-.79.54-1.19.79a26.28,26.28,0,0,1-2.48,1.4l-.74.35c-.34.16-.46.19,0,0-.5.2-1,.39-1.52.56a22.44,22.44,0,0,1-3.13.8l-.59.1c-.71.14,1.06-.07-.2,0-.47,0-.93.07-1.4.09s-1.07,0-1.61,0h-.6c-.11,0-1.42-.18-.4,0-2.32-.34-5,.58-5.54,3.15-.49,2.14.65,5.16,3.14,5.53Z" transform="translate(0.15 -0.02)"/>
    </g>
  </g>
  <g id="sparkle-3">
    <g>
      <path class="cls-2" d="M706.05,231.39c7.06,1.13,14.4-1.64,19.75-6.39s8.88-11.26,11.1-18.06,3.22-13.92,4.21-21c2.65,10.88,5.38,21.93,11.08,31.56s14.9,17.82,26,19.54c-9.48-.84-18.56,5-24.16,12.74s-8.38,17-11.06,26.19c-.92-10.14-2-20.79-7.76-29.19a30.54,30.54,0,0,0-28.7-12.7" transform="translate(0.15 -0.02)"/>
      <path class="cls-3" d="M704.85,235.73A29.78,29.78,0,0,0,730.19,227c6.47-6.38,10.27-15,12.42-23.73a155.89,155.89,0,0,0,2.83-16.2h-8.67c2.37,9.73,4.86,19.48,9.31,28.51A51.2,51.2,0,0,0,763.47,236,34.91,34.91,0,0,0,777,241.4l1.19-8.84c-8.13-.64-15.91,3-22,8.18-6.36,5.51-10.36,13.09-13.33,20.83-1.67,4.33-3,8.78-4.28,13.23l8.84,1.19c-.87-9.59-1.87-19.39-6.36-28.08A34.9,34.9,0,0,0,720.82,231a32.86,32.86,0,0,0-14.4-1.45c-2.33.3-4.62,1.85-4.5,4.5.09,2.17,2,4.82,4.5,4.5a29.33,29.33,0,0,1,5.54-.21,14.53,14.53,0,0,1,1.48.13c.21,0,.86.14-.1,0l.55.08c1,.17,1.94.38,2.9.63a27.44,27.44,0,0,1,2.65.84c.18.07,1.32.52.84.32s.07,0,.14.07l.84.39a32.4,32.4,0,0,1,4.91,3c.06.05.55.43.14.1s.16.14.26.23c.33.27.66.56,1,.85a29.43,29.43,0,0,1,2.09,2.09c.29.32.57.65.85,1,.08.11.56.73.22.27s0,.08.09.14c.63.89,1.22,1.79,1.76,2.72A28.88,28.88,0,0,1,734,254l.25.57c-.32-.72,0-.07,0,.07.22.58.44,1.15.64,1.74a49.85,49.85,0,0,1,1.67,6c.25,1.16.46,2.34.66,3.51.09.56.17,1.12.25,1.67.14.9,0,.25,0,.07a9.41,9.41,0,0,0,.13,1.05c.3,2.44.53,4.89.75,7.34a4.51,4.51,0,0,0,8.84,1.2c1.08-3.69,2.16-7.37,3.45-11,.29-.82.59-1.63.9-2.44.18-.47.37-.94.56-1.41,0,0,.28-.68.11-.26l.2-.46q1.13-2.56,2.49-5a43.49,43.49,0,0,1,3-4.7c.07-.1.57-.74.23-.32s.09-.1.13-.15l.75-.89c.6-.69,1.23-1.36,1.88-2s1.13-1.08,1.73-1.59c.16-.14,1.08-.9.75-.64s.12-.08.17-.12l.63-.45a29,29,0,0,1,4.34-2.54L769,243c.62-.31-1,.36.16-.06.42-.16.83-.31,1.25-.45a22,22,0,0,1,2.76-.73l.55-.11c.11,0,.92-.12.34-.06s.07,0,.16,0c.25,0,.5-.05.76-.06a22.18,22.18,0,0,1,3,0,4.47,4.47,0,0,0,4.42-3.9c.28-2-1-4.58-3.22-4.94a30.16,30.16,0,0,1-5.6-1.46L773,231c-.64-.22.65.31,0,0l-1.18-.55c-.9-.43-1.77-.91-2.63-1.42s-1.69-1.07-2.5-1.66l-.46-.33c-.55-.38.54.44,0,0s-.89-.71-1.32-1.08a43,43,0,0,1-4.18-4.14c-.64-.71-1.25-1.44-1.84-2.19.54.68-.16-.23-.32-.46-.34-.46-.67-.93-1-1.4a54.13,54.13,0,0,1-3.24-5.49c-.51-1-1-2-1.46-3-.25-.54-.49-1.08-.72-1.63,0,.09.22.53,0,.05l-.42-1c-.84-2.15-1.6-4.33-2.3-6.53-1.6-5.07-2.86-10.23-4.13-15.39a4.55,4.55,0,0,0-4.33-3.31c-1.81.08-4.07,1.32-4.34,3.31-.62,4.41-1.24,8.82-2.15,13.18-.46,2.17-1,4.33-1.63,6.46a27.27,27.27,0,0,1-1,2.93c-.14.39-.29.78-.43,1.16s-.21.52-.31.77-.21.5,0,.07a47.21,47.21,0,0,1-2.63,5.16q-.74,1.24-1.56,2.43l-.72,1c.46-.62-.42.51-.58.7a32.21,32.21,0,0,1-4.09,4c-.12.1-.68.48,0,0L721,223c-.39.27-.79.54-1.19.79a26.19,26.19,0,0,1-2.48,1.39l-.74.35c-.34.16-.46.19,0,0-.5.19-1,.39-1.52.56a26.11,26.11,0,0,1-3.13.8l-.59.1c-.71.14,1.06-.08-.2,0-.47,0-.93.07-1.4.08h-2.21c-.11,0-1.42-.18-.4,0-2.32-.35-5,.58-5.54,3.14-.49,2.14.65,5.16,3.14,5.54Z" transform="translate(0.15 -0.02)"/>
    </g>
  </g>
  <g id="sparkle-4">
    <g>
      <path class="cls-2" d="M564,50c7.06,1.14,14.4-1.64,19.75-6.38s8.89-11.27,11.1-18.07S598,11.59,599,4.51c2.65,10.87,5.38,21.92,11.08,31.56s14.9,17.81,26,19.53c-9.49-.84-18.57,5-24.17,12.75s-8.38,17-11.06,26.18c-.91-10.14-2-20.79-7.76-29.19a30.54,30.54,0,0,0-28.7-12.7" transform="translate(0.15 -0.02)"/>
      <path class="cls-3" d="M562.75,54.3a29.77,29.77,0,0,0,25.34-8.67c6.47-6.38,10.27-15,12.42-23.73a155.92,155.92,0,0,0,2.84-16.2h-8.68c2.38,9.73,4.86,19.48,9.31,28.51a51.13,51.13,0,0,0,17.44,20.35,34.65,34.65,0,0,0,13.47,5.38l1.2-8.84c-8.14-.64-15.92,3-22,8.19-6.36,5.5-10.36,13.08-13.33,20.82-1.66,4.33-3,8.78-4.28,13.23l8.84,1.19c-.87-9.58-1.86-19.39-6.35-28.07a34.91,34.91,0,0,0-20.25-16.91,33.13,33.13,0,0,0-14.36-1.41c-2.33.3-4.62,1.85-4.5,4.5.1,2.18,2,4.83,4.5,4.5a29.33,29.33,0,0,1,5.54-.21c.5,0,1,.09,1.48.13.21,0,.87.15-.1,0l.55.09a28.81,28.81,0,0,1,2.9.63c.89.24,1.78.52,2.65.84.18.06,1.32.52.84.32l.14.06c.28.13.57.26.84.4a31.15,31.15,0,0,1,4.91,3c.07,0,.55.43.14.09s.16.15.26.23l1,.85a29.43,29.43,0,0,1,2.09,2.09c.29.33.58.65.85,1,.09.1.56.72.22.27s0,.07.1.13c.62.89,1.21,1.79,1.75,2.73a30.11,30.11,0,0,1,1.42,2.76c.08.18.17.37.25.56-.32-.72,0-.07,0,.07.22.58.44,1.16.65,1.74a52.28,52.28,0,0,1,1.66,6c.25,1.17.47,2.34.66,3.52.09.55.17,1.11.25,1.67.14.9,0,.25,0,.06a7.35,7.35,0,0,0,.13,1c.3,2.44.53,4.89.75,7.34a4.51,4.51,0,0,0,8.84,1.2c1.08-3.68,2.16-7.37,3.45-11,.29-.82.59-1.63.9-2.44l.56-1.41.11-.26c-.16.39.17-.38.2-.45q1.13-2.57,2.49-5a45.08,45.08,0,0,1,3-4.7c.07-.1.57-.74.23-.31l.13-.16c.25-.3.5-.6.76-.89.59-.69,1.22-1.35,1.87-2S620,66,620.56,65.5c.16-.13,1.09-.89.76-.63l.16-.12.63-.46a29,29,0,0,1,4.34-2.54c.17-.08.35-.15.52-.24.63-.31-1,.36.16-.06.42-.16.83-.31,1.26-.45a23.69,23.69,0,0,1,2.75-.73l.56-.1c.1,0,.91-.13.33-.06s.08,0,.16,0c.25,0,.5,0,.76-.06a22.32,22.32,0,0,1,3.06,0c2.22.18,4.14-1.85,4.42-3.9s-1-4.58-3.23-4.94a30.16,30.16,0,0,1-5.6-1.46l-.69-.26c-.64-.22.65.3,0,0-.39-.18-.79-.35-1.18-.55-.9-.43-1.77-.91-2.62-1.42s-1.7-1.07-2.51-1.65l-.45-.34c-.56-.38.53.44,0,0s-.88-.71-1.31-1.08a43,43,0,0,1-4.19-4.13c-.64-.72-1.24-1.45-1.83-2.2.53.68-.17-.23-.33-.46-.34-.46-.67-.92-1-1.4a54.13,54.13,0,0,1-3.24-5.49c-.51-1-1-2-1.46-3-.25-.54-.49-1.09-.72-1.63,0,.08.22.52,0,0s-.28-.69-.41-1c-.85-2.15-1.61-4.34-2.31-6.54-1.6-5.07-2.86-10.23-4.12-15.39A4.54,4.54,0,0,0,599,0c-1.8.08-4.07,1.32-4.34,3.3-.62,4.41-1.23,8.82-2.15,13.18-.45,2.18-1,4.34-1.63,6.46a27.27,27.27,0,0,1-1,2.93c-.14.39-.28.78-.43,1.17s-.21.51-.31.77-.21.49,0,.07A48.3,48.3,0,0,1,586.54,33c-.49.82-1,1.63-1.56,2.42-.23.34-.48.67-.72,1,.46-.63-.42.5-.58.69a32.21,32.21,0,0,1-4.09,4c-.12.1-.68.49,0,0l-.49.36c-.39.27-.78.54-1.19.79a26.28,26.28,0,0,1-2.48,1.4l-.73.35c-.35.16-.47.18-.05,0-.5.2-1,.39-1.52.56a23.79,23.79,0,0,1-3.12.8l-.6.1c-.71.14,1.06-.08-.2,0-.46,0-.93.07-1.4.09s-1.07,0-1.6,0h-.61c-.11,0-1.42-.18-.4,0-2.32-.35-5,.58-5.54,3.15-.49,2.14.66,5.16,3.14,5.53Z" transform="translate(0.15 -0.02)"/>
    </g>
  </g>
  <g id="glitter-1">
    <g>
      <path class="cls-2" d="M21.16,624.52a5.68,5.68,0,0,0-5.52,3.87A5.93,5.93,0,1,0,20.88,624" transform="translate(0.15 -0.02)"/>
      <path class="cls-3" d="M21.16,623a7.21,7.21,0,0,0-7,5,7.43,7.43,0,1,0,6.69-5.51,1.5,1.5,0,0,0,0,3,4.75,4.75,0,0,1,4.64,2.73,4.48,4.48,0,1,1-8.56,1.21v-.24s.08-.31.13-.46c0,0,.16-.44.09-.28s.16-.31.21-.39a3.87,3.87,0,0,1,1-1.17,4,4,0,0,1,2.77-.93,1.5,1.5,0,0,0,0-3h0Z" transform="translate(0.15 -0.02)"/>
    </g>
    <g>
      <path class="cls-2" d="M490.27,79.93a8.83,8.83,0,0,0-5.5,16.16,10.41,10.41,0,0,0,11.77-.1,9.48,9.48,0,0,0,3.22-10.87,10.14,10.14,0,0,0-9.95-6" transform="translate(0.15 -0.02)"/>
      <path class="cls-3" d="M490.27,78.43a10.33,10.33,0,0,0-6,19.11,11.91,11.91,0,0,0,13.06-.25,11.06,11.06,0,0,0,4.09-11.84,11.56,11.56,0,0,0-11.65-7.87c-1.92.12-1.94,3.12,0,3a8.75,8.75,0,0,1,8.33,4.59,7.89,7.89,0,0,1-1.66,8.91,8.83,8.83,0,0,1-9.41,1.6,7.87,7.87,0,0,1-4.61-7.93c.41-3.81,4.19-6.46,7.87-6.32,1.93.07,1.92-2.93,0-3Z" transform="translate(0.15 -0.02)"/>
    </g>
    <g>
      <path class="cls-2" d="M770.29,388a9.51,9.51,0,0,0-5.88,17.4,11.13,11.13,0,0,0,12.6-.11,10.24,10.24,0,0,0,3.41-11.69,10.83,10.83,0,0,0-10.65-6.49" transform="translate(0.15 -0.02)"/>
      <path class="cls-3" d="M770.29,386.54a11,11,0,0,0-6.4,20.36,12.6,12.6,0,0,0,13.87-.27A11.83,11.83,0,0,0,782.17,394a12.28,12.28,0,0,0-12.37-8.38c-1.92.12-1.93,3.12,0,3a9.46,9.46,0,0,1,9,5,8.64,8.64,0,0,1-1.79,9.73,9.5,9.5,0,0,1-10.18,1.75,8.57,8.57,0,0,1-5.08-8.64c.44-4.15,4.52-7.07,8.53-6.92,1.93.07,1.93-2.93,0-3Z" transform="translate(0.15 -0.02)"/>
    </g>
  </g>
  <g id="glitter-2">
    <g>
      <path class="cls-2" d="M27.14,186.49a5.68,5.68,0,0,0-5.52,3.87A5.87,5.87,0,1,0,26.86,186" transform="translate(0.15 -0.02)"/>
      <path class="cls-3" d="M27.14,185a7.21,7.21,0,0,0-7,5,7.43,7.43,0,1,0,6.69-5.51,1.5,1.5,0,1,0,0,3,4.75,4.75,0,0,1,4.64,2.73,4.52,4.52,0,0,1-6,5.78,4.48,4.48,0,0,1-2.49-4.57v-.24s.08-.31.13-.46c0,0,.16-.44.09-.28s.16-.31.21-.39a3.87,3.87,0,0,1,1-1.17,4,4,0,0,1,2.78-.93,1.5,1.5,0,1,0,0-3Z" transform="translate(0.15 -0.02)"/>
    </g>
    <g>
      <path class="cls-2" d="M441.27,487.59a11.28,11.28,0,0,0-11,7.8,11.88,11.88,0,0,0,18.63,12.87,12.6,12.6,0,0,0,3.92-14,12.32,12.32,0,0,0-12.13-7.76" transform="translate(0.15 -0.02)"/>
      <path class="cls-3" d="M441.27,486.09a12.8,12.8,0,0,0-12.42,8.9,13.38,13.38,0,0,0,21,14.45,14.16,14.16,0,0,0,4.8-14.52,13.81,13.81,0,0,0-13.94-9.9c-1.92.13-1.93,3.13,0,3a10.9,10.9,0,0,1,10.45,6.13,11.06,11.06,0,0,1-1.91,11.79,10.38,10.38,0,0,1-17.9-8.32,9.76,9.76,0,0,1,9.92-8.51c1.93.07,1.93-2.93,0-3Z" transform="translate(0.15 -0.02)"/>
    </g>
  </g>
  <g id="glitter-3">
    <g>
      <path class="cls-2" d="M151.65,105c-6-.35-11.92,4-13.74,9.94a15.7,15.7,0,0,0,5.36,16.57,15,15,0,0,0,17.94-.16,16.25,16.25,0,0,0,4.91-17.84,15.39,15.39,0,0,0-15.18-9.9" transform="translate(0.15 -0.02)"/>
      <path class="cls-3" d="M151.65,103.55a15.68,15.68,0,0,0-15.18,11A17.19,17.19,0,0,0,142.66,133a16.51,16.51,0,0,0,19.46-.39,17.73,17.73,0,0,0,5.91-17.9,16.9,16.9,0,0,0-17.09-12.52c-1.91.13-1.93,3.13,0,3a14,14,0,0,1,13.48,8.09,14.77,14.77,0,0,1-2.49,15.37,13.44,13.44,0,0,1-15.52,3,14,14,0,0,1-7.54-13.88,12.67,12.67,0,0,1,12.79-11.29c1.93.08,1.92-2.92,0-3Z" transform="translate(0.15 -0.02)"/>
    </g>
    <g>
      <path class="cls-2" d="M767.33,630.81a8.51,8.51,0,0,0-8.3,5.87,9,9,0,0,0,14.09,9.69,9.47,9.47,0,0,0,3-10.54A9.31,9.31,0,0,0,767,630" transform="translate(0.15 -0.02)"/>
      <path class="cls-3" d="M767.33,629.31a10,10,0,0,0-9.74,7A10.47,10.47,0,0,0,774,647.58a11,11,0,0,0,3.76-11.32,10.78,10.78,0,0,0-10.87-7.74c-1.92.13-1.93,3.13,0,3a7.69,7.69,0,1,1-6.71,6.86,7,7,0,0,1,7.13-6c1.93.07,1.93-2.93,0-3Z" transform="translate(0.15 -0.02)"/>
    </g>
  </g>
</svg>
