<svg id="Camada_1" data-name="Camada 1" xmlns="http://www.w3.org/2000/svg" viewBox="0 0 789.95 726.94">
  <defs>
    <style>
      .cls-1 {
        fill: #4b3a68;
      }
    </style>
  </defs>
  <path class="cls-1" d="M366.24,536c-1.3-1.65,1.64,2.18-.12-.15l-1.28-1.74q-1.59-2.17-3.07-4.42-2.77-4.15-5.21-8.5c-1.57-2.78-3-5.61-4.41-8.49-.71-1.49-1.39-3-2-4.51-.14-.32-.27-.65-.42-1-.05-.1,1,2.47.53,1.24-.35-.88-.72-1.75-1.06-2.63A183.42,183.42,0,0,1,339,467.49c-.13-.83-.26-1.67-.38-2.51s-.49-3.76,0,0c-.21-1.69-.43-3.37-.61-5.06q-.57-5.08-.94-10.2c-.5-6.74-.75-13.49-.81-20.25-.13-13.69.51-27.38,1.56-41,1.19-15.29,2.83-30.55,4.62-45.78q1.46-12.36,3.1-24.69c.19-1.39-.13.95-.13,1,.07-.44.12-.89.18-1.33l.42-3.08c.28-2,.57-4.11.86-6.16q.88-6.17,1.8-12.31,7.33-48.78,17.74-97t23.84-95.71q1.69-6,3.44-12H370.55q17.9,49.59,31.27,100.64t22,103.07Q426,308,427.83,321q.44,3,.85,6.06c.09.7.58,4.58.16,1.15.14,1.16.31,2.31.46,3.47.56,4.34,1.11,8.68,1.62,13,2,17.06,3.79,34.18,4.32,51.36.26,8.67.21,17.35-.3,26q-.36,6.36-1.09,12.68a19.17,19.17,0,0,1-.35,2.95c.08-.28.4-2.86.08-.67l-.18,1.25c-.33,2.24-.7,4.46-1.11,6.68a166.08,166.08,0,0,1-6.18,23.85q-.83,2.38-1.74,4.74c-.28.74-.58,1.47-.87,2.2-.13.32-.27.63-.39.94,1.26-3.23.6-1.42.28-.69q-2,4.67-4.42,9.17a136.71,136.71,0,0,1-11.06,17.46c-1.22,1.65,1.79-2.25,0,0-.49.62-1,1.23-1.48,1.84q-1.71,2.08-3.51,4.08-3.36,3.75-7,7.17c-1.14,1.07-2.3,2.1-3.48,3.11-.59.51-1.19,1-1.79,1.5l-1,.83c-1.5,1.19-.11,0,.59-.45-2.79,1.76-5.35,3.87-8.18,5.6a93.27,93.27,0,0,1-8.68,4.71l-2.1,1c-2.6,1.15,2-.8.13-.05-1.64.64-3.29,1.26-5,1.82a86.85,86.85,0,0,1-9.65,2.58c-6.15,1.29-10.29,8.87-8.38,14.76,2.11,6.51,8.17,9.76,14.76,8.39,29.52-6.16,53.92-26.61,70.18-51.37,18.34-27.92,25.14-61.54,26-94.52.45-17.55-.76-35.09-2.55-52.54-1.91-18.55-4.33-37.06-7.12-55.5q-8-53-20.9-105.08T398.08,97.34q-2.16-6.2-4.39-12.37c-1.74-4.83-6.05-9.06-11.57-8.81A12.38,12.38,0,0,0,370.55,85q-14,48-24.9,96.82T327,280c-5.22,33.29-9.54,66.78-12.52,100.36-2.43,27.48-3.53,55.32-.1,82.77,3.52,28.15,11.31,56.11,27.45,79.8,2.34,3.43,4.86,6.72,7.43,10,1.77,2.25,5.77,3.52,8.48,3.52a12.21,12.21,0,0,0,8.49-3.52,12,12,0,0,0,3.51-8.48,14,14,0,0,0-3.51-8.49Z" transform="translate(0.36 -1.67)"/>
  <path class="cls-1" d="M368.87,541.73a71,71,0,0,0-11.22-27.1A99.83,99.83,0,0,0,335.2,491.4c-17.09-13.09-38-20.06-58.93-24.16-13.47-2.63-27.11-4.25-40.7-6.07l3.19.43a543.22,543.22,0,0,1-108.63-25.86q-14.86-5.25-29.39-11.39l2.87,1.21a526.42,526.42,0,0,1-59.89-29.89q-8.25-4.8-16.32-9.91c-6.56-4.13-15.68-.11-17.63,7.18-8.39,31.38-2.94,64.71,11.3,93.52,13.77,27.83,36.54,50.36,62.42,67.1s55.33,28,85.26,34.57a299.1,299.1,0,0,0,95.05,5.41,303.58,303.58,0,0,0,94-25.4c3.53-1.6,7-3.29,10.51-5,5.61-2.84,7.67-11.2,4.3-16.42-3.7-5.73-10.41-7.34-16.42-4.3q-8.58,4.33-17.45,8.08l2.87-1.21a285.44,285.44,0,0,1-56.24,17q-8.29,1.61-16.68,2.72l3.19-.43a292.11,292.11,0,0,1-60.21,1.77q-8.58-.63-17.1-1.78l3.19.42A276.33,276.33,0,0,1,128,550.1l2.86,1.21a218.89,218.89,0,0,1-48.69-28l2.43,1.87a168.34,168.34,0,0,1-29.93-29.71l1.88,2.43a141.75,141.75,0,0,1-18.18-31.14l1.21,2.87a132.2,132.2,0,0,1-9.14-33l.42,3.19a115.52,115.52,0,0,1-.09-30.69l-.43,3.19a107.76,107.76,0,0,1,2.62-13l-17.63,7.17a543.92,543.92,0,0,0,85.8,43.79,527.56,527.56,0,0,0,89.73,27.43c18.32,3.85,36.8,6.38,55.34,8.87l-3.19-.43c20.42,2.74,41.09,5.89,60.21,14l-2.87-1.21a106.26,106.26,0,0,1,22.79,13.23l-2.43-1.88a86.93,86.93,0,0,1,15.68,15.52l-1.88-2.43a69.59,69.59,0,0,1,8.71,14.85L342,535.31a60.26,60.26,0,0,1,3.76,12.8c.5,2.81,3.15,5.79,5.52,7.18a12.3,12.3,0,0,0,9.25,1.21,12.15,12.15,0,0,0,7.17-5.52,13.62,13.62,0,0,0,1.21-9.25Z" transform="translate(0.36 -1.67)"/>
  <path class="cls-1" d="M368.37,560.21a103.72,103.72,0,0,1,6.94-12.45q1.77-2.71,3.7-5.31c.24-.33,1.48-1.94.12-.19s-.11.15.15-.17c.85-1.07,1.72-2.12,2.61-3.16a114.29,114.29,0,0,1,9.38-9.68q2.39-2.19,4.88-4.25c.9-.74,1.8-1.56,2.76-2.22,0,0-2.51,1.91-1,.8l1.9-1.42a149.53,149.53,0,0,1,23.66-14c2-1,4-1.86,6.07-2.76s-2.8,1.15-.63.27l1.69-.7c1.23-.49,2.46-1,3.7-1.43Q441,501,447.9,498.94A212.3,212.3,0,0,1,479,492.37l-3.19.42c46.61-6.21,93.64,1.14,140.32,2.41,40.16,1.1,81-3.14,117.73-20.32,19-8.86,36.52-21.78,49.53-38.29l-20.06-5.29q1.13,4.88,1.8,9.84l-.43-3.19a112,112,0,0,1-.14,29.15l.43-3.19a124.86,124.86,0,0,1-4.24,19.22q-1.47,4.81-3.32,9.49c-.29.73-.55,1.48-.88,2.18.06-.13,1.21-2.81.42-1l-.4.93c-.68,1.53-1.39,3.06-2.13,4.57a132.94,132.94,0,0,1-10,17.11c-.95,1.39-1.93,2.75-2.93,4.1l-.61.8c-.89,1.21,1.59-2,.65-.83l-1.67,2.1c-2.05,2.51-4.2,4.95-6.42,7.32a151.28,151.28,0,0,1-14.72,13.69L716.87,545c-2.08,1.65,1.64-1.23,0,0-1.34,1-2.68,2-4,3q-4,2.82-8.09,5.41a180.9,180.9,0,0,1-17.67,9.77q-2.13,1-4.28,2l-2.16,1c-.56.25-3.26,1.4-1.36.59s-.61.25-1.07.43c-.73.3-1.46.59-2.2.87-1.68.66-3.36,1.29-5.06,1.9a230.11,230.11,0,0,1-46.86,11.26l3.19-.43c-27.45,3.67-55.28,3.13-82.8.49q-11.6-1.11-23.16-2.68l3.19.43a632.25,632.25,0,0,1-117.24-27.41Q391,546.08,375,539.69c-2.71-1.08-6.84-.2-9.25,1.21a12,12,0,0,0-4.3,16.41,13.86,13.86,0,0,0,7.17,5.52,633.1,633.1,0,0,0,103.28,31.31c36,7.62,73.06,12.78,109.91,13.22,35.25.42,71.3-4.06,104.08-17.57,30.9-12.73,58.6-32.18,78.11-59.62,18.48-26,28.74-59.64,24.77-91.56a134.82,134.82,0,0,0-2.3-13.69,12,12,0,0,0-8.39-8.38c-3.75-1-9.11-.17-11.67,3.08a117.53,117.53,0,0,1-16.19,16.81c-1.38,1.18-2.78,2.39-4.25,3.46.06,0,2.48-1.88,1-.76l-1,.73c-.9.66-1.81,1.32-2.73,2q-4.63,3.24-9.52,6.08-5.06,2.94-10.31,5.47c-1.67.8-3.36,1.58-5,2.32l-1.42.62c-1.46.63,3-1.23.86-.37l-2.88,1.16a192.36,192.36,0,0,1-22.35,7.15,237.05,237.05,0,0,1-26.41,5.08l3.19-.43c-49.68,6.64-99.62-2-149.4-2.46-43.76-.39-89.08,6.52-126.38,30.94-19.29,12.63-36,29.71-45.89,50.72-1.41,3-2.12,6-1.21,9.25a12.23,12.23,0,0,0,5.51,7.17c5.33,2.81,13.56,1.75,16.42-4.31Z" transform="translate(0.36 -1.67)"/>
  <path class="cls-1" d="M453.13,299.53q5.43-15.78,11.91-31.17l-1.21,2.87a494.53,494.53,0,0,1,47.36-86.71q7.94-11.6,16.53-22.73l-1.88,2.43q8.05-10.42,16.66-20.41l-20.06-5.29a341.79,341.79,0,0,1,8.89,44l-.43-3.19A357.45,357.45,0,0,1,533,253.62q-.79,10.56-2.2,21.06l.43-3.19a373,373,0,0,1-18,74.6q-3.66,10.35-7.94,20.47l1.21-2.86a359.28,359.28,0,0,1-34,62.51q-5.67,8.31-11.82,16.27l1.88-2.43q-9.76,12.61-20.65,24.28c-4.29,4.59-4.89,12.49,0,17,4.65,4.27,12.39,4.89,17,0a359.55,359.55,0,0,0,44.52-58.78A379.06,379.06,0,0,0,535,356.16a371.68,371.68,0,0,0,18-69,380.87,380.87,0,0,0,4.82-73.5,361.7,361.7,0,0,0-10-72.93c-.7-2.88-1.45-5.75-2.23-8.61a12.07,12.07,0,0,0-8.38-8.39c-3.89-1.07-8.94-.08-11.67,3.09a514,514,0,0,0-45,60.73A493.52,493.52,0,0,0,446,252.39c-5.88,13.37-11.27,26.95-16,40.76a12,12,0,0,0,8.39,14.76c6.67,1.52,12.57-2,14.76-8.38Z" transform="translate(0.36 -1.67)"/>
  <path class="cls-1" d="M460.6,477.12q3.16-9.42,7-18.59l-1.21,2.87a267.67,267.67,0,0,1,25.73-47q4.31-6.27,9-12.31l-1.87,2.43a268.38,268.38,0,0,1,36.35-38.54q5.65-4.92,11.61-9.51l-2.43,1.87c24.32-18.75,51.84-32.56,78.64-47.34,25.42-14,50.52-29.4,71.34-49.85a155.92,155.92,0,0,0,29.15-38.49L702,219.75q1.15,6.17,2,12.37l-.43-3.19A244.52,244.52,0,0,1,705,279.88q-.56,7.17-1.52,14.31l.43-3.19a246,246,0,0,1-11.72,48.66q-2.38,6.78-5.19,13.42l1.21-2.87a238.57,238.57,0,0,1-23.16,42.3q-3.76,5.49-7.83,10.75l1.88-2.43a247.06,247.06,0,0,1-33.48,35.48q-5.26,4.56-10.77,8.83l2.43-1.88a242.51,242.51,0,0,1-43.81,27c-2.58,1.23-4.78,4.5-5.51,7.17a12.25,12.25,0,0,0,1.21,9.25,12.12,12.12,0,0,0,7.17,5.51l3.19.43a12,12,0,0,0,6.06-1.64,254.39,254.39,0,0,0,52.08-33.53,258,258,0,0,0,42.41-44.88,249.89,249.89,0,0,0,31.13-55.67,257,257,0,0,0,15.27-135.51q-.63-4-1.38-8l-1.21-2.87L722,208.07a11.91,11.91,0,0,0-6.9-3.3c-4.53-.61-9.73,1.49-12,5.73a134.67,134.67,0,0,1-12.6,19.62l1.88-2.43a184.11,184.11,0,0,1-33.1,32.43l2.43-1.88c-16.26,12.56-34,22.94-52,32.82-19.36,10.64-39,20.78-57.6,32.76A278.51,278.51,0,0,0,466.3,410,279,279,0,0,0,439.84,464c-.83,2.25-1.62,4.52-2.38,6.79a12,12,0,1,0,23.14,6.38Z" transform="translate(0.36 -1.67)"/>
  <path class="cls-1" d="M197.8,443a164,164,0,0,1-18.63-12.48l2.43,1.88a174.72,174.72,0,0,1-31-31.17l1.87,2.43a185.52,185.52,0,0,1-19.59-31.47q-2.35-4.8-4.43-9.73l1.21,2.86a183.9,183.9,0,0,1-11-36.13q-1-5.24-1.73-10.53l.42,3.19a169.71,169.71,0,0,1-.06-44.69l-.43,3.19c.59-4.34,1.11-8.86,2.8-12.93l-1.21,2.86a16.14,16.14,0,0,1,1.69-3l-1.88,2.43a11.21,11.21,0,0,1,1.87-1.9l-2.43,1.87a10.05,10.05,0,0,1,1.76-1l-2.87,1.21a9.4,9.4,0,0,1,2.28-.63l-3.19.43a10.09,10.09,0,0,1,2.33,0l-3.19-.43a13.22,13.22,0,0,1,3,.83l-2.87-1.21a15.92,15.92,0,0,1,3,1.81l-2.43-1.88a16.68,16.68,0,0,1,2.79,2.78l-1.87-2.43a20.85,20.85,0,0,1,2.52,4.49l-1.21-2.87a77.34,77.34,0,0,1,3,10.47A71.29,71.29,0,0,0,125,293.08a67.83,67.83,0,0,0,12.53,18.08c10,10.66,22.76,18.37,35.93,24.4,8.83,4,17.87,7.57,26.81,11.33l-2.86-1.21a203,203,0,0,1,21.93,10.6A155.82,155.82,0,0,1,237,368.15l-2.43-1.88a167.35,167.35,0,0,1,29.81,29.89l-1.88-2.43a172.46,172.46,0,0,1,22.27,38.09L283.58,429a164.88,164.88,0,0,1,11.47,41.75l-.42-3.19a155.4,155.4,0,0,1,1.37,20,12.43,12.43,0,0,0,3.52,8.49A12.15,12.15,0,0,0,308,499.5c6.48-.29,12-5.27,12-12a171.11,171.11,0,0,0-5.76-43,182.61,182.61,0,0,0-16.16-40.19,184.55,184.55,0,0,0-25.17-35.24,176,176,0,0,0-32.81-28.14c-13.55-9-28.48-15.14-43.47-21.32l-5.74-2.38,2.87,1.21c-11.37-4.81-22.59-10.13-32.41-17.7l2.43,1.87a74.86,74.86,0,0,1-13.4-13.22l1.88,2.43a55.42,55.42,0,0,1-7.09-12.07l1.21,2.87c-2-4.74-2.84-9.74-4.29-14.63a40.8,40.8,0,0,0-4-9.51,29.18,29.18,0,0,0-8.39-8.75,20.74,20.74,0,0,0-8.24-3.58,21.32,21.32,0,0,0-5.85-.49,22.33,22.33,0,0,0-8.49,2.34c-6.29,3.08-10.1,9.86-11.8,16.39a116.49,116.49,0,0,0-2.51,16c-.5,4.38-.81,8.77-1,13.17a171.25,171.25,0,0,0,1.2,26.5,202.3,202.3,0,0,0,5.54,28.89,206.23,206.23,0,0,0,10,27.62,194.74,194.74,0,0,0,29.58,47.27,180.57,180.57,0,0,0,42,36.53c1.85,1.15,3.71,2.27,5.6,3.36a12.53,12.53,0,0,0,9.25,1.21,12.25,12.25,0,0,0,7.17-5.52,12.12,12.12,0,0,0,1.21-9.25A12.49,12.49,0,0,0,197.8,443Z" transform="translate(0.36 -1.67)"/>
  <path class="cls-1" d="M235.2,343.11q-.31-40,1.14-79.95t4.7-79.82q1.83-22.53,4.22-45L222.9,144.4l32.9,58.27c10.8,19.13,21.69,38.22,32.4,57.4a316.88,316.88,0,0,1,15.29,30.36l-1.21-2.86a127.14,127.14,0,0,1,9.2,31.77l-.43-3.19a90.51,90.51,0,0,1,.78,14.53,12,12,0,0,0,24,0c.81-28.46-11.62-55-25.06-79.38-14-25.45-28.55-50.65-42.84-76l-24.31-43.05c-2.51-4.45-8.59-7.13-13.55-5.52a14.31,14.31,0,0,0-5.3,3.09c-2.44,2.24-3.18,5.36-3.51,8.48Q217,178.11,214.56,218t-3.15,79.89q-.39,22.6-.21,45.2a12.39,12.39,0,0,0,3.51,8.48,12.19,12.19,0,0,0,8.49,3.52c6.46-.29,12.05-5.27,12-12Z" transform="translate(0.36 -1.67)"/>
  <path class="cls-1" d="M360.79,556.25c-2.11,1.7-4.24,3.39-6.39,5l2.43-1.88a375.61,375.61,0,0,1-64.47,40q-9.56,4.68-19.36,8.81l2.87-1.21a388.81,388.81,0,0,1-76.49,23.35q-11.1,2.16-22.32,3.68l3.19-.43a377.63,377.63,0,0,1-65,3.13q-9.27-.37-18.52-1.2c-2.9-.26-6.5,1.52-8.48,3.51a12,12,0,0,0,0,17,13.51,13.51,0,0,0,8.48,3.52,372.53,372.53,0,0,0,57.18.7A405.75,405.75,0,0,0,213.3,652a388.25,388.25,0,0,0,54.87-16.17,406.06,406.06,0,0,0,54.34-25.07,392.2,392.2,0,0,0,49.75-33.16q2.78-2.16,5.5-4.36c2.24-1.82,3.51-5.74,3.51-8.49a12,12,0,0,0-12-12l-3.19.43a12,12,0,0,0-5.29,3.09Z" transform="translate(0.36 -1.67)"/>
  <path class="cls-1" d="M366.81,570.15a56.36,56.36,0,0,0,1.57,9.41,58.74,58.74,0,0,0,3.36,8.79,58,58,0,0,0,9,13.49c6.92,8,16.13,14.22,25.77,18.54,10.53,4.73,21.49,8,32.63,10.87s22.24,5.52,33.46,7.88c23.18,4.89,46.6,8.59,70.14,11.28q34.15,3.89,68.57,4.53,34.21.63,68.39-2,4.29-.33,8.56-.72c3.24-.28,6.12-1.14,8.49-3.51a12,12,0,0,0,0-17c-2.23-2-5.35-3.79-8.49-3.52q-31.14,2.78-62.43,2.83-31.11,0-62.15-2.58-17.58-1.49-35.05-3.83l3.19.43a716.51,716.51,0,0,1-91.08-18.25,178.26,178.26,0,0,1-23-7.51l2.87,1.21a78,78,0,0,1-17-9.68l2.42,1.88A57.3,57.3,0,0,1,396,582.66l1.88,2.43A47,47,0,0,1,391.91,575l1.2,2.87a39.81,39.81,0,0,1-2.57-9.46l.43,3.19c-.06-.46-.11-.93-.16-1.4-.32-3.26-1.12-6.1-3.51-8.49a12,12,0,0,0-17,0c-2,2.22-3.82,5.37-3.52,8.49Z" transform="translate(0.36 -1.67)"/>
  <path class="cls-1" d="M364.3,562.74q-2.12,6.36-4.71,12.54l1.21-2.87a181,181,0,0,1-17.5,31.93q-3,4.32-6.16,8.46l1.87-2.43a194.59,194.59,0,0,1-26.7,28.19c-2.78,2.41-5.64,4.74-8.55,7l2.43-1.88a198.52,198.52,0,0,1-33.44,20.85q-5,2.46-10.2,4.65l2.87-1.21a186,186,0,0,1-36,11c-3.49.69-7,1.26-10.51,1.74l3.19-.42a176.88,176.88,0,0,1-17.66,1.46,12.54,12.54,0,0,0-8.49,3.52,12,12,0,0,0,8.49,20.48,190.22,190.22,0,0,0,46.79-7.39A205,205,0,0,0,294.78,680a211.86,211.86,0,0,0,38.29-27.83,206.33,206.33,0,0,0,31-35.72,190.54,190.54,0,0,0,21.55-42c.65-1.76,1.27-3.52,1.86-5.3a12,12,0,0,0-23.14-6.38Z" transform="translate(0.36 -1.67)"/>
  <path class="cls-1" d="M356.48,597.26a188.12,188.12,0,0,0,21.16,40A191.26,191.26,0,0,0,407.54,671a185.69,185.69,0,0,0,38.21,26.18,189.61,189.61,0,0,0,95.47,20.63q2.92-.16,5.83-.41c3.24-.28,6.12-1.15,8.49-3.52a12,12,0,0,0,0-17c-2.23-2-5.35-3.78-8.49-3.51a176.49,176.49,0,0,1-38.44-.92l3.19.43a180.12,180.12,0,0,1-45.41-12.37l2.86,1.21a174.7,174.7,0,0,1-38.48-22.43l2.43,1.87a179,179,0,0,1-32-32.06l1.88,2.43a177.57,177.57,0,0,1-22.86-39.13l1.21,2.86c-.61-1.45-1.2-2.92-1.78-4.39-1.17-3-2.63-5.49-5.51-7.17a12,12,0,0,0-16.42,4.3c-1.42,2.69-2.36,6.29-1.21,9.25Z" transform="translate(0.36 -1.67)"/>
  <path class="cls-1" d="M355.55,606.56q.7,3.54,1.18,7.11l-.42-3.19a118.49,118.49,0,0,1-.1,31l.42-3.19a124.19,124.19,0,0,1-8.6,31.36l1.21-2.87a122,122,0,0,1-15.58,26.79l1.87-2.43a114.39,114.39,0,0,1-16.14,17c-2.23,1.91-3.52,5.65-3.52,8.49a12,12,0,0,0,12,12,13.39,13.39,0,0,0,8.49-3.52A128,128,0,0,0,355,704.9a121.2,121.2,0,0,0,12.84-21.19,137.79,137.79,0,0,0,13.37-53,128.16,128.16,0,0,0-2.47-30.52c-.56-2.82-3.1-5.75-5.52-7.17a12.28,12.28,0,0,0-9.24-1.21,12.14,12.14,0,0,0-7.18,5.52,13.32,13.32,0,0,0-1.21,9.24Z" transform="translate(0.36 -1.67)"/>
  <path class="cls-1" d="M311.38,326.11l-1.88,54.72-1.88,54.71-1.06,31a12,12,0,0,0,24,0l1.88-54.71,1.88-54.72,1.06-31a12,12,0,0,0-24,0Z" transform="translate(0.36 -1.67)"/>
  <path class="cls-1" d="M176.26,462.89q23.69,9.9,48.21,17.64t49.39,13.12q14.16,3.08,28.46,5.42a9,9,0,0,0,4.78.22,8.85,8.85,0,0,0,4.46-1.43,12,12,0,0,0,4.31-16.41c-1.59-2.47-4.15-5-7.17-5.52q-25.35-4.17-50.23-10.62t-48.83-15.07q-13.63-4.9-27-10.49c-2.66-1.12-6.88-.18-9.25,1.2a12.24,12.24,0,0,0-5.51,7.18,12.12,12.12,0,0,0,1.21,9.24L171,459.8a12,12,0,0,0,5.3,3.09Z" transform="translate(0.36 -1.67)"/>
  <path class="cls-1" d="M275,68.62c-10.94,2.45-13.71,15-13.89,24.59-.18,9.26,4.45,18.3,13.12,22.2a23.33,23.33,0,0,0,6,2,26.42,26.42,0,0,0,8.87,0A25.82,25.82,0,0,0,301,111.56a27.38,27.38,0,0,0,4.58-36.43A27.36,27.36,0,0,0,295,66c-2.28-1-4.43-1.6-6.93-.91a9.19,9.19,0,0,0-5.38,4.14,9,9,0,0,0-.91,6.93c.67,2.09,2,4.45,4.14,5.38a19.53,19.53,0,0,1,3.79,2.23l-1.82-1.41A20.45,20.45,0,0,1,291.46,86l-1.41-1.82a20.22,20.22,0,0,1,2.38,4.13l-.91-2.15a19.66,19.66,0,0,1,1.2,4.45l-.32-2.39a21.09,21.09,0,0,1,0,4.83l.32-2.39a20.63,20.63,0,0,1-1.36,5l.91-2.15a20.07,20.07,0,0,1-2.2,3.81l1.4-1.82a19.29,19.29,0,0,1-3.2,3.25l1.82-1.41a19.09,19.09,0,0,1-3.92,2.32l2.15-.91A17.79,17.79,0,0,1,284,100l2.4-.32a16,16,0,0,1-3.72,0L285,100A16,16,0,0,1,281.19,99l2.15.9a16.32,16.32,0,0,1-3.14-1.81L282,99.46a15.83,15.83,0,0,1-2.59-2.52l1.41,1.82a14.17,14.17,0,0,1-1.82-3.1l.91,2.15a16.78,16.78,0,0,1-1-3.87l.32,2.4a32,32,0,0,1,.24-7.63l-.32,2.4a26.86,26.86,0,0,1,1.5-6.52l-.9,2.15A11.77,11.77,0,0,1,281,84.67l-1.41,1.82a9.84,9.84,0,0,1,1.56-1.6L279.3,86.3a8.42,8.42,0,0,1,1.59-.92l-2.15.91A8.48,8.48,0,0,1,279.8,86c4.6-1,7.74-6.61,6.29-11.08A9.2,9.2,0,0,0,275,68.62Z" transform="translate(0.36 -1.67)"/>
  <path class="cls-1" d="M422,4.89a21.51,21.51,0,0,0-14.57,6.05,22.08,22.08,0,0,0-6.57,14.25,21.65,21.65,0,0,0,3.72,13.51,24.23,24.23,0,0,0,12.68,9.61,24.51,24.51,0,0,0,14.94-.23,26.59,26.59,0,0,0,13.17-9.89A24.13,24.13,0,0,0,449.7,24.1a24.15,24.15,0,0,0-5.95-15.18,21.37,21.37,0,0,0-15.49-7.24,21.08,21.08,0,0,0-15.85,6.47c-3.19,3.46-3.68,9.35,0,12.73,3.48,3.19,9.32,3.69,12.73,0a12.75,12.75,0,0,1,1.58-1.45l-1.82,1.41a13.37,13.37,0,0,1,2.47-1.41l-2.15.91a13.85,13.85,0,0,1,3.1-.86l-2.39.32a14.3,14.3,0,0,1,3.58,0l-2.39-.32a13.36,13.36,0,0,1,3.1.87l-2.15-.91a13.54,13.54,0,0,1,2.52,1.48l-1.82-1.41a14.65,14.65,0,0,1,2.59,2.57L430,20.25a16.21,16.21,0,0,1,1.85,3.17l-.91-2.15a15.67,15.67,0,0,1,1,3.54l-.32-2.39a15.5,15.5,0,0,1,0,3.79l.32-2.39a17,17,0,0,1-1.11,4.08l.91-2.15a18.76,18.76,0,0,1-2.15,3.67L431,27.6a18.12,18.12,0,0,1-3,3l1.82-1.41a17.72,17.72,0,0,1-3.66,2.1l2.15-.91a18.46,18.46,0,0,1-4.07,1.12l2.4-.32a17.56,17.56,0,0,1-4.58,0l2.39.33a16.07,16.07,0,0,1-3.66-1l2.15.91a14.93,14.93,0,0,1-2.82-1.64l1.82,1.41a15.73,15.73,0,0,1-2.8-2.79l1.41,1.83a16.4,16.4,0,0,1-1.83-3.1l.91,2.15a15,15,0,0,1-1-3.78l.32,2.39a13.79,13.79,0,0,1,0-3.21L418.56,27a12.86,12.86,0,0,1,.86-3l-.91,2.15a14.72,14.72,0,0,1,1.61-2.73l-1.41,1.82a15,15,0,0,1,2.48-2.49l-1.82,1.41a14.23,14.23,0,0,1,2.72-1.59l-2.15.91a12.52,12.52,0,0,1,3-.83l-2.4.32a13.14,13.14,0,0,1,1.4-.08c4.71-.05,9.22-4.11,9-9a9.14,9.14,0,0,0-9-9Z" transform="translate(0.36 -1.67)"/>
  <path class="cls-1" d="M602.87,160.9A27.13,27.13,0,0,0,599.48,192c5,9.31,16.25,14.59,26.65,13.37a31.87,31.87,0,0,0,9.58-2.58,26.15,26.15,0,0,0,6.69-4.44,29.07,29.07,0,0,0,8.64-14,27.68,27.68,0,0,0-.45-16.39,29.51,29.51,0,0,0-10.74-14.32c-9.93-7.11-25.72-5.41-33.56,4.11a9.67,9.67,0,0,0-2.64,6.37,9,9,0,0,0,9,9c2.25-.11,4.87-.83,6.36-2.64a16.56,16.56,0,0,1,2.47-2.41l-1.83,1.41a17.2,17.2,0,0,1,3.57-2.07l-2.15.9a18.92,18.92,0,0,1,4.33-1.2l-2.4.32a18.75,18.75,0,0,1,4.85,0l-2.39-.32a18,18,0,0,1,4,1.06l-2.15-.91a18.1,18.1,0,0,1,3.74,2.16L629.24,168a19.74,19.74,0,0,1,3.33,3.32l-1.41-1.82a21.18,21.18,0,0,1,2.58,4.38l-.91-2.15a20.61,20.61,0,0,1,1.37,4.91l-.32-2.39a19.65,19.65,0,0,1,0,5.14l.32-2.39a21.62,21.62,0,0,1-1.39,5.05l.9-2.15a22,22,0,0,1-2.63,4.53l1.41-1.82a21.24,21.24,0,0,1-3.7,3.7l1.82-1.4a20,20,0,0,1-4,2.32l2.15-.91a20.93,20.93,0,0,1-5,1.36l2.39-.33a21.64,21.64,0,0,1-5.57,0l2.39.32a20.66,20.66,0,0,1-5-1.4l2.15.91a19.6,19.6,0,0,1-3.88-2.27l1.83,1.41a17.28,17.28,0,0,1-2.94-2.92l1.41,1.82a18,18,0,0,1-2.23-3.84l.9,2.15a20.18,20.18,0,0,1-1.26-4.64l.32,2.4a20.56,20.56,0,0,1,0-5.14l-.32,2.39a18.79,18.79,0,0,1,1.26-4.6l-.91,2.15a17.38,17.38,0,0,1,2.08-3.5l-1.4,1.82c.21-.27.43-.53.66-.79a9.5,9.5,0,0,0,2.64-6.36,9.15,9.15,0,0,0-2.64-6.37c-3.41-3.13-9.39-3.76-12.73,0Z" transform="translate(0.36 -1.67)"/>
  <path class="cls-1" d="M23.11,304.67C17.18,304.06,11,307,7,311.2a24,24,0,0,0-4.65,6.64,29,29,0,0,0-2.57,9.74,28.63,28.63,0,0,0,3.3,15.47,26.49,26.49,0,0,0,11.08,11.32c10.31,5.31,23.52,4,32-4.25,8.23-8.05,10-20.9,5-31.08-5.26-10.68-19.66-16.44-30.82-12.28a9.68,9.68,0,0,0-5.38,4.14,9.18,9.18,0,0,0-.91,6.93,9.06,9.06,0,0,0,4.14,5.38c2,1.07,4.69,1.74,6.93.91a16.24,16.24,0,0,1,3.29-.85l-2.39.32a17.51,17.51,0,0,1,4.4,0L28,323.27a19.26,19.26,0,0,1,4.6,1.27l-2.15-.9a18.82,18.82,0,0,1,3.83,2.24l-1.82-1.41a18.3,18.3,0,0,1,2.9,2.87l-1.41-1.82A16.81,16.81,0,0,1,36,329.07l-.91-2.15a17.31,17.31,0,0,1,1.07,4l-.32-2.39a19,19,0,0,1,0,4.83l.32-2.39a20.08,20.08,0,0,1-1.26,4.69l.91-2.15a19.1,19.1,0,0,1-2.23,3.9L35,335.58a18,18,0,0,1-2.94,3l1.82-1.41a18.15,18.15,0,0,1-3.73,2.19l2.15-.9a20,20,0,0,1-4.88,1.33l2.4-.32a21.06,21.06,0,0,1-5.08,0l2.39.32a19.78,19.78,0,0,1-4.89-1.32l2.15.91a19,19,0,0,1-3.74-2.19l1.82,1.41a19.4,19.4,0,0,1-3.26-3.27l1.41,1.82a21.18,21.18,0,0,1-2.53-4.31L19,335a21.85,21.85,0,0,1-1.44-5.16l.32,2.4a20.39,20.39,0,0,1,0-5.35l-.32,2.39a18.27,18.27,0,0,1,1.11-4.16l-.9,2.15a17.78,17.78,0,0,1,2.2-3.77l-1.41,1.82a17.25,17.25,0,0,1,2.8-2.8l-1.82,1.41a14.29,14.29,0,0,1,2.71-1.62l-2.15.91a12.07,12.07,0,0,1,3-.84l-2.4.32a11.24,11.24,0,0,1,2.46,0c2.16.22,4.89-1.16,6.36-2.64a9,9,0,0,0,0-12.73,10.24,10.24,0,0,0-6.36-2.63Z" transform="translate(0.36 -1.67)"/>
  <path class="cls-1" d="M282.8,83.12a11.66,11.66,0,0,1,1.82-1.76l-1.82,1.41a12.68,12.68,0,0,1,2.44-1.43l-2.15.91a12.47,12.47,0,0,1,3-.82l-2.39.32a11.84,11.84,0,0,1,2.79,0l-2.39-.32a12.23,12.23,0,0,1,2.84.79l-2.15-.91a12.48,12.48,0,0,1,2.54,1.5l-1.82-1.41a11.76,11.76,0,0,1,2.07,2.1l-1.4-1.82c.26.36.51.73.74,1.12a9.37,9.37,0,0,0,5.38,4.14,9.21,9.21,0,0,0,6.93-.91,9.12,9.12,0,0,0,4.14-5.38,9.4,9.4,0,0,0-.91-6.93,21.33,21.33,0,0,0-6.7-6.93,20.41,20.41,0,0,0-9.4-3.05,17.11,17.11,0,0,0-7.92,1.1,20.28,20.28,0,0,0-8.37,5.56,9.62,9.62,0,0,0-2.64,6.36,9.11,9.11,0,0,0,2.64,6.36,9,9,0,0,0,6.36,2.64c2.26-.1,4.86-.83,6.37-2.64Z" transform="translate(0.36 -1.67)"/>
  <path class="cls-1" d="M580.32,62.28c4.71,0,9.22-4.14,9-9a9.15,9.15,0,0,0-9-9c-4.71,0-9.22,4.14-9,9a9.15,9.15,0,0,0,9,9Z" transform="translate(0.36 -1.67)"/>
  <path class="cls-1" d="M136.8,111.24c4.71,0,9.22-4.14,9-9a9.15,9.15,0,0,0-9-9c-4.71,0-9.22,4.14-9,9a9.15,9.15,0,0,0,9,9Z" transform="translate(0.36 -1.67)"/>
  <path class="cls-1" d="M154.08,240.84c4.71,0,9.22-4.14,9-9a9.15,9.15,0,0,0-9-9c-4.71,0-9.22,4.14-9,9a9.15,9.15,0,0,0,9,9Z" transform="translate(0.36 -1.67)"/>
  <path class="cls-1" d="M717.12,426.6c4.71,0,9.22-4.14,9-9a9.15,9.15,0,0,0-9-9c-4.71,0-9.22,4.14-9,9a9.15,9.15,0,0,0,9,9Z" transform="translate(0.36 -1.67)"/>
</svg>
