<svg id="meditation" xmlns="http://www.w3.org/2000/svg" viewBox="0 0 828.63 517.36">
  <defs>
    <style>
      .cls-1 {
        fill: #4b3a68;
      }
    </style>
  </defs>
  <path class="cls-1" d="M546.26,433.75c13.39,13.87,32.2,20.29,50.43,24.95a476.3,476.3,0,0,0,64.44,12.23,252.88,252.88,0,0,0,64.52-.58A182,182,0,0,0,778,454.54a142.36,142.36,0,0,0,43.7-31.79q2.22-2.43,4.3-5a9.68,9.68,0,0,0,2.63-6.36A9.18,9.18,0,0,0,826,405a9,9,0,0,0-6.37-2.64c-2.25.1-4.87.82-6.36,2.64a125.55,125.55,0,0,1-19.94,19.3l1.82-1.4a147.79,147.79,0,0,1-32.82,19l2.15-.91a178.63,178.63,0,0,1-45.12,12.16l2.39-.32a240.07,240.07,0,0,1-52.71.85Q661.5,453.05,654,452l2.39.32c-11.1-1.5-22.12-3.52-33.07-5.88-10.17-2.2-20.36-4.55-30.35-7.46a140.25,140.25,0,0,1-15.05-5.24l2.15.9a76.86,76.86,0,0,1-16.54-9.41l1.82,1.41A57.32,57.32,0,0,1,559,421c-3.28-3.39-9.48-3.54-12.73,0a9.16,9.16,0,0,0,0,12.73Z" transform="translate(-0.04)"/>
  <path class="cls-1" d="M576.19,443.08l-20.75,38.57c-2.22,4.14-1.17,10,3.23,12.31,4.19,2.21,9.94,1.2,12.32-3.23l20.74-38.6c2.23-4.15,1.17-10-3.23-12.32-4.19-2.21-9.93-1.2-12.31,3.23Z" transform="translate(-0.04)"/>
  <path class="cls-1" d="M642.65,464.21v35.52c0,4.71,4.14,9.22,9,9a9.15,9.15,0,0,0,9-9V464.21c0-4.71-4.14-9.22-9-9A9.15,9.15,0,0,0,642.65,464.21Z" transform="translate(-0.04)"/>
  <path class="cls-1" d="M724.48,465.65a92.84,92.84,0,0,0,6.71,29.57c.94,2.27,1.93,4.09,4.14,5.38a9,9,0,0,0,12.31-3.23c1-2,1.81-4.75.91-6.93a86.41,86.41,0,0,1-5.8-21.24l.33,2.39q-.41-3-.6-5.94a9.58,9.58,0,0,0-2.64-6.37,9.14,9.14,0,0,0-6.36-2.63c-4.61.2-9.35,4-9,9Z" transform="translate(-0.04)"/>
  <path class="cls-1" d="M775,456.15l17.17,21.12c1.36,1.68,4.29,2.64,6.36,2.64a9.13,9.13,0,0,0,6.36-2.64,9,9,0,0,0,2.64-6.36l-.32-2.4a9,9,0,0,0-2.32-4l-17.16-21.12c-1.37-1.68-4.3-2.64-6.37-2.64a9.13,9.13,0,0,0-6.36,2.64,9,9,0,0,0-2.64,6.36l.32,2.4A9,9,0,0,0,775,456.15Z" transform="translate(-0.04)"/>
  <path class="cls-1" d="M30.89,387.91c.87,21.29,14.22,39.39,31.33,51.1,9,6.18,19.28,10.53,29.59,14s20.61,6.09,31,8.77c22.8,5.9,45.88,11.23,69.44,12.84,20.28,1.38,41.05-.36,60.4-6.83,18.2-6.1,35.54-16.12,48.25-30.71,1.88-2.17,3.64-4.43,5.36-6.73,1.31-1.74,1.46-4.93.91-6.93a9,9,0,0,0-11.07-6.29,10.54,10.54,0,0,0-5.38,4.14l-1,1.26,1.41-1.83a87.91,87.91,0,0,1-15.5,15.4l1.82-1.4a105.32,105.32,0,0,1-23,13.34l2.15-.91a131,131,0,0,1-33.37,9l2.39-.32c-16,2.12-32.29,1.44-48.28-.69l2.39.32a377.16,377.16,0,0,1-38-7.42c-12-2.92-24.09-5.95-36-9.44a182.37,182.37,0,0,1-19-6.6l2.15.91a95.87,95.87,0,0,1-21-11.89l1.83,1.41A70.25,70.25,0,0,1,57.19,410l1.41,1.82a57.58,57.58,0,0,1-7.41-12.54l.91,2.15a47.48,47.48,0,0,1-3.21-11.63l.32,2.39c-.19-1.43-.32-2.87-.38-4.31-.19-4.7-4-9.23-9-9-4.71.21-9.21,4-9,9Z" transform="translate(-0.04)"/>
  <path class="cls-1" d="M40.89,406.27a157.45,157.45,0,0,0-36.4,17.6,9.52,9.52,0,0,0-4.14,5.38,9.24,9.24,0,0,0,.91,6.94c2.52,3.91,8.11,6,12.31,3.23a147.7,147.7,0,0,1,23.57-12.67l-2.15.9q5.23-2.2,10.63-4A9.6,9.6,0,0,0,51,419.51a9.17,9.17,0,0,0,.91-6.93c-1.44-4.43-6.3-7.9-11.07-6.29Z" transform="translate(-0.04)"/>
  <path class="cls-1" d="M75.47,440.9,52,482.7c-2.3,4.1-1.12,10,3.23,12.31s9.85,1.16,12.31-3.23L91,450c2.3-4.11,1.12-10-3.23-12.31S77.93,436.51,75.47,440.9Z" transform="translate(-0.04)"/>
  <path class="cls-1" d="M128.52,461.84l-9.31,44.22a9.59,9.59,0,0,0,.9,6.94,9.25,9.25,0,0,0,5.38,4.13c4.52,1,10-1.36,11.07-6.28l9.33-44.2a9.55,9.55,0,0,0-.9-6.93,9.15,9.15,0,0,0-5.38-4.14c-4.52-1-10,1.36-11.07,6.29Z" transform="translate(-0.04)"/>
  <path class="cls-1" d="M176.56,470.45l1.94,37.46a9.48,9.48,0,0,0,2.64,6.37,9.18,9.18,0,0,0,6.36,2.63c4.67-.2,9.27-4,9-9l-1.94-37.46a9.44,9.44,0,0,0-2.64-6.36,9.15,9.15,0,0,0-6.36-2.64C180.89,461.66,176.29,465.45,176.56,470.45Z" transform="translate(-0.04)"/>
  <path class="cls-1" d="M234.76,473.65q4.63,9.27,8.66,18.82l-.91-2.15c.79,1.89,1.57,3.77,2.32,5.67a10.06,10.06,0,0,0,4.14,5.38,9.24,9.24,0,0,0,6.94.91,9.13,9.13,0,0,0,5.37-4.14c1.06-2,1.79-4.73.91-6.94-3.61-9-7.54-17.93-11.89-26.63a9,9,0,0,0-15.54,9.08Z" transform="translate(-0.04)"/>
  <path class="cls-1" d="M415.32,356.78q4.44-35.37,7.51-70.89t4.75-71.12q1.69-35.58,2-71.25.15-17.82,0-35.64c-.13-11.66-.2-23.35-1.12-35-.92-11.48-2.59-23-6.21-34a92.68,92.68,0,0,0-15.45-29,68.75,68.75,0,0,0-4.91-5.49c-3.33-3.34-9.44-3.58-12.73,0a9.18,9.18,0,0,0,0,12.73q2.59,2.63,4.91,5.48c1,1.29-1-1.36,0,0l1,1.38c.72,1,1.38,2,2,3.06,1.31,2.07,2.52,4.22,3.63,6.41.55,1.1,1.09,2.21,1.59,3.33.24.52.44,1.06.69,1.57,0,0-.72-1.77-.36-.84.14.36.29.71.43,1.06a100.88,100.88,0,0,1,4.22,13.88q1,4.11,1.66,8.3a27.72,27.72,0,0,0,.61,4s-.23-1.79-.1-.75l.12,1c.11.89.21,1.77.3,2.65,1.23,11.44,1.38,23,1.54,34.46q.25,17.47.17,35-.18,35.3-1.7,70.57t-4.41,70.46q-2.88,35-7.09,69.89c-.35,2.95-.72,5.9-1.09,8.85-.26,2.12,1.2,4.92,2.64,6.36a9,9,0,0,0,12.73,0h0a10.41,10.41,0,0,0,2.63-6.36Z" transform="translate(-0.04)"/>
  <path class="cls-1" d="M382,13c-.2,2.87-.5,5.74-.87,8.6l.32-2.4a176.3,176.3,0,0,1-9.27,36.47q-1.62,4.5-3.41,8.92L368,66.46c-.15.36-.3.71-.44,1.07s-.56,1.54-.11.26,0-.06-.12.26l-.45,1.07-1.05,2.39c-2.58,5.84-5.31,11.6-8.13,17.32-11.41,23.12-24,45.64-33.38,69.73-8.91,23-14.47,48.13-12.07,72.9a102.39,102.39,0,0,0,29.33,64.15c15.32,16,34.66,27.81,54.34,37.65q3.52,1.75,7.09,3.45a9.56,9.56,0,0,0,6.93.9,9.07,9.07,0,0,0,5.38-4.13c2.12-4,1.31-10.15-3.23-12.31-15.26-7.27-30.25-15.39-43.74-25.65-.19-.15-.4-.29-.58-.45s1.61,1.26.85.66l-1.16-.92c-.89-.71-1.78-1.43-2.65-2.16-1.56-1.3-3.1-2.64-4.6-4a120.56,120.56,0,0,1-8.85-8.95q-2-2.25-3.87-4.62a4.35,4.35,0,0,1-.45-.57c-.06-.11,1.25,1.65.67.87l-1-1.35c-.61-.84-1.22-1.69-1.81-2.55a93.68,93.68,0,0,1-6.31-10.62c-.57-1.13-1.12-2.28-1.64-3.44-.26-.57-.5-1.16-.77-1.74,0-.06.75,1.82.39.9-.13-.34-.27-.67-.4-1-1-2.43-1.81-4.91-2.56-7.41a102.41,102.41,0,0,1-3.24-15.31l.32,2.39a128.12,128.12,0,0,1,.28-33.2l-.32,2.39a178.56,178.56,0,0,1,9.6-37.28q1.71-4.62,3.59-9.18l.44-1.07c.61-1.48-.12.44-.23.54a9.37,9.37,0,0,0,1-2.4q1-2.4,2.12-4.78c2.75-6.09,5.67-12.11,8.66-18.09C368,107.87,381.3,84,390.31,58.29A174.7,174.7,0,0,0,400,13c.34-4.71-4.38-9.21-9-9C385.85,4.22,382.38,8,382,13Z" transform="translate(-0.04)"/>
  <path class="cls-1" d="M414.07,340.63C438.8,335,461,320.17,477.41,301.05c18.12-21.14,29.53-47,34.95-74.16,5.93-29.79,5.79-60.76,1.51-90.75-4.08-28.58-14.58-57.33-35.46-78-10.6-10.48-23.61-17.53-36.55-24.65A179.44,179.44,0,0,1,424.56,23c-.64-.46-1.28-.92-1.91-1.39-.35-.26-.68-.56-1-.79.12.08,1.73,1.37.58.44-1.36-1.09-2.7-2.2-4-3.37A62.5,62.5,0,0,1,411.56,11c-.43-.52-1-1.59.28.4-.18-.28-.42-.55-.61-.82-.46-.63-.91-1.26-1.34-1.91-.91-1.37-1.74-2.78-2.52-4.23A9.08,9.08,0,0,0,395.06,1.2a9.21,9.21,0,0,0-3.23,12.31C403.4,35.17,426.6,45,446.71,56.83c2.58,1.51,5.12,3.08,7.6,4.75q1.8,1.23,3.54,2.49l.93.7c.8.57-.69-.55-.67-.53.62.53,1.29,1,1.93,1.55a89.17,89.17,0,0,1,11.5,11.49c.45.54.9,1.08,1.33,1.63.17.2.33.41.49.61.93,1.16-.36-.46-.44-.57.8,1.15,1.68,2.25,2.48,3.4,1.62,2.32,3.13,4.68,4.55,7.1s2.59,4.62,3.77,7c.63,1.26,1.24,2.53,1.82,3.81.26.56.51,1.13.75,1.69.15.33.62,1.46.07.14s.08.19.16.39c5.28,12.88,8.37,26.54,10.24,40.3l-.32-2.39a271.4,271.4,0,0,1,.36,71.35l.33-2.39a190.43,190.43,0,0,1-7.86,34.43q-1.35,4.11-2.92,8.11c-.25.63-.49,1.25-.75,1.87-.14.36-.29.71-.43,1.07-.61,1.48.13-.48.23-.56-.38.3-.59,1.37-.8,1.85-.35.79-.71,1.58-1.07,2.36a133.43,133.43,0,0,1-7.06,13.32,140.1,140.1,0,0,1-8.33,12.28c-.86,1.15.46-.59.52-.66-.19.26-.4.51-.6.76L467,285.51q-1.23,1.5-2.49,3c-1.64,1.91-3.33,3.76-5.08,5.57a120.91,120.91,0,0,1-10.86,10l-1.29,1a6.26,6.26,0,0,1-.76.6c-.11.07,1.64-1.25.87-.67-1,.77-2.06,1.54-3.1,2.28-2,1.44-4.1,2.82-6.21,4.12-2.32,1.42-4.68,2.77-7.1,4-1.2.62-2.42,1.22-3.65,1.8l-2,.89-.88.39c-1.14.5.66-.22.82-.35a7.54,7.54,0,0,1-2,.8l-2,.77c-1.27.46-2.56.9-3.86,1.31-2.68.86-5.4,1.59-8.14,2.21-4.6,1-7.73,6.59-6.29,11.07a9.21,9.21,0,0,0,11.08,6.28Z" transform="translate(-0.04)"/>
  <path class="cls-1" d="M440.68,48.86a144.51,144.51,0,0,1-1.15,24.69l.27-2A146.07,146.07,0,0,1,429.59,109l.76-1.79A143.42,143.42,0,0,1,422.47,123c-2,3.4-.91,8.36,2.69,10.26a7.62,7.62,0,0,0,10.26-2.69A153.69,153.69,0,0,0,455.27,67a143.82,143.82,0,0,0,.42-18.1c-.16-3.92-3.34-7.69-7.5-7.5-3.93.17-7.67,3.3-7.5,7.5Z" transform="translate(-0.04)"/>
  <path class="cls-1" d="M479.17,88.47c-.16,4.53-.55,9-1.14,13.53l.27-2A148.81,148.81,0,0,1,468,137.69l.76-1.79a150.87,150.87,0,0,1-14.68,26.87c-1.46,2.14-3,4.23-4.56,6.29-.86,1.13,1-1.22.35-.45l-.6.77-1.09,1.36c-.86,1.06-1.73,2.1-2.61,3.13a142.32,142.32,0,0,1-10.41,11q-3.11,2.94-6.36,5.69-1.71,1.44-3.51,2.79c-.25.2-.5.41-.76.6l.9-.7-.61.48-1.87,1.39a8.19,8.19,0,0,0-3.45,4.48,7.72,7.72,0,0,0,.76,5.78c2,3.12,6.88,5.18,10.26,2.69a156.57,156.57,0,0,0,59.34-88.83,152.77,152.77,0,0,0,4.29-30.77,7.57,7.57,0,0,0-7.5-7.5,7.68,7.68,0,0,0-7.5,7.5Z" transform="translate(-0.04)"/>
  <path class="cls-1" d="M499.77,171.7a146.84,146.84,0,0,1-10.42,19.38q-3,4.65-6.25,9c-.27.36-.54.71-.8,1.07l-.35.45c-.71.94.45-.6.48-.62-.28.14-.64.82-.82,1.05l-.95,1.18q-1.71,2.14-3.54,4.22A150.67,150.67,0,0,1,461.53,223c-1.34,1.16-2.7,2.29-4.08,3.41l-2.09,1.65c1.87-1.48.6-.47.16-.14l-1.36,1q-4.35,3.22-8.92,6.13a146.88,146.88,0,0,1-22,11.57l1.79-.76q-3.84,1.65-7.79,3a8.06,8.06,0,0,0-4.48,3.44,7.73,7.73,0,0,0-.76,5.78c1.18,3.63,5.27,6.66,9.23,5.24a160.66,160.66,0,0,0,78.32-60.64,146.56,146.56,0,0,0,13.14-23.5,8.06,8.06,0,0,0,.75-5.78,7.51,7.51,0,0,0-9.22-5.24c-1.74.57-3.71,1.7-4.48,3.45Z" transform="translate(-0.04)"/>
  <path class="cls-1" d="M417.33,301.93a337.63,337.63,0,0,0,59.09-28.32q7.77-4.71,15.28-9.87a7.93,7.93,0,0,0,3.45-4.48,7.64,7.64,0,0,0-.76-5.78c-2.07-3.21-6.8-5.06-10.26-2.69a328.5,328.5,0,0,1-44.49,25.63q-6.57,3.13-13.28,6l1.8-.75q-7.32,3.09-14.81,5.83a8.18,8.18,0,0,0-4.49,3.45,7.68,7.68,0,0,0-.75,5.78c1.16,3.6,5.28,6.68,9.22,5.24Z" transform="translate(-0.04)"/>
  <path class="cls-1" d="M413.74,284a162,162,0,0,1-20-10.6q-4.77-3-9.34-6.26c-.74-.53-1.47-1.07-2.19-1.61l-1.09-.82-.61-.47c-.8-.6.44.35.59.47-1.51-1.1-2.94-2.34-4.38-3.53a168.11,168.11,0,0,1-16.45-15.69q-3.78-4.15-7.31-8.55l-.84-1.07-.48-.61.58.75c-.61-.74-1.18-1.54-1.75-2.32-1.12-1.51-2.21-3-3.27-4.58A163,163,0,0,1,334.41,207a7.57,7.57,0,0,0-4.48-3.45,7.73,7.73,0,0,0-5.78.76c-3.65,2.35-4.5,6.46-2.69,10.26a171.06,171.06,0,0,0,26.14,39.25,174.23,174.23,0,0,0,35.91,30.88A163,163,0,0,0,406.17,297a8.13,8.13,0,0,0,5.78.76,7.51,7.51,0,0,0,5.24-9.23c-.56-1.73-1.7-3.71-3.45-4.48Z" transform="translate(-0.04)"/>
  <path class="cls-1" d="M419.71,244.24a183.4,183.4,0,0,1-18.37-12.14l-1.11-.84-.47-.36c-.74-.56,1.3,1,.57.44s-1.46-1.14-2.18-1.72c-1.44-1.16-2.86-2.34-4.28-3.55q-4.15-3.54-8.1-7.32a189.34,189.34,0,0,1-15.1-16.3l-1.62-2-.87-1.09c-.2-.25-1.19-1.53-.39-.49s-.19-.26-.38-.5l-.84-1.11c-.55-.74-1.1-1.49-1.64-2.24q-3.27-4.5-6.26-9.18a186.37,186.37,0,0,1-11.9-21.76,7.5,7.5,0,0,0-13.7,1.79h0a8.57,8.57,0,0,0,.76,5.78,192.92,192.92,0,0,0,24.45,39.24A187.57,187.57,0,0,0,390,242.19a196.44,196.44,0,0,0,22.1,15c3.39,2,8.36.9,10.26-2.69a7.63,7.63,0,0,0-2.69-10.26Z" transform="translate(-0.04)"/>
  <path class="cls-1" d="M426.7,192.77c-1.2-.86-2.38-1.73-3.56-2.61-.43-.32-2.36-1.9-.4-.29-.62-.51-1.27-1-1.89-1.5q-3.45-2.76-6.74-5.71a167.45,167.45,0,0,1-12.38-12.33q-2.89-3.21-5.62-6.56c-.46-.57-.93-1.14-1.38-1.72l-.62-.79c-.94-1.19,1.1,1.45.19.25s-1.78-2.36-2.64-3.55a166.17,166.17,0,0,1-9.59-14.84,164,164,0,0,1-8.74-17.62l.76,1.79c-.78-1.86-1.53-3.72-2.24-5.6a8.19,8.19,0,0,0-3.45-4.48,7.72,7.72,0,0,0-5.78-.76c-3.57,1.16-6.73,5.3-5.24,9.23a173.9,173.9,0,0,0,43.75,65.42,177.59,177.59,0,0,0,18,14.62,7.54,7.54,0,0,0,5.78.76,7.63,7.63,0,0,0,4.48-3.45c2-3.87.73-7.82-2.69-10.26Z" transform="translate(-0.04)"/>
  <path class="cls-1" d="M431.27,118.76a125.17,125.17,0,0,1-20.34-11q-2.42-1.62-4.74-3.34l-1.16-.87c-1.31-1,1,.81,0,0l-2.26-1.81a114.77,114.77,0,0,1-8.6-7.75,121.55,121.55,0,0,1-8.9-9.8,7.5,7.5,0,0,0-12.81,5.28v0a8.66,8.66,0,0,0,2.2,5.3,130.7,130.7,0,0,0,36.95,31,124.88,124.88,0,0,0,12.06,6,8.18,8.18,0,0,0,5.78.75,7.49,7.49,0,0,0,5.24-9.22c-.56-1.73-1.7-3.74-3.45-4.49Z" transform="translate(-0.04)"/>
  <path class="cls-1" d="M416.27,62.39,389.66,50.17a8.12,8.12,0,0,0-5.78-.76,7.69,7.69,0,0,0-4.49,3.45c-1.74,3.29-1.11,8.51,2.69,10.26l26.65,12.22a8.08,8.08,0,0,0,5.78.75A7.59,7.59,0,0,0,419,72.65c1.75-3.3,1.12-8.52-2.69-10.26Z" transform="translate(-0.04)"/>
  <path class="cls-1" d="M430.06,65.36,433,37.28a7.5,7.5,0,0,0-2.2-5.3,7.48,7.48,0,0,0-10.6,0,8.57,8.57,0,0,0-2.2,5.3l-2.9,28.08a7.51,7.51,0,0,0,12.81,5.31h0A8.48,8.48,0,0,0,430.06,65.36Z" transform="translate(-0.04)"/>
</svg>
