<svg id="meditation" xmlns="http://www.w3.org/2000/svg" viewBox="0 0 828.67 456.75">
  <defs>
    <style>
      .cls-1 {
        fill: #4b3a68;
      }
    </style>
  </defs>
  <path class="cls-1" d="M548.37,376.1c13.39,13.87,32.2,20.29,50.43,24.95a475.34,475.34,0,0,0,64.44,12.23,252.87,252.87,0,0,0,64.52-.58,181.66,181.66,0,0,0,52.39-15.81,142.4,142.4,0,0,0,43.7-31.79q2.22-2.43,4.3-5a9.66,9.66,0,0,0,2.63-6.36,9.16,9.16,0,0,0-2.63-6.36,9,9,0,0,0-6.37-2.64c-2.25.1-4.87.82-6.36,2.64a125.55,125.55,0,0,1-19.94,19.3l1.82-1.4a147.65,147.65,0,0,1-32.82,19l2.15-.91a178.75,178.75,0,0,1-45.12,12.16l2.39-.32a240.06,240.06,0,0,1-52.71.85c-5.05-.44-10.09-1-15.11-1.68l2.39.32c-11.1-1.5-22.12-3.52-33.07-5.88-10.17-2.2-20.36-4.55-30.35-7.46A140.7,140.7,0,0,1,580,376.12l2.15.9a76.86,76.86,0,0,1-16.54-9.41l1.82,1.41a57.32,57.32,0,0,1-6.31-5.65c-3.28-3.39-9.48-3.54-12.73,0a9.17,9.17,0,0,0,0,12.73Z" transform="translate(-2.11 -2.96)"/>
  <path class="cls-1" d="M578.3,385.43,557.55,424c-2.22,4.14-1.17,10,3.23,12.31,4.19,2.21,9.94,1.2,12.32-3.23l20.74-38.6c2.23-4.15,1.17-10-3.23-12.32-4.19-2.21-9.93-1.2-12.31,3.23Z" transform="translate(-2.11 -2.96)"/>
  <path class="cls-1" d="M644.76,406.56v35.52c0,4.71,4.14,9.22,9,9a9.15,9.15,0,0,0,9-9V406.56c0-4.71-4.14-9.22-9-9a9.15,9.15,0,0,0-9,9Z" transform="translate(-2.11 -2.96)"/>
  <path class="cls-1" d="M726.59,408a93,93,0,0,0,6.71,29.57c.94,2.27,1.93,4.09,4.14,5.38a9,9,0,0,0,12.31-3.23c1-2,1.81-4.75.91-6.93a86.53,86.53,0,0,1-5.8-21.24l.33,2.39q-.41-3-.6-5.94a9.63,9.63,0,0,0-2.64-6.37,9.14,9.14,0,0,0-6.36-2.63c-4.61.2-9.35,4-9,9Z" transform="translate(-2.11 -2.96)"/>
  <path class="cls-1" d="M777.14,398.5l17.17,21.12c1.36,1.68,4.29,2.64,6.36,2.64a9.13,9.13,0,0,0,6.36-2.64,9,9,0,0,0,2.64-6.36l-.32-2.4a9,9,0,0,0-2.32-4l-17.16-21.12c-1.37-1.68-4.3-2.64-6.37-2.64a9.13,9.13,0,0,0-6.36,2.64,9,9,0,0,0-2.64,6.36l.32,2.4a9,9,0,0,0,2.32,4Z" transform="translate(-2.11 -2.96)"/>
  <path class="cls-1" d="M33,330.26c.87,21.29,14.22,39.39,31.33,51.1,9,6.18,19.28,10.53,29.59,14s20.61,6.09,31,8.77c22.8,5.9,45.88,11.23,69.44,12.84,20.28,1.38,41.05-.36,60.4-6.83,18.2-6.1,35.54-16.12,48.25-30.71,1.88-2.17,3.64-4.43,5.36-6.73,1.31-1.74,1.46-4.93.91-6.93a9.19,9.19,0,0,0-4.14-5.38,9.09,9.09,0,0,0-6.93-.91,10.51,10.51,0,0,0-5.38,4.14l-1,1.26,1.41-1.83a87.91,87.91,0,0,1-15.5,15.4l1.82-1.4a105.32,105.32,0,0,1-23.05,13.34l2.15-.91a130.9,130.9,0,0,1-33.37,9l2.39-.32c-16,2.12-32.29,1.44-48.28-.69l2.39.32a377.13,377.13,0,0,1-38-7.42c-12-2.92-24.09-5.95-36-9.44a182,182,0,0,1-19-6.6l2.15.91a95.78,95.78,0,0,1-21-11.89l1.83,1.41a70.59,70.59,0,0,1-12.47-12.38l1.41,1.82a57.42,57.42,0,0,1-7.41-12.54l.91,2.15A47.61,47.61,0,0,1,51,332.18l.32,2.39c-.19-1.43-.32-2.87-.38-4.31-.19-4.7-4-9.23-9-9-4.71.21-9.21,4-9,9Z" transform="translate(-2.11 -2.96)"/>
  <path class="cls-1" d="M43,348.62a157.46,157.46,0,0,0-36.4,17.6,9.55,9.55,0,0,0-4.14,5.38,9.23,9.23,0,0,0,.91,6.94c2.52,3.91,8.11,6,12.31,3.23A148.18,148.18,0,0,1,39.25,369.1l-2.15.9q5.24-2.21,10.63-4a9.55,9.55,0,0,0,5.38-4.14,9.18,9.18,0,0,0,.91-6.93c-1.44-4.43-6.3-7.9-11.07-6.29Z" transform="translate(-2.11 -2.96)"/>
  <path class="cls-1" d="M77.58,383.25l-23.45,41.8c-2.3,4.1-1.12,10,3.23,12.31s9.85,1.16,12.31-3.23l23.45-41.8c2.3-4.11,1.12-10-3.23-12.31s-9.85-1.16-12.31,3.23Z" transform="translate(-2.11 -2.96)"/>
  <path class="cls-1" d="M130.63,404.19l-9.31,44.22a9.58,9.58,0,0,0,.9,6.94,9.24,9.24,0,0,0,5.38,4.13c4.52,1,10-1.36,11.07-6.28L148,409a9.55,9.55,0,0,0-.9-6.93,9.21,9.21,0,0,0-5.38-4.14c-4.52-1-10,1.36-11.07,6.29Z" transform="translate(-2.11 -2.96)"/>
  <path class="cls-1" d="M178.67,412.8l1.94,37.46a9.51,9.51,0,0,0,2.64,6.37,9.14,9.14,0,0,0,6.36,2.63c4.67-.2,9.27-4,9-9l-1.94-37.46a9.48,9.48,0,0,0-2.64-6.36,9.15,9.15,0,0,0-6.36-2.64c-4.67.21-9.27,4-9,9Z" transform="translate(-2.11 -2.96)"/>
  <path class="cls-1" d="M236.87,416q4.63,9.27,8.66,18.82l-.91-2.15c.79,1.89,1.57,3.77,2.32,5.67.91,2.26,2,4.1,4.14,5.38a9.24,9.24,0,0,0,6.94.91,9.14,9.14,0,0,0,5.37-4.14c1.06-2,1.79-4.73.91-6.94-3.61-9-7.54-17.93-11.89-26.63A9,9,0,0,0,236.87,416Z" transform="translate(-2.11 -2.96)"/>
  <path class="cls-1" d="M392.05,359.79q4.44-35.37,7.51-70.89t4.75-71.12q1.69-35.59,2-71.25.15-17.82,0-35.64c-.13-11.66-.2-23.35-1.12-35-.92-11.48-2.59-23-6.21-34a92.71,92.71,0,0,0-15.45-29,69.17,69.17,0,0,0-4.91-5.49c-3.33-3.34-9.44-3.58-12.73,0a9.17,9.17,0,0,0,0,12.73,72.73,72.73,0,0,1,4.91,5.48c1,1.29-1-1.36,0,0,.33.46.67.92,1,1.38q1.07,1.5,2,3.06c1.31,2.07,2.52,4.22,3.63,6.41.55,1.1,1.09,2.21,1.59,3.33.24.52.44,1.06.69,1.57,0,0-.72-1.77-.36-.84.14.36.29.71.43,1.06A101.7,101.7,0,0,1,384,55.46q1,4.11,1.66,8.3a27.29,27.29,0,0,0,.61,3.95s-.23-1.79-.1-.75l.12,1c.11.89.21,1.77.3,2.65,1.23,11.44,1.38,23,1.54,34.46q.25,17.47.17,35-.18,35.29-1.7,70.57t-4.41,70.46q-2.88,35-7.09,69.89c-.35,2.95-.72,5.9-1.09,8.85-.26,2.12,1.2,4.92,2.64,6.36a9,9,0,0,0,12.73,0,10.52,10.52,0,0,0,2.63-6.36Z" transform="translate(-2.11 -2.96)"/>
  <path class="cls-1" d="M358.74,16c-.2,2.87-.5,5.74-.87,8.6l.32-2.4a177.26,177.26,0,0,1-9.27,36.47q-1.62,4.5-3.41,8.92l-.77,1.88c-.15.36-.3.71-.44,1.07s-.56,1.54-.11.26,0-.06-.12.26l-.45,1.07-1.05,2.39c-2.58,5.84-5.31,11.6-8.13,17.32-11.41,23.12-24.05,45.64-33.38,69.73-8.91,23-14.47,48.13-12.07,72.9a102.38,102.38,0,0,0,29.33,64.15c15.32,16,34.66,27.81,54.34,37.65q3.52,1.75,7.09,3.45a9.6,9.6,0,0,0,6.93.9,9.14,9.14,0,0,0,5.38-4.13c2.12-4,1.31-10.15-3.23-12.31-15.26-7.27-30.25-15.39-43.74-25.65-.19-.15-.4-.29-.58-.45s1.61,1.26.85.66l-1.16-.92c-.89-.71-1.78-1.43-2.65-2.16-1.56-1.3-3.1-2.64-4.6-4a120.54,120.54,0,0,1-8.85-8.95q-2-2.25-3.87-4.62a4.9,4.9,0,0,1-.45-.57c-.06-.11,1.25,1.65.67.87l-1-1.35c-.61-.84-1.22-1.69-1.81-2.55a93.08,93.08,0,0,1-6.31-10.62c-.57-1.13-1.12-2.28-1.64-3.44-.26-.57-.5-1.16-.77-1.74,0-.06.75,1.82.39.9-.13-.34-.27-.67-.4-1-1-2.43-1.81-4.91-2.56-7.41a101.17,101.17,0,0,1-3.24-15.31l.32,2.39a127.68,127.68,0,0,1,.28-33.2l-.32,2.39a177.78,177.78,0,0,1,9.6-37.28q1.71-4.62,3.59-9.18l.44-1.07c.61-1.48-.12.44-.23.54a9.61,9.61,0,0,0,1-2.4q1-2.4,2.12-4.78c2.75-6.09,5.67-12.11,8.66-18.09,12.15-24.31,25.46-48.15,34.47-73.89A175.11,175.11,0,0,0,376.74,16c.34-4.71-4.38-9.21-9-9-5.16.23-8.63,4-9,9Z" transform="translate(-2.11 -2.96)"/>
  <path class="cls-1" d="M390.8,343.64c24.73-5.59,46.95-20.46,63.34-39.58,18.12-21.14,29.53-47,34.95-74.16,5.93-29.79,5.79-60.76,1.51-90.75-4.08-28.58-14.58-57.33-35.46-78-10.6-10.48-23.61-17.53-36.55-24.65A180.24,180.24,0,0,1,401.29,26c-.64-.46-1.28-.92-1.91-1.39-.35-.26-.68-.56-1.05-.79.12.08,1.73,1.37.58.44-1.36-1.09-2.7-2.2-4-3.37A62.83,62.83,0,0,1,388.29,14c-.43-.52-1-1.59.28.4-.18-.28-.42-.55-.61-.82-.46-.63-.91-1.26-1.34-1.91-.91-1.37-1.74-2.78-2.52-4.23a9.07,9.07,0,0,0-12.31-3.23,9.2,9.2,0,0,0-3.23,12.31c11.57,21.66,34.77,31.5,54.88,43.32,2.58,1.51,5.12,3.08,7.6,4.75q1.8,1.22,3.54,2.49l.93.7c.8.57-.69-.55-.67-.53.62.53,1.29,1,1.93,1.55a89.17,89.17,0,0,1,11.5,11.49c.45.54.9,1.08,1.33,1.63.17.2.33.41.49.61.93,1.16-.36-.46-.44-.57.8,1.15,1.68,2.25,2.48,3.4q2.42,3.47,4.55,7.1,2,3.42,3.77,7c.63,1.26,1.24,2.53,1.82,3.81.26.56.51,1.13.75,1.69.15.33.62,1.46.07.14s.08.19.16.39c5.28,12.88,8.37,26.54,10.24,40.3l-.32-2.39a271.4,271.4,0,0,1,.36,71.35l.33-2.39A191.08,191.08,0,0,1,466,246.79q-1.35,4.1-2.92,8.11c-.25.63-.49,1.25-.75,1.87-.14.36-.29.71-.43,1.07-.61,1.48.13-.48.23-.56-.38.3-.59,1.37-.8,1.85-.35.79-.71,1.58-1.07,2.36a137.83,137.83,0,0,1-7.06,13.32,145.5,145.5,0,0,1-8.33,12.28c-.86,1.15.46-.59.52-.66-.19.26-.4.51-.6.76l-1.07,1.33c-.82,1-1.65,2-2.49,3-1.64,1.91-3.33,3.76-5.08,5.57a123.7,123.7,0,0,1-10.86,10L424,308.13a7.15,7.15,0,0,1-.76.6c-.11.07,1.64-1.25.87-.67-1,.77-2.06,1.54-3.1,2.28-2,1.44-4.1,2.82-6.21,4.12-2.32,1.42-4.68,2.77-7.1,4-1.2.62-2.42,1.22-3.65,1.8l-2,.89-.88.39c-1.14.5.66-.22.82-.35a8.12,8.12,0,0,1-2,.8l-2,.77c-1.27.46-2.56.9-3.86,1.31-2.68.86-5.4,1.59-8.14,2.21-4.6,1-7.73,6.59-6.29,11.07a9.21,9.21,0,0,0,11.08,6.28Z" transform="translate(-2.11 -2.96)"/>
  <path class="cls-1" d="M417.41,51.87a145.59,145.59,0,0,1-1.15,24.69l.27-2A146.33,146.33,0,0,1,406.32,112l.76-1.79A146.41,146.41,0,0,1,399.2,126c-2,3.4-.91,8.36,2.69,10.26a7.63,7.63,0,0,0,10.26-2.69A153.85,153.85,0,0,0,432,70a145.82,145.82,0,0,0,.42-18.1c-.16-3.92-3.34-7.69-7.5-7.5-3.93.17-7.67,3.3-7.5,7.5Z" transform="translate(-2.11 -2.96)"/>
  <path class="cls-1" d="M455.9,91.48c-.16,4.53-.55,9-1.14,13.53l.27-2a149,149,0,0,1-10.32,37.69l.76-1.79a151.86,151.86,0,0,1-14.68,26.87c-1.46,2.14-3,4.23-4.56,6.29-.86,1.13,1-1.22.35-.45l-.6.77-1.09,1.36c-.86,1.06-1.73,2.1-2.61,3.13a145.74,145.74,0,0,1-10.41,11q-3.11,2.94-6.36,5.69Q403.8,195,402,196.36c-.25.2-.5.41-.76.6l.9-.7-.61.48-1.87,1.39a8.12,8.12,0,0,0-3.45,4.48,7.67,7.67,0,0,0,.76,5.78c2,3.12,6.88,5.18,10.26,2.69a156.61,156.61,0,0,0,59.34-88.83,153.59,153.59,0,0,0,4.29-30.77,7.56,7.56,0,0,0-7.5-7.5,7.67,7.67,0,0,0-7.5,7.5Z" transform="translate(-2.11 -2.96)"/>
  <path class="cls-1" d="M476.5,174.71a148,148,0,0,1-10.42,19.38q-3,4.64-6.25,9c-.27.36-.54.71-.8,1.07l-.35.45c-.71.94.45-.6.48-.62-.28.14-.64.82-.82,1.05l-.95,1.18q-1.72,2.14-3.54,4.22A153.49,153.49,0,0,1,438.26,226c-1.34,1.16-2.7,2.29-4.08,3.41l-2.09,1.65c1.87-1.48.6-.47.16-.14l-1.36,1q-4.35,3.22-8.92,6.13a149.43,149.43,0,0,1-22,11.57l1.79-.76q-3.85,1.64-7.79,3a8,8,0,0,0-4.48,3.44,7.68,7.68,0,0,0-.76,5.78c1.18,3.63,5.27,6.66,9.23,5.24a160.69,160.69,0,0,0,78.32-60.64,148.22,148.22,0,0,0,13.14-23.5,8.12,8.12,0,0,0,.75-5.78,7.5,7.5,0,0,0-9.22-5.24c-1.74.57-3.71,1.7-4.48,3.45Z" transform="translate(-2.11 -2.96)"/>
  <path class="cls-1" d="M394.06,304.94a338.34,338.34,0,0,0,59.09-28.32q7.77-4.72,15.28-9.87a8,8,0,0,0,3.45-4.48,7.67,7.67,0,0,0-.76-5.78c-2.07-3.21-6.8-5.06-10.26-2.69a329.11,329.11,0,0,1-44.49,25.63q-6.57,3.13-13.28,6l1.8-.75q-7.33,3.09-14.81,5.83a8.1,8.1,0,0,0-4.49,3.45,7.63,7.63,0,0,0-.75,5.78c1.16,3.6,5.28,6.68,9.22,5.24Z" transform="translate(-2.11 -2.96)"/>
  <path class="cls-1" d="M390.47,287a161.82,161.82,0,0,1-20-10.6q-4.77-3-9.34-6.26c-.74-.53-1.47-1.07-2.19-1.61l-1.09-.82-.61-.47c-.8-.6.44.35.59.47-1.51-1.1-2.94-2.34-4.38-3.53A167.43,167.43,0,0,1,337,248.49q-3.79-4.16-7.31-8.55l-.84-1.07-.48-.61.58.75c-.61-.74-1.18-1.54-1.75-2.32-1.12-1.51-2.21-3-3.27-4.58A163,163,0,0,1,311.14,210a7.57,7.57,0,0,0-4.48-3.45,7.67,7.67,0,0,0-5.78.76c-3.65,2.35-4.5,6.46-2.69,10.26a171,171,0,0,0,26.14,39.25,174.27,174.27,0,0,0,35.91,30.88,163,163,0,0,0,22.66,12.26,8.13,8.13,0,0,0,5.78.76,7.52,7.52,0,0,0,5.24-9.23c-.56-1.73-1.7-3.71-3.45-4.48Z" transform="translate(-2.11 -2.96)"/>
  <path class="cls-1" d="M396.44,247.25a184,184,0,0,1-18.37-12.14l-1.11-.84-.47-.36c-.74-.56,1.3,1,.57.44s-1.46-1.14-2.18-1.72q-2.16-1.74-4.28-3.55-4.16-3.54-8.1-7.32a189.22,189.22,0,0,1-15.1-16.3q-.82-1-1.62-2l-.87-1.09c-.2-.25-1.19-1.53-.39-.49s-.19-.26-.38-.5l-.84-1.11c-.55-.74-1.1-1.49-1.64-2.24q-3.27-4.5-6.26-9.18a185.7,185.7,0,0,1-11.9-21.76,7.49,7.49,0,0,0-4.48-3.44,7.5,7.5,0,0,0-9.23,5.23,8.53,8.53,0,0,0,.76,5.78A192.72,192.72,0,0,0,335,213.9a187.94,187.94,0,0,0,31.73,31.3,196.87,196.87,0,0,0,22.1,15c3.39,2,8.36.9,10.26-2.69a7.64,7.64,0,0,0-2.69-10.26Z" transform="translate(-2.11 -2.96)"/>
  <path class="cls-1" d="M403.43,195.78q-1.8-1.29-3.56-2.61c-.43-.32-2.36-1.9-.4-.29-.62-.51-1.27-1-1.89-1.5q-3.45-2.76-6.74-5.71a167.46,167.46,0,0,1-12.38-12.33q-2.9-3.21-5.62-6.56c-.46-.57-.93-1.14-1.38-1.72l-.62-.79c-.94-1.19,1.1,1.45.19.25s-1.78-2.36-2.64-3.55a165.38,165.38,0,0,1-9.59-14.84,163.05,163.05,0,0,1-8.74-17.62l.76,1.79c-.78-1.86-1.53-3.72-2.24-5.6a8.17,8.17,0,0,0-3.45-4.48,7.68,7.68,0,0,0-5.78-.76c-3.57,1.16-6.73,5.3-5.24,9.23a173.94,173.94,0,0,0,43.75,65.42,177.85,177.85,0,0,0,18,14.62,7.58,7.58,0,0,0,5.78.76,7.67,7.67,0,0,0,4.48-3.45c2-3.87.73-7.82-2.69-10.26Z" transform="translate(-2.11 -2.96)"/>
  <path class="cls-1" d="M408,121.77a124.91,124.91,0,0,1-20.34-11q-2.42-1.62-4.74-3.34l-1.16-.87c-1.31-1,1,.81,0,0l-2.26-1.81Q375,101.09,370.9,97a123.27,123.27,0,0,1-8.9-9.8A7.54,7.54,0,0,0,356.69,85a7.49,7.49,0,0,0-7.5,7.5,8.62,8.62,0,0,0,2.2,5.3,130.62,130.62,0,0,0,36.95,31,126.06,126.06,0,0,0,12.06,5.95,8.23,8.23,0,0,0,5.78.75,7.5,7.5,0,0,0,5.24-9.22c-.56-1.73-1.7-3.74-3.45-4.49Z" transform="translate(-2.11 -2.96)"/>
  <path class="cls-1" d="M393,65.4,366.39,53.18a8.09,8.09,0,0,0-5.78-.76,7.65,7.65,0,0,0-4.49,3.45c-1.74,3.29-1.11,8.51,2.69,10.26l26.65,12.22a8.12,8.12,0,0,0,5.78.75,7.62,7.62,0,0,0,4.48-3.44c1.75-3.3,1.12-8.52-2.69-10.26Z" transform="translate(-2.11 -2.96)"/>
  <path class="cls-1" d="M406.79,68.37l2.9-28.08a7.49,7.49,0,0,0-2.2-5.3,7.63,7.63,0,0,0-5.3-2.2,7.55,7.55,0,0,0-5.3,2.2,8.48,8.48,0,0,0-2.2,5.3l-2.9,28.08a7.5,7.5,0,0,0,2.2,5.3,7.5,7.5,0,0,0,10.61,0,8.55,8.55,0,0,0,2.19-5.3Z" transform="translate(-2.11 -2.96)"/>
</svg>
