<svg xmlns="http://www.w3.org/2000/svg" viewBox="0 0 288.27 410.12">
  <defs>
    <style>
      .cls-1 {
        fill: #b273db;
      }

      .cls-2 {
        fill: #8651af;
      }

      .cls-3, .cls-4 {
        fill: #662d91;
      }

      .cls-4 {
        stroke: #662d91;
        stroke-miterlimit: 10;
      }
    </style>
  </defs>
  <g id="paint">
    <path class="cls-1" d="M25.55,40.72a986.48,986.48,0,0,1,140.38,4c6.45.64,12-6,12-12,0-7-5.53-11.36-12-12a986.48,986.48,0,0,0-140.38-4c-6.48.28-12,5.32-12,12,0,6.29,5.49,12.28,12,12Z" transform="translate(-6.75 -5.68)"/>
    <path class="cls-1" d="M114.78,37.48l-2-.8-3.19,23.57c23.06-2.41,46.5.76,67.68,10.45,5.89,2.7,12.92,1.68,16.41-4.3,3-5.17,1.62-13.71-4.3-16.42-25-11.44-52.35-16.59-79.79-13.73-13.7,1.44-16,18.5-3.19,23.58l2,.79c6,2.39,13.18-2.61,14.76-8.38,1.88-6.82-2.33-12.37-8.38-14.76Z" transform="translate(-6.75 -5.68)"/>
    <path class="cls-1" d="M166,39.56l21-.3,11.46-.17,4.78-.07c1.16,0,3.8-.13,3.79-.12-2.95,2.32-4-9.47-4.58-4.24a47.73,47.73,0,0,0,0,5.48l.08,10,.19,21.29,15.19-11.57c-8.38-2.86-20-5.19-26.31-10.44a14.76,14.76,0,0,1-2-2c.4.5-1-1.18-.42-.93a.75.75,0,0,1,.18.5q.84,3.82-4.16,6.43c-.62-.42.08-.13.86-.1,0,0,3.1,0,3.1-.06-.08.2-3-2.68-3.09-2.7-.41-.12.12-.39-.07.89s-.21,2.79-.39,4.16c-.84,6.44,6.12,12,12,12,7.18,0,11.16-5.54,12-12,1.51-11.55-3.22-23.21-15.63-25.8-12-2.5-27.32,2.16-28.4,16.23-1.84,24,28.76,31.1,46,37,7.41,2.54,15.25-4.14,15.19-11.57l-.23-25.85c-.08-9.33,1.4-20.65-7.15-26.9-7.23-5.3-17.27-3.67-25.7-3.55l-27.7.4c-15.43.22-15.48,24.22,0,24Z" transform="translate(-6.75 -5.68)"/>
    <path class="cls-2" d="M99,41.54c15.45,0,15.47-24,0-24s-15.47,24,0,24Z" transform="translate(-6.75 -5.68)"/>
    <path class="cls-2" d="M112,29.84c-12.66-4.36-25.4-8.67-38.71-10.55a97.69,97.69,0,0,0-20.92-1.07,96.61,96.61,0,0,0-10.58,1.39,34.71,34.71,0,0,0-5.44,1.29c-2,.75-.52-.22.54.17l5.29,3.09c1.41,1.19-1.59-2.5-2-3a13.47,13.47,0,0,0-5.72-3.93A15.33,15.33,0,0,0,27,16.42c-.47.06-5.34.62-3.32.68l6.06,1.64-1.1-.62,4.31,4.31-.62-1.06,1.21,9.25.22-1.11L22.16,38.32q76.79,6,153.58,11.89l-3.19-23.57a111.59,111.59,0,0,1-48,6.35c-8.59-.77-17.12-3.39-25.64-.57-9.21,3-15.76,11.13-15.91,20.94-.12,8.3,7.74,13,15.19,11.57A238.32,238.32,0,0,1,126,61.21q6.81-.49,13.65-.63c2.6,0,5.21-.07,7.81,0l3.91.07q6.3.86-3.84-6.24l1.64-6.06.36-.45,5.29-3.08c.75.22.69.28-.19.18a18.58,18.58,0,0,1-2.36-.15,34,34,0,0,1-3.34-.67,41.11,41.11,0,0,1-7.27-2.35c-4.67-2.08-9.57-5.18-12.66-9.25l-.75-1.36c.25.06.35.24.3.53.19-.08-1.1,2.12-.91,1.59s-1.11,1.48-1.31,1c-.13-.33,2.93.55,3,.58A102.45,102.45,0,0,1,139,38.54c1.38.55,3.61,2,5,2-3.83.13,5-19.41-2.18-9.34l4.31-4.31-.85.55c-5.45,3.49-7.67,10.66-4.3,16.41,3.17,5.43,10.94,7.82,16.41,4.31a16.09,16.09,0,0,0,2.71-25.22c-5.58-5.34-14.91-7.79-22-10.41C129.58,9.4,119.87,9.26,112.48,15c-7.68,6-9.72,16.53-6.19,25.39,6,15.06,24.2,24.88,39.49,27.52,9.8,1.69,22.09,1.3,25.3-10.38,3.16-11.48-7-19.78-17.32-20.79-20.27-2-42,1.2-61.93,5L107,53.36c0,.58-1.41,2.21-1.39,2.3-.25-1.19,1.41-.59,1.3-.57,2.55-.5,5.71.38,8.21.74a136,136,0,0,0,22,1.59,131.06,131.06,0,0,0,41.81-7.64c12.86-4.62,10.53-22.52-3.19-23.57Q98.94,20.3,22.16,14.32c-4.87-.38-10.64,4-11.58,8.81-1.26,6.5.47,12.55,6.47,16a14.32,14.32,0,0,0,7.83,2c-.55,0,7.13-.88,4.93-.91l-6.06-1.64c-2-2.16-2.45-2.36-1.29-.62l1.87,2.43a15,15,0,0,0,6.16,3.81,20.26,20.26,0,0,0,11,.15c7.21-1.58,13.64-2.62,21.1-2.21,14.79.81,29.1,6.06,43,10.83,6.13,2.11,13.12-2.41,14.76-8.38C122.17,38,118.13,32,112,29.84Z" transform="translate(-6.75 -5.68)"/>
    <path class="cls-2" d="M162.78,69.14l54.1,14.78c9.64,2.63,16-6,14.76-14.76l-5-33.93c-.86-5.83-2.46-11.36-7.7-14.79-4.91-3.22-10.29-3.28-16-3.26-10.84,0-21.68,0-32.52.09-10.68.08-20.91,1.58-29,9.15-6.54,6.11-3.31,17.92,5.3,20L210,62.17l3.19-23.57-41.92-.07c-15.44,0-15.47,24,0,24l41.92.07c13.37,0,16.51-20.26,3.19-23.57l-63.21-15.7,5.29,20.06c1.17-1.09,4.25-1.83,6.84-2,4.91-.3,9.85-.15,14.76-.16l15.31,0,8.6,0a23.11,23.11,0,0,0,3.53,0c1.61-.29-.36.18-.63,0l-4.3-4.31c0-.89,0-.91.17-.06a12.37,12.37,0,0,1,.36,1.91c.3,1.6.48,3.23.72,4.84l1.57,10.67,3.14,21.33,14.77-14.77L169.16,46c-14.92-4.07-21.29,19.07-6.38,23.15Z" transform="translate(-6.75 -5.68)"/>
    <path class="cls-2" d="M16.94,41.39,14.6,93.18l-1.17,25.89c-.36,8.07-1.45,16.88,1.19,24.69,5.53,16.32,21.36,20.16,36.7,21.51,8.27.73,16.54,1.43,24.8,2.15,8,.68,16.28,1.84,23.49-2.46s10-12.05,11.17-19.89c1.28-8.51,2.52-17,3.78-25.55,2.57-17.36,5.25-34.71,7.71-52.08,1.26-8.95.81-18.1-7.53-23.65-6.63-4.42-15.43-4.35-23.07-5.37L66.34,35c-7.78-1-16.66-3.56-24.4-1.21-9.73,3-13.91,12.36-14.38,21.79-.43,8.87.49,18,.79,26.85l2,58.78,22.36-6.06-5.48-7.47L33.68,145.35A151.34,151.34,0,0,0,63.43,153c10,1.47,21.28,3.26,29.57-4s7.31-18.63,7.51-28.7l.63-32.36c.2-10.15,1.64-21.2-.58-31.2A26.56,26.56,0,0,0,82.4,37.19a28,28,0,0,0-26,5c-8.35,6.71-11.89,16.74-13,27.08-1.23,11.21-.24,22.86-.09,34.12L43.8,141c.1,7,7.73,14.59,15.19,11.57,16.46-6.65,19.58-23.77,22-39.62A210.71,210.71,0,0,0,82.56,60c-.64-6.45-5-12-12-12-6,0-12.65,5.51-12,12a199.67,199.67,0,0,1-.15,42.12,154.94,154.94,0,0,1-3.49,19.48c-.27,1.12-.55,2.24-.89,3.34-.08.27-1,2.86-.48,1.72-.13.32-1.12,3-.95,2.14-.14.7-1.61,1.26,0,.6L67.8,141l-.65-50.49c-.09-7-.93-14.6.38-21.53A16.07,16.07,0,0,1,70.22,62c-.41.58,1.14-1.56.69-1-.06.09,1.94-1.28.91-.71-.69.38,1.13-.37,1.45-.44a3.3,3.3,0,0,1,.73-.09c-1.14-.29,2.72.61,1.72.39a2.74,2.74,0,0,1,.72.45c.94.84.23.2.07-.11,0,.07.57,1.15.54,1.06,1.9,6,.32,14.9.19,21.41-.32,16.09-1.66,32.53-1,48.6a5,5,0,0,1-.16,1.41c-.55.13,2.09-2.57,1.94-2.39,1.48-1.68,1,0-.18-.23,1.52.24-.91,0-1.44,0a62.59,62.59,0,0,1-10.3-1.16,150.79,150.79,0,0,1-26.07-7c-9.42-3.44-19.65,9.3-13.55,17.63L32,147.31c3.19,4.35,8,7,13.55,5.51,5-1.36,9-6.33,8.81-11.57-.94-27.83-2.74-55.77-2.82-83.61,0-.42-.57-3.45,0-2.17-.83-1.94.87-1.39.07-.72L49.83,56.4q-3.39.68-.2.5a38.29,38.29,0,0,0,4,.44c7.15.93,14.29,1.91,21.43,2.87l20.46,2.73c.7.1,5.9,1.4,6.53,1.09-1.06.53-2.66-3.57-3-3.67C99,59.64,99,60,99,61.49c.25-1.08.19-.57-.19,1.53C97,76.8,94.76,90.54,92.73,104.29l-3.2,21.62-1.45,9.83c-.14.94-1.85,9.5-1.76,9.56-.2-.12.42-.45.41-.48l1.7-.86q-2.18.73-1.14.24c-2.58-.48-5.68-.31-8.3-.54l-21-1.81c-5.74-.5-10.07-.55-15-1.84-3.76-1-5-1.06-5.86-4.88-1.36-6.33.25-14.58.54-21l1.08-23.9,2.21-48.8c.29-6.48-5.73-12-12-12-6.75,0-11.71,5.5-12,12Z" transform="translate(-6.75 -5.68)"/>
    <path class="cls-2" d="M16.9,150.77l3.81,106.68,1.88,52.85c.31,8.54.88,17.12.75,25.67a45.45,45.45,0,0,1-.8,9c-.83,3.84-2.69,7.34-3.51,11.16-2.52,11.65,4.57,21.34,16.2,23,9.36,1.32,19,1.34,28.47,1.89,6.48.38,12-5.79,12-12,0-6.81-5.5-11.62-12-12l-14.88-.87-7.44-.43c-1.07-.06-2.13-.13-3.2-.21a1,1,0,0,1,.94.27q2.58,9.95,3.69,4.45c.36-1,.74-2,1.15-3a46.2,46.2,0,0,0,1.91-6.71,81.52,81.52,0,0,0,1.46-13.66c.5-20.41-1.25-41.06-2-61.46L40.9,150.77c-.55-15.4-24.55-15.47-24,0Z" transform="translate(-6.75 -5.68)"/>
    <path class="cls-2" d="M66.59,380.66c15.45,0,15.47-24,0-24s-15.47,24,0,24Z" transform="translate(-6.75 -5.68)"/>
    <path class="cls-2" d="M46.19,350.37a63.36,63.36,0,0,1-6.54-36.06c1.52-14.4,5.44-28,1.43-42.4-4.14-14.86-27.3-8.55-23.14,6.38,3.72,13.37-2.2,27.79-2.66,41.29-.51,14.95,3.34,29.69,10.18,42.91,3,5.75,11,7.45,16.42,4.3,5.84-3.41,7.29-10.64,4.31-16.42Z" transform="translate(-6.75 -5.68)"/>
    <path class="cls-2" d="M63.42,362.43A1331.89,1331.89,0,0,1,83.8,149.19c1.13-6.37-1.73-12.93-8.38-14.76-5.81-1.6-13.62,2-14.77,8.38A1372.24,1372.24,0,0,0,39.42,362.43c-.24,15.45,23.76,15.45,24,0Z" transform="translate(-6.75 -5.68)"/>
    <path class="cls-2" d="M47,160.76,36.6,244h24l.74-79.42h-24L38,272.18c.09,15.43,24.09,15.47,24,0L61.34,164.6c-.09-15.44-23.85-15.46-24,0L36.6,244a12.18,12.18,0,0,0,12,12c7.15,0,11.2-5.54,12-12L71,160.76c.8-6.44-6.09-12-12-12-7.15,0-11.2,5.54-12,12Z" transform="translate(-6.75 -5.68)"/>
    <path class="cls-2" d="M69.6,334.22c4.68-58.75,12.59-117.94,27.55-175L73.58,156A427.93,427.93,0,0,1,50.81,305.34c-2.09,6.13,2.4,13.12,8.38,14.76,6.58,1.81,12.67-2.22,14.77-8.38A448.22,448.22,0,0,0,97.58,156c-.35-13.29-20.06-16.59-23.57-3.19-15.5,59.1-23.56,120.57-28.41,181.4-.51,6.46,5.89,12,12,12,6.92,0,11.49-5.52,12-12Z" transform="translate(-6.75 -5.68)"/>
    <path class="cls-3" d="M262.08,101.82l15,4.57c1.86.57,5.44.93,6.94,2.15s.4-.6,1,1.2c.3,1-.59,3.65-.75,4.51l-5.79,31.87c-1.15,6.29,8.49,9,9.64,2.66l3.75-20.63c1.14-6.27,3.52-13.45,3.16-19.85-.34-5.83-4.91-8.36-10-9.93-6.75-2.11-13.53-4.13-20.3-6.19-6.17-1.88-8.8,7.77-2.65,9.64Z" transform="translate(-6.75 -5.68)"/>
    <path class="cls-3" d="M94.61,380.73l6.57,0a5,5,0,0,0,0-10l-6.57,0a5,5,0,0,0,0,10Z" transform="translate(-6.75 -5.68)"/>
  </g>
  <g id="oracle">
    <line class="cls-4" x1="113.61" y1="57.7" x2="57.45" y2="347.86"/>
    <path class="cls-3" d="M11.62,20.76l213.12,2.55c6.44.07,6.44-9.92,0-10L11.62,10.76c-6.44-.07-6.44,9.93,0,10Z" transform="translate(-6.75 -5.68)"/>
    <path class="cls-3" d="M6.75,20.13c.86,92.32,3.46,184.61,5.25,276.92q.77,39.29,1.26,78.56c.08,6.43,10.08,6.45,10,0-1.12-92.35-3.79-184.67-5.43-277q-.69-39.22-1.08-78.47c-.06-6.43-10.06-6.44-10,0Z" transform="translate(-6.75 -5.68)"/>
    <path class="cls-3" d="M16.67,380.86H95.15c6.44,0,6.45-10,0-10H16.67c-6.43,0-6.44,10,0,10Z" transform="translate(-6.75 -5.68)"/>
    <path class="cls-3" d="M264.9,92.16c-46.15-13.74-93-25.11-139.5-37.63-6.22-1.68-8.87,8-2.66,9.64,46.49,12.52,93.35,23.89,139.5,37.63,6.18,1.84,8.82-7.81,2.66-9.64Z" transform="translate(-6.75 -5.68)"/>
    <path class="cls-3" d="M118.32,57.9C105.7,123.75,92.44,189.48,79.43,255.25Q74.54,280,69.7,304.75q-2.55,13-5.06,26.06c-1.45,7.49-3.67,15.27-2.81,23,.76,6.78,5.71,11,11.2,14.19a123.61,123.61,0,0,0,20.41,9.57c3.53,1.27,7.43,1.93,10.84,3.44s6.26,3.32,9.85,4.4c7.37,2.24,14.67,4.73,22,7.09,4.24,1.37,8.5,2.71,12.79,3.93,4.09,1.16,8.88,1.66,12.76,3.3,7.21,3,15,4.25,22.73,6,18.33,4.21,36.64,8.46,55.42,10.06,2.92.25,4.71-2.51,5-5,4.31-35.95,11.71-71.53,17.5-107.26,5.9-36.36,11.59-72.72,18-109,3.63-20.51,7.13-41,10.14-61.64.92-6.3-8.72-9-9.64-2.66C275.42,167.3,268,204,262.18,241c-5.73,36.27-11.32,72.56-17.78,108.71-3.61,20.28-7.12,40.61-9.57,61.06l5-5c-16-1.36-31.59-4.83-47.19-8.42-7.5-1.72-15.07-3.22-22.56-5-2.21-.52-3.76-1.7-5.92-2.38-4.09-1.3-8.43-2-12.58-3.21-6.84-1.94-13.59-4.17-20.34-6.39-7.14-2.34-14.51-4.14-21.14-7.64-6-3.17-13-4.22-19.31-6.91-3.27-1.39-6.45-3-9.56-4.69s-7.82-3.5-9.07-7.25c-2.2-6.62,1.23-15.79,2.49-22.34q2.43-12.54,4.88-25.08,4.65-23.81,9.36-47.59,9.26-46.81,18.59-93.61Q117.86,112.93,128,60.56c1.21-6.29-8.43-9-9.64-2.66Z" transform="translate(-6.75 -5.68)"/>
    <path class="cls-3" d="M221.16,19.47l1,59c.11,6.42,10.11,6.44,10,0l-1-59c-.1-6.43-10.1-6.45-10,0Z" transform="translate(-6.75 -5.68)"/>
    <path class="cls-3" d="M228.35,87.1c6.44,0,6.45-10,0-10s-6.44,10,0,10Z" transform="translate(-6.75 -5.68)"/>
    <path class="cls-3" d="M188.72,144.14c-10.23,1.42-19.91,6.79-27.21,14S148.74,175,147.2,185.21a51,51,0,0,0,27.5,53.1c11.42,5.43,24.74,6.48,37.21,5.22,6.7-.68,13.16-2.09,19.17-5.24a41.42,41.42,0,0,0,13.82-12.44c12.85-17.44,11.57-43.36-.87-60.64a53.53,53.53,0,0,0-26.89-19.67,56.48,56.48,0,0,0-32.12-.87,59.28,59.28,0,0,0-8.29,3.07,7.53,7.53,0,0,0-3.45,4.48A7.67,7.67,0,0,0,174,158a7.59,7.59,0,0,0,4.48,3.45,8.72,8.72,0,0,0,5.78-.76l.68-.3-1.79.76A47.24,47.24,0,0,1,195,157.92l-2,.27a50.29,50.29,0,0,1,13,0l-2-.27a50.73,50.73,0,0,1,12.57,3.39l-1.79-.76a47.82,47.82,0,0,1,7.54,4c.62.41,1.24.83,1.84,1.27.42.31,1.49,1.23-.33-.27.28.24.58.46.87.7a42.39,42.39,0,0,1,3.13,2.87c1,1,1.92,2,2.8,3.13.36.45,1,1.54-.27-.37.21.3.44.59.65.88.39.55.77,1.1,1.14,1.66a48.56,48.56,0,0,1,4,7.57l-.76-1.79a49.82,49.82,0,0,1,3.34,12.33l-.27-2a47.87,47.87,0,0,1,0,12.37l.27-2a43.88,43.88,0,0,1-3,11l.76-1.79a42.83,42.83,0,0,1-3,5.74c-.56.89-1.17,1.73-1.77,2.59s1-1.28.45-.58l-.49.6c-.37.45-.76.9-1.16,1.33-.7.77-1.44,1.5-2.21,2.2-.38.35-.77.69-1.18,1-.1.09-.47.49-.6.49.08,0,1.46-1.08.58-.47a34.42,34.42,0,0,1-6.06,3.42l1.79-.75a43.82,43.82,0,0,1-10.86,2.85l2-.27a83.5,83.5,0,0,1-21.54,0l2,.27a49.73,49.73,0,0,1-12.42-3.23l1.79.75a39.85,39.85,0,0,1-7.16-3.93c-.25-.16-.49-.34-.73-.51s-1.35-1-.24-.16.17.13-.07-.07l-.83-.68c-1-.89-2-1.82-3-2.8s-1.78-1.92-2.6-2.93c-.19-.23-1-1.33-.19-.22s.12.15-.06-.1c-.42-.58-.83-1.16-1.22-1.76a46.45,46.45,0,0,1-3.89-7.22l.76,1.8a44.33,44.33,0,0,1-3.11-11.29l.26,2a40.73,40.73,0,0,1,0-10.29l-.27,2a41.15,41.15,0,0,1,2.79-10.2l-.75,1.8a44,44,0,0,1,3.94-7.31c.39-.58.8-1.16,1.23-1.73.72-1-.25.24-.43.53a7.6,7.6,0,0,1,.67-.83c.9-1.09,1.86-2.15,2.86-3.15s2-1.89,3-2.76l.82-.68c1-.76-.31.17-.54.41a10.67,10.67,0,0,1,1.73-1.24,44.64,44.64,0,0,1,7.43-4.07l-1.79.75a41,41,0,0,1,10.19-2.82c1.72-.24,3.65-2,4.48-3.45a7.49,7.49,0,0,0-2.69-10.26,8.79,8.79,0,0,0-5.78-.75Z" transform="translate(-6.75 -5.68)"/>
    <path class="cls-3" d="M200.23,148l-.2-24.12a4.5,4.5,0,1,0-9,0l.2,24.12a4.5,4.5,0,0,0,9,0Z" transform="translate(-6.75 -5.68)"/>
    <path class="cls-3" d="M183.08,148.92l-7.15-23.41a4.5,4.5,0,1,0-8.68,2.39l7.15,23.41a4.5,4.5,0,1,0,8.68-2.39Z" transform="translate(-6.75 -5.68)"/>
    <path class="cls-3" d="M169,155.31c-.93-.62-1.86-1.26-2.77-1.91l-1.43-1.05c-.23-.18-.49-.35-.71-.54.28.24.46.36.07.05q-2.72-2.15-5.27-4.48a89.71,89.71,0,0,1-9.33-10c-1.48-1.84-4.84-1.66-6.36,0a4.63,4.63,0,0,0,0,6.37,95,95,0,0,0,21.26,19.3,4.55,4.55,0,0,0,6.16-1.62,4.61,4.61,0,0,0-1.62-6.16Z" transform="translate(-6.75 -5.68)"/>
    <path class="cls-3" d="M157.78,167.86l-12.88-3.5a4.5,4.5,0,1,0-2.4,8.67l12.89,3.51a4.5,4.5,0,1,0,2.39-8.68Z" transform="translate(-6.75 -5.68)"/>
    <path class="cls-3" d="M153.11,197.44l-26.27,1.94c-2.34.18-4.61,2-4.5,4.5.1,2.29,2,4.69,4.5,4.5l26.27-1.94c2.34-.17,4.61-1.95,4.5-4.5-.1-2.29-2-4.69-4.5-4.5Z" transform="translate(-6.75 -5.68)"/>
    <path class="cls-3" d="M154.07,209.23l-25.38,11.86c-2.13,1-2.84,4.24-1.61,6.16a4.63,4.63,0,0,0,6.16,1.61L158.62,217c2.14-1,2.84-4.25,1.61-6.16a4.64,4.64,0,0,0-6.16-1.62Z" transform="translate(-6.75 -5.68)"/>
    <path class="cls-3" d="M167.23,224l-18.71,16.57a4.52,4.52,0,0,0,0,6.36,4.59,4.59,0,0,0,6.36,0l18.72-16.56a4.55,4.55,0,0,0,0-6.37,4.62,4.62,0,0,0-6.37,0Z" transform="translate(-6.75 -5.68)"/>
    <path class="cls-3" d="M181.75,232.06l-8.65,31.32a4.5,4.5,0,1,0,8.67,2.39l8.65-31.32a4.5,4.5,0,0,0-8.67-2.39Z" transform="translate(-6.75 -5.68)"/>
    <path class="cls-3" d="M191.61,237.25l.95,21.25a4.5,4.5,0,0,0,9,0l-.95-21.25a4.5,4.5,0,0,0-9,0Z" transform="translate(-6.75 -5.68)"/>
    <path class="cls-3" d="M209.74,236.63l13.45,24.05a4.55,4.55,0,0,0,6.15,1.62,4.6,4.6,0,0,0,1.62-6.16l-13.45-24a4.5,4.5,0,0,0-7.77,4.54Z" transform="translate(-6.75 -5.68)"/>
    <path class="cls-3" d="M227.33,232a31.56,31.56,0,0,0,6.29,7.15,36.36,36.36,0,0,0,4.18,3,35.84,35.84,0,0,0,4.83,2.34,4.53,4.53,0,0,0,3.47-.45,4.65,4.65,0,0,0,2.07-2.69,4.56,4.56,0,0,0-.46-3.47L247,237a4.41,4.41,0,0,0-2-1.16l-.37-.15,1.08.45a28.73,28.73,0,0,1-6-3.54l.91.7a28.87,28.87,0,0,1-4.94-4.94l.7.91c-.44-.59-.87-1.18-1.27-1.8a4.76,4.76,0,0,0-2.69-2.07,4.62,4.62,0,0,0-3.47.46c-2,1.26-3,4-1.61,6.15Z" transform="translate(-6.75 -5.68)"/>
    <path class="cls-3" d="M240.65,218.05l15.17,9.28a4.5,4.5,0,0,0,4.55-7.77l-15.18-9.28a4.5,4.5,0,0,0-4.54,7.77Z" transform="translate(-6.75 -5.68)"/>
    <path class="cls-3" d="M243.45,194.46l14.8,1.4a4.5,4.5,0,0,0,3.18-7.68,5.08,5.08,0,0,0-3.18-1.32l-14.8-1.4a4.5,4.5,0,0,0-3.18,7.68,5.11,5.11,0,0,0,3.18,1.32Z" transform="translate(-6.75 -5.68)"/>
    <path class="cls-3" d="M241.5,179.94,259.7,175a4.5,4.5,0,0,0-2.39-8.68l-18.2,4.91a4.55,4.55,0,0,0-3.15,5.53,4.6,4.6,0,0,0,5.54,3.15Z" transform="translate(-6.75 -5.68)"/>
    <path class="cls-3" d="M236.16,166.49,253,156.7a4.5,4.5,0,0,0-4.54-7.78l-16.88,9.8a4.5,4.5,0,1,0,4.55,7.77Z" transform="translate(-6.75 -5.68)"/>
    <path class="cls-3" d="M226.53,156.89l11.41-18.2a4.54,4.54,0,0,0-1.61-6.15,4.6,4.6,0,0,0-6.16,1.61l-11.41,18.2a4.5,4.5,0,1,0,7.77,4.54Z" transform="translate(-6.75 -5.68)"/>
    <path class="cls-3" d="M211.84,148.71l5.83-19.41a4.54,4.54,0,0,0-3.14-5.54A4.6,4.6,0,0,0,209,126.9l-5.83,19.42a4.55,4.55,0,0,0,3.14,5.54,4.6,4.6,0,0,0,5.54-3.15Z" transform="translate(-6.75 -5.68)"/>
    <path class="cls-3" d="M135.38,353.47l7.13,19.11c.67,1.79,3.57,1,2.9-.8l-7.14-19.1c-.67-1.8-3.57-1-2.89.79Z" transform="translate(-6.75 -5.68)"/>
    <path class="cls-3" d="M132.16,370.32,149,358.68a1.55,1.55,0,0,0,.54-2.06,1.51,1.51,0,0,0-2-.53l-16.84,11.64a1.53,1.53,0,0,0-.54,2,1.51,1.51,0,0,0,2,.54Z" transform="translate(-6.75 -5.68)"/>
    <path class="cls-3" d="M159.71,360.28l-4.08,15.54a1.5,1.5,0,0,0,2.89.8l4.09-15.54a1.51,1.51,0,0,0-2.9-.8Z" transform="translate(-6.75 -5.68)"/>
    <path class="cls-3" d="M166.72,364.84l9.73,19.26c.87,1.72,3.46.21,2.59-1.52l-9.73-19.25c-.87-1.73-3.46-.21-2.59,1.51Z" transform="translate(-6.75 -5.68)"/>
    <path class="cls-3" d="M163.7,382.65a34.78,34.78,0,0,0,17.87-14.44c1-1.64-1.58-3.15-2.59-1.51a31.51,31.51,0,0,1-16.08,13.06,1.53,1.53,0,0,0-1,1.85,1.51,1.51,0,0,0,1.84,1Z" transform="translate(-6.75 -5.68)"/>
    <path class="cls-3" d="M11.69,15.68,226.24,21c6.44.16,6.44-9.84,0-10L11.69,5.68c-6.44-.16-6.43,9.84,0,10Z" transform="translate(-6.75 -5.68)"/>
    <path class="cls-3" d="M28.12,24.36l36.75-3.27c6.36-.56,6.42-10.57,0-10L28.12,14.36c-6.36.56-6.42,10.57,0,10Z" transform="translate(-6.75 -5.68)"/>
    <path class="cls-3" d="M14.54,23.92l207.34,5.16c6.44.16,6.44-9.84,0-10L14.54,13.92c-6.43-.16-6.43,9.84,0,10Z" transform="translate(-6.75 -5.68)"/>
    <path class="cls-3" d="M15.24,16.33l211,2.47c6.44.08,6.44-9.92,0-10L15.24,6.33c-6.44-.07-6.45,9.93,0,10Z" transform="translate(-6.75 -5.68)"/>
    <path class="cls-3" d="M12.38,31.94,219.7,36.59c6.44.14,6.44-9.86,0-10L12.38,21.94c-6.44-.14-6.44,9.86,0,10Z" transform="translate(-6.75 -5.68)"/>
    <path class="cls-3" d="M23.16,368.35l43.93,1c6.44.14,6.44-9.86,0-10l-43.93-1c-6.44-.15-6.44,9.85,0,10Z" transform="translate(-6.75 -5.68)"/>
    <path class="cls-3" d="M80.09,364.35a277.84,277.84,0,0,0-56.78,1.94c-6.35.86-3.65,10.5,2.65,9.65a265.49,265.49,0,0,1,54.13-1.59c6.42.45,6.39-9.55,0-10Z" transform="translate(-6.75 -5.68)"/>
  </g>
</svg>
