<svg id="spells-charms-rituals" xmlns="http://www.w3.org/2000/svg" viewBox="0 0 759.13 806.01">
  <defs>
    <style>
      .cls-1 {
        fill: #4b3a68;
      }
    </style>
  </defs>
  <path class="cls-1" d="M291.85,90.8c-7.69,3-15.21,6-21.62,11.33-5.92,4.87-9.78,11.9-9.76,19.64,0,7.34,3.45,14.86,9.94,18.63a20.25,20.25,0,0,0,12,2.45c2.33-.22,4.64-.62,6.95-1l1.34-.23c.62-.1,2,0-.2,0,.87,0,1.75-.19,2.64-.2.43,0,.86,0,1.3,0,1.56,0-1.78-.46-.29,0l1.25.35c1.5.42-1.5-.89-.3-.1a6.52,6.52,0,0,0,1,.62l-.91-.7c.2.16.39.34.57.51a10.62,10.62,0,0,0,.78.85q-1.16-1.54-.48-.6c.14.21.28.43.41.65s.36.68.54,1c.69,1.3-.57-1.76-.16-.35.18.63.39,1.24.52,1.89s0,1.71,0-.46c0,.38.07.78.09,1.16s0,.86,0,1.3a5.89,5.89,0,0,1-.15,2.11l.12-.94c-.05.35-.1.7-.17,1.05q-.13.78-.3,1.56c-.23,1.05-.48,2.09-.73,3.13-.49,2.06-1,4.12-1.31,6.21a43.72,43.72,0,0,0-.07,13.12,30.85,30.85,0,0,0,12.09,20.39c5.82,4.32,13.44,5.29,20.43,4.14a21.5,21.5,0,0,0,16.69-13.15,27.88,27.88,0,0,0,1.47-7.08c.05-.46.58-2.62.32-2.94l-.14,1c0-.33.1-.65.15-1,.09-.49.19-1,.32-1.45s.3-.74.35-1.09l-.45,1.07c.11-.24.23-.48.36-.71a7.69,7.69,0,0,0,.63-1l-.69.89c.16-.2.34-.4.52-.59l.28-.27c.57-.51.37-.37-.63.43a4,4,0,0,0,1-.59l-1.1.46q.36-.12.72-.21c-1.37.14-1.66.18-.86.13s.53,0-.86-.19a5.29,5.29,0,0,0,.95.24c-1.3-.15-1.6-.7-.67-.22,1.1.57-1.38-1.35-.57-.42.2.23.88,1.05,0-.07s.18.52.38.87c-1.06-1.81-.51-1.26-.28-.55.14.44.25.89.35,1.33s.11.7.18,1c-.51-2.34-.16-1.24-.11-.58s.08,1.4.07,2.11c0,2.05-.28,4.11-.44,6.16l-2.18,26.77c-.73,9.09-2.15,18.6.35,27.55,2.39,8.51,8.45,15.76,16.91,18.65s17.18-.13,23.83-5.36A32.48,32.48,0,0,0,395.86,229c1.39-9,.18-17.73-.17-26.71,0-.95-.06-1.9,0-2.85,0-.47.06-.94.07-1.42.07-1.67-.39,1.76,0,.13.17-.77.35-1.51.58-2.26.47-1.53-.89,1.42,0,.08.15-.28.31-.55.48-.82.44-.62.27-.42-.49.62a6.28,6.28,0,0,0,.81-.82c1-1-1.54.91-.28.23a7.22,7.22,0,0,0,1-.57l-1.08.44c.24-.09.48-.18.73-.25.89-.26,1.3.1-.5,0,.35,0,.78,0,1.13,0,1.44,0-1.91-.39-.52,0,1.23.32-1.79-.89-.12,0,1.13.62-1.33-1.32-.51-.36.18.23.89,1.08,0,0s.17.51.37.87c-1.08-1.87-.52-1.28-.28-.59.1.32.2.63.29.95.21.77.39,1.54.57,2.32.85,3.71,2,7.18,4.55,10.12,6.72,7.83,19.51,5.24,25.51-2,3-3.65,4.74-7.77,6.42-12.15H419.94l6.72,40.54c.84,5,1.45,10.13,3.35,14.88,2.13,5.32,5.3,10.54,10.66,13.13a18.16,18.16,0,0,0,10.53,1.75,20.81,20.81,0,0,0,10.49-4.75c5.1-4.15,7.69-10.56,8.81-16.88s1.84-12.93,2.73-19.38l2.8-20.42,2.81-20.43c.41-3,.77-6,1.39-9a38.52,38.52,0,0,1,1.11-4.22c.2-.61.48-1.21.66-1.82-.48,1.64-.41.92-.17.46s.43-.87.67-1.29c.34-.61.73-1.18,1.1-1.77.53-.84-1.28,1.44-.28.35.19-.2.37-.42.56-.63.39-.41.79-.81,1.21-1.19.16-.14,1.28-1,.23-.23s0,0,.28-.16c.6-.39,1.23-.71,1.85-1.06s.66.1-.63.25a5.05,5.05,0,0,0,.8-.29c.6-.2,1.21-.32,1.83-.47.93-.22-1.71.13-.75.1.42,0,.83,0,1.25,0l.85.05c1,0-2-.45-.53,0,.44.13.89.22,1.32.37,1.71.59-1.45-.82-.14,0,.46.27.92.53,1.37.82,1.28.83-1.47-1.27-.15-.1.32.29.62.58.92.89s.72.8,1.07,1.21.65,1.07-.57-.74l.59.81c2.39,3.42,4.13,7.25,6.45,10.72a28.11,28.11,0,0,0,13,11.07c10.6,4.33,23.1.48,31.65-6.39,9.55-7.69,13.06-20.44,14.15-32.13,1.21-13,0-26.38-1.82-39.29-.46-3.28-1-6.55-1.65-9.81-.75-3.85-5.58-6.41-9.23-5.23a7.69,7.69,0,0,0-5.24,9.22q1,4.89,1.66,9.81c.05.36.08.74.15,1.09,0-.21-.22-1.73-.05-.35.09.73.19,1.46.27,2.19.19,1.65.36,3.29.51,4.94a188.68,188.68,0,0,1,.79,19.31c0,2.63-.13,5.26-.37,7.89q-.08.9-.18,1.8c0,.29-.1.61-.11.9.09-2.07.14-1,0-.43-.21,1.34-.46,2.67-.76,4s-.6,2.46-1,3.67c-.18.56-.37,1.13-.57,1.69-.1.27-.21.55-.31.83-.52,1.44.66-1.45.07-.15-.53,1.14-1.08,2.27-1.72,3.36-.34.58-.7,1.15-1.07,1.71l-.51.74-.27.36c-.47.63-.36.49.34-.43a24.53,24.53,0,0,0-2.06,2.24c-.36.35-.73.68-1.11,1-.19.16-1.2,1-.12.12s.09-.08-.15.09a28.41,28.41,0,0,1-2.93,1.8c-.45.24-.9.47-1.37.69l-.7.31c2.13-1,.88-.37.37-.18a30,30,0,0,1-2.93.9c-.55.14-1.11.26-1.67.36l-.75.12c-.81.14,2.14-.2.5-.08a30.24,30.24,0,0,1-3.16.08c-.49,0-1-.11-1.47-.12,2.51.05.64.09-.16-.09-.47-.1-.94-.23-1.4-.37s-2.15-.81-.79-.24-.31-.18-.57-.32c-.54-.29-1-.62-1.55-1-1.31-.86,1.38,1.21,0-.06-.34-.31-.66-.62-1-.95s-.62-.67-.92-1c-.15-.18-.29-.36-.44-.53-.86-1,1.05,1.45.33.42-2.33-3.36-4.13-7-6.31-10.47-2.56-4-5.83-8-10.27-10a20.81,20.81,0,0,0-19.72,1.19c-5.91,3.59-9.69,9.31-11.77,15.81-1.85,5.78-2.3,12-3.12,18l-5.38,39.17c-.84,6.1-1.34,12.37-2.74,18.37a37.81,37.81,0,0,1-1.17,3.89c-.32.94.66-1.35.2-.47-.19.35-.35.72-.54,1.07-.32.59-.69,1.14-1.06,1.71-.53.83,1.29-1.42.26-.35-.2.2-.38.42-.58.63-.39.4-.87.75-1.26,1.16,1.08-1.16,1-.73.49-.4l-.71.47q-.37.23-.75.42c-.25.13-.51.26-.77.37l1-.43a11.93,11.93,0,0,0-1.84.5c-.93.24,1.69-.1.73-.1l-.85,0c-.73,0-1.37-.36.55.15-.22-.06-.47-.08-.7-.13s-1.51-.25-1.66-.51c-.05-.1,1.88,1,.88.34-.19-.12-.39-.22-.58-.33s-.37-.24-.56-.36c-1-.59.81.55.73.57s-1-.94-1.1-1l-.45-.5c-.88-1,.26.51.43.58-.63-.28-1.34-2.11-1.64-2.7a6.28,6.28,0,0,1-.62-1.31s.74,1.89.34.78c-.12-.34-.26-.69-.38-1a43,43,0,0,1-1.6-6.19C440,225,438.12,212.19,436,199.49l-1.61-9.72c-.51-3.08-4.21-5.64-7.23-5.5a7.87,7.87,0,0,0-7.23,5.5,21.79,21.79,0,0,0-1,2.53c.46-1.9.31-.71,0-.12-.2.41-.39.82-.6,1.22-.35.67-.72,1.33-1.13,2l-.25.37c-.46.65-.33.5.37-.43-.41.21-.87,1-1.21,1.35l-.34.31c-.63.55-.45.42.56-.38a10.82,10.82,0,0,0-1,.65c-.22.13-1.44.68-.19.17s0,0-.25.06c-.39.12-.78.2-1.18.31-1.44.4,1.89,0,.4-.06a5.91,5.91,0,0,0-1.19,0c1.34.21,1.62.24.84.1a6.87,6.87,0,0,1-.75-.19c-1.23-.27.8.31.73.33l-.34-.19c-.65-.41-.46-.24.56.51a9.28,9.28,0,0,0-.71-.69c-.93-.91,1,1.61.39.47-.15-.28-.32-.56-.47-.85-.65-1.16.65,1.86.24.58-.21-.65-.42-1.29-.59-1.94-.81-3.13-1.34-6.27-3-9.12a14.19,14.19,0,0,0-11.76-7,16.5,16.5,0,0,0-12.44,5.43c-6.41,7.17-5,17.08-4.4,25.89a90,90,0,0,1,.25,12.4c-.06.84-.21,1.69-.25,2.54.1-2.11.06-.48,0,0s-.19,1-.3,1.5c-.23,1-.49,2-.81,3-.12.36-.24.7-.37,1.05-.61,1.65.72-1.41.06-.15-.74,1.45-1.73,2.74-2.5,4.16.79-1.45.81-1,.42-.55s-.53.63-.81.93a24.43,24.43,0,0,1-2.05,2c-.3.27-.66.5-.94.79,1.45-1.45.73-.57.2-.21a19.09,19.09,0,0,1-1.72,1.08l-1.07.56c-.67.33-1.56.32.33-.11-.76.17-1.49.54-2.26.73-.38.1-.77.17-1.15.26-1.47.33,1.93-.13.43-.06a20.65,20.65,0,0,1-2.36,0c-.72,0-1.66-.48.41.08-.25-.07-.53-.09-.79-.15s-.79-.2-1.18-.32-.54-.17-.8-.27c-.74-.29-.52-.2.64.27a19.58,19.58,0,0,0-2.15-1.22l-.34-.24c-.63-.46-.45-.32.54.43A3.94,3.94,0,0,0,362,239c-.61-.56-1.15-1.16-1.7-1.77-1-1.12,1,1.48.16.22-.31-.46-.62-.9-.91-1.37s-.68-1.19-1-1.81-.34-1.59.09.3a10.65,10.65,0,0,0-.42-1.15,24.83,24.83,0,0,1-.73-2.69c-.08-.34-.14-.68-.21-1s-.11-.69-.16-1c.14,1.13.17,1.27.07.43a85.9,85.9,0,0,1,.23-12.63q1-13.1,2.13-26.18c.35-4.38.78-8.77,1.06-13.16a24.72,24.72,0,0,0-1.07-9.56c-1.58-4.53-4.54-8.27-9.25-9.77a14,14,0,0,0-13.79,3.58c-3.76,3.56-5.05,8.29-5.66,13.24q-.18,1.47-.33,2.94c-.1,1.07-.24-.24.08-.52a6.26,6.26,0,0,0-.25,1.45c-.1.47-.22,1-.37,1.42-.24.78-1,1.74.18-.27l-1,1.78c-.43.77,1.35-1.56.51-.65-.22.23-.42.47-.64.69l-.69.64c-.95.89,1.61-1.11.52-.39-.49.33-1,.65-1.5.93-.23.13-.48.25-.72.37-1.09.58,2-.75.28-.12a31.15,31.15,0,0,1-3.57.92c2.66-.63.44-.06-.39,0a21.54,21.54,0,0,1-2.41,0l-.86-.08c-1-.06,2.12.37.8.1-.67-.14-1.34-.27-2-.46s-1.29-.45-1.94-.67c2.46.83.34.11-.33-.28-.29-.17-.57-.34-.85-.53-.58-.38-.91-1,.31.28-.55-.59-1.26-1.06-1.83-1.64s-.85-1.07-1.35-1.51c1.39,1.23.65.86.22.24q-.47-.66-.87-1.35c-.37-.63-.71-1.28-1-2s-.32-1.36.2.51c-.11-.38-.3-.76-.43-1.13a33.32,33.32,0,0,1-1.18-4.7c-.29-1.52.18,1.92,0,.38,0-.41-.08-.81-.1-1.22-.06-.81-.09-1.63-.08-2.45s0-1.36.07-2c0-.41.06-.81.1-1.22.22-2.06-.26,1.31,0,0,1.63-8.21,4.78-16.87,1.57-25.11-1.69-4.32-4.48-8.26-8.7-10.42-4.56-2.33-9.34-2.32-14.27-1.6-1.8.26-3.6.59-5.39.91-1.58.29,1.48-.15.42,0l-1.13.11c-.44,0-.89.06-1.34.06a9.64,9.64,0,0,0-1.77-.07L280,128l-.77-.16a8.62,8.62,0,0,1-1-.27c-1.73-.57,1.62.86,0,0q-.42-.22-.81-.48c-.64-.43-.87-1,.52.43-.45-.48-1-1-1.42-1.43-.63-.63,1.19,1.7.51.66-.16-.26-.34-.52-.5-.79-.42-.7-1-2.7-.22-.19-.18-.56-.4-1.1-.56-1.67-.22-.81-.35-3.19-.19-.39a29,29,0,0,1,0-3.61c.08-1.37-.37,2-.1.68.07-.32.12-.65.2-1,.18-.75.46-1.46.68-2.2-.71,2.38-.3.7.08,0a19.52,19.52,0,0,0,1.23-1.88l-.66.85c.18-.22.35-.44.54-.65s.55-.63.84-.94c.58-.61,1.19-1.19,1.83-1.75a9.46,9.46,0,0,0,1-.81c-1.21,1.39-.75.57-.15.14s1.42-1,2.15-1.43a50.59,50.59,0,0,1,4.63-2.53c.73-.36,1.47-.7,2.21-1,.34-.15.69-.29,1-.45,1.49-.66-1.66.68-.15.07s3.3-1.33,5-2a8.16,8.16,0,0,0,4.48-3.45,7.68,7.68,0,0,0,.76-5.78c-1.15-3.56-5.31-6.74-9.23-5.24Z" transform="translate(-5.74 -2.86)"/>
  <path class="cls-1" d="M318.05,22.42l-.06-.34.27,2a9.48,9.48,0,0,1,0-2.32l-.27,2a10.7,10.7,0,0,1,.59-2.22l-.75,1.79a15.23,15.23,0,0,1,1.12-2.06c.64-1-1.36,1.55-.1.17.28-.31.57-.6.87-.88.51-.47,1.63-1-.27.13.36-.22.7-.49,1.05-.72a19.26,19.26,0,0,1,2.46-1.3l-1.8.76a18.66,18.66,0,0,1,4.26-1.21l-2,.27a28.58,28.58,0,0,1,7.45.08l-2-.27c4.85.7,9.48,2.3,14.15,3.73s9.08,2.62,13.68,3.73a252.23,252.23,0,0,0,29.51,5.15,237.39,237.39,0,0,0,57.07-.23c11.08-1.4,22-3.86,33-5.37l-2,.27a79.23,79.23,0,0,1,20.29-.48l-2-.26a45.49,45.49,0,0,1,11.69,3.11l-1.79-.76a43,43,0,0,1,8.54,4.89c.44.33,1.41,1.25-.32-.26.28.25.59.47.88.71q1,.84,2,1.74,1.73,1.59,3.3,3.35c.55.61,1.08,1.23,1.6,1.86.24.29.46.59.71.88-1.52-1.76-.58-.75-.26-.32q1.45,1.95,2.74,4a62.65,62.65,0,0,1,4.55,8.85l-.75-1.8c4.57,11,6.41,22.75,8,34.46l-.27-2c.58,4.37,1.19,8.76.61,13.17l.27-2A18.8,18.8,0,0,1,533,99.11l.75-1.79a13.73,13.73,0,0,1-.84,1.67c-.16.26-.36.51-.52.77,1-1.74.9-1.11.39-.55-.22.23-.44.45-.68.67-.56.51-1.25.51.51-.37-.66.33-1.26.78-1.94,1.09l1.79-.75A17.36,17.36,0,0,1,528,101l2-.27a91.86,91.86,0,0,1-9.24.39l-10.13.22q-9.89.21-19.78.38c-13.35.24-26.71.41-40.07.43-26.67.06-53.36-.45-80-2.14-14.58-.93-29.22-2-43.7-4l2,.27a60.84,60.84,0,0,1-15.46-3.8l1.79.76a31.89,31.89,0,0,1-4-2c-.63-.39-1.21-.87-1.84-1.24,1.86,1.09.84.67.35.26-.33-.28-.65-.57-1-.86-.54-.52-1.07-1.07-1.56-1.64-.19-.22-1.1-1.36-.25-.27s0-.06-.18-.3a24.36,24.36,0,0,1-2.17-4.06l.75,1.79a33.18,33.18,0,0,1-2.13-8.25l.26,2a74.52,74.52,0,0,1-.22-13.77c.32-5.38.7-10.78,1.41-16.12l-.26,2a66.31,66.31,0,0,1,4.13-16.28l-.75,1.8a43.14,43.14,0,0,1,3-5.9c.58-1,1.2-1.88,1.86-2.77.13-.19.93-1.22.09-.13s0,.06.11-.11c.35-.43.72-.85,1.09-1.27.75-.82,1.53-1.61,2.36-2.36.41-.38.83-.74,1.26-1.1.14-.12.49-.3.58-.46-.15.28-1.53,1.14-.48.39a30.71,30.71,0,0,1,6-3.39l-1.79.76a32.1,32.1,0,0,1,7.66-2l-2,.27a38.11,38.11,0,0,1,9.72.11l-2-.27a62.32,62.32,0,0,1,15.13,4.44l-1.79-.75a153.12,153.12,0,0,1,15.48,7.88c3.41,1.94,8.36.92,10.26-2.69a7.62,7.62,0,0,0-2.69-10.26c-8.38-4.76-17.12-9.35-26.47-11.86a50,50,0,0,0-14.7-1.85,40.29,40.29,0,0,0-15.26,3.69c-7.87,3.58-14.31,10.46-18.43,18-4.88,8.88-6.7,18.83-7.69,28.81-.83,8.3-1.72,17-.66,25.28a40.55,40.55,0,0,0,4,13.87,30.6,30.6,0,0,0,9.76,10.75c7.38,5.2,16.66,6.74,25.41,7.87,9.83,1.28,19.74,2.14,29.63,2.92,20.26,1.6,40.58,2.46,60.9,2.84s40.72.3,61.07,0q15.33-.23,30.66-.56l15-.32c5.14-.12,10.73-.56,15.06-3.64a19.84,19.84,0,0,0,8-11.86,36.81,36.81,0,0,0,.61-11.89c-.48-5-1.25-9.89-2-14.8-.72-4.71-1.58-9.39-2.73-14-4.32-17.3-13.59-34.09-29.42-43.29-8.5-4.94-18.32-7-28.09-6.91-10,.06-19.93,2-29.74,3.84-4.56.84-9.12,1.61-13.71,2.23l2-.27a237.46,237.46,0,0,1-48.92,1.43q-7-.53-13.93-1.45l2,.27a234.84,234.84,0,0,1-34.59-7.32c-11.86-3.46-25.41-8.73-36.92-1.25a22.19,22.19,0,0,0-7.32,7.45,17.38,17.38,0,0,0-1.87,11.86A7.55,7.55,0,0,0,307,30.89a7.68,7.68,0,0,0,5.78.75,7.57,7.57,0,0,0,4.48-3.45,8.52,8.52,0,0,0,.76-5.77Z" transform="translate(-5.74 -2.86)"/>
  <path class="cls-1" d="M518,182.55c-30.49,51.67-30.91,116.17-6.52,170.27a183.08,183.08,0,0,0,54.07,69.07C594.9,444.67,630,458.16,659.9,480c48.48,35.48,81.22,93.27,86.33,152.46,5,57.89-15.91,129-77.15,148.44-17.5,5.56-35.85,7-54.1,7.72-20.57.8-41.16,1.14-61.74,1.49q-62.49,1.07-125,.57t-125-2.6c-38.17-1.27-76.66-2-114.59-6.79-33.3-4.22-67-12.65-95.63-30.7a149.5,149.5,0,0,1-58.3-70.14,151.54,151.54,0,0,1-6.82-92.61c7.7-31.87,24.6-61.06,47.36-84.54C120.4,456.8,184.73,436.44,238,401.2c27.28-18,51.75-40.17,68.37-68.63A181.1,181.1,0,0,0,331,237.41a171.61,171.61,0,0,0-7.9-47.42c-3.49-11-20.87-6.3-17.35,4.79a158.06,158.06,0,0,1,.11,94.37c-9.37,30.67-27.82,57.2-52.21,78.07-48.75,41.71-113,61-164.14,99.83-27.68,21.05-50.92,47.65-65.8,79.26C9,577.64,2.55,612.26,7.27,646.69A171.27,171.27,0,0,0,47.53,735c22.82,26.37,53.78,43.58,86.92,53.49,34.64,10.36,71.17,13.34,107.12,15.14,41.6,2.08,83.27,3.32,124.92,4.18q63.21,1.3,126.46,1c41.53-.21,83.15-.47,124.65-2.27,18.89-.81,38.15-2.51,56.26-8.25A115.6,115.6,0,0,0,718.63,772c23.27-22.07,37.3-53.18,42.94-84.42C773,624.4,754.2,559.07,715,508.8,694,482,667.5,461.65,638,445c-16.54-9.35-33.5-18-49.35-28.54A171,171,0,0,1,554,386.21C517.18,344,502.92,283,517.64,229.25a147.61,147.61,0,0,1,15.93-37.61c5.9-10-9.65-19.07-15.54-9.09Z" transform="translate(-5.74 -2.86)"/>
  <path class="cls-1" d="M440.47,349.78a11.37,11.37,0,0,1-.93,1l-.51.47c-.88.8,1.29-.9.55-.42A17.08,17.08,0,0,1,437,352.3l1.8-.75a16.08,16.08,0,0,1-3.79,1l2-.26a15.79,15.79,0,0,1-3.57,0l2,.26a14.19,14.19,0,0,1-3.44-.9l1.79.76a16.77,16.77,0,0,1-2.71-1.52c-1.08-.72,1.14,1,.58.45-.2-.19-.42-.37-.63-.56-.37-.35-.72-.72-1.05-1.1-.15-.17-.29-.35-.43-.52-.52-.59,1.18,1.66.45.57-.28-.42-.57-.85-.83-1.29a23.66,23.66,0,0,1-1.48-2.93l.76,1.79a36.92,36.92,0,0,1-2.35-9.2l.27,2a60.29,60.29,0,0,1,.05-15.65l-.27,2a64.22,64.22,0,0,1,4.34-15.92l-.76,1.8a64.87,64.87,0,0,1,6.65-12.05c.3-.43.6-.85.91-1.27.19-.26.37-.54.59-.79-.13.15-1.09,1.38-.46.6s1.49-1.83,2.27-2.71a64.26,64.26,0,0,1,5-5l-12.54-3.31c2.09,10.61,7.64,20.11,11.82,30l-.76-1.79a61.77,61.77,0,0,1,4.45,15l-.27-2a34.4,34.4,0,0,1,.05,9l.27-2a25.77,25.77,0,0,1-1.6,5.9l.75-1.79a25.16,25.16,0,0,1-1.95,3.75c-.39.61-1.93,2.5-.26.5-.46.55-.9,1.09-1.39,1.61s-1,1-1.52,1.47a3.71,3.71,0,0,1-.81.68l1-.75-.57.41a21,21,0,0,1-3.68,2l1.79-.76a19.69,19.69,0,0,1-4.45,1.21l2-.27-1.09.12a8.06,8.06,0,0,0-5.3,2.2,7.63,7.63,0,0,0-2.2,5.3c.17,3.77,3.32,7.86,7.5,7.5a28.48,28.48,0,0,0,9.32-2.35,27.9,27.9,0,0,0,6.46-4.15,31.16,31.16,0,0,0,8.9-12.72c4.31-10.61,1.64-22.82-2.54-33-2.49-6.09-5.47-12-8-18l.75,1.79a65.72,65.72,0,0,1-4.12-12.83,7.43,7.43,0,0,0-5.24-5.24,7.68,7.68,0,0,0-7.3,1.93A70.86,70.86,0,0,0,412,320a69.54,69.54,0,0,0-.13,24.12c1.36,7.81,5.1,15.24,11.71,19.83,8.2,5.7,21.06,4.16,27.49-3.58a8.06,8.06,0,0,0,2.2-5.3,7.66,7.66,0,0,0-2.2-5.31c-2.77-2.54-7.93-3.22-10.61,0Z" transform="translate(-5.74 -2.86)"/>
  <path class="cls-1" d="M72.87,516.28A331.07,331.07,0,0,1,202,509.1c43.78,6.34,85.37,23.8,129.64,27.29a151.69,151.69,0,0,0,62.4-8c18.61-6.5,36.37-15.48,55.53-20.4,18.81-4.83,37.29-3.38,55.76,2.21,19.19,5.82,37.26,14.7,56.05,21.63,38.7,14.25,81.58,15.48,120.45.91q7.4-2.78,14.55-6.21c3.65-1.74,4.61-7,2.69-10.26-2.19-3.74-6.6-4.44-10.26-2.69-35.91,17.16-77.85,19-115.47,6.57-18.75-6.19-36.52-14.92-55.13-21.48-19-6.7-38.81-10.55-58.93-7.82-19.8,2.69-38,11-56.43,18.26A217,217,0,0,1,375,518.46a125.55,125.55,0,0,1-30.91,3.47c-43.38-.25-84.35-17.79-126.59-25.42a349.35,349.35,0,0,0-132.71,1.62q-8,1.65-15.87,3.69c-9.34,2.4-5.38,16.87,4,14.46Z" transform="translate(-5.74 -2.86)"/>
  <path class="cls-1" d="M220,721.35a17,17,0,0,0-13.24-4.49,19.17,19.17,0,0,0-7.69,2.34,18.81,18.81,0,0,0-8.94,17.93,23.88,23.88,0,0,0,6.33,13.62,29.54,29.54,0,0,0,27,8.9c9.61-1.87,17.52-10.13,17.63-20.12a18.22,18.22,0,0,0-7.8-15,18.56,18.56,0,0,0-15.34-2.8,7.51,7.51,0,0,0,4,14.47,11.16,11.16,0,0,1,1.4-.27l-2,.26a12.09,12.09,0,0,1,2.48,0l-2-.27a12.61,12.61,0,0,1,3.08.81l-1.79-.75a13.44,13.44,0,0,1,1.73.89c.25.16.48.36.73.5-1.65-.94-1-.8-.45-.27.21.2.4.42.61.62.61.62-1.07-1.56-.43-.57a12.45,12.45,0,0,1,1,1.94l-.76-1.8a12.26,12.26,0,0,1,.67,2.53l-.27-2a13.5,13.5,0,0,1,0,3l.26-2a13.28,13.28,0,0,1-.87,3.27l.75-1.79a18.3,18.3,0,0,1-1.19,2.17c-.33.47-.13.22.61-.76-.16.19-.32.38-.49.56a9.94,9.94,0,0,1-.79.8c-.27.26-.57.49-.85.74,1.66-1.49.79-.62.29-.29a18.38,18.38,0,0,1-2.36,1.26l1.79-.76a19.43,19.43,0,0,1-4.84,1.33l2-.27a20.57,20.57,0,0,1-5,0l2,.27a24.17,24.17,0,0,1-5.42-1.48l1.79.75a24.83,24.83,0,0,1-3.44-1.77,6.11,6.11,0,0,1-1.72-1.18c.08.13,1.35,1.13.58.43l-.75-.66c-.44-.41-.87-.83-1.27-1.27l-.52-.6c-.83-.94.82,1.18.32.43a20.11,20.11,0,0,1-1.81-3.2l.75,1.79a14.65,14.65,0,0,1-.93-3.26l.27,2a13.53,13.53,0,0,1,0-3.54l-.27,2a13.6,13.6,0,0,1,.86-3.07l-.75,1.79a11.71,11.71,0,0,1,.82-1.57c.47-.75.91-.7-.34.36.22-.19.4-.45.6-.66a7.07,7.07,0,0,0,.67-.62c0,.17-1.64,1.16-.53.43a10.59,10.59,0,0,1,1.67-.87l-1.79.75a12.32,12.32,0,0,1,2.68-.71l-2,.27a12.22,12.22,0,0,1,2.77,0l-2-.27a11,11,0,0,1,2.64.68l-1.79-.76a10.26,10.26,0,0,1,1.19.61c1.57,1-1.09-1-.19-.14,2.89,2.65,7.79,3.06,10.61,0,2.65-2.9,3.08-7.77,0-10.61Z" transform="translate(-5.74 -2.86)"/>
  <path class="cls-1" d="M389.94,712c-4.52.5-9.16.92-13.4,2.67-4.49,1.86-8.66,4.68-11.08,9a16.61,16.61,0,0,0-.15,15.63,22,22,0,0,0,10.05,9.5c8.28,4.11,18.75,6.86,27.62,3.12a18.68,18.68,0,0,0,10.49-11c1.64-4.29,1.43-9.07.74-13.53a21.09,21.09,0,0,0-8.3-13.76c-4.12-3.07-10.5-4.32-15.33-2.33a8.29,8.29,0,0,0-4.48,3.45,7.49,7.49,0,0,0,2.69,10.26c1.66.87,4,1.5,5.78.75a9,9,0,0,1,2.11-.58l-2,.27a10.69,10.69,0,0,1,2.19,0l-2-.27a11.79,11.79,0,0,1,2.85.77l-1.79-.76a11.18,11.18,0,0,1,1.64.87l.46.31c.47.34.2.14-.79-.61a5.56,5.56,0,0,0,.66.62c.14.16.63.57.66.75-.05-.31-1.06-1.49-.34-.37a14.64,14.64,0,0,1,1,2l-.75-1.8a19.92,19.92,0,0,1,1.26,4.67l-.27-2a23.62,23.62,0,0,1,.09,5.94l.27-2a15.9,15.9,0,0,1-1,3.77l.75-1.8a18.93,18.93,0,0,1-.92,1.72c-.61,1.07.95-1,.33-.43-.22.23-.43.47-.66.69s-.4.33-.58.5c1.41-1.35,1-.73.42-.4a13.48,13.48,0,0,1-1.89,1l1.79-.76a17.23,17.23,0,0,1-3.81,1l2-.26a21.61,21.61,0,0,1-5.27-.06l2,.27a42.34,42.34,0,0,1-10.34-3l1.79.76a27.22,27.22,0,0,1-2.66-1.3c-.43-.24-.85-.49-1.26-.76l-.52-.36c-.62-.46-.45-.32.53.41-.52-.75-1.5-1.18-2-2l.69.88c-.15-.22-.29-.44-.43-.67a12.26,12.26,0,0,1-.73-1.39l.76,1.79a10.73,10.73,0,0,1-.72-2.59l.26,2a10.26,10.26,0,0,1,0-1.92l-.27,2a9.84,9.84,0,0,1,.65-2.39L378,732.1a17.21,17.21,0,0,1,1.07-1.86c-1,1.74-.72.91-.24.4.26-.27.52-.53.8-.78l.28-.24c.59-.49.38-.33-.63.47a9.66,9.66,0,0,0,.95-.62,16.21,16.21,0,0,1,2.07-1.07l-1.79.75a33,33,0,0,1,8.26-2l-2,.27,3.15-.37a8.16,8.16,0,0,0,5.3-2.2,7.48,7.48,0,0,0,0-10.6c-1.37-1.26-3.36-2.41-5.3-2.2Z" transform="translate(-5.74 -2.86)"/>
  <path class="cls-1" d="M567.81,574.46c-7.44,2.35-15.39,5-20.93,10.8-6,6.35-8.79,15.82-4.39,23.88,3.61,6.62,11.87,10.61,19.3,10.12A24.37,24.37,0,0,0,581.18,607c5.12-8.91,3.87-19.43-.38-28.37A7.49,7.49,0,0,0,570.54,576c-3.66,2.35-4.5,6.46-2.69,10.26.25.53.48,1.06.71,1.6l-.75-1.8a29,29,0,0,1,1.84,6.71l-.26-2a23.7,23.7,0,0,1,0,6l.27-2a19.75,19.75,0,0,1-1.25,4.59l.75-1.79a18.61,18.61,0,0,1-1.4,2.65c-.16.25-.34.49-.5.74-.55.84.4-.6.52-.66-.35.17-.79.92-1.06,1.2a13.85,13.85,0,0,1-1,1,4.92,4.92,0,0,0-.69.58c.09-.12,1.49-1.07.66-.53a21.17,21.17,0,0,1-2.83,1.57l1.79-.75a16.31,16.31,0,0,1-3.8,1.08l2-.27a15.26,15.26,0,0,1-3.76,0l2,.26a16,16,0,0,1-4-1.05l1.79.75a14.22,14.22,0,0,1-1.94-1c-.16-.1-.94-.47-1-.65,0,.19,1.63,1.37.5.34-.24-.22-.47-.46-.69-.7-1.09-1.19.39.51.36.52A10.6,10.6,0,0,1,555,600.7l.76,1.79a11,11,0,0,1-.67-2.39l.26,2a12.78,12.78,0,0,1,0-2.9l-.27,2a14.55,14.55,0,0,1,1-3.56l-.76,1.79a27,27,0,0,1,1.89-3.3c-1.09,1.77-.62.8-.2.31l.52-.57c.49-.51,1-1,1.56-1.45s-1.59,1.12-.39.29c.28-.19.56-.4.85-.59.57-.38,1.16-.74,1.76-1.08a38.56,38.56,0,0,1,3.93-1.92l-1.79.76c2.74-1.14,5.56-2,8.39-2.94,3.73-1.18,6.51-5.28,5.23-9.23-1.21-3.75-5.21-6.5-9.22-5.24Z" transform="translate(-5.74 -2.86)"/>
  <path class="cls-1" d="M516,752.74a4.5,4.5,0,1,0-4.5-4.5,4.55,4.55,0,0,0,4.5,4.5Z" transform="translate(-5.74 -2.86)"/>
  <path class="cls-1" d="M283.83,644.89a4.5,4.5,0,1,0-4.5-4.5,4.56,4.56,0,0,0,4.5,4.5Z" transform="translate(-5.74 -2.86)"/>
  <path class="cls-1" d="M143.35,720.93a4.5,4.5,0,1,0-4.5-4.5,4.55,4.55,0,0,0,4.5,4.5Z" transform="translate(-5.74 -2.86)"/>
  <path class="cls-1" d="M182.19,579.4a13.94,13.94,0,0,0,9.55-4,13.51,13.51,0,0,0,0-19.09,13.52,13.52,0,0,0-19.1,0,13.74,13.74,0,0,0-3.95,9.55c.16,3.49,1.3,7.11,3.95,9.54a14,14,0,0,0,9.55,4Z" transform="translate(-5.74 -2.86)"/>
  <path class="cls-1" d="M105.34,650.4a13.92,13.92,0,0,0,9.55-4,13.51,13.51,0,0,0,0-19.09,14,14,0,0,0-9.55-4,13.91,13.91,0,0,0-9.54,4,13.48,13.48,0,0,0,0,19.09,14,14,0,0,0,9.54,4Z" transform="translate(-5.74 -2.86)"/>
  <path class="cls-1" d="M690.37,574.74a13.91,13.91,0,0,0,9.54-4,13.48,13.48,0,0,0,0-19.09,13.48,13.48,0,0,0-19.09,0,13.51,13.51,0,0,0,0,19.09,14,14,0,0,0,9.55,4Z" transform="translate(-5.74 -2.86)"/>
  <path class="cls-1" d="M665.58,742.35a13.9,13.9,0,0,0,9.54-4,13.48,13.48,0,0,0,0-19.09,13.51,13.51,0,0,0-19.09,0,13.51,13.51,0,0,0,0,19.09,14,14,0,0,0,9.55,4Z" transform="translate(-5.74 -2.86)"/>
  <path class="cls-1" d="M458.59,777.24c3.86,0,3.87-6,0-6s-3.87,6,0,6Z" transform="translate(-5.74 -2.86)"/>
  <path class="cls-1" d="M328.45,769.09c3.86,0,3.86-6,0-6s-3.87,6,0,6Z" transform="translate(-5.74 -2.86)"/>
  <path class="cls-1" d="M338.36,684.12c3.86,0,3.87-6,0-6s-3.87,6,0,6Z" transform="translate(-5.74 -2.86)"/>
  <path class="cls-1" d="M283.83,777.24c3.86,0,3.86-6,0-6s-3.87,6,0,6Z" transform="translate(-5.74 -2.86)"/>
  <path class="cls-1" d="M283.83,749.3c3.86,0,3.86-6,0-6s-3.87,6,0,6Z" transform="translate(-5.74 -2.86)"/>
  <path class="cls-1" d="M255.32,777.24c3.86,0,3.87-6,0-6s-3.87,6,0,6Z" transform="translate(-5.74 -2.86)"/>
  <path class="cls-1" d="M153.68,765.6c3.86,0,3.87-6,0-6s-3.86,6,0,6Z" transform="translate(-5.74 -2.86)"/>
  <path class="cls-1" d="M166.08,735.34c3.86,0,3.86-6,0-6s-3.87,6,0,6Z" transform="translate(-5.74 -2.86)"/>
  <path class="cls-1" d="M116.5,733c3.86,0,3.87-6,0-6s-3.87,6,0,6Z" transform="translate(-5.74 -2.86)"/>
  <path class="cls-1" d="M111.54,701.58c3.86,0,3.87-6,0-6s-3.87,6,0,6Z" transform="translate(-5.74 -2.86)"/>
  <path class="cls-1" d="M79.32,700.42c3.86,0,3.86-6,0-6s-3.87,6,0,6Z" transform="translate(-5.74 -2.86)"/>
  <path class="cls-1" d="M483.38,770.25c3.86,0,3.87-6,0-6s-3.87,6,0,6Z" transform="translate(-5.74 -2.86)"/>
  <path class="cls-1" d="M484.62,743.48c3.86,0,3.86-6,0-6s-3.87,6,0,6Z" transform="translate(-5.74 -2.86)"/>
  <path class="cls-1" d="M562.7,780.73c3.86,0,3.87-6,0-6s-3.86,6,0,6Z" transform="translate(-5.74 -2.86)"/>
  <path class="cls-1" d="M583.77,747c3.86,0,3.87-6,0-6s-3.86,6,0,6Z" transform="translate(-5.74 -2.86)"/>
  <path class="cls-1" d="M603.61,772.58c3.86,0,3.86-6,0-6s-3.87,6,0,6Z" transform="translate(-5.74 -2.86)"/>
  <path class="cls-1" d="M660.62,765.6c3.86,0,3.87-6,0-6s-3.87,6,0,6Z" transform="translate(-5.74 -2.86)"/>
  <path class="cls-1" d="M711.44,680.63c3.86,0,3.86-6,0-6s-3.87,6,0,6Z" transform="translate(-5.74 -2.86)"/>
  <path class="cls-1" d="M655.66,632.91c3.86,0,3.87-6,0-6s-3.86,6,0,6Z" transform="translate(-5.74 -2.86)"/>
  <path class="cls-1" d="M313.57,729.85a4.5,4.5,0,1,0-4.5-4.5,4.55,4.55,0,0,0,4.5,4.5Z" transform="translate(-5.74 -2.86)"/>
  <path class="cls-1" d="M278.87,718.21a4.5,4.5,0,1,0-4.5-4.5,4.55,4.55,0,0,0,4.5,4.5Z" transform="translate(-5.74 -2.86)"/>
  <path class="cls-1" d="M317.29,584.37a4.5,4.5,0,1,0-4.5-4.5,4.55,4.55,0,0,0,4.5,4.5Z" transform="translate(-5.74 -2.86)"/>
  <path class="cls-1" d="M508.17,720.54a4.5,4.5,0,1,0-4.5-4.5,4.55,4.55,0,0,0,4.5,4.5Z" transform="translate(-5.74 -2.86)"/>
  <path class="cls-1" d="M438.76,738a4.5,4.5,0,1,0-4.5-4.5,4.55,4.55,0,0,0,4.5,4.5Z" transform="translate(-5.74 -2.86)"/>
  <path class="cls-1" d="M580.06,738a4.5,4.5,0,1,0-4.5-4.5,4.56,4.56,0,0,0,4.5,4.5Z" transform="translate(-5.74 -2.86)"/>
  <path class="cls-1" d="M597.41,677.48a4.5,4.5,0,1,0-4.5-4.5,4.55,4.55,0,0,0,4.5,4.5Z" transform="translate(-5.74 -2.86)"/>
  <path class="cls-1" d="M611,584.37a4.5,4.5,0,1,0-4.5-4.5,4.55,4.55,0,0,0,4.5,4.5Z" transform="translate(-5.74 -2.86)"/>
  <path class="cls-1" d="M712.68,712.39a4.5,4.5,0,1,0-4.5-4.5,4.55,4.55,0,0,0,4.5,4.5Z" transform="translate(-5.74 -2.86)"/>
  <path class="cls-1" d="M630.87,728.69a4.5,4.5,0,1,0-4.5-4.5,4.55,4.55,0,0,0,4.5,4.5Z" transform="translate(-5.74 -2.86)"/>
  <path class="cls-1" d="M183.43,683.3a4.5,4.5,0,1,0-4.5-4.5,4.55,4.55,0,0,0,4.5,4.5Z" transform="translate(-5.74 -2.86)"/>
  <path class="cls-1" d="M54.53,683.3a4.5,4.5,0,1,0-4.5-4.5,4.55,4.55,0,0,0,4.5,4.5Z" transform="translate(-5.74 -2.86)"/>
  <path class="cls-1" d="M138.81,691.78a6,6,0,1,0-6-6,6.07,6.07,0,0,0,6,6Z" transform="translate(-5.74 -2.86)"/>
  <path class="cls-1" d="M55.77,656.86a6,6,0,1,0-6-6,6.08,6.08,0,0,0,6,6Z" transform="translate(-5.74 -2.86)"/>
  <path class="cls-1" d="M344.56,731.35a6,6,0,1,0-6-6,6.07,6.07,0,0,0,6,6Z" transform="translate(-5.74 -2.86)"/>
  <path class="cls-1" d="M358.19,777.91a6,6,0,1,0-6-6,6.06,6.06,0,0,0,6,6Z" transform="translate(-5.74 -2.86)"/>
  <path class="cls-1" d="M458.59,692.94a6,6,0,1,0-6-6,6.07,6.07,0,0,0,6,6Z" transform="translate(-5.74 -2.86)"/>
  <path class="cls-1" d="M425.12,774.42a6,6,0,1,0-6-6,6.06,6.06,0,0,0,6,6Z" transform="translate(-5.74 -2.86)"/>
  <path class="cls-1" d="M551.55,673.16a6,6,0,1,0-6-6,6.07,6.07,0,0,0,6,6Z" transform="translate(-5.74 -2.86)"/>
  <path class="cls-1" d="M704,637.08a6,6,0,1,0-6-6,6.06,6.06,0,0,0,6,6Z" transform="translate(-5.74 -2.86)"/>
  <path class="cls-1" d="M312.23,40c.1-.26.58-1.49.19-.53s.16-.29.26-.48a20,20,0,0,1,1.15-2c.2-.32.43-.63.65-.95.74-1.07-.68.78,0,0,.51-.58,1-1.17,1.56-1.72s1.13-1.08,1.73-1.59l.79-.64c-1.39,1.17-.22.19.16-.07a33.73,33.73,0,0,1,4.18-2.47l1.11-.53.48-.22c.91-.42-.36.15-.45.19.79-.27,1.55-.61,2.34-.88a45.43,45.43,0,0,1,4.86-1.35c.82-.18,1.65-.33,2.48-.46l.54-.08c.79-.13-1.32.15-.52.07l1.25-.14a49.3,49.3,0,0,1,5.57-.2c2.27,0,4.54.2,6.8.46.22,0,1.64.23.83.09s.82.12,1.07.16c1.16.18,2.32.37,3.48.59,4.34.81,8.64,1.84,12.93,2.88a231.68,231.68,0,0,0,27.41,5.13A175.86,175.86,0,0,0,420,36.4a221.11,221.11,0,0,0,28.11-3.11c4.51-.75,9-1.53,13.53-2.21l1.7-.25,1-.14c.12,0,.94-.13.17,0l.17,0,1-.12,1.95-.23c2.15-.25,4.31-.45,6.47-.58a94.58,94.58,0,0,1,12.71,0c1,.07,1.95.16,2.93.27l.67.08c1.17.13-.14,0-.25,0a6.42,6.42,0,0,0,1.77.27A57.78,57.78,0,0,1,498,31.65c.94.26,1.87.55,2.78.86.5.17,1,.34,1.48.53a5.54,5.54,0,0,0,1.48.58s-1.16-.51-.57-.24l.52.23,1.2.56c.84.41,1.68.85,2.5,1.31a46.33,46.33,0,0,1,4.42,2.8c.36.25.7.51,1.06.77.53.38-.5-.39-.48-.37l.44.35c.72.58,1.43,1.18,2.12,1.8a50.55,50.55,0,0,1,3.66,3.66c.53.6,1,1.2,1.55,1.82.92,1.14-.55-.75.07.09l.87,1.18a49.66,49.66,0,0,1,2.7,4.33c.4.74.79,1.5,1.15,2.26.16.33.31.66.46,1s.37,1-.18-.44c.08.23.18.45.27.67a42.71,42.71,0,0,1,1.57,4.8A6,6,0,1,0,538.64,57,52.63,52.63,0,0,0,509.4,23.1c-17.68-7.81-37-5.9-55.54-2.87-4.75.77-9.49,1.61-14.26,2.33l-3.14.46c-1.15.17-.07,0,.13,0-.32,0-.64.08-1,.12l-1.93.24q-3.46.39-6.95.66a176.1,176.1,0,0,1-27.94-.13c-2.32-.19-4.64-.44-6.95-.72-.24,0-1.92-.22-1.11-.15s0,0-.16,0l-.95-.14c-1.19-.17-2.38-.36-3.57-.56-4.55-.76-9.06-1.74-13.55-2.81-9.24-2.2-18.48-4.58-28-5.3-15.13-1.15-32.89,3.48-41.32,17.18a30.12,30.12,0,0,0-2.54,5.46c-1.07,2.95,1.21,6.7,4.19,7.38A6.15,6.15,0,0,0,312.23,40Z" transform="translate(-5.74 -2.86)"/>
  <path class="cls-1" d="M310.15,16.73a93.1,93.1,0,0,0-14.37,41.44c-1.42,14.27.08,30.52,9.92,41.73a30.33,30.33,0,0,0,21.52,10.37,6.05,6.05,0,0,0,6-6,6.12,6.12,0,0,0-6-6c-.39,0-.78,0-1.16-.06l-.39,0c-.66-.07-.51,0,.45.07a7.75,7.75,0,0,0-1.87-.38c-.74-.19-1.47-.41-2.19-.67a4.8,4.8,0,0,0-.71-.27c.84.36,1,.41.38.15l-.69-.33a32,32,0,0,1-3.59-2.17c-1.07-.73.81.67.16.12l-.73-.61a24,24,0,0,1-1.8-1.69c-.48-.5-.95-1-1.39-1.55-.3-.37-.74-1.32,0,0-.11-.21-.3-.41-.43-.61a29.72,29.72,0,0,1-2.53-4.37,10.38,10.38,0,0,1-.53-1.18c.45,1.38.17.4,0,.05-.28-.74-.54-1.48-.77-2.23a43.29,43.29,0,0,1-1.24-5c-.14-.71-.25-1.41-.36-2.12-.24-1.48.14,1.38,0-.11,0-.36-.09-.71-.12-1.07-.17-1.63-.27-3.28-.33-4.92a81.28,81.28,0,0,1,.24-9.87c.06-.71.13-1.43.21-2.14L308,56c.17-1.49-.22,1.37,0-.11s.5-3.11.81-4.66a88.44,88.44,0,0,1,2.53-9.59q.89-2.67,1.92-5.28l.33-.8c.26-.62.22-.54-.1.23.11-.26.23-.53.35-.79q.53-1.2,1.08-2.37a88.45,88.45,0,0,1,5.55-9.87,6.05,6.05,0,0,0-2.15-8.21,6.13,6.13,0,0,0-8.21,2.15Z" transform="translate(-5.74 -2.86)"/>
</svg>
