<svg id="Camada_1" data-name="Camada 1" xmlns="http://www.w3.org/2000/svg" viewBox="0 0 711.11 672.33">
  <defs>
    <style>
      .cls-1 {
        fill: #c1c1c1;
        stroke-width: 18px;
      }

      .cls-1, .cls-2, .cls-3, .cls-4, .cls-5, .cls-6 {
        stroke: #4b3a68;
        stroke-miterlimit: 10;
      }

      .cls-2 {
        fill: #d8d7db;
      }

      .cls-3 {
        fill: #662d91;
      }

      .cls-4, .cls-6 {
        fill: none;
      }

      .cls-4 {
        stroke-width: 12px;
      }

      .cls-5 {
        fill: #4b3a68;
      }

      .cls-6 {
        stroke-width: 10px;
      }
    </style>
  </defs>
  <path class="cls-1" d="M42.82,9H389.89c18.68,0,33.82,15.46,33.82,34.52V571.91c0,19.07-15.14,34.52-33.82,34.52H42.82C24.14,606.43,9,591,9,571.91V43.52C9,24.46,24.14,9,42.82,9Z" transform="translate(0 0)"/>
  <g>
    <path class="cls-2" d="M325.17,69.8H672.24c18.68,0,33.82,15.45,33.82,34.52V632.71c0,19.06-15.14,34.52-33.82,34.52H325.17c-18.68,0-33.82-15.46-33.82-34.52V104.32C291.35,85.25,306.49,69.8,325.17,69.8Z" transform="translate(0 0)"/>
    <path class="cls-3" d="M672.24,662.64H326.57a29.58,29.58,0,0,1-30.72-30.22V114.26c0-4.9-.47-10.34.45-15.18a29.87,29.87,0,0,1,28.88-24.64H671c7,0,13.82,1.87,19.42,6.41a30.74,30.74,0,0,1,11.14,23.94v525.9a40.57,40.57,0,0,1-.38,7,29.87,29.87,0,0,1-28.94,25c-5.79.07-5.81,9.25,0,9.18A38.91,38.91,0,0,0,708.35,646a43,43,0,0,0,2.25-14.71V104.55c-.2-21.91-17.77-39.5-39.24-39.3H323.52A38.91,38.91,0,0,0,288.57,92.7c-2.07,6.68-1.74,13.6-1.74,20.48V632.55c0,21.65,17.13,39.24,38.35,39.28H672.24C678,671.82,678,662.64,672.24,662.64Z" transform="translate(0 0)"/>
  </g>
  <ellipse class="cls-4" cx="509.32" cy="265.28" rx="88.56" ry="87.83"/>
  <path class="cls-5" d="M516.65,172.67l5.78-44.13c.31-2.4-2.3-4.7-4.5-4.59-2.71.12-4.17,2-4.5,4.59l-5.78,44.09c-.32,2.39,2.29,4.69,4.5,4.59,2.7-.12,4.16-2,4.5-4.59Z" transform="translate(0 0)"/>
  <path class="cls-5" d="M537.71,180.69l6.8-12.69a4.66,4.66,0,0,0-1.53-6.31,4.45,4.45,0,0,0-6.18,1.57h0l-.06.11-6.8,12.68a4.63,4.63,0,0,0,1.61,6.28,4.44,4.44,0,0,0,6.16-1.64Z" transform="translate(0 0)"/>
  <path class="cls-5" d="M564.35,194.78l27.29-38.9c1.38-2,.4-5.2-1.61-6.29a4.56,4.56,0,0,0-6.16,1.65l-27.29,38.89c-1.38,2-.4,5.21,1.61,6.29a4.57,4.57,0,0,0,6.16-1.64Z" transform="translate(0 0)"/>
  <path class="cls-5" d="M583.09,212l10.81-9.54a4.65,4.65,0,0,0,1.32-3.24,4.75,4.75,0,0,0-1.32-3.26,4.47,4.47,0,0,0-3.18-1.34,4.92,4.92,0,0,0-3.18,1.32l-10.82,9.54a4.67,4.67,0,0,0-1.31,3.25,4.78,4.78,0,0,0,1.31,3.25,4.47,4.47,0,0,0,3.19,1.34,5,5,0,0,0,3.18-1.34Z" transform="translate(0 0)"/>
  <path class="cls-5" d="M596.56,234l36.24-16.76c2.15-1,2.84-4.35,1.61-6.28a4.57,4.57,0,0,0-6.15-1.65L592,226.06c-2.15,1-2.84,4.34-1.62,6.28a4.58,4.58,0,0,0,6.16,1.65Z" transform="translate(0 0)"/>
  <path class="cls-5" d="M600.76,257.78l10.8-1.11a4.75,4.75,0,0,0,3.18-1.34,4.66,4.66,0,0,0,0-6.48h0a4.27,4.27,0,0,0-3.18-1.35l-10.8,1.1a4.85,4.85,0,0,0-3.18,1.35,4.67,4.67,0,0,0,0,6.49h0A4.37,4.37,0,0,0,600.76,257.78Z" transform="translate(0 0)"/>
  <path class="cls-5" d="M599.68,283l32.22,13.67c2.18.93,5-1,5.54-3.21.6-2.68-.81-4.65-3.14-5.64L602,274.16c-2.18-.93-5,1-5.53,3.21-.6,2.68.81,4.65,3.14,5.64Z" transform="translate(0 0)"/>
  <path class="cls-5" d="M594.93,306.69l7.9,2.61a4.49,4.49,0,0,0,5.54-3.19h0a4.75,4.75,0,0,0-.46-3.54,4.92,4.92,0,0,0-2.69-2.12l-7.9-2.61a4.51,4.51,0,0,0-5.54,3.2h0a4.75,4.75,0,0,0,.46,3.54A4.86,4.86,0,0,0,594.93,306.69Z" transform="translate(0 0)"/>
  <path class="cls-5" d="M579.84,322.53a99.32,99.32,0,0,0,27.93,25.86,4.45,4.45,0,0,0,6.16-1.65,4.65,4.65,0,0,0-1.62-6.29q-3.72-2.28-7.24-4.91l-.85-.65-.56-.43-.54-.44-.83-.69c-1.15-1-2.27-1.94-3.38-3a77,77,0,0,1-6-6.12q-1.5-1.67-3-3.42c-.45-.55-.9-1.11-1.34-1.68l-.66-.84c.47.61-.23-.33-.32-.45-1.41-1.92-4-3.06-6.16-1.66-1.85,1.23-3.13,4.24-1.61,6.29Z" transform="translate(0 0)"/>
  <path class="cls-5" d="M566.57,338.42l10.81,8.8a4.89,4.89,0,0,0,3.18,1.34,4.55,4.55,0,0,0,3.18-1.34,4.62,4.62,0,0,0,1.32-3.25,4.48,4.48,0,0,0-1.32-3.25l-10.81-8.81a4.88,4.88,0,0,0-3.18-1.33,4.58,4.58,0,0,0-3.18,1.33,4.66,4.66,0,0,0-1.32,3.26A4.48,4.48,0,0,0,566.57,338.42Z" transform="translate(0 0)"/>
  <path class="cls-5" d="M551.12,349.56a148.3,148.3,0,0,0,16.43,28.87c1.4,1.92,4,3.06,6.15,1.64,1.87-1.22,3.12-4.22,1.62-6.28a148.14,148.14,0,0,1-16.43-28.85c-1-2.22-4.28-2.89-6.16-1.65-2.24,1.48-2.63,3.91-1.61,6.28Z" transform="translate(0 0)"/>
  <path class="cls-5" d="M532,352.61l5.86,15.4a4.92,4.92,0,0,0,2.14,2.74,4.47,4.47,0,0,0,3.46.47c2.13-.7,4.06-3.25,3.15-5.65l-5.86-15.39a5,5,0,0,0-2.07-2.75,4.53,4.53,0,0,0-3.47-.46c-2.13.69-4.06,3.25-3.14,5.64Z" transform="translate(0 0)"/>
  <path class="cls-5" d="M513.82,357.19V388a4.5,4.5,0,1,0,9,0V357.19a4.5,4.5,0,1,0-9,0Z" transform="translate(0 0)"/>
  <path class="cls-5" d="M497.5,356.05l-1.41,13.27a4.65,4.65,0,0,0,1.31,3.25,4.54,4.54,0,0,0,3.19,1.35,4.46,4.46,0,0,0,3.18-1.35,5.38,5.38,0,0,0,1.32-3.25l1.41-13.27a4.54,4.54,0,0,0-4.49-4.59,4.43,4.43,0,0,0-3.19,1.34A5.34,5.34,0,0,0,497.5,356.05Z" transform="translate(0 0)"/>
  <path class="cls-5" d="M484.32,346.63a151.57,151.57,0,0,0-9.42,28.82,4.66,4.66,0,0,0,3.14,5.64,4.55,4.55,0,0,0,5.54-3.2c1-4.68,2.24-9.31,3.7-13.86.74-2.28,1.52-4.54,2.37-6.77.39-1,.8-2,1.22-3.11q.31-.78.09-.24l.37-.88.76-1.75c1-2.19.69-5-1.62-6.28-2-1-5.13-.69-6.15,1.64Z" transform="translate(0 0)"/>
  <path class="cls-5" d="M465.79,341.88l-6.33,16.22a4.7,4.7,0,0,0,.45,3.54,4.63,4.63,0,0,0,2.69,2.1,4.44,4.44,0,0,0,3.47-.46,5.3,5.3,0,0,0,2.07-2.74l6.33-16.23a4.6,4.6,0,0,0-3.15-5.65h0a4.42,4.42,0,0,0-3.46.46,5.29,5.29,0,0,0-2.07,2.75Z" transform="translate(0 0)"/>
  <path class="cls-5" d="M455,331.79a138.1,138.1,0,0,0-21.28,37.35c-.85,2.25.94,5.1,3.14,5.66a4.64,4.64,0,0,0,5.54-3.22c.32-.84.64-1.67,1-2.51l.28-.69.3-.71c.67-1.51,1.33-3,2-4.5,1.43-3.06,3-6,4.65-9s3.36-5.66,5.2-8.38c.92-1.36,1.86-2.73,2.83-4.09l.67-.89a4.62,4.62,0,0,1,.37-.5l1.66-2.12c1.48-1.86,1.91-4.69,0-6.49-1.65-1.54-4.78-2-6.36,0Z" transform="translate(0 0)"/>
  <path class="cls-5" d="M437.37,316.59l-14.09,20.18a4.67,4.67,0,0,0,1.61,6.28,4.58,4.58,0,0,0,6.16-1.64l14.09-20.18a4.67,4.67,0,0,0-1.61-6.28A4.57,4.57,0,0,0,437.37,316.59Z" transform="translate(0 0)"/>
  <path class="cls-5" d="M426,297.3a195.08,195.08,0,0,0-33.57,23.62,4.7,4.7,0,0,0,0,6.5,4.55,4.55,0,0,0,6.36,0,169.66,169.66,0,0,1,15-11.75,191.67,191.67,0,0,1,16.74-10.44,4.69,4.69,0,0,0,1.61-6.29A4.55,4.55,0,0,0,426,297.3Z" transform="translate(0 0)"/>
  <path class="cls-5" d="M397,294a61.71,61.71,0,0,0,22.47-1.76,4.66,4.66,0,0,0,3.14-5.65,4.57,4.57,0,0,0-5.54-3.21c-1.69.46-3.41.84-5.14,1.13l-1.2.2h0l-.61.08c-.87.1-1.74.18-2.62.24a57.56,57.56,0,0,1-10.5-.21c-2.35-.26-4.6,2.29-4.5,4.59A4.67,4.67,0,0,0,397,294Z" transform="translate(0 0)"/>
  <path class="cls-5" d="M374.32,253.17l41,13.87a4.52,4.52,0,0,0,5.53-3.22,4.69,4.69,0,0,0-3.14-5.64l-40.95-13.87a4.54,4.54,0,0,0-5.54,3.21,4.71,4.71,0,0,0,3.14,5.65Z" transform="translate(0 0)"/>
  <path class="cls-5" d="M402,233.27l15.74,6.86a5,5,0,0,0,3.46.46,4.64,4.64,0,0,0,3.15-5.66,4.34,4.34,0,0,0-2.07-2.73l-15.74-6.86a4.82,4.82,0,0,0-3.47-.46,4.59,4.59,0,0,0-2.69,2.1,4.69,4.69,0,0,0-.38,3.52A4.47,4.47,0,0,0,402,233.27Z" transform="translate(0 0)"/>
  <path class="cls-5" d="M392.45,179.21l33.23,38.4a4.47,4.47,0,0,0,6.37,0,4.78,4.78,0,0,0,0-6.5l-33.23-38.39a4.47,4.47,0,0,0-6.37,0A4.77,4.77,0,0,0,392.45,179.21Z" transform="translate(0 0)"/>
  <path class="cls-5" d="M432.48,183.71l13.13,17.43a5,5,0,0,0,2.69,2.11,4.51,4.51,0,0,0,3.46-.46,4.64,4.64,0,0,0,2.07-2.75,4.53,4.53,0,0,0-.45-3.54l-13.13-17.42a5,5,0,0,0-2.69-2.12,4.55,4.55,0,0,0-5.56,3.22,4.5,4.5,0,0,0,.45,3.53Z" transform="translate(0 0)"/>
  <path class="cls-5" d="M445.26,139l21.88,45.24a4.46,4.46,0,0,0,6.15,1.65,4.77,4.77,0,0,0,1.62-6.28L453,134.38a4.46,4.46,0,0,0-6.16-1.65,4.76,4.76,0,0,0-1.61,6.28Z" transform="translate(0 0)"/>
  <path class="cls-5" d="M480.56,156,484,175.82a4.52,4.52,0,0,0,5.54,3.21,4.75,4.75,0,0,0,3.14-5.66l-3.44-19.86a4.51,4.51,0,0,0-5.53-3.22,4.75,4.75,0,0,0-3.11,5.7Z" transform="translate(0 0)"/>
  <path class="cls-5" d="M37.53,44.2a2.72,2.72,0,0,1,.08-.81l-.16,1.22a13.12,13.12,0,0,1,.79-3l-.45,1.11a13.21,13.21,0,0,1,1.66-2.9l-.71.93A13.73,13.73,0,0,1,41,38.43l-.91.72a13,13,0,0,1,2.73-1.57L41.75,38a10.72,10.72,0,0,1,2.4-.73,4.67,4.67,0,0,0,3.17-5.69,4.6,4.6,0,0,0-2.07-2.75,4.91,4.91,0,0,0-3.46-.48,16.18,16.18,0,0,0-8.86,5.25A17.25,17.25,0,0,0,30,38a18.61,18.61,0,0,0-1.55,6.19A4.54,4.54,0,0,0,33,48.78a4.43,4.43,0,0,0,3.18-1.34,5.18,5.18,0,0,0,1.32-3.24Z" transform="translate(0 0)"/>
  <path class="cls-5" d="M55.48,36.56H75.64a4.6,4.6,0,0,0,0-9.19H55.48a4.6,4.6,0,0,0,0,9.19Z" transform="translate(0 0)"/>
  <path class="cls-5" d="M94.36,35.06h20.16a4.6,4.6,0,0,0,0-9.19H94.36a4.6,4.6,0,0,0,0,9.19Z" transform="translate(0 0)"/>
  <path class="cls-5" d="M138.52,37h13.92a4.6,4.6,0,0,0,0-9.19H138.52a4.6,4.6,0,0,0,0,9.19Z" transform="translate(0 0)"/>
  <path class="cls-5" d="M177.39,35.84l13.45-.38a4.6,4.6,0,0,0,0-9.19l-13.45.38a4.6,4.6,0,0,0,0,9.19Z" transform="translate(0 0)"/>
  <path class="cls-5" d="M206.91,35.94l9.6,1.47a3.34,3.34,0,0,0,1.8.08A3.24,3.24,0,0,0,220,37a4.66,4.66,0,0,0,1.62-6.29,4.35,4.35,0,0,0-2.69-2.15L209.31,27a4.87,4.87,0,0,0-3.47.46,4.63,4.63,0,0,0-1.61,6.28,4.37,4.37,0,0,0,2.68,2.12Z" transform="translate(0 0)"/>
  <path class="cls-5" d="M232.6,38H246a4.6,4.6,0,0,0,0-9.19H232.6a4.6,4.6,0,0,0,0,9.19Z" transform="translate(0 0)"/>
  <path class="cls-5" d="M275.8,38h9.12a4.6,4.6,0,0,0,0-9.19H275.8a4.6,4.6,0,0,0,0,9.19Z" transform="translate(0 0)"/>
  <path class="cls-5" d="M304.6,38h13.92a4.6,4.6,0,0,0,0-9.19H304.6a4.6,4.6,0,0,0,0,9.19Z" transform="translate(0 0)"/>
  <path class="cls-5" d="M330,38.19l18.72.39a4.58,4.58,0,0,0,4.5-4.59,4.64,4.64,0,0,0-4.5-4.6L330,29a4.59,4.59,0,0,0,0,9.18Z" transform="translate(0 0)"/>
  <path class="cls-5" d="M365,38.12l26.92-.54a4.6,4.6,0,0,0,0-9.19L365,28.94a4.59,4.59,0,0,0,0,9.18Z" transform="translate(0 0)"/>
  <path class="cls-5" d="M23.5,62.8V76.07a4.5,4.5,0,1,0,9,0V62.8a4.5,4.5,0,1,0-9,0Z" transform="translate(0 0)"/>
  <path class="cls-5" d="M23.71,99.15,26,116.77A5.21,5.21,0,0,0,27.32,120,4.5,4.5,0,0,0,35,116.77L32.7,99.15a5.14,5.14,0,0,0-1.35-3.27,4.43,4.43,0,0,0-6.35,0h0a4.36,4.36,0,0,0-1.32,3.24Z" transform="translate(0 0)"/>
  <path class="cls-5" d="M24.58,136.71v17.63a4.5,4.5,0,1,0,9,0h0V136.71a4.5,4.5,0,1,0-9,0Z" transform="translate(0 0)"/>
  <path class="cls-5" d="M23.76,180.74l1,16.55c.15,2.39,2,4.7,4.5,4.59,2.32-.1,4.66-2,4.5-4.59l-1-16.55c-.15-2.39-2-4.7-4.5-4.59C25.94,176.26,23.6,178.19,23.76,180.74Z" transform="translate(0 0)"/>
  <path class="cls-5" d="M25.66,217.14v13.27a4.5,4.5,0,1,0,9,0V217.14a4.5,4.5,0,1,0-9,0Z" transform="translate(0 0)"/>
  <path class="cls-5" d="M25.66,250.21V264.5a4.5,4.5,0,1,0,9,0V250.21a4.5,4.5,0,1,0-9,0Z" transform="translate(0 0)"/>
  <path class="cls-5" d="M25.66,282.18v17.64a4.5,4.5,0,1,0,9,0V282.18a4.5,4.5,0,1,0-9,0Z" transform="translate(0 0)"/>
  <path class="cls-5" d="M25.66,320.77v19.84a4.5,4.5,0,1,0,9,0V320.77a4.5,4.5,0,1,0-9,0Z" transform="translate(0 0)"/>
  <path class="cls-5" d="M23.5,364.86v20.91a4.5,4.5,0,1,0,9,0V364.86a4.5,4.5,0,1,0-9,0Z" transform="translate(0 0)"/>
  <path class="cls-5" d="M23.5,404.55v14.29a4.5,4.5,0,1,0,9,0V404.55a4.5,4.5,0,1,0-9,0Z" transform="translate(0 0)"/>
  <path class="cls-5" d="M22.42,444.24l1.08,20.94a4.5,4.5,0,1,0,9,0l-1.08-20.94a4.5,4.5,0,1,0-9,0Z" transform="translate(0 0)"/>
  <path class="cls-5" d="M25.66,483.92,23.5,503.77c-.26,2.4,2.26,4.69,4.5,4.59,2.66-.12,4.22-2,4.5-4.59l2.16-19.85c.26-2.39-2.26-4.69-4.5-4.59C27.5,479.45,25.94,481.37,25.66,483.92Z" transform="translate(0 0)"/>
  <path class="cls-5" d="M25.66,521.42v15.43a4.5,4.5,0,1,0,9,0V521.42a4.5,4.5,0,1,0-9,0Z" transform="translate(0 0)"/>
  <path class="cls-5" d="M25.66,560v8.82a4.55,4.55,0,0,0,4.5,4.59,4.47,4.47,0,0,0,3.18-1.34,4.83,4.83,0,0,0,1.32-3.25V560a4.55,4.55,0,0,0-4.52-4.57A4.48,4.48,0,0,0,27,556.74,4.79,4.79,0,0,0,25.66,560Z" transform="translate(0 0)"/>
  <path class="cls-5" d="M38.9,588.54A17.56,17.56,0,0,0,56.23,592a4.94,4.94,0,0,0,2.68-2.12,4.75,4.75,0,0,0,.46-3.54c-.7-2.22-3.17-4.09-5.54-3.21a12.6,12.6,0,0,1-2.7.69l1.2-.18a14.3,14.3,0,0,1-3.58,0l1.19.17a14.29,14.29,0,0,1-3.45-1l1.08.46a13,13,0,0,1-2.75-1.63l.91.72-.46-.39a4.78,4.78,0,0,0-3.18-1.25,4.54,4.54,0,0,0-3.19,1.35,4.65,4.65,0,0,0-1.31,3.25,4.57,4.57,0,0,0,1.31,3.25Z" transform="translate(0 0)"/>
  <path class="cls-5" d="M72.29,594.4l16.2-2.19a5,5,0,0,0,3.18-1.38,4.67,4.67,0,0,0,0-6.49h0A4.27,4.27,0,0,0,88.49,583l-16.2,2.19a4.94,4.94,0,0,0-3.19,1.34,4.76,4.76,0,0,0-1.31,3.29,4.64,4.64,0,0,0,1.31,3.24A4.31,4.31,0,0,0,72.29,594.4Z" transform="translate(0 0)"/>
  <path class="cls-5" d="M103.6,592.14l23.76,1.11a4.59,4.59,0,0,0,4.5-4.6,4.64,4.64,0,0,0-4.5-4.59L103.6,583a4.57,4.57,0,0,0-4.5,4.59A4.63,4.63,0,0,0,103.6,592.14Z" transform="translate(0 0)"/>
  <path class="cls-5" d="M145.73,589.81l19.44,1.11a4.58,4.58,0,0,0,4.5-4.59,4.65,4.65,0,0,0-4.5-4.6l-19.44-1.07a4.57,4.57,0,0,0-4.5,4.59,4.64,4.64,0,0,0,4.5,4.6Z" transform="translate(0 0)"/>
  <path class="cls-5" d="M190,588.79l14-1.18a4.56,4.56,0,0,0,4.5-4.59c-.11-2.33-2-4.81-4.5-4.6l-14,1.18a4.56,4.56,0,0,0-4.5,4.59C185.64,586.47,187.54,589,190,588.79Z" transform="translate(0 0)"/>
  <path class="cls-5" d="M224.55,588.17l24.84.87a4.58,4.58,0,0,0,4.5-4.59,4.64,4.64,0,0,0-4.5-4.6L224.55,579a4.57,4.57,0,0,0-4.5,4.59A4.63,4.63,0,0,0,224.55,588.17Z" transform="translate(0 0)"/>
  <path class="cls-5" d="M268.84,591h10.8a4.6,4.6,0,0,0,0-9.19h-10.8a4.6,4.6,0,0,0,0,9.19Z" transform="translate(0 0)"/>
  <path class="cls-5" d="M398.26,46.27v8.78a4.55,4.55,0,0,0,4.5,4.59,4.48,4.48,0,0,0,3.18-1.35,4.81,4.81,0,0,0,1.32-3.24V46.27a4.55,4.55,0,0,0-4.5-4.59A4.43,4.43,0,0,0,399.58,43,4.81,4.81,0,0,0,398.26,46.27Z" transform="translate(0 0)"/>
  <path class="cls-5" d="M428.82,605.46l32.31,44.92c1.39,1.93,4,3.06,6.15,1.64,1.88-1.23,3.11-4.21,1.62-6.29l-32.31-44.91c-1.39-1.93-4-3.06-6.16-1.64C428.56,600.41,427.33,603.39,428.82,605.46Z" transform="translate(0 0)"/>
  <path class="cls-5" d="M443.53,648.52a233.15,233.15,0,0,1,13.28-25.11q3.69-6,7.75-11.87c1.31-1.88,2.65-3.73,4-5.56.1-.13,1.09-1.45.67-.9l1.11-1.45c.75-1,1.5-1.92,2.26-2.88,1.48-1.86,1.91-4.7,0-6.49-1.65-1.54-4.78-2-6.37,0a236.7,236.7,0,0,0-30.48,49.65c-1,2.17-.67,5,1.62,6.27,2,1,5.1.69,6.15-1.64Z" transform="translate(0 0)"/>
  <path class="cls-5" d="M485.42,598.84l1.58,44.6a4.5,4.5,0,1,0,9,0l-1.65-44.6a4.5,4.5,0,1,0-9,0Z" transform="translate(0 0)"/>
  <path class="cls-5" d="M504.43,600.56a147.54,147.54,0,0,0,26.14,36q4.38,4.43,9.13,8.43c1.81,1.53,4.62,1.94,6.36,0,1.53-1.7,1.94-4.86,0-6.51a141.33,141.33,0,0,1-15.26-15c-1.18-1.35-2.33-2.73-3.45-4.08-.59-.73-1.17-1.46-1.74-2.2l-.78-1-.46-.61q-3.21-4.34-6.08-8.88c-2.18-3.47-4.2-7-6.09-10.67a4.47,4.47,0,0,0-6.15-1.64,4.75,4.75,0,0,0-1.62,6.28Z" transform="translate(0 0)"/>
  <path class="cls-5" d="M517.34,649.92l30-39c1.45-1.89,1.93-4.69,0-6.51-1.62-1.52-4.81-2-6.37,0l-30,39c-1.45,1.87-1.93,4.67,0,6.49C512.59,651.44,515.78,652,517.34,649.92Z" transform="translate(0 0)"/>
  <path class="cls-6" d="M318.31,69.8H679.1c14.89,0,27,12.32,27,27.52V639.71c0,15.2-12.07,27.52-27,27.52H318.31c-14.89,0-27-12.32-27-27.52V97.32C291.35,82.12,303.42,69.8,318.31,69.8Z" transform="translate(0 0)"/>
</svg>
