<svg id="Camada_1" data-name="Camada 1" xmlns="http://www.w3.org/2000/svg" viewBox="0 0 711.11 658.86">
  <defs>
    <style>
      .cls-1 {
        fill: #c1c1c1;
        stroke-width: 18px;
      }

      .cls-1, .cls-2, .cls-3, .cls-4, .cls-5, .cls-6 {
        stroke: #4b3a68;
        stroke-miterlimit: 10;
      }

      .cls-2 {
        fill: #d8d7db;
      }

      .cls-3 {
        fill: #662d91;
      }

      .cls-4, .cls-6 {
        fill: none;
      }

      .cls-4 {
        stroke-width: 12px;
      }

      .cls-5 {
        fill: #4b3a68;
      }

      .cls-6 {
        stroke-width: 10px;
      }
    </style>
  </defs>
  <rect class="cls-1" x="9" y="9" width="414.71" height="585.29" rx="33.82"/>
  <g>
    <rect class="cls-2" x="291.35" y="68.56" width="414.71" height="585.29" rx="33.82"/>
    <path class="cls-3" d="M672.24,649.35H326.57a31.08,31.08,0,0,1-18.66-5.6,29.66,29.66,0,0,1-12.06-24V112.12c0-4.8-.47-10.13.45-14.87a29.7,29.7,0,0,1,28.88-24.14H671c7,0,13.82,1.83,19.42,6.28a29.86,29.86,0,0,1,11.14,23.45V618.05a38.91,38.91,0,0,1-.38,6.82,29.68,29.68,0,0,1-28.94,24.48c-5.79.07-5.81,9.07,0,9A38.87,38.87,0,0,0,708.35,633a41.28,41.28,0,0,0,2.25-14.41V102.61a38.87,38.87,0,0,0-39.24-38.5H323.52A38.78,38.78,0,0,0,288.57,91c-2.07,6.54-1.74,13.32-1.74,20.06V619.87a38.42,38.42,0,0,0,38.35,38.49H672.24C678,658.35,678,649.35,672.24,649.35Z" transform="translate(0 0)"/>
  </g>
  <ellipse class="cls-4" cx="509.32" cy="260.07" rx="88.56" ry="86.04"/>
  <path class="cls-5" d="M516.65,169.34l5.78-43.23c.31-2.35-2.3-4.6-4.5-4.5-2.71.12-4.17,2-4.5,4.5l-5.78,43.19c-.32,2.35,2.29,4.6,4.5,4.5,2.7-.12,4.16-2,4.5-4.5Z" transform="translate(0 0)"/>
  <path class="cls-5" d="M537.71,177.2l6.8-12.43a4.5,4.5,0,1,0-7.71-4.65l-.06.11-6.8,12.42a4.5,4.5,0,0,0,7.77,4.55Z" transform="translate(0 0)"/>
  <path class="cls-5" d="M564.35,191l27.29-38.11c1.38-1.92.4-5.09-1.61-6.16a4.61,4.61,0,0,0-6.16,1.62l-27.29,38.1c-1.38,1.92-.4,5.1,1.61,6.16a4.63,4.63,0,0,0,6.16-1.61Z" transform="translate(0 0)"/>
  <path class="cls-5" d="M583.09,207.84l10.81-9.34a4.51,4.51,0,0,0,1.32-3.18,4.6,4.6,0,0,0-1.32-3.19,4.52,4.52,0,0,0-3.18-1.31,5,5,0,0,0-3.18,1.29l-10.82,9.35a4.52,4.52,0,0,0-1.31,3.18,4.61,4.61,0,0,0,1.31,3.18,4.54,4.54,0,0,0,3.19,1.32,5,5,0,0,0,3.18-1.32Z" transform="translate(0 0)"/>
  <path class="cls-5" d="M596.56,229.42,632.8,213c2.15-1,2.84-4.26,1.61-6.16a4.62,4.62,0,0,0-6.15-1.61L592,221.65c-2.15,1-2.84,4.25-1.62,6.15a4.63,4.63,0,0,0,6.16,1.62Z" transform="translate(0 0)"/>
  <path class="cls-5" d="M600.76,252.72l10.8-1.08a4.78,4.78,0,0,0,3.18-1.32,4.49,4.49,0,0,0,0-6.35h0a4.32,4.32,0,0,0-3.18-1.32l-10.8,1.08a4.92,4.92,0,0,0-3.18,1.32,4.5,4.5,0,0,0,0,6.36h0A4.38,4.38,0,0,0,600.76,252.72Z" transform="translate(0 0)"/>
  <path class="cls-5" d="M599.68,277.44l32.22,13.39c2.18.91,5-1,5.54-3.14.6-2.63-.81-4.56-3.14-5.53L602,268.77c-2.18-.91-5,1-5.53,3.14-.6,2.63.81,4.56,3.14,5.53Z" transform="translate(0 0)"/>
  <path class="cls-5" d="M594.93,300.64l7.9,2.56a4.51,4.51,0,0,0,5.54-3.13h0a4.58,4.58,0,0,0-.46-3.47,4.88,4.88,0,0,0-2.69-2.07l-7.9-2.56a4.51,4.51,0,0,0-5.54,3.13h0a4.58,4.58,0,0,0,.46,3.47A4.88,4.88,0,0,0,594.93,300.64Z" transform="translate(0 0)"/>
  <path class="cls-5" d="M579.84,316.16a98.63,98.63,0,0,0,27.93,25.33,4.5,4.5,0,0,0,4.54-7.78q-3.72-2.23-7.24-4.81l-.85-.63-.56-.43-.54-.43-.83-.67c-1.15-.94-2.27-1.9-3.38-2.9a75.48,75.48,0,0,1-6-6c-1-1.09-2-2.2-3-3.35-.45-.54-.9-1.09-1.34-1.64l-.66-.83c.47.6-.23-.32-.32-.44-1.41-1.88-4-3-6.16-1.62-1.85,1.2-3.13,4.15-1.61,6.16Z" transform="translate(0 0)"/>
  <path class="cls-5" d="M566.57,331.72l10.81,8.62a4.92,4.92,0,0,0,3.18,1.32,4.57,4.57,0,0,0,3.18-1.32,4.47,4.47,0,0,0,1.32-3.18,4.32,4.32,0,0,0-1.32-3.18l-10.81-8.63a4.91,4.91,0,0,0-3.18-1.31,4.61,4.61,0,0,0-3.18,1.31,4.49,4.49,0,0,0-1.32,3.19A4.32,4.32,0,0,0,566.57,331.72Z" transform="translate(0 0)"/>
  <path class="cls-5" d="M551.12,342.64a144.34,144.34,0,0,0,16.43,28.28c1.4,1.88,4,3,6.15,1.61,1.87-1.2,3.12-4.14,1.62-6.16a144.48,144.48,0,0,1-16.43-28.26c-1-2.17-4.28-2.83-6.16-1.62-2.24,1.45-2.63,3.84-1.61,6.16Z" transform="translate(0 0)"/>
  <path class="cls-5" d="M532,345.63l5.86,15.08A4.88,4.88,0,0,0,540,363.4a4.55,4.55,0,0,0,3.46.46c2.13-.69,4.06-3.19,3.15-5.54l-5.86-15.08a4.88,4.88,0,0,0-2.07-2.69,4.62,4.62,0,0,0-3.47-.45c-2.13.68-4.06,3.18-3.14,5.53Z" transform="translate(0 0)"/>
  <path class="cls-5" d="M513.82,350.11v30.2a4.5,4.5,0,1,0,9,0v-30.2a4.5,4.5,0,0,0-9,0Z" transform="translate(0 0)"/>
  <path class="cls-5" d="M497.5,349l-1.41,13a4.5,4.5,0,0,0,1.31,3.18,4.6,4.6,0,0,0,3.19,1.32,4.51,4.51,0,0,0,3.18-1.32,5.21,5.21,0,0,0,1.32-3.18l1.41-13a4.5,4.5,0,0,0-7.68-3.19A5.18,5.18,0,0,0,497.5,349Z" transform="translate(0 0)"/>
  <path class="cls-5" d="M484.32,339.77A146.16,146.16,0,0,0,474.9,368a4.56,4.56,0,0,0,3.14,5.53c2.28.52,5-.68,5.54-3.14a139,139,0,0,1,3.7-13.58c.74-2.23,1.52-4.44,2.37-6.63.39-1,.8-2,1.22-3.05.21-.51.24-.58.09-.23.12-.28.24-.57.37-.86l.76-1.72c1-2.14.69-4.93-1.62-6.15-2-1-5.13-.68-6.15,1.61Z" transform="translate(0 0)"/>
  <path class="cls-5" d="M465.79,335.11,459.46,351a4.53,4.53,0,0,0,.45,3.47,4.6,4.6,0,0,0,2.69,2.06,4.53,4.53,0,0,0,3.47-.45,5.22,5.22,0,0,0,2.07-2.69l6.33-15.9a4.5,4.5,0,0,0-3.15-5.53h0a4.5,4.5,0,0,0-3.46.45,5.18,5.18,0,0,0-2.07,2.69Z" transform="translate(0 0)"/>
  <path class="cls-5" d="M455,325.23a134.66,134.66,0,0,0-21.28,36.59c-.85,2.2.94,5,3.14,5.54a4.65,4.65,0,0,0,5.54-3.15c.32-.82.64-1.64,1-2.46l.28-.68c-.18.43.26-.6.3-.69.67-1.48,1.33-2.95,2-4.41,1.43-3,3-5.92,4.65-8.78s3.36-5.54,5.2-8.21q1.38-2,2.83-4l.67-.88a5.72,5.72,0,0,1,.37-.49l1.66-2.07c1.48-1.82,1.91-4.6,0-6.36-1.65-1.51-4.78-2-6.36,0Z" transform="translate(0 0)"/>
  <path class="cls-5" d="M437.37,310.34l-14.09,19.77c-1.37,1.92-.4,5.09,1.61,6.15a4.62,4.62,0,0,0,6.16-1.61l14.09-19.77c1.37-1.92.4-5.09-1.61-6.15A4.62,4.62,0,0,0,437.37,310.34Z" transform="translate(0 0)"/>
  <path class="cls-5" d="M426,291.44a195.24,195.24,0,0,0-33.57,23.14,4.54,4.54,0,0,0,0,6.37,4.62,4.62,0,0,0,6.36,0,167,167,0,0,1,15-11.51,189.51,189.51,0,0,1,16.74-10.23,4.54,4.54,0,0,0,1.61-6.16,4.6,4.6,0,0,0-6.16-1.61Z" transform="translate(0 0)"/>
  <path class="cls-5" d="M397,288.25a63,63,0,0,0,22.47-1.73,4.54,4.54,0,0,0,3.14-5.53,4.59,4.59,0,0,0-5.54-3.15c-1.69.45-3.41.82-5.14,1.11l-1.2.19h0l-.61.08c-.87.1-1.74.18-2.62.24a59.41,59.41,0,0,1-10.5-.21c-2.35-.25-4.6,2.25-4.5,4.5a4.63,4.63,0,0,0,4.5,4.5Z" transform="translate(0 0)"/>
  <path class="cls-5" d="M374.32,248.21l41,13.58a4.53,4.53,0,0,0,5.53-3.15,4.59,4.59,0,0,0-3.14-5.53l-40.95-13.58a4.55,4.55,0,0,0-5.54,3.14,4.61,4.61,0,0,0,3.14,5.54Z" transform="translate(0 0)"/>
  <path class="cls-5" d="M402,228.71l15.74,6.72a5,5,0,0,0,3.46.45,4.53,4.53,0,0,0,3.15-5.54,4.3,4.3,0,0,0-2.07-2.68l-15.74-6.72a4.92,4.92,0,0,0-3.47-.45,4.6,4.6,0,0,0-2.69,2.06A4.53,4.53,0,0,0,400,226,4.35,4.35,0,0,0,402,228.71Z" transform="translate(0 0)"/>
  <path class="cls-5" d="M392.45,175.75l33.23,37.62a4.54,4.54,0,0,0,6.37,0,4.62,4.62,0,0,0,0-6.37l-33.23-37.61a4.54,4.54,0,0,0-6.37,0A4.6,4.6,0,0,0,392.45,175.75Z" transform="translate(0 0)"/>
  <path class="cls-5" d="M432.48,180.16l13.13,17.07a5,5,0,0,0,2.69,2.07,4.59,4.59,0,0,0,3.46-.45,4.55,4.55,0,0,0,2.07-2.69,4.35,4.35,0,0,0-.45-3.47l-13.13-17.07a5,5,0,0,0-2.69-2.07,4.6,4.6,0,0,0-3.46.46A4.51,4.51,0,0,0,432,176.7a4.33,4.33,0,0,0,.45,3.46Z" transform="translate(0 0)"/>
  <path class="cls-5" d="M445.26,136.37l21.88,44.32a4.5,4.5,0,0,0,6.15,1.61,4.61,4.61,0,0,0,1.62-6.15L453,131.83a4.52,4.52,0,0,0-6.16-1.62,4.62,4.62,0,0,0-1.61,6.16Z" transform="translate(0 0)"/>
  <path class="cls-5" d="M480.56,153,484,172.43c.41,2.32,3.38,3.84,5.54,3.14a4.63,4.63,0,0,0,3.14-5.54l-3.44-19.46c-.41-2.33-3.37-3.85-5.53-3.15A4.63,4.63,0,0,0,480.6,153Z" transform="translate(0 0)"/>
  <path class="cls-5" d="M37.53,43.48a2.69,2.69,0,0,1,.08-.79l-.16,1.2A12.39,12.39,0,0,1,38.24,41l-.45,1.08a13,13,0,0,1,1.66-2.84l-.71.91A13.82,13.82,0,0,1,41,37.83l-.91.71A12.78,12.78,0,0,1,42.82,37l-1.07.45a11.24,11.24,0,0,1,2.4-.72,4.56,4.56,0,0,0,3.17-5.57,4.51,4.51,0,0,0-2.07-2.69A5,5,0,0,0,41.79,28a16.19,16.19,0,0,0-8.86,5.14A16.7,16.7,0,0,0,30,37.42a17.88,17.88,0,0,0-1.55,6.06,4.5,4.5,0,0,0,7.68,3.18,5,5,0,0,0,1.32-3.18Z" transform="translate(0 0)"/>
  <path class="cls-5" d="M55.48,36H75.64a4.5,4.5,0,0,0,0-9H55.48a4.5,4.5,0,1,0,0,9Z" transform="translate(0 0)"/>
  <path class="cls-5" d="M94.36,34.53h20.16a4.5,4.5,0,1,0,0-9H94.36a4.5,4.5,0,0,0,0,9Z" transform="translate(0 0)"/>
  <path class="cls-5" d="M138.52,36.45h13.92a4.5,4.5,0,0,0,0-9H138.52a4.5,4.5,0,1,0,0,9Z" transform="translate(0 0)"/>
  <path class="cls-5" d="M177.39,35.29l13.45-.37a4.5,4.5,0,0,0,0-9l-13.45.37a4.5,4.5,0,0,0,0,9Z" transform="translate(0 0)"/>
  <path class="cls-5" d="M206.91,35.39l9.6,1.44a3.34,3.34,0,0,0,1.8.08,3.23,3.23,0,0,0,1.67-.53,4.51,4.51,0,0,0,1.62-6.16,4.38,4.38,0,0,0-2.69-2.11l-9.6-1.44a5,5,0,0,0-3.47.45,4.66,4.66,0,0,0-2.07,2.69,4.58,4.58,0,0,0,.46,3.47,4.36,4.36,0,0,0,2.68,2.07Z" transform="translate(0 0)"/>
  <path class="cls-5" d="M232.6,37.41H246a4.5,4.5,0,1,0,0-9H232.6a4.5,4.5,0,0,0,0,9Z" transform="translate(0 0)"/>
  <path class="cls-5" d="M275.8,37.41h9.12a4.5,4.5,0,1,0,0-9H275.8a4.5,4.5,0,0,0,0,9Z" transform="translate(0 0)"/>
  <path class="cls-5" d="M304.6,37.41h13.92a4.5,4.5,0,1,0,0-9H304.6a4.5,4.5,0,0,0,0,9Z" transform="translate(0 0)"/>
  <path class="cls-5" d="M330,37.6l18.72.38a4.53,4.53,0,0,0,4.5-4.5,4.59,4.59,0,0,0-4.5-4.5L330,28.6a4.5,4.5,0,0,0,0,9Z" transform="translate(0 0)"/>
  <path class="cls-5" d="M365,37.53,391.92,37a4.5,4.5,0,0,0,0-9L365,28.53a4.5,4.5,0,0,0,0,9Z" transform="translate(0 0)"/>
  <path class="cls-5" d="M23.5,61.71v13a4.5,4.5,0,0,0,9,0v-13a4.5,4.5,0,0,0-9,0Z" transform="translate(0 0)"/>
  <path class="cls-5" d="M23.71,97.32,26,114.58a5,5,0,0,0,1.32,3.19,4.51,4.51,0,0,0,6.36,0A4.34,4.34,0,0,0,35,114.58l-2.3-17.26a5,5,0,0,0-1.35-3.21,4.5,4.5,0,0,0-6.35,0h0a4.24,4.24,0,0,0-1.32,3.18Z" transform="translate(0 0)"/>
  <path class="cls-5" d="M24.58,134.11v17.28a4.5,4.5,0,0,0,9,0V134.11a4.5,4.5,0,0,0-9,0Z" transform="translate(0 0)"/>
  <path class="cls-5" d="M23.76,177.25l1,16.21c.15,2.34,2,4.61,4.5,4.5,2.32-.1,4.66-2,4.5-4.5l-1-16.21c-.15-2.34-2-4.61-4.5-4.5-2.32.11-4.66,2-4.5,4.5Z" transform="translate(0 0)"/>
  <path class="cls-5" d="M25.66,212.91v13a4.5,4.5,0,1,0,9,0v-13a4.5,4.5,0,1,0-9,0Z" transform="translate(0 0)"/>
  <path class="cls-5" d="M25.66,245.31v14a4.5,4.5,0,1,0,9,0v-14a4.5,4.5,0,0,0-9,0Z" transform="translate(0 0)"/>
  <path class="cls-5" d="M25.66,276.63v17.28a4.5,4.5,0,1,0,9,0V276.63a4.5,4.5,0,0,0-9,0Z" transform="translate(0 0)"/>
  <path class="cls-5" d="M25.66,314.43v19.44a4.5,4.5,0,0,0,9,0V314.43a4.5,4.5,0,1,0-9,0Z" transform="translate(0 0)"/>
  <path class="cls-5" d="M23.5,357.63v20.48a4.5,4.5,0,0,0,9,0V357.63a4.5,4.5,0,0,0-9,0Z" transform="translate(0 0)"/>
  <path class="cls-5" d="M23.5,396.51v14a4.5,4.5,0,0,0,9,0v-14a4.5,4.5,0,0,0-9,0Z" transform="translate(0 0)"/>
  <path class="cls-5" d="M22.42,435.39l1.08,20.52a4.57,4.57,0,0,0,4.5,4.5c2.33-.1,4.63-2,4.5-4.5l-1.08-20.52a4.57,4.57,0,0,0-4.5-4.5C24.59,431,22.29,432.89,22.42,435.39Z" transform="translate(0 0)"/>
  <path class="cls-5" d="M25.66,474.27,23.5,493.71c-.26,2.35,2.26,4.6,4.5,4.5,2.66-.12,4.22-2,4.5-4.5l2.16-19.44c.26-2.35-2.26-4.6-4.5-4.5-2.66.12-4.22,2-4.5,4.5Z" transform="translate(0 0)"/>
  <path class="cls-5" d="M25.66,511v15.12a4.5,4.5,0,0,0,9,0V511a4.5,4.5,0,0,0-9,0Z" transform="translate(0 0)"/>
  <path class="cls-5" d="M25.66,548.79v8.64a4.5,4.5,0,0,0,7.68,3.18,4.66,4.66,0,0,0,1.32-3.18v-8.64A4.5,4.5,0,0,0,27,545.61,4.66,4.66,0,0,0,25.66,548.79Z" transform="translate(0 0)"/>
  <path class="cls-5" d="M38.9,576.76a17.84,17.84,0,0,0,17.33,3.43,4.88,4.88,0,0,0,2.68-2.08,4.58,4.58,0,0,0,.46-3.47c-.7-2.17-3.17-4-5.54-3.14a13.17,13.17,0,0,1-2.7.67l1.2-.17a14.3,14.3,0,0,1-3.58,0l1.19.16a14.68,14.68,0,0,1-3.45-1l1.08.45a13.25,13.25,0,0,1-2.75-1.6l.91.7-.46-.38a4.85,4.85,0,0,0-3.18-1.22,4.6,4.6,0,0,0-3.19,1.32,4.52,4.52,0,0,0-1.31,3.18,4.43,4.43,0,0,0,1.31,3.19Z" transform="translate(0 0)"/>
  <path class="cls-5" d="M72.29,582.5l16.2-2.15A5,5,0,0,0,91.67,579a4.5,4.5,0,0,0,0-6.36h0a4.32,4.32,0,0,0-3.18-1.32l-16.2,2.15a5,5,0,0,0-3.19,1.31A4.63,4.63,0,0,0,67.79,578a4.52,4.52,0,0,0,1.31,3.18A4.36,4.36,0,0,0,72.29,582.5Z" transform="translate(0 0)"/>
  <path class="cls-5" d="M103.6,580.29l23.76,1.08a4.53,4.53,0,0,0,4.5-4.5,4.59,4.59,0,0,0-4.5-4.5l-23.76-1.08a4.53,4.53,0,0,0-4.5,4.5A4.59,4.59,0,0,0,103.6,580.29Z" transform="translate(0 0)"/>
  <path class="cls-5" d="M145.73,578l19.44,1.09a4.53,4.53,0,0,0,4.5-4.5,4.6,4.6,0,0,0-4.5-4.5l-19.44-1.05a4.52,4.52,0,0,0-4.5,4.5,4.59,4.59,0,0,0,4.5,4.5Z" transform="translate(0 0)"/>
  <path class="cls-5" d="M190,577l14-1.15a4.78,4.78,0,0,0,3.18-1.32,4.57,4.57,0,0,0,1.32-3.18c-.11-2.28-2-4.71-4.5-4.5L190,568a4.78,4.78,0,0,0-3.18,1.32,4.57,4.57,0,0,0-1.32,3.18C185.64,574.73,187.54,577.16,190,577Z" transform="translate(0 0)"/>
  <path class="cls-5" d="M224.55,576.4l24.84.85a4.53,4.53,0,0,0,4.5-4.5,4.59,4.59,0,0,0-4.5-4.5l-24.84-.85a4.53,4.53,0,0,0-4.5,4.5,4.59,4.59,0,0,0,4.5,4.5Z" transform="translate(0 0)"/>
  <path class="cls-5" d="M268.84,579.21h10.8a4.5,4.5,0,0,0,0-9h-10.8a4.5,4.5,0,1,0,0,9Z" transform="translate(0 0)"/>
  <path class="cls-5" d="M398.26,45.51v8.6a4.5,4.5,0,0,0,7.68,3.18,4.66,4.66,0,0,0,1.32-3.18v-8.6a4.5,4.5,0,0,0-7.68-3.18A4.66,4.66,0,0,0,398.26,45.51Z" transform="translate(0 0)"/>
  <path class="cls-5" d="M428.82,593.34l32.31,44c1.39,1.89,4,3,6.15,1.61,1.88-1.21,3.11-4.13,1.62-6.16l-32.31-44c-1.39-1.89-4-3-6.16-1.61-1.87,1.21-3.1,4.13-1.61,6.16Z" transform="translate(0 0)"/>
  <path class="cls-5" d="M443.53,635.52a227.67,227.67,0,0,1,13.28-24.6q3.69-5.92,7.75-11.63c1.31-1.84,2.65-3.65,4-5.45.1-.12,1.09-1.42.67-.88l1.11-1.42c.75-.95,1.5-1.88,2.26-2.82,1.48-1.82,1.91-4.6,0-6.36-1.65-1.51-4.78-2-6.37,0A231.16,231.16,0,0,0,435.75,631c-1,2.13-.67,4.94,1.62,6.15,2,1,5.1.67,6.15-1.61Z" transform="translate(0 0)"/>
  <path class="cls-5" d="M485.42,586.85,487,630.54a4.5,4.5,0,0,0,9,0l-1.65-43.69a4.5,4.5,0,0,0-9,0Z" transform="translate(0 0)"/>
  <path class="cls-5" d="M504.43,588.54a144.56,144.56,0,0,0,26.14,35.21q4.38,4.34,9.13,8.26c1.81,1.5,4.62,1.9,6.36,0,1.53-1.66,1.94-4.76,0-6.37a140.42,140.42,0,0,1-15.26-14.71c-1.18-1.32-2.33-2.67-3.45-4-.59-.71-1.17-1.43-1.74-2.15l-.78-1-.46-.6q-3.21-4.24-6.08-8.7c-2.18-3.4-4.2-6.88-6.09-10.45a4.52,4.52,0,0,0-6.15-1.61,4.6,4.6,0,0,0-1.62,6.15Z" transform="translate(0 0)"/>
  <path class="cls-5" d="M517.34,636.89l30-38.19c1.45-1.85,1.93-4.59,0-6.37-1.62-1.49-4.81-2-6.37,0l-30,38.2c-1.45,1.84-1.93,4.58,0,6.36C512.59,638.38,515.78,638.89,517.34,636.89Z" transform="translate(0 0)"/>
  <rect class="cls-6" x="291.35" y="68.56" width="414.71" height="585.29" rx="26.96"/>
</svg>
