<?xml version="1.0" encoding="utf-8"?>
<!-- Generator: Adobe Illustrator 24.3.0, SVG Export Plug-In . SVG Version: 6.00 Build 0)  -->
<svg version="1.1" id="Camada_1" xmlns="http://www.w3.org/2000/svg" xmlns:xlink="http://www.w3.org/1999/xlink" x="0px" y="0px"
	 viewBox="0 0 315.1 151.1" style="enable-background:new 0 0 315.1 151.1;" xml:space="preserve">
<style type="text/css">
	.st0{enable-background:new    ;}
	.st1{fill:#4B3A68;}
</style>
<g class="st0">
	<path class="st1" d="M41,53.3l0.3,9.1l-21.4-2.6v11.1c-0.2,29.1,2.5,44.3,11.8,44.1c6.9-0.1,11.9-4.7,11.9-10.7
		c0-6.2-3.2-9.9-10-9.3c3.9,1.3,5.2,3.7,5.2,6.7c0,4-1.8,6.4-5.7,6.4c-6,0-8.7-3.7-8.7-7.7c0-7.2,3.5-11.8,10.5-12.4
		c8.2-0.9,15,2.9,14.2,16.9c-0.8,12-10.2,18.2-19.1,18.6c-16.3,0.9-21.7-23.4-21.5-51.2l0.1-14l-7-0.9l0.6-9.2l6.4,0.9L9,7l11.1-0.1
		L20,50.7L41,53.3z"/>
	<path class="st1" d="M67.7,47.3c-5.7,26.3-6.3,53.1,1.6,53.6c9.2,0.4,9-31.7,9-51.9h10.1c-2,31.1,0.6,54,11.1,53.1
		c11.8-1.1,7.5-34.3,5-55.5l10.5-1.1c4.3,28.9,7.9,65-16.2,66.7c-10.6,0.6-15.3-9.1-16.3-22.8c-0.2,11.5-3.4,20.6-14.4,20.8
		c-17.7,0.2-16.9-34.5-11.4-62.8L67.7,47.3z"/>
	<path class="st1" d="M133.2,59.3l-1.6,55.3l-10.7-1.7l2.8-54.2L133.2,59.3z M133.4,31.3l0.3,15.8l-10.2-1.2V30.8L133.4,31.3z"/>
	<path class="st1" d="M151.1,51.1c27.9-6.4,39.3,12,32.3,58l-11.8,0.1c6.8-45.2-0.2-53.4-20.3-50.3l1.5,49.7l-10.7,0.6l-3.9-62.1
		l12.8-0.5L151.1,51.1z"/>
	<path class="st1" d="M190.3,7.8l12.6-0.9l-0.1,74.7c11.5-8.1,18.8-18.2,22.8-30.9l11.2,5.4c-4.6,12-12.3,21.7-23.4,28.6
		c4.3,1.7,5.9,6.5,6.9,11.6c1.2,6,2,10.3,7.1,10c5.1-0.2,8.4-4.8,8.4-8.1c0-3.2-0.8-5.3-2.7-4.9c1.4,6.4-1.8,8.1-5.3,8.3
		c-4.5,0.1-5.5-3.4-5.7-6.7c-0.3-6.1,3.4-9.8,9.5-9.8c6.3,0,10.2,4.9,10.2,12.4c0,10.2-5,16.2-15,17.9c-9.7,1.7-13.2-4.3-13.4-12.5
		c-0.3-10.4-5-11.3-10.5-11.1V114l-9.6,1.7L190.3,7.8z"/>
	<path class="st1" d="M246.1,7.3l12.6-0.4l-0.9,104.5l-9.6,1.5L246.1,7.3z"/>
	<path class="st1" d="M278.6,48.2c-3.9,32.8-2.9,57,23.1,47.4c0-0.9,0-2-0.1-4.3c-0.3-11.6-1.4-25.1-2.9-39.2l11.2-1.1
		c1.6,18.4,15.8,91.7-23.8,96.6c-13.1,1.7-19.4-8.8-20.4-19.7c-0.8-7.7,1.6-14.8,10.2-15.1c9.1-0.2,15.3,4.3,15.3,15.4
		c0,3.8-3.6,7.6-7.9,7.6c-4.3,0-7.7-3.2-7.7-7c0-4.5,6.2-9.4,10.4-5.3c0-4.5-5.1-6.1-7.2-6.1c-6.2,0-6.9,5.6-5.6,10.8
		c1.6,6.2,5.9,13.3,12.8,11.3c10.5-3.4,15.4-15.4,15.8-36.1c-34.6,14.8-38.1-16.6-34.9-55L278.6,48.2z"/>
</g>
</svg>
