<svg id="Camada_1" data-name="Camada 1" xmlns="http://www.w3.org/2000/svg" viewBox="0 0 757.5 798.05">
  <defs>
    <style>
      .cls-1 {
        fill: #4b3a68;
      }
    </style>
  </defs>
  <path class="cls-1" d="M434,123.22c-36.79,2-73.9,4.32-110,12-33.94,7.19-66.86,19.95-94.57,40a246.45,246.45,0,0,0-65.59,70.4,263.57,263.57,0,0,0-34.7,90.76,342.71,342.71,0,0,0-2,108.29c4.67,33.75,12.31,67.3,25.53,99,12.93,31.11,30.23,60.34,54.6,84.86s54.39,41.64,86.83,54.2c30,11.6,61.86,18.1,93.9,22.33A668.29,668.29,0,0,0,488.85,711c33.48-.76,67.66-4.68,99.48-14.88,32.87-10.54,63.16-27.37,87.24-51.13,25-24.65,42.61-54.29,56-85.8a332.39,332.39,0,0,0,23.6-90.49A327.3,327.3,0,0,0,724.7,286.55c-26.85-54.93-70.85-100.91-126-131.88-53-30-116.22-46.27-178.18-42.67a311,311,0,0,0-47.06,6.49c-11.46,3.06-18.19,14.21-15.11,25,3.39,10.67,15.12,16.94,26.6,14.22q11.28-2.43,22.76-3.89l-5.74.73a288.8,288.8,0,0,1,71.54.16l-5.76-.73A314.22,314.22,0,0,1,543,173.39l-5.16-2a317.68,317.68,0,0,1,68.52,37.56L602,205.77a287.77,287.77,0,0,1,53,49.77l-3.39-4.12a285.62,285.62,0,0,1,39.13,63.34l-2.19-4.86A304.47,304.47,0,0,1,712,391.34l-.77-5.41a320.22,320.22,0,0,1-.14,89.29l.77-5.41a316.26,316.26,0,0,1-24.25,83.91l2.19-4.87a252.06,252.06,0,0,1-34.2,56.26l3.38-4.12a190.07,190.07,0,0,1-34.34,32.72l4.37-3.19a197.54,197.54,0,0,1-42.39,23.21l5.17-2.06a275.38,275.38,0,0,1-67.06,16.58l5.75-.72c-35,4.34-70.54,3.66-105.75.79q-15-1.23-30-3.08l5.77.72C367.12,661.73,334,654.79,303,642.48l5.17,2a237.56,237.56,0,0,1-51.07-27.67l4.37,3.19a198.64,198.64,0,0,1-36.24-34.18l3.39,4.12a242.4,242.4,0,0,1-33-54.25l2.18,4.86A373,373,0,0,1,170,441.27l.77,5.43a335.29,335.29,0,0,1-.72-94.59l-.89,5.41a260,260,0,0,1,19.39-68.27l-2.18,4.86a239.7,239.7,0,0,1,32.85-53.23L215.85,245a221.49,221.49,0,0,1,39.85-37.84l-4.37,3.19a208.61,208.61,0,0,1,45.52-24.9l-5.16,2c24.61-9.64,50.76-15.09,77.16-18.45l-5.75.75c23.53-3,47.23-4.39,70.93-5.7a23.52,23.52,0,0,0,15.28-6,20.15,20.15,0,0,0,6.35-14.39c-.51-10.5-9.62-21-21.63-20.36Z" transform="translate(-0.04 0)"/>
  <path class="cls-1" d="M389.85,121.19,312,132c-5,.7-10.52,5.47-12.93,9.36a19.77,19.77,0,0,0-2.19,15.7,20.75,20.75,0,0,0,9.95,12.15l5.17,2.06a23,23,0,0,0,11.49,0l78-10.81c5-.7,10.51-5.48,12.93-9.37a19.72,19.72,0,0,0,2.17-15.68,20.75,20.75,0,0,0-9.93-12.17l-5.17-2a22.9,22.9,0,0,0-11.51,0Z" transform="translate(-0.04 0)"/>
  <path class="cls-1" d="M268,200a272.67,272.67,0,0,1,46-23.5l-5.14,2a289,289,0,0,1,68.86-17.67l-5.77.73a284.73,284.73,0,0,1,71.33,0l-5.74-.75c2.67.36,5.31.72,8,1.15a24.85,24.85,0,0,0,16.65-2.06c10.34-5.63,13.88-18.08,7.9-27.81l-.14-.21c-2.86-4.21-7.47-8.53-12.93-9.37a304.11,304.11,0,0,0-85-1.76,295.46,295.46,0,0,0-86.21,23.09,267.9,267.9,0,0,0-39.6,20.93A22,22,0,0,0,236.13,177a19.81,19.81,0,0,0,2.18,15.7c6,8.75,19.59,13.71,29.59,7.3Z" transform="translate(-0.04 0)"/>
  <path class="cls-1" d="M249.56,214.86q6.78-5.62,13.89-10.83l-4.37,3.16A294.35,294.35,0,0,1,323,172.27l-5.16,2a314.32,314.32,0,0,1,75-19.22l-5.74.72a307.52,307.52,0,0,1,76.69,0l-5.77-.72q11.78,1.53,23.38,4A24,24,0,0,0,498,157a20.93,20.93,0,0,0,10-12.27c2.4-10.31-3.29-22.62-15.12-25-75.24-15.47-153.89-4.47-221.1,30.93A307.53,307.53,0,0,0,219,186.22c-8.51,7.08-8.25,21.67,0,28.8a23.16,23.16,0,0,0,30.59,0Z" transform="translate(-0.04 0)"/>
  <path class="cls-1" d="M449.64,167.42q5.83,1.82,11.51,4.05l-4.3-1.72a160.91,160.91,0,0,1,24,12.08c1.85,1.14,3.68,2.27,5.48,3.51l2.28,1.56,1.52,1.07c2,1.33-1-.84-1.37-1.05a35,35,0,0,1,5.14,3.94c1.83,1.43,3.61,2.9,5.36,4.52a180.06,180.06,0,0,1,18.94,18.83c.72.79,1.39,1.63,2.09,2.42,1.9,2.26-2.72-3.37-.19-.25,1.44,1.79,2.83,3.59,4.2,5.43,2.7,3.59,5.24,7.3,7.67,11.06a224,224,0,0,1,15.79,29.25l-1.8-4.05a304.26,304.26,0,0,1,22.42,80.81l-.65-4.53a371.34,371.34,0,0,1-.24,103.59l.65-4.53a398.41,398.41,0,0,1-30.76,105.87l1.8-4.07a403.21,403.21,0,0,1-34.7,62q-5.1,7.47-10.53,14.73c-1.68,2.26-3.39,4.52-5.12,6.67l-2.74,3.46-1.39,1.72c-2.53,3.1,2.4-2.83.29-.34-7.58,9-15.48,17.87-23.87,26.33a394.58,394.58,0,0,1-30.45,27.65c-7.21,5.83-6.83,18.09,0,24a19.28,19.28,0,0,0,25.48,0,411.53,411.53,0,0,0,84.45-94.5,417.33,417.33,0,0,0,51.75-114,395.48,395.48,0,0,0,14.8-122.84c-1.85-46-11.49-92.46-32.44-134.26-20-39.88-53.67-76.12-97.07-94.27a194.14,194.14,0,0,0-18.41-6.78c-9.59-2.41-19.46,2.86-22.19,11.85-2.4,9,3.15,18.2,12.6,20.86Z" transform="translate(-0.04 0)"/>
  <path class="cls-1" d="M640.34,301.89a5.26,5.26,0,0,1-1.68,2.65c.77-.75.46-.57-.94.52a7.46,7.46,0,0,1,1-.55c-1.68.61-2,.75-.92.39a12,12,0,0,1,1.18-.3c1.16-.2.8-.18-1.08,0h4.66c1.21.12.92,0-.81-.13l1.37.22a48.65,48.65,0,0,0,5.31,1.5c-1.52-.61-1.76-.7-.7-.25l.94.45c.69.36,1.39.75,2.06,1.15l1.16.73c-1.28-.95-1.47-1.09-.58-.39a17.7,17.7,0,0,1,2,1.77l.93,1c.72.84.58.66-.43-.52a12.14,12.14,0,0,0,1.13,1.63c.24.38.46.77.67,1.15.48,1,.41.77-.24-.65a21.21,21.21,0,0,0,.89,2.46,10.16,10.16,0,0,0,.6,2.56c-.21-1.65-.26-1.9-.14-.77v3.23c-.12,1.11,0,.86.14-.79a5.48,5.48,0,0,1-.24,1.27c-.21.86-.5,1.65-.77,2.49s-.33.81.29-.66a13.2,13.2,0,0,1-.65,1.16c-.24.36-1,1.06-1,1.49,1.09-1.27,1.25-1.49.53-.68l-.86.86a10.06,10.06,0,0,1-.92.81c-.86.71-.6.55.75-.47a21.78,21.78,0,0,0-2.12,1.29c-.91.5-3.19,1-.24.25-.57.16-1.17.4-1.77.56a22,22,0,0,0-2.41.52c1.85-.2,2.21-.27,1-.16H646c-1.15,0-.82,0,1,.16a13.12,13.12,0,0,0-2.4-.58c-5.76-1.47-11.69,1.7-13.31,7.1a10.33,10.33,0,0,0,7.57,12.48h0a31.81,31.81,0,0,0,25-3.37A29.3,29.3,0,0,0,678,322.38c2.4-17.57-10.91-33.93-29.16-37.3-11.58-2.26-24.85-.43-29.39,11.31A10.18,10.18,0,0,0,627,308.9a11.2,11.2,0,0,0,13.31-7.1Z" transform="translate(-0.04 0)"/>
  <path class="cls-1" d="M681.63,449.5a31,31,0,0,0-30.86.54A34.09,34.09,0,0,0,635,476.14c-2,18.65,11.68,36,29.85,42.15,5.75,1.46,11.67-1.71,13.29-7.1a10.4,10.4,0,0,0-7.55-12.54l-1.44-.49,1.18.45a7.5,7.5,0,0,1-2-1c-.48-.25-1.32-.72-1.94-1.11l-1.28-.81c1.08.79,1.3.95.68.48-1.13-1-2.29-1.91-3.34-3-.51-.52-1-1.08-1.52-1.63l.53.64-.65-.91a31.72,31.72,0,0,1-2.4-4c-1-1.81.62,1.88-.12-.22-.24-.68-.51-1.36-.72-2.06a10.57,10.57,0,0,1-1-4.21l.19,1.29a5.88,5.88,0,0,0-.12-1.45,14.21,14.21,0,0,1,0-2.26,15.52,15.52,0,0,0,.17-2.26q-.29,2,0,.81a4.38,4.38,0,0,1,.24-1.13c.17-.75.38-1.49.62-2.26a3.1,3.1,0,0,1,.39-1.09c.29-.72.17-.5-.32.66a14.18,14.18,0,0,1,2.41-4c-.89,1-1,1.13-.19.27l.52-.56c.39-.37,1.18-1.43,1.76-1.57-1.15.8-1.25.89-.29.25l.67-.38c.46-.25.92-.5,1.37-.7l-1.13.4a9.71,9.71,0,0,1,2.24-.7l1.54-.31-1.32.16c.5-.34,2.11,0,2.71,0h1.18c-1.47-.21-1.8-.23-1,0,.34,0,2.91.58,1.3.22-.82-.34-.77-.32.12,0q.68.35,1.32.75a11.33,11.33,0,0,0,14.81-3.64,10.09,10.09,0,0,0-3.72-13.76l-.2-.11Z" transform="translate(-0.04 0)"/>
  <path class="cls-1" d="M609.34,569.8l.26-.34-1.68,2.06a13.7,13.7,0,0,1,2.55-2.38l-2.19,1.61a16,16,0,0,1,3.1-1.67l-2.57,1a17.38,17.38,0,0,1,3.89-1l-2.88.37a17.85,17.85,0,0,1,3.58,0l-2.86-.37A16.42,16.42,0,0,1,614,570l-2.6-1a15.16,15.16,0,0,1,2.91,1.58L612.1,569a17.61,17.61,0,0,1,2.77,2.55l-1.69-2a16.22,16.22,0,0,1,2.24,3.55l-1.08-2.42a16.42,16.42,0,0,1,1.22,4.16l-.38-2.72a17.91,17.91,0,0,1,0,4.39l.38-2.71a17.78,17.78,0,0,1-1.34,4.68l1.08-2.42a17.1,17.1,0,0,1-2.07,3.3l1.71-2.06a20.32,20.32,0,0,1-3.08,3l2.19-1.61a20.09,20.09,0,0,1-4.18,2.26l2.57-1a20.41,20.41,0,0,1-4.69,1l2.89-.36h-1.47c-5.93.09-10.71,4.6-10.81,10.18.24,5.29,4.8,10.47,10.81,10.18a30.78,30.78,0,0,0,19.08-7.51,26.25,26.25,0,0,0,8.68-18.44c.77-13.57-11-26.6-25.76-26.2a28.94,28.94,0,0,0-11.52,2.81,24.72,24.72,0,0,0-9,7.65,9.85,9.85,0,0,0,3.22,13.55c.21.13.43.26.65.37a11.39,11.39,0,0,0,8.33,1,12.45,12.45,0,0,0,6.47-4.66Z" transform="translate(-0.04 0)"/>
  <path class="cls-1" d="M633.52,394.07a10.44,10.44,0,0,0-2,1.56c-.41.48-.84,1-1.2,1.47l-.12.16-.22.36a11.78,11.78,0,0,0-1,2.27,19,19,0,0,0-.31,2.12,1.41,1.41,0,0,0,0,.41v.36a10.47,10.47,0,0,0,.28,2V405a2.29,2.29,0,0,0,.12.37c.25.56.51,1.17.77,1.72l.12.2a9.24,9.24,0,0,0,1.57,2l.33.27a16.35,16.35,0,0,0,1.56,1.13l.2.14a12.57,12.57,0,0,0,1.2.49c.41.18.84.34,1.27.48h.41l2,.25h.89a12,12,0,0,0,2.07-.27h.6c.65-.22,1.28-.47,1.9-.75l.36-.16h.19c.53-.36,1.08-.77,1.58-1.15l.32-.3h.12c.43-.5.86-1,1.25-1.51a3.37,3.37,0,0,0,.19-.32v-.18c.26-.59.55-1.18.79-1.77l.12-.38V405c.12-.65.22-1.33.29-2a11.24,11.24,0,0,0-.26-2.65,7.72,7.72,0,0,0-.6-1.6,11,11,0,0,0-.58-1.2v-.16a12.67,12.67,0,0,0-1.23-1.51,9.43,9.43,0,0,0-2.11-1.66,8.64,8.64,0,0,0-5.55-.7,5.93,5.93,0,0,0-2.41,1.22,5.24,5.24,0,0,0-1.87,1.9l-.71,1.66a6.55,6.55,0,0,0,0,3.62l.72,1.61a7.39,7.39,0,0,0,2.59,2.44h.15l-1.46-1.06a3.14,3.14,0,0,1,.53.5L635.27,404a3.87,3.87,0,0,1,.43.7l-.74-1.63a4,4,0,0,1,.24.84L635,402.1a6.46,6.46,0,0,1,0,.88l.24-1.81a2.07,2.07,0,0,1-.22.77l.75-1.61a3.24,3.24,0,0,1-.41.63l1.13-1.37a4.06,4.06,0,0,1-.48.45l1.44-1.07a2.41,2.41,0,0,1-.7.39l1.73-.68a2.71,2.71,0,0,1-.84.2l1.9-.22h-.94l1.93.25a5,5,0,0,1-.92-.25l1.73.7-.65-.36,1.47,1.06a4.18,4.18,0,0,1-.53-.5l1.13,1.38a3.37,3.37,0,0,1-.36-.61l.72,1.63a2.05,2.05,0,0,1-.21-.77l.24,1.81a3.62,3.62,0,0,1,0-.93l-.27,1.79a3.78,3.78,0,0,1,.24-.81l-.72,1.6a4.12,4.12,0,0,1,.39-.63l-1.13,1.38a2.73,2.73,0,0,1,.52-.5l-1.46,1.1h0a5.3,5.3,0,0,0,2-1.76,5.76,5.76,0,0,0,1.42-5,4.68,4.68,0,0,0-.85-2.53l-1.13-1.36a7.3,7.3,0,0,0-3.19-1.77l-1.9-.22a7.62,7.62,0,0,0-3.65.93Z" transform="translate(-0.04 0)"/>
  <path class="cls-1" d="M600.62,227.51a11,11,0,0,0-1.47,1.72l-.29.45a17.09,17.09,0,0,0-.79,1.81,1,1,0,0,0,0,.25,10.17,10.17,0,0,0-.31,2.26,8.67,8.67,0,0,0,.31,2.26v.23c.21.5.5,1.2.74,1.67v.14a7.23,7.23,0,0,0,1.4,1.67h0a17.93,17.93,0,0,0,1.49,1.09l.21.13a9.61,9.61,0,0,0,4.45,1.16h.22a18.72,18.72,0,0,0,2.11-.27h.16a16.18,16.18,0,0,0,1.92-.8,8,8,0,0,0,2.84-2.66,6.83,6.83,0,0,0,.91-1.93,7.67,7.67,0,0,0,0-4.3,7,7,0,0,0-.89-2,18.66,18.66,0,0,0-1.25-1.54l-.17-.14a8.14,8.14,0,0,0-3.24-1.85,8.82,8.82,0,0,0-4.21,0,5.56,5.56,0,0,0-2.4,1.2,5.3,5.3,0,0,0-1.87,1.92,4.81,4.81,0,0,0-.85,2.51,5,5,0,0,0,0,2.71l.73,1.61a7.05,7.05,0,0,0,2.59,2.44l1.73.68a7.28,7.28,0,0,0,3.82,0h0l-1.92.25h.19l-1.93-.18a.49.49,0,0,1,.24,0l-1.73-.71.2.12-1.47-1.07a1.31,1.31,0,0,1,.24.23l-1.13-1.38c.06.09.12.18.17.27l-.72-1.6a1.09,1.09,0,0,1,0,.36l-.24-1.81v.31l.24-1.78a.62.62,0,0,1,0,.27l.72-1.63a.57.57,0,0,1-.12.18l1.13-1.36a1.29,1.29,0,0,1-.17.16l1.47-1.06-.29.16,1.7-.68h-.24l1.92-.25a1.7,1.7,0,0,1-.45,0l1.92.25a1.45,1.45,0,0,1-.46-.14l1.73.7-.4-.22,1.46,1.06-.26-.25,1.13,1.36a.87.87,0,0,1-.22-.32l.72,1.63a3.74,3.74,0,0,1-.12-.45l.27,1.81a1.51,1.51,0,0,1,0-.52l-.27,1.81a2.48,2.48,0,0,1,.17-.59l-.72,1.63a5.3,5.3,0,0,1,.33-.57l-1.1,1.38a1.14,1.14,0,0,1,.31-.31,5.1,5.1,0,0,0,1.49-2.27,4.8,4.8,0,0,0,.6-2.6,4.89,4.89,0,0,0-.6-2.62,5.21,5.21,0,0,0-1.49-2.26l-1.46-1.07a7.53,7.53,0,0,0-3.66-.92l-1.9.22a7.3,7.3,0,0,0-3.19,1.77Z" transform="translate(-0.04 0)"/>
  <path class="cls-1" d="M690.45,407.69a8.77,8.77,0,0,0-2.74.43c-.6.23-1.25.45-1.82.72h-.22l-.17.12c-.54.35-1.06.73-1.56,1.13a1.72,1.72,0,0,0-.34.32,13,13,0,0,0-1.34,1.62,15.31,15.31,0,0,0-.89,1.93,2.64,2.64,0,0,0-.12.4,7.6,7.6,0,0,0-.17,2.56,11.54,11.54,0,0,0,.34,2.26,13,13,0,0,0,.86,1.95,3.72,3.72,0,0,0,.19.34,16.65,16.65,0,0,0,1.37,1.65,11.08,11.08,0,0,0,1.73,1.31l.39.23a8.45,8.45,0,0,0,5.55.68,5.45,5.45,0,0,0,2.4-1.23,5.19,5.19,0,0,0,1.88-1.9l.72-1.6a6.74,6.74,0,0,0,0-3.62l-.72-1.63a7.19,7.19,0,0,0-2.6-2.42l-.38-.23,1.46,1.07a2.16,2.16,0,0,1-.41-.39l1.13,1.36a3.41,3.41,0,0,1-.36-.57l.72,1.61a2.46,2.46,0,0,1-.16-.59l.26,1.81a4.86,4.86,0,0,1,0-.54l-.24,1.81a1.49,1.49,0,0,1,.17-.59l-.72,1.61a2.36,2.36,0,0,1,.29-.48l-1.1,1.38.45-.43-1.45,1.06a3,3,0,0,1,.55-.31l-1.71.68a2.65,2.65,0,0,1,.63-.16l-1.92.25h.19a5.87,5.87,0,0,0,2.76-.59,6.24,6.24,0,0,0,3.82-3.6,4.82,4.82,0,0,0,.63-2.6l-.27-1.81a6.53,6.53,0,0,0-1.85-3l-1.46-1.06a7.8,7.8,0,0,0-3.63-.93Z" transform="translate(-0.04 0)"/>
  <path class="cls-1" d="M552.14,618.71A8.28,8.28,0,0,0,551,623.3a10.8,10.8,0,0,0,.39,2.26,10.37,10.37,0,0,0,1,2.26,14.77,14.77,0,0,0,1.27,1.57l.24.27a9.07,9.07,0,0,0,2,1.42,9.29,9.29,0,0,0,2.4.91,20.15,20.15,0,0,0,2.19.27h.43a9.72,9.72,0,0,0,4.81-1.38,10,10,0,0,0,2-1.49,18.51,18.51,0,0,0,1.32-1.61,1.63,1.63,0,0,0,.19-.34,8.22,8.22,0,0,0,.94-6.42,8.86,8.86,0,0,0-.89-2.27,9.39,9.39,0,0,0-1.49-1.9l-.29-.29-.14-.11-1.56-1.14-.39-.22a18.06,18.06,0,0,0-2-.79l-.36-.12a21.53,21.53,0,0,0-2.4-.29h-.36a12.94,12.94,0,0,0-2.4.32,8.15,8.15,0,0,0-4.26,3.12,7,7,0,0,0-.72,5.22l.72,1.63a7,7,0,0,0,2.6,2.42l1.7.7a7.84,7.84,0,0,0,3.85,0,.81.81,0,0,1,.31,0l-1.92.23h.79l-1.9-.25a4,4,0,0,1,.68.18l-1.73-.68a3.21,3.21,0,0,1,.65.37l-1.45-1.07a2.73,2.73,0,0,1,.48.48l-1.13-1.38a2.22,2.22,0,0,1,.34.52l-.74-1.63a4.48,4.48,0,0,1,.16.52l-.26-1.81a2.71,2.71,0,0,1,0,.57l.26-1.81a3.68,3.68,0,0,1-.16.54l.72-1.63a2.88,2.88,0,0,1-.36.61l1.13-1.38a5.11,5.11,0,0,1-.48.45l1.46-1.06a3.38,3.38,0,0,1-.62.34l1.7-.68a2,2,0,0,1-.62.16l1.92-.23h-.6l1.92.25-.55-.16,1.73.7-.53-.29,1.47,1.06a2.06,2.06,0,0,1-.48-.45l1.13,1.38a3.35,3.35,0,0,1-.39-.59l.72,1.61a5.46,5.46,0,0,1-.19-.66l.26,1.79a3.11,3.11,0,0,1,0-.61l-.26,1.79a2.19,2.19,0,0,1,.17-.55l-.72,1.63h0a4.8,4.8,0,0,0,.84-2.51,5.18,5.18,0,0,0-1.3-5,5.51,5.51,0,0,0-2-1.74l-1.73-.68a7.49,7.49,0,0,0-3.82,0l-1.73.68a7,7,0,0,0-2.57,2.45Z" transform="translate(-0.04 0)"/>
  <path class="cls-1" d="M456.68,112l.77-101.8C457.4,4.58,452.59.05,446.63,0c-5.87.17-10.58,4.65-10.69,10.18L435.17,112c0,5.62,4.84,10.18,10.82,10.18s10.86-4.58,10.86-10.18Z" transform="translate(-0.04 0)"/>
  <path class="cls-1" d="M380.42,124.87,369.63,66.28c-1-5.27-8.12-8.68-13.31-7.12a10.42,10.42,0,0,0-7.55,12.53l10.79,58.7c1,5.27,8.12,8.69,13.32,7.11a10.39,10.39,0,0,0,7.54-12.5Z" transform="translate(-0.04 0)"/>
  <path class="cls-1" d="M337.4,146.3a904.12,904.12,0,0,1-74.24-109,11.28,11.28,0,0,0-14.68-3.64,10,10,0,0,0-4.09,13.54c.07.13.14.26.22.39a904.12,904.12,0,0,0,74.24,109c3.36,4.25,9.49,6.78,14.78,3.64,4.47-2.72,7.5-9.37,3.89-13.91Z" transform="translate(-0.04 0)"/>
  <path class="cls-1" d="M251.85,169.94,221.3,130.21a11.2,11.2,0,0,0-14.78-3.68c-4.54,2.74-7.42,9.3-3.89,13.91l30.52,39.73A11.23,11.23,0,0,0,248,183.83C252.47,181.11,255.35,174.55,251.85,169.94Z" transform="translate(-0.04 0)"/>
  <path class="cls-1" d="M213.66,198.91,94,113.79c-4.51-3.21-12.28-.82-14.8,3.66-3,5.36-.94,10.48,3.89,13.92l119.77,85.12c4.51,3.21,12.28.82,14.78-3.66,3-5.36,1-10.48-3.87-13.92Z" transform="translate(-0.04 0)"/>
  <path class="cls-1" d="M94.67,232,154,261.22a11.19,11.19,0,0,0,14.89-3.47,9.83,9.83,0,0,0-3-13.59,7.84,7.84,0,0,0-.69-.41l-.26-.14-59.27-29.23a11.2,11.2,0,0,0-14.8,3.67A9.86,9.86,0,0,0,94,231.63C94.23,231.76,94.45,231.88,94.67,232Z" transform="translate(-0.04 0)"/>
  <path class="cls-1" d="M7.85,301.37,135.11,345c5.76,1.47,11.71-1.7,13.32-7.11a10.38,10.38,0,0,0-7.58-12.52L13.65,281.73C7.89,280.26,2,283.43.34,288.84A10.37,10.37,0,0,0,7.85,301.37Z" transform="translate(-0.04 0)"/>
  <path class="cls-1" d="M52.37,396.56h73.54c6,0,10.81-4.56,10.81-10.18s-4.87-10.18-10.81-10.18H52.37c-6,0-10.82,4.56-10.82,10.18S46.4,396.56,52.37,396.56Z" transform="translate(-0.04 0)"/>
  <path class="cls-1" d="M23,468.82l106.42.38c6,0,10.82-4.56,10.82-10.18s-4.85-10.18-10.82-10.18L23,448.46a10.53,10.53,0,0,0-10.81,10.18C12.25,464.21,17,468.71,23,468.82Z" transform="translate(-0.04 0)"/>
  <path class="cls-1" d="M92.46,534l63.18-8c5.62-.73,9.18-7.79,7.55-12.54-2-5.81-7.21-7.87-13.29-7.1l-63.19,8c-5.62.7-9.18,7.78-7.54,12.51C81.16,532.68,86.38,534.74,92.46,534Z" transform="translate(-0.04 0)"/>
  <path class="cls-1" d="M68.73,626.74Q91.54,615.07,115.24,605c3.77-1.6,7.55-3.16,11.37-4.7l3.1-1.27c-1.52.61,1.63-.63,1.58-.61l6.28-2.42q12-4.62,24.25-8.75c5.28-1.84,9.44-7,7.54-12.54-1.68-4.91-7.62-9-13.31-7.1a740.54,740.54,0,0,0-98.2,41.6,9.85,9.85,0,0,0-4.08,13.31c.13.23.27.46.41.69a11.19,11.19,0,0,0,14.58,3.6Z" transform="translate(-0.04 0)"/>
  <path class="cls-1" d="M164,585.54c6,0,10.81-4.55,10.81-10.18S170,565.18,164,565.18s-10.82,4.56-10.82,10.18S158,585.48,164,585.54Z" transform="translate(-0.04 0)"/>
  <path class="cls-1" d="M192.24,604.8,161,621.74A9.87,9.87,0,0,0,156.74,635c.12.22.24.44.37.65a11.2,11.2,0,0,0,14.8,3.67l31.24-16.94a9.87,9.87,0,0,0,4.27-13.29c-.12-.22-.24-.44-.37-.65A11.21,11.21,0,0,0,192.24,604.8Z" transform="translate(-0.04 0)"/>
  <path class="cls-1" d="M234.06,639.29l-46.79,88c-2.41,4.75-1.52,11.31,3.89,13.94,4.81,2.42,12,1.42,14.78-3.67l46.67-88c2.41-4.78,1.52-11.31-3.89-13.94-4.81-2.44-12-1.42-14.78,3.64Z" transform="translate(-0.04 0)"/>
  <path class="cls-1" d="M284.53,677.57l-10,33.43a10.22,10.22,0,0,0,7.31,12.48l.23.06a11.16,11.16,0,0,0,13.32-7.11l10-33.48a10.22,10.22,0,0,0-7.55-12.53,11.16,11.16,0,0,0-13.31,7.1Z" transform="translate(-0.04 0)"/>
  <path class="cls-1" d="M340.46,690.87l-14.23,94.4c-.8,5.25,1.37,11.2,7.54,12.54,5.12,1.08,12.48-1.48,13.32-7.11l14.2-94.42c.8-5.25-1.34-11.2-7.54-12.53C348.65,682.66,341.3,685.22,340.46,690.87Z" transform="translate(-0.04 0)"/>
  <path class="cls-1" d="M392.34,710.51,389.94,739c0,5.62,4.85,10.17,10.81,10.18a11.37,11.37,0,0,0,7.65-3,11,11,0,0,0,3.17-7.2l2.4-28.52c0-5.62-4.84-10.17-10.81-10.18a11.33,11.33,0,0,0-7.64,3A11,11,0,0,0,392.34,710.51Z" transform="translate(-0.04 0)"/>
  <path class="cls-1" d="M436.11,163l14.68.88A8.79,8.79,0,0,0,455,163a9.37,9.37,0,0,0,5.72-5.38,7.44,7.44,0,0,0,.94-3.92,10.11,10.11,0,0,0-3.18-7.19l-2.18-1.61a11.44,11.44,0,0,0-5.46-1.38l-14.68-.88a8.89,8.89,0,0,0-4.18.88,9.46,9.46,0,0,0-5.6,5.39,7,7,0,0,0-.94,3.91,9.91,9.91,0,0,0,3.17,7.22l2.19,1.58A11.07,11.07,0,0,0,436.2,163Z" transform="translate(-0.04 0)"/>
</svg>
