<svg id="wheel-of-the-year" xmlns="http://www.w3.org/2000/svg" viewBox="0 0 315.21 352.78">
  <defs>
    <style>
      .cls-1 {
        fill: #662d91;
      }
    </style>
  </defs>
  <path class="cls-1" d="M182.21,57.17c-15.31.9-30.75,1.91-45.75,5.29-14.12,3.18-27.82,8.82-39.35,17.68a106.66,106.66,0,0,0-27.29,31.12,121,121,0,0,0-14.44,40.12,160.72,160.72,0,0,0-.85,47.87C56.47,214.17,59.65,229,65.15,243c5.38,13.75,12.58,26.67,22.72,37.51S110.5,298.92,124,304.47c12.48,5.13,25.74,8,39.07,9.87A262.37,262.37,0,0,0,205,317c13.93-.34,28.15-2.07,41.39-6.58,13.68-4.66,26.28-12.1,36.3-22.6,10.4-10.9,17.73-24,23.32-37.93a154.5,154.5,0,0,0,9.82-40,152.69,152.69,0,0,0-12.68-80.52,132.39,132.39,0,0,0-52.43-58.3c-22.06-13.24-48.36-20.45-74.14-18.86A121.87,121.87,0,0,0,157,55.08a9.07,9.07,0,0,0-6.29,11.07,9.21,9.21,0,0,0,11.07,6.29q4.69-1.08,9.47-1.72l-2.39.32a113.25,113.25,0,0,1,29.77.07l-2.4-.32a124.27,124.27,0,0,1,31.32,8.58l-2.15-.91a129.83,129.83,0,0,1,28.51,16.6l-1.82-1.4a123.22,123.22,0,0,1,22.06,22l-1.41-1.82a127.88,127.88,0,0,1,16.28,28l-.91-2.15a141.09,141.09,0,0,1,9.74,36l-.32-2.39a150.3,150.3,0,0,1-.06,39.47l.32-2.39a146.37,146.37,0,0,1-10.09,37.09l.91-2.15a113,113,0,0,1-14.23,24.87l1.41-1.82a81.5,81.5,0,0,1-14.29,14.46l1.82-1.41a80.61,80.61,0,0,1-17.64,10.26l2.15-.91a109.08,109.08,0,0,1-27.9,7.33l2.39-.32c-14.57,1.92-29.35,1.62-44,.35q-6.26-.54-12.48-1.36l2.4.32c-13.87-1.87-27.65-4.94-40.57-10.38l2.15.9a97.18,97.18,0,0,1-21.25-12.23l1.82,1.41a84.91,84.91,0,0,1-15.08-15.11l1.41,1.82A108.65,108.65,0,0,1,83,239.52l.91,2.15a173,173,0,0,1-11.56-43.89l.32,2.4a157.35,157.35,0,0,1-.3-41.81L72,160.76a120.35,120.35,0,0,1,8.07-30.18l-.91,2.15A107,107,0,0,1,92.83,109.2L91.42,111A94.62,94.62,0,0,1,108,94.27l-1.82,1.41a85.23,85.23,0,0,1,18.94-11l-2.15.9c10.25-4.28,21.13-6.69,32.11-8.19l-2.39.33c9.79-1.32,19.65-1.94,29.51-2.52a9.5,9.5,0,0,0,6.36-2.64,9.15,9.15,0,0,0,2.64-6.36c-.21-4.64-4-9.3-9-9Z" transform="translate(-1.62 -2.7)"/>
  <path class="cls-1" d="M163.84,56.27l-32.43,4.78c-2.08.31-4.38,2.42-5.38,4.14a9.19,9.19,0,0,0-.91,6.94,9.07,9.07,0,0,0,4.14,5.37l2.15.91a9,9,0,0,0,4.78,0l32.44-4.78c2.07-.31,4.37-2.42,5.38-4.14a9.17,9.17,0,0,0,.9-6.93,9.08,9.08,0,0,0-4.13-5.38l-2.15-.91a9.05,9.05,0,0,0-4.79,0Z" transform="translate(-1.62 -2.7)"/>
  <path class="cls-1" d="M113.12,91.09A110.6,110.6,0,0,1,132.25,80.7l-2.15.91a114.36,114.36,0,0,1,28.65-7.81l-2.4.32a111.72,111.72,0,0,1,29.68,0l-2.39-.33c1.11.16,2.21.32,3.32.51a9.81,9.81,0,0,0,6.93-.91A9,9,0,0,0,197.12,61c-1.19-1.86-3.11-3.77-5.38-4.14a119.3,119.3,0,0,0-35.39-.78,117.25,117.25,0,0,0-35.87,10.21A109.4,109.4,0,0,0,104,75.54a9.63,9.63,0,0,0-4.14,5.38,9.23,9.23,0,0,0,.91,6.94c2.5,3.87,8.15,6.06,12.31,3.23Z" transform="translate(-1.62 -2.7)"/>
  <path class="cls-1" d="M105.45,97.68q2.82-2.49,5.78-4.79l-1.82,1.4A120.37,120.37,0,0,1,136,78.85l-2.15.91a124.61,124.61,0,0,1,31.2-8.5l-2.39.32a120.47,120.47,0,0,1,31.91,0l-2.4-.32q4.9.68,9.73,1.75a9.46,9.46,0,0,0,6.93-.91A9.15,9.15,0,0,0,213,66.68c1-4.56-1.37-10-6.29-11.07a131.1,131.1,0,0,0-92,13.67A127.76,127.76,0,0,0,92.72,85c-3.54,3.13-3.43,9.58,0,12.73a9.22,9.22,0,0,0,12.73,0Z" transform="translate(-1.62 -2.7)"/>
  <path class="cls-1" d="M188.7,76.71q2.43.8,4.79,1.79l-1.79-.76a65.67,65.67,0,0,1,10,5.34c.77.5,1.53,1,2.28,1.55l.95.69.63.47c.82.59-.41-.37-.57-.46a14.8,14.8,0,0,1,2.14,1.74c.76.63,1.5,1.28,2.23,2a77.46,77.46,0,0,1,7.88,8.32c.3.35.58.72.87,1.07.79,1-1.13-1.49-.08-.11.6.79,1.18,1.59,1.75,2.4,1.12,1.59,2.18,3.23,3.19,4.89a101.28,101.28,0,0,1,6.57,12.93l-.75-1.79a140.91,140.91,0,0,1,9.33,35.72l-.27-2a174.18,174.18,0,0,1-.1,45.79l.27-2a184.48,184.48,0,0,1-12.8,46.8l.75-1.8a181.49,181.49,0,0,1-14.44,27.42q-2.12,3.3-4.38,6.51c-.7,1-1.41,2-2.13,2.95l-1.14,1.53-.58.76c-1.05,1.37,1-1.25.12-.15-3.15,4-6.44,7.9-9.93,11.64a168,168,0,0,1-12.67,12.22c-3,2.58-2.84,8,0,10.6a7.67,7.67,0,0,0,10.6,0A178.75,178.75,0,0,0,226.56,271a190.3,190.3,0,0,0,21.52-50.42,185.24,185.24,0,0,0,6.16-54.3c-.77-20.34-4.78-40.87-13.5-59.35-8.32-17.63-22.33-33.65-40.39-41.67a78.49,78.49,0,0,0-7.66-3,7.57,7.57,0,0,0-9.23,5.24,7.67,7.67,0,0,0,5.24,9.22Z" transform="translate(-1.62 -2.7)"/>
  <path class="cls-1" d="M268.05,136.15a2.35,2.35,0,0,1-.7,1.17c.32-.33.19-.25-.39.23a3.38,3.38,0,0,1,.41-.24c-.7.27-.83.33-.38.17a3.92,3.92,0,0,1,.49-.13c.48-.09.33-.08-.45,0,.34,0,.74,0,1.08,0s.57,0,.86,0c.5.05.38,0-.34-.06l.57.1a20,20,0,0,0,2.21.66c-.63-.27-.73-.31-.29-.11l.39.2c.29.16.58.33.86.51l.48.32c-.53-.42-.61-.48-.24-.17s.57.5.83.78l.39.43c.3.37.24.29-.18-.23a5.56,5.56,0,0,0,.47.72c.1.17.19.34.28.51.2.44.17.34-.1-.29a9.38,9.38,0,0,0,.37,1.09,4.8,4.8,0,0,0,.25,1.13c-.09-.73-.11-.84-.06-.34a5.44,5.44,0,0,1,0,.57c0,.29,0,.57,0,.86-.05.49,0,.38.06-.35,0,.19-.06.38-.1.56-.09.38-.21.73-.32,1.1s-.14.36.12-.29c-.09.18-.17.35-.27.51s-.4.47-.42.66c.45-.56.52-.66.22-.3l-.36.38a4.27,4.27,0,0,1-.38.36c-.36.31-.25.24.31-.21a8.25,8.25,0,0,0-.88.57c-.38.22-1.33.44-.1.11-.24.07-.49.18-.74.25s-.71.11-1,.23c.77-.09.92-.12.43-.07h-.51l-.52,0c-.48,0-.34,0,.43.07a5.23,5.23,0,0,0-1-.26,4.53,4.53,0,0,0-5.54,3.14,4.59,4.59,0,0,0,3.14,5.53,12.58,12.58,0,0,0,10.41-1.49,13,13,0,0,0,5.89-9.32c1-7.77-4.54-15-12.13-16.49-4.82-1-10.34-.19-12.23,5a4.53,4.53,0,0,0,3.14,5.53,4.62,4.62,0,0,0,5.54-3.14Z" transform="translate(-1.62 -2.7)"/>
  <path class="cls-1" d="M285.23,201.4a12.22,12.22,0,0,0-12.84.24,15.25,15.25,0,0,0-6.56,11.54c-.82,8.24,4.86,15.91,12.42,18.63a4.52,4.52,0,0,0,5.53-3.14,4.62,4.62,0,0,0-3.14-5.54l-.6-.22.49.2c-.2,0-.65-.33-.85-.44s-.55-.32-.81-.49l-.53-.36c.45.35.54.42.28.21-.47-.43-.95-.84-1.39-1.31-.21-.23-.42-.48-.63-.72l.22.28-.27-.4c-.39-.58-.7-1.18-1-1.79-.43-.8.26.83-.05-.1-.1-.3-.21-.6-.3-.91a4.89,4.89,0,0,1-.42-1.86l.08.57c0-.21,0-.43-.05-.64s0-.64,0-1a7.39,7.39,0,0,0,.07-1q-.12.87,0,.36c0-.17.06-.33.1-.5.07-.33.16-.66.26-1,0-.16.1-.32.16-.48.12-.32.07-.22-.13.29a6.51,6.51,0,0,1,1-1.75c-.37.46-.4.5-.08.12l.22-.25c.16-.16.49-.63.73-.69-.48.35-.52.39-.12.11l.28-.17c.19-.11.38-.22.57-.31l-.47.18a3.63,3.63,0,0,1,.93-.31l.64-.14-.55.07c.21-.15.88,0,1.13,0l.49,0c-.61-.09-.75-.1-.41,0,.14,0,1.21.26.54.1-.34-.15-.32-.14.05,0a6.16,6.16,0,0,1,.55.33,4.55,4.55,0,0,0,6.16-1.61,4.6,4.6,0,0,0-1.61-6.16Z" transform="translate(-1.62 -2.7)"/>
  <path class="cls-1" d="M255.15,254.58l.11-.15-.7.91a5.85,5.85,0,0,1,1.06-1.05l-.91.71a6.34,6.34,0,0,1,1.29-.74l-1.07.46a6.92,6.92,0,0,1,1.62-.43l-1.2.16a7.42,7.42,0,0,1,1.49,0l-1.19-.16a6.6,6.6,0,0,1,1.43.39l-1.08-.45a6.05,6.05,0,0,1,1.21.7l-.91-.7a7.23,7.23,0,0,1,1.15,1.13l-.7-.91a7.55,7.55,0,0,1,.93,1.57l-.45-1.07a7.73,7.73,0,0,1,.51,1.84l-.16-1.2a8.39,8.39,0,0,1,0,1.94l.16-1.2a8.13,8.13,0,0,1-.56,2.07l.45-1.07a7.67,7.67,0,0,1-.86,1.46l.71-.91a8.74,8.74,0,0,1-1.28,1.3l.91-.71a8.06,8.06,0,0,1-1.74,1l1.07-.45a8.14,8.14,0,0,1-1.95.52l1.2-.16c-.21,0-.41,0-.61,0a4.58,4.58,0,0,0-4.5,4.5c.1,2.34,2,4.63,4.5,4.5a12.38,12.38,0,0,0,7.94-3.32,11.9,11.9,0,0,0,3.61-8.15c.32-6-4.57-11.76-10.72-11.58a11.43,11.43,0,0,0-4.79,1.24,10.47,10.47,0,0,0-3.74,3.38,4.5,4.5,0,0,0,5.08,6.61,5.19,5.19,0,0,0,2.69-2.06Z" transform="translate(-1.62 -2.7)"/>
  <path class="cls-1" d="M265.21,176.9a4.53,4.53,0,0,0-.84.69c-.17.21-.35.44-.5.65l-.05.07-.09.16a5.25,5.25,0,0,0-.4,1c-.06.31-.1.63-.13.94a1.09,1.09,0,0,0,0,.18s0,.11,0,.16c0,.29.07.58.12.86,0,0,0,.07,0,.1a.75.75,0,0,0,.05.16c.1.25.21.52.32.76l.05.09a4,4,0,0,0,.65.87l.14.12a8,8,0,0,0,.65.5l.08.06a5.44,5.44,0,0,0,.5.22,4.87,4.87,0,0,0,.53.21l.17,0,.84.11h.37c.29,0,.58-.07.86-.12l.18,0,.07,0a6.91,6.91,0,0,0,.79-.33l.15-.07.08,0c.22-.16.45-.34.66-.51l.13-.13.05,0c.18-.22.36-.45.52-.67a1,1,0,0,0,.08-.14l0-.08c.11-.26.23-.52.33-.78l.05-.17s0-.05,0-.07c.05-.29.09-.59.12-.88a5,5,0,0,0-.11-1.17,3.16,3.16,0,0,0-.25-.71,4.13,4.13,0,0,0-.24-.53l0-.07a5.63,5.63,0,0,0-.51-.67,4.07,4.07,0,0,0-.88-.73,3.37,3.37,0,0,0-2.31-.31,2.39,2.39,0,0,0-1,.54,2.25,2.25,0,0,0-.78.84l-.3.72a3.1,3.1,0,0,0,0,1.6l.3.71a3.1,3.1,0,0,0,1.08,1.08l.06,0-.61-.47a1.52,1.52,0,0,1,.22.22l-.47-.61a1.92,1.92,0,0,1,.18.31l-.31-.72a1.7,1.7,0,0,1,.1.37l-.1-.8a2.54,2.54,0,0,1,0,.39l.1-.8a1,1,0,0,1-.09.34l.31-.71a1.61,1.61,0,0,1-.17.28l.47-.61a1.26,1.26,0,0,1-.2.2l.6-.47a1.05,1.05,0,0,1-.29.17l.72-.3a1.13,1.13,0,0,1-.35.09l.79-.1h-.39l.8.11a1.66,1.66,0,0,1-.38-.11l.72.31-.27-.16.61.47a1.52,1.52,0,0,1-.22-.22l.47.61a1.43,1.43,0,0,1-.15-.27l.3.72a1,1,0,0,1-.09-.34l.1.8a1.86,1.86,0,0,1,0-.41l-.11.79a1.61,1.61,0,0,1,.1-.36l-.3.71a1.56,1.56,0,0,1,.16-.28l-.47.61a1.14,1.14,0,0,1,.22-.22l-.61.47,0,0a2.25,2.25,0,0,0,.84-.78,2.66,2.66,0,0,0,.59-2.21,2.17,2.17,0,0,0-.35-1.12l-.47-.6a3,3,0,0,0-1.33-.78l-.79-.1a3,3,0,0,0-1.52.41Z" transform="translate(-1.62 -2.7)"/>
  <path class="cls-1" d="M251.52,103.27a5.35,5.35,0,0,0-.61.76l-.12.2a7.92,7.92,0,0,0-.33.8.76.76,0,0,0,0,.11,4.9,4.9,0,0,0-.13,1,4.29,4.29,0,0,0,.13,1l0,.1c.09.22.21.53.31.74l0,.06a3.22,3.22,0,0,0,.58.74l0,0c.17.15.43.34.62.48l.09.06a3.76,3.76,0,0,0,1.85.51h.09a6.64,6.64,0,0,0,.88-.12l.07,0a7.16,7.16,0,0,0,.8-.35,3.42,3.42,0,0,0,1.18-1.18,3,3,0,0,0,.38-.85,3.6,3.6,0,0,0,0-1.9,3.35,3.35,0,0,0-.37-.87c-.16-.24-.34-.46-.52-.68l-.07-.06A3.4,3.4,0,0,0,255,103a3.46,3.46,0,0,0-1.75,0,2.27,2.27,0,0,0-1,.53,2.36,2.36,0,0,0-.78.85,2.2,2.2,0,0,0-.35,1.11,2.33,2.33,0,0,0,0,1.2l.3.71a3.1,3.1,0,0,0,1.08,1.08l.72.3a2.87,2.87,0,0,0,1.59,0h0l-.8.11h.08l-.79-.1a.19.19,0,0,1,.1,0l-.72-.31.08.05-.61-.47a.47.47,0,0,1,.1.1l-.47-.61a.75.75,0,0,1,.07.12l-.3-.71a.42.42,0,0,1,0,.16l-.1-.8v.14l.1-.79a.27.27,0,0,1,0,.12l.3-.72a.22.22,0,0,1-.05.08l.47-.6a.46.46,0,0,1-.07.07l.61-.47-.12.07.71-.3-.13,0,.8-.11a.6.6,0,0,1-.19,0l.8.11a.6.6,0,0,1-.19-.06l.72.31-.17-.1.61.47-.11-.11.47.6a.42.42,0,0,1-.09-.14l.3.72a1.46,1.46,0,0,1-.05-.2l.11.8a.89.89,0,0,1,0-.23l-.11.8a1.25,1.25,0,0,1,.07-.26l-.3.72a2,2,0,0,1,.14-.25l-.46.61a.57.57,0,0,1,.13-.14,2.31,2.31,0,0,0,.62-1,2.26,2.26,0,0,0,.25-1.15,2.29,2.29,0,0,0-.25-1.16,2.34,2.34,0,0,0-.62-1l-.61-.47a3,3,0,0,0-1.52-.41l-.79.1a3,3,0,0,0-1.33.78Z" transform="translate(-1.62 -2.7)"/>
  <path class="cls-1" d="M288.9,182.92a3.45,3.45,0,0,0-1.14.19c-.25.1-.52.2-.76.32l-.09,0-.07.05a8,8,0,0,0-.65.5.93.93,0,0,0-.14.14,6.6,6.6,0,0,0-.56.72,7.59,7.59,0,0,0-.37.85,1.21,1.21,0,0,0-.05.18A3.54,3.54,0,0,0,285,187a5.55,5.55,0,0,0,.14,1,6.5,6.5,0,0,0,.36.86,1.09,1.09,0,0,0,.08.15,6.53,6.53,0,0,0,.57.73,4.81,4.81,0,0,0,.72.58l.16.1a3.29,3.29,0,0,0,2.31.3,2.2,2.2,0,0,0,1-.54,2.25,2.25,0,0,0,.78-.84l.3-.71a3.1,3.1,0,0,0,0-1.6l-.3-.72a3.07,3.07,0,0,0-1.08-1.07l-.16-.1.61.47a.91.91,0,0,1-.17-.17l.47.6a1.28,1.28,0,0,1-.15-.25l.3.71a1.11,1.11,0,0,1-.07-.26l.11.8a1.93,1.93,0,0,1,0-.24l-.1.8a.71.71,0,0,1,.07-.26l-.3.71a1.13,1.13,0,0,1,.12-.21l-.47.61.19-.19-.61.47a1.09,1.09,0,0,1,.23-.14l-.71.3a1.11,1.11,0,0,1,.26-.07l-.8.11h.08a2.26,2.26,0,0,0,1.15-.26,2.68,2.68,0,0,0,1.59-1.59,2.26,2.26,0,0,0,.26-1.15l-.11-.8a2.94,2.94,0,0,0-.77-1.32l-.61-.47a3,3,0,0,0-1.51-.41Z" transform="translate(-1.62 -2.7)"/>
  <path class="cls-1" d="M231.35,276.2a4,4,0,0,0-.38.95,3.81,3.81,0,0,0-.11,1.08,5.05,5.05,0,0,0,.16,1,4.86,4.86,0,0,0,.43,1,6,6,0,0,0,.53.69l.1.12a3.64,3.64,0,0,0,.83.63,3.76,3.76,0,0,0,1,.4,6.86,6.86,0,0,0,.91.12H235a3.85,3.85,0,0,0,2-.61,4.24,4.24,0,0,0,.82-.66,7.87,7.87,0,0,0,.55-.71,1.09,1.09,0,0,0,.08-.15,3.84,3.84,0,0,0,.39-2.84,4.15,4.15,0,0,0-.37-1,4.06,4.06,0,0,0-.62-.84l-.12-.13-.06-.05-.65-.5-.16-.1a7.81,7.81,0,0,0-.84-.35l-.15-.05a7.9,7.9,0,0,0-1-.13h-.15a5.17,5.17,0,0,0-1,.14,2.2,2.2,0,0,0-1,.54,2.31,2.31,0,0,0-.77.84,3.28,3.28,0,0,0-.3,2.31l.3.72a3,3,0,0,0,1.08,1.07l.71.31a3.1,3.1,0,0,0,1.6,0,.28.28,0,0,1,.13,0l-.8.1H235l-.79-.11a1.72,1.72,0,0,1,.28.08l-.72-.3a1.2,1.2,0,0,1,.27.16l-.6-.47a1.34,1.34,0,0,1,.2.21l-.47-.61a1.09,1.09,0,0,1,.14.23l-.31-.72a2,2,0,0,1,.07.23l-.11-.8a1,1,0,0,1,0,.25l.11-.8a1.68,1.68,0,0,1-.07.24l.3-.72a1.17,1.17,0,0,1-.15.27l.47-.61a1.89,1.89,0,0,1-.2.2l.61-.47a1.35,1.35,0,0,1-.26.15l.71-.3a.77.77,0,0,1-.26.07l.8-.1h-.25l.8.11-.23-.07.72.31-.22-.13.61.47a1,1,0,0,1-.2-.2l.47.61a1.4,1.4,0,0,1-.16-.26l.3.71a2.45,2.45,0,0,1-.08-.29l.11.79a1.22,1.22,0,0,1,0-.27l-.11.79a1.09,1.09,0,0,1,.07-.24l-.3.72v0a2.2,2.2,0,0,0,.35-1.11,2.33,2.33,0,0,0,0-1.2,2.2,2.2,0,0,0-.54-1,2.31,2.31,0,0,0-.84-.77l-.72-.3a2.87,2.87,0,0,0-1.59,0l-.72.3a3,3,0,0,0-1.07,1.08Z" transform="translate(-1.62 -2.7)"/>
  <path class="cls-1" d="M191.63,52.2l.32-45a4.54,4.54,0,0,0-4.5-4.5A4.59,4.59,0,0,0,183,7.2l-.32,45a4.5,4.5,0,0,0,9,0Z" transform="translate(-1.62 -2.7)"/>
  <path class="cls-1" d="M159.9,57.9,155.41,32c-.41-2.33-3.38-3.84-5.54-3.15a4.64,4.64,0,0,0-3.14,5.54l4.49,25.95c.4,2.33,3.38,3.84,5.54,3.14a4.62,4.62,0,0,0,3.14-5.53Z" transform="translate(-1.62 -2.7)"/>
  <path class="cls-1" d="M142,67.37a400.74,400.74,0,0,1-30.89-48.2A4.54,4.54,0,0,0,105,17.56a4.59,4.59,0,0,0-1.61,6.16,401.41,401.41,0,0,0,30.89,48.19c1.4,1.88,3.95,3,6.15,1.61,1.86-1.2,3.12-4.14,1.62-6.15Z" transform="translate(-1.62 -2.7)"/>
  <path class="cls-1" d="M106.39,77.82,93.68,60.26A4.87,4.87,0,0,0,91,58.19a4.62,4.62,0,0,0-3.47.46c-1.89,1.21-3.09,4.11-1.62,6.15L98.61,82.36a4.87,4.87,0,0,0,2.69,2.07,4.62,4.62,0,0,0,3.47-.45c1.89-1.22,3.09-4.12,1.62-6.16Z" transform="translate(-1.62 -2.7)"/>
  <path class="cls-1" d="M90.51,90.63,40.72,53c-1.88-1.42-5.11-.36-6.16,1.62-1.25,2.37-.39,4.63,1.62,6.15L86,98.4c1.88,1.42,5.11.36,6.15-1.62,1.26-2.37.4-4.63-1.61-6.15Z" transform="translate(-1.62 -2.7)"/>
  <path class="cls-1" d="M41,105.25l24.67,12.92a4.5,4.5,0,1,0,4.54-7.77L45.55,97.48A4.5,4.5,0,1,0,41,105.25Z" transform="translate(-1.62 -2.7)"/>
  <path class="cls-1" d="M4.89,135.92l52.94,19.29a4.52,4.52,0,0,0,5.54-3.14,4.62,4.62,0,0,0-3.15-5.54L7.29,127.24a4.52,4.52,0,0,0-5.54,3.14,4.62,4.62,0,0,0,3.14,5.54Z" transform="translate(-1.62 -2.7)"/>
  <path class="cls-1" d="M23.4,178H54a4.5,4.5,0,0,0,0-9H23.4a4.5,4.5,0,0,0,0,9Z" transform="translate(-1.62 -2.7)"/>
  <path class="cls-1" d="M11.16,209.94l44.28.17a4.5,4.5,0,0,0,0-9l-44.28-.17a4.54,4.54,0,0,0-4.5,4.5,4.59,4.59,0,0,0,4.5,4.5Z" transform="translate(-1.62 -2.7)"/>
  <path class="cls-1" d="M40.08,238.74l26.29-3.55c2.34-.32,3.82-3.44,3.14-5.54-.83-2.57-3-3.48-5.53-3.14l-26.29,3.55c-2.34.31-3.82,3.44-3.14,5.53.83,2.58,3,3.49,5.53,3.15Z" transform="translate(-1.62 -2.7)"/>
  <path class="cls-1" d="M30.21,279.75q9.49-5.16,19.35-9.63c1.57-.71,3.14-1.4,4.73-2.08l1.29-.56c-.63.27.68-.28.66-.27l2.61-1.07c3.34-1.36,6.7-2.64,10.09-3.87,2.2-.81,3.93-3.1,3.14-5.54-.7-2.17-3.17-4-5.54-3.14A298.93,298.93,0,0,0,25.67,272a4.5,4.5,0,0,0,4.54,7.77Z" transform="translate(-1.62 -2.7)"/>
  <path class="cls-1" d="M69.84,261.54a4.5,4.5,0,1,0-4.5-4.5,4.55,4.55,0,0,0,4.5,4.5Z" transform="translate(-1.62 -2.7)"/>
  <path class="cls-1" d="M81.6,270.05l-13,7.49a4.5,4.5,0,1,0,4.54,7.78l13-7.49a4.5,4.5,0,0,0-4.54-7.78Z" transform="translate(-1.62 -2.7)"/>
  <path class="cls-1" d="M99,285.3,79.53,324.2c-1,2.1-.63,5,1.62,6.16,2,1.07,5,.63,6.15-1.62l19.42-38.89c1-2.11.63-5-1.62-6.16-2-1.08-5-.63-6.15,1.61Z" transform="translate(-1.62 -2.7)"/>
  <path class="cls-1" d="M120,302.22,115.83,317a4.55,4.55,0,0,0,3.14,5.54,4.6,4.6,0,0,0,5.54-3.14l4.17-14.8a4.55,4.55,0,0,0-3.14-5.54,4.6,4.6,0,0,0-5.54,3.14Z" transform="translate(-1.62 -2.7)"/>
  <path class="cls-1" d="M143.27,308.1l-5.92,41.73c-.33,2.32.57,4.95,3.14,5.54,2.13.48,5.19-.65,5.54-3.14l5.91-41.74c.33-2.32-.56-4.95-3.14-5.54-2.12-.48-5.18.65-5.53,3.15Z" transform="translate(-1.62 -2.7)"/>
  <path class="cls-1" d="M164.86,316.78l-1,12.61a4.51,4.51,0,0,0,4.5,4.5,4.58,4.58,0,0,0,3.18-1.32,5,5,0,0,0,1.32-3.18l1-12.61a4.51,4.51,0,0,0-4.5-4.5,4.58,4.58,0,0,0-3.18,1.32,5,5,0,0,0-1.32,3.18Z" transform="translate(-1.62 -2.7)"/>
  <path class="cls-1" d="M183.07,74.75l6.11.39a3.46,3.46,0,0,0,1.73-.39,4,4,0,0,0,2.38-2.38,3.41,3.41,0,0,0,.39-1.73,4.6,4.6,0,0,0-1.32-3.18l-.91-.71a4.54,4.54,0,0,0-2.27-.61l-6.11-.39a3.47,3.47,0,0,0-1.74.39A4.05,4.05,0,0,0,179,68.52a3.24,3.24,0,0,0-.39,1.73,4.52,4.52,0,0,0,1.32,3.19l.91.7a4.42,4.42,0,0,0,2.27.61Z" transform="translate(-1.62 -2.7)"/>
</svg>
