<svg id="witchcraft" xmlns="http://www.w3.org/2000/svg" xmlns:xlink="http://www.w3.org/1999/xlink" viewBox="0 0 788.77 626.69">
  <defs>
    <linearGradient id="Gradiente_sem_nome" data-name="Gradiente sem nome" x1="404.64" y1="324" x2="404.64" y2="331.92" gradientUnits="userSpaceOnUse">
      <stop offset="0" stop-color="#fff"/>
      <stop offset="1"/>
    </linearGradient>
  </defs>
  <g>
    <path d="M406,343.18,386.45,329c-4.2-3.06-8.5-6.16-13.44-7.75s-10.75-1.43-14.9,1.69c-4.62,3.47-6.2,9.71-6.35,15.49-.34,13.63,5.68,26.92,14.7,37.15s20.82,17.65,33.18,23.41c3.68,1.71,7.58,3.32,11.63,3.11,5.26-.27,9.86-3.56,13.84-7a100.51,100.51,0,0,0,28.45-41.84c1.94-5.47,3.41-11.45,1.86-17.05-1.94-7-8.63-12.19-15.84-13.32s-14.67,1.37-20.49,5.77-10.1,10.56-13.33,17.1a46.72,46.72,0,0,1,30.72-25.11c3.68-.89,8-1.19,10.85,1.29,2.2,1.9,3,5,3.41,7.84a67,67,0,0,1-.05,20.92,13.67,13.67,0,0,0-7.24-24.53c2.32-.66,4.76-1.32,7.11-.77,3.13.74,5.45,3.56,6.37,6.64a21.23,21.23,0,0,1,.13,9.55,62,62,0,0,1-37.4,46.5c-4.15,1.66-8.66,2.87-13.06,2.13-5.91-1-10.64-5.29-15-9.39-9.54-9-19.16-18-26.52-28.8-2.18-3.21-4.22-6.76-4.33-10.65s2.36-8.09,6.2-8.67c2.4-.35,4.77.71,6.84,1.95,5.28,3.16,9.68,7.6,14.77,11.05s11.38,5.95,17.34,4.45c5.49-1.38,9.58-5.79,13.9-9.43s10.06-6.79,15.43-5c5.84,1.94,8.48,9.29,7,15.27s-6,10.68-10.88,14.51c-6.84,5.42-14.78,9.75-23.41,11s-18-.83-24.36-6.82-8.92-16.12-5-23.91l13,14.4c3.43,3.79,7.45,7.87,12.56,8,4.61.14,8.69-3.06,11.52-6.7s4.85-7.89,8-11.3,7.81-5.95,12.25-4.73a34.57,34.57,0,0,1-31.23,21.11" transform="translate(-4.21 -6.03)" style="fill: url(#Gradiente_sem_nome)"/>
    <path d="M410.5,335.41,395,324.11c-4.62-3.36-9.18-7.07-14.41-9.46-6.48-3-13.7-4.51-20.73-2.44a22.1,22.1,0,0,0-9.58,5.68,26.37,26.37,0,0,0-5.61,9.35c-1.95,5.2-2.21,11.24-1.67,16.73a59.57,59.57,0,0,0,4.19,17.26,69.44,69.44,0,0,0,8.89,15.69,81.43,81.43,0,0,0,12.17,12.93,119.06,119.06,0,0,0,31.51,18.91,29.79,29.79,0,0,0,10.19,2.33,25.09,25.09,0,0,0,11.44-2.62,39.11,39.11,0,0,0,8.34-5.56c2.1-1.69,4.09-3.52,6-5.41a109.42,109.42,0,0,0,27.12-43.63c2.15-6.6,3.28-14.21,1-20.94-4.18-12.35-17-20.45-30-19.25a38,38,0,0,0-18.3,6.44,52.28,52.28,0,0,0-13.65,14.24,61.35,61.35,0,0,0-3.91,6.82l15.55,9.08a46.5,46.5,0,0,1,5.09-8.31l-1.41,1.82a48.38,48.38,0,0,1,8.5-8.48l-1.82,1.4a48.14,48.14,0,0,1,10.35-6.06l-2.15.91a38.36,38.36,0,0,1,9.43-2.75l-2.4.32a16.92,16.92,0,0,1,3.83-.05l-2.39-.32a10.64,10.64,0,0,1,2.49.66l-2.15-.9a8.62,8.62,0,0,1,1.58.93L440.67,328a9.22,9.22,0,0,1,1.32,1.33l-1.41-1.82a10.4,10.4,0,0,1,1.12,1.94l-.9-2.15a24.68,24.68,0,0,1,1.46,6.23l-.32-2.39a68.29,68.29,0,0,1,0,17.61l.33-2.39c-.09.63-.18,1.26-.28,1.89a10,10,0,0,0,.45,5.86,8.57,8.57,0,0,0,3.69,4.3,10.58,10.58,0,0,0,4.54,1.23c2.53.11,4.49-1.17,6.36-2.64a22.38,22.38,0,0,0,.14-34.31,26.26,26.26,0,0,0-7.2-4.24,22.66,22.66,0,0,0-6.54-1.34l2.39,17.68a33.1,33.1,0,0,1,3.54-.84l-2.39.32a13.35,13.35,0,0,1,2.68-.08l-2.39-.32a9,9,0,0,1,1.9.47l-2.15-.91a9.67,9.67,0,0,1,1.82,1.05L447,333.09a10.41,10.41,0,0,1,1.75,1.76l-1.4-1.82a12.32,12.32,0,0,1,1.42,2.5l-.91-2.15a14,14,0,0,1,.83,3.24l-.32-2.39a24.76,24.76,0,0,1-.13,6l.32-2.4a58.69,58.69,0,0,1-4,14.43l.91-2.15a64,64,0,0,1-8.15,14l1.41-1.82a64.85,64.85,0,0,1-11.44,11.44l1.82-1.41a60.73,60.73,0,0,1-13,7.61l2.15-.91a36.27,36.27,0,0,1-8.6,2.57l2.4-.32a20.17,20.17,0,0,1-5,.05l2.39.32a18.31,18.31,0,0,1-4.31-1.22l2.15.91a28.87,28.87,0,0,1-5.89-3.6l1.83,1.4a180.89,180.89,0,0,1-14.59-13.51,154.59,154.59,0,0,1-13.76-15.19l1.41,1.82a48.75,48.75,0,0,1-6.65-10.4l.91,2.15a16.94,16.94,0,0,1-1-3.7l.32,2.4a12.09,12.09,0,0,1,0-2.62l-.32,2.39a10.58,10.58,0,0,1,.69-2.61l-.91,2.15a10.45,10.45,0,0,1,1.16-2L369,341.73a9.07,9.07,0,0,1,1.37-1.4l-1.82,1.41a8,8,0,0,1,1.37-.84l-2.15.91a7.57,7.57,0,0,1,1.56-.46l-2.4.32a8.68,8.68,0,0,1,2.1,0l-2.39-.32a12.93,12.93,0,0,1,2.44.73l-2.15-.9a36.89,36.89,0,0,1,7.34,4.69l-1.82-1.41c4.06,3.16,7.92,6.63,12.25,9.43a35,35,0,0,0,16.06,5.59,24.57,24.57,0,0,0,15.46-4.32c4-2.73,7.4-6.21,11.23-9.17l-1.82,1.4a27,27,0,0,1,5.44-3.25l-2.15.91a16.73,16.73,0,0,1,3.92-1.12l-2.39.32a13.6,13.6,0,0,1,2.78,0l-2.39-.32a11.53,11.53,0,0,1,2.58.67l-2.15-.91a10.72,10.72,0,0,1,2.17,1.27l-1.82-1.41a11.65,11.65,0,0,1,2,2l-1.4-1.82a14,14,0,0,1,1.56,2.77l-.9-2.15a16.64,16.64,0,0,1,.94,3.47l-.32-2.39a16.15,16.15,0,0,1,0,3.93l.32-2.4a17.38,17.38,0,0,1-1.16,4.19l.9-2.15a23.85,23.85,0,0,1-3,5l1.41-1.82a43.8,43.8,0,0,1-7.72,7.43l1.82-1.4a60.25,60.25,0,0,1-12.66,7.6l2.15-.91a42.4,42.4,0,0,1-10.47,2.95l2.39-.32a34.33,34.33,0,0,1-9,0l2.39.32a30.75,30.75,0,0,1-7.51-2.05l2.15.91a26.89,26.89,0,0,1-5.68-3.3l1.82,1.41a23.55,23.55,0,0,1-4-3.95l1.41,1.83a24,24,0,0,1-2.94-5l.91,2.15a23.13,23.13,0,0,1-1.53-5.6l.32,2.4a21.06,21.06,0,0,1,0-5.38l-.32,2.39a19,19,0,0,1,1.23-4.48l-.91,2.15c.15-.33.3-.66.46-1l-14.14,1.82,9.68,10.7c2.76,3.05,5.41,6.3,8.67,8.84a26.75,26.75,0,0,0,8.08,4.6,19.12,19.12,0,0,0,9.41.52c4.85-.74,9.46-3.89,12.72-7.45,3.61-3.95,6-8.73,9.23-12.95l-1.4,1.82a21.81,21.81,0,0,1,3.74-3.82l-1.82,1.41a16.33,16.33,0,0,1,3.45-2l-2.15.91a13.48,13.48,0,0,1,3-.8l-2.39.32a11,11,0,0,1,2.3,0l-2.39-.33c.39.07.77.14,1.15.24l-6.29-11.07-.13.33.9-2.15a33.32,33.32,0,0,1-4.18,7.19l1.41-1.82a36.18,36.18,0,0,1-6.4,6.39l1.82-1.41a36.66,36.66,0,0,1-7.82,4.56l2.15-.9a35.14,35.14,0,0,1-8.71,2.37l2.39-.32a35.3,35.3,0,0,1-4,.26c-4.71,0-9.22,4.12-9,9a9.15,9.15,0,0,0,9,9,42.64,42.64,0,0,0,23.44-7.25,43.52,43.52,0,0,0,9.16-8.12,49.63,49.63,0,0,0,4.13-5.66,47.08,47.08,0,0,0,3.18-6.69c.79-1.93.19-5.23-.91-6.93a9.19,9.19,0,0,0-5.38-4.14c-7.41-1.86-14.8,1-20.17,6.19-4.2,4-6.71,9.4-10.21,14l1.41-1.82a22.93,22.93,0,0,1-3.82,3.87l1.82-1.4a16.7,16.7,0,0,1-3.28,1.95l2.15-.91a12.66,12.66,0,0,1-2.89.8l2.39-.33a11.19,11.19,0,0,1-2.65,0l2.39.32a12.18,12.18,0,0,1-2.84-.83l2.15.9a17.21,17.21,0,0,1-3.24-2l1.82,1.41c-3.27-2.53-5.92-5.79-8.68-8.84l-9.67-10.7c-3.7-4.1-11.64-3.25-14.13,1.82a29.17,29.17,0,0,0-2.35,19.21,30.78,30.78,0,0,0,8.48,15.35c9.22,9,22.69,11.5,35,9.1a53,53,0,0,0,16.59-6.59,66.34,66.34,0,0,0,13.86-10.69c4.15-4.3,7.87-9.83,8.76-15.85a25,25,0,0,0-.36-10.33,22.79,22.79,0,0,0-4.69-8.85c-5.09-6.2-14.3-7.87-21.6-5a38.55,38.55,0,0,0-10.78,6.51c-2.26,1.86-4.37,3.9-6.68,5.71l1.82-1.41a25.15,25.15,0,0,1-5.32,3.24l2.15-.9a16.64,16.64,0,0,1-3.85,1.05l2.39-.32a18,18,0,0,1-4.52-.05l2.39.32a24,24,0,0,1-5.63-1.63l2.15.91a41.55,41.55,0,0,1-8.75-5.41l1.82,1.4c-3.5-2.72-6.85-5.62-10.46-8.19-4-2.85-8.84-5.47-13.89-5.15A16,16,0,0,0,354,332.24a19.92,19.92,0,0,0-1.25,15.27,41.69,41.69,0,0,0,6.37,11.6q4,5.47,8.51,10.54c5.22,5.84,10.91,11.23,16.61,16.58a84.51,84.51,0,0,0,9.73,8.19,28.49,28.49,0,0,0,13.54,4.88,30.86,30.86,0,0,0,13.68-2.24A69.3,69.3,0,0,0,460,361.51a67.9,67.9,0,0,0,6.44-22.7c.44-4.8-.39-10.19-3.09-14.28-3.32-5-8.43-8.3-14.56-8.37a27.93,27.93,0,0,0-7.73,1.29,9,9,0,0,0-6.44,9.88,8.54,8.54,0,0,0,2.47,5.16,10.11,10.11,0,0,0,6.37,2.64l.71.07-2.39-.32a14.77,14.77,0,0,1,3.44.95l-2.15-.91a16.23,16.23,0,0,1,3.09,1.81l-1.83-1.41a15.59,15.59,0,0,1,2.55,2.52l-1.4-1.83a15.33,15.33,0,0,1,1.82,3.07l-.91-2.15a14,14,0,0,1,.87,3.1l-.32-2.39a14.78,14.78,0,0,1,0,3.93l.33-2.4a16.58,16.58,0,0,1-.95,3.46l.9-2.15a15.14,15.14,0,0,1-1.77,3.1l1.41-1.82a14.42,14.42,0,0,1-2.52,2.54l15.05,8.75a79.08,79.08,0,0,0,.41-23.09c-.51-3.78-1.14-7.61-3.23-10.9a16.56,16.56,0,0,0-10.83-7.62c-7.41-1.33-14.53,1-21.24,3.95a54.3,54.3,0,0,0-14.65,9.84A53,53,0,0,0,398,341.18a9.65,9.65,0,0,0-.9,6.93,9.14,9.14,0,0,0,4.13,5.38c4.07,2.15,10.08,1.27,12.32-3.23a59.59,59.59,0,0,1,6.07-9.84l-1.41,1.83a41,41,0,0,1,6.93-7l-1.82,1.41a32.91,32.91,0,0,1,7.13-4.18l-2.15.91A29.15,29.15,0,0,1,435,331.5l-2.39.32a25.19,25.19,0,0,1,6.55,0l-2.4-.32a21.69,21.69,0,0,1,5.24,1.45l-2.15-.91a22.08,22.08,0,0,1,4.64,2.73l-1.82-1.41a21,21,0,0,1,3.52,3.53L444.8,335a18.36,18.36,0,0,1,2.14,3.66l-.91-2.15a17.92,17.92,0,0,1,1.17,4.24l-.32-2.39a23.69,23.69,0,0,1,0,5.89l.32-2.39a57.54,57.54,0,0,1-4.39,14.31l.9-2.15a101.71,101.71,0,0,1-13.09,22.36L432,374.6a92.36,92.36,0,0,1-15.86,16.24l1.82-1.41a28.83,28.83,0,0,1-6.07,3.66l2.15-.9a18,18,0,0,1-3.94,1.1l2.39-.32a16.5,16.5,0,0,1-3.91,0l2.39.32a26.49,26.49,0,0,1-6.46-1.9l2.15.91a113.67,113.67,0,0,1-24.59-14.22l1.82,1.4A76.35,76.35,0,0,1,370.19,366l1.4,1.82a62.75,62.75,0,0,1-8-13.54l.91,2.15a53.4,53.4,0,0,1-3.66-13l.32,2.39a42.35,42.35,0,0,1-.17-10.73l-.32,2.39a25.2,25.2,0,0,1,1.58-6.11l-.91,2.15a17.74,17.74,0,0,1,2-3.47l-1.41,1.82a14.71,14.71,0,0,1,2.55-2.56l-1.82,1.41a13.83,13.83,0,0,1,2.67-1.52l-2.15.9a16.39,16.39,0,0,1,3.71-1l-2.39.32a20.09,20.09,0,0,1,5.08,0l-2.39-.32a24.11,24.11,0,0,1,5.46,1.54l-2.15-.91c5.49,2.32,10.21,6.13,15,9.61L401.42,351c1.78,1.3,4.9,1.47,6.93.91a9.19,9.19,0,0,0,5.38-4.14,9.09,9.09,0,0,0,.91-6.93,10.33,10.33,0,0,0-4.14-5.38Z" transform="translate(-4.21 -6.03)" style="fill: #44298c"/>
  </g>
  <path d="M416.59,345.53a93.46,93.46,0,0,1,12.17-12l-1.82,1.41a35.94,35.94,0,0,1,7.54-4.49l-2.15.9a29,29,0,0,1,7.08-1.94l-2.39.32a23.48,23.48,0,0,1,5.62,0l-2.4-.32a19.89,19.89,0,0,1,4.62,1.2l-2.15-.91a18,18,0,0,1,3.94,2.29l-1.82-1.41a18.6,18.6,0,0,1,3.12,3.15l-1.41-1.82a19,19,0,0,1,2.24,3.82l-.91-2.15a18.17,18.17,0,0,1,1.18,4.33l-.32-2.39a18.79,18.79,0,0,1,0,4.37l.32-2.39a18.77,18.77,0,0,1-1.25,4.6l.91-2.15a18.29,18.29,0,0,1-2.2,3.78l1.41-1.82c-.25.31-.51.62-.77.92a9.56,9.56,0,0,0-2.63,6.36,9.19,9.19,0,0,0,2.63,6.37c3.4,3.11,9.42,3.78,12.73,0,4.71-5.39,7.66-12.58,6.88-19.84-.74-6.87-3.72-13.46-9.19-17.87a27.37,27.37,0,0,0-19.74-6.18,38.39,38.39,0,0,0-18.77,6.87c-5.74,4.1-10.52,9.08-15.19,14.32a9.48,9.48,0,0,0-2.64,6.37,9.15,9.15,0,0,0,2.64,6.36c3.42,3.14,9.38,3.75,12.73,0Z" transform="translate(-4.21 -6.03)" style="fill: #44298c"/>
  <path d="M679.44,115.3c-1.42.75-2.84,1.47-4.29,2.15-.66.3-1.31.6-2,.89,1.67-.73-.94.36-1,.4a88.13,88.13,0,0,1-9,2.91c-2.75.74-5.54,1.34-8.35,1.81-.84.14-1.68.28-2.53.4,2-.28-.83.08-1,.1-1.71.18-3.42.32-5.14.41a116.31,116.31,0,0,1-18.19-.43c-.87-.08-1.74-.19-2.61-.28-2.79-.3,1,.17-.66-.08s-3.2-.48-4.79-.76c-3.21-.57-6.39-1.25-9.55-2A176,176,0,0,1,592,115.22a153.79,153.79,0,0,1-16.31-6.84,391.83,391.83,0,0,1-34.48-19.17C518.36,75.31,496,60.4,471.33,49.86,449.51,40.54,426,35,402.1,36.51c-23,1.45-45.83,9.32-62.35,25.92-9.41,9.46-16.12,21.17-22,33-6.65,13.32-13.06,26.74-19.58,40.12l-80,164.19-39.67,81.39-19.83,40.69c-6.75,13.86-13.34,28.06-10.5,43.85,4.25,23.57,28.76,36.16,48.94,43.9a590.05,590.05,0,0,0,79.26,24A628.28,628.28,0,0,0,441.83,549a629,629,0,0,0,83.05-9q20.7-3.63,41.11-8.69c13.47-3.35,26.84-7.14,39.4-13.14,11.28-5.38,21.77-13,29.53-22.86a65.47,65.47,0,0,0,10.13-17.83c1.21-3.27,2.77-7.43,1.81-10.91s-3.65-7.25-5.37-10.56q-9.68-18.57-18.12-37.76c-5-11.47-10-23.93-14.71-36.72a649.36,649.36,0,0,1-23.19-79,613.94,613.94,0,0,1-12.73-79.84q-1.86-19.9-2.45-39.91c-.14-4.7-4-9.22-9-9-4.75.22-9.15,4-9,9a656.33,656.33,0,0,0,14.39,118A645.26,645.26,0,0,0,601.5,412.48a661.39,661.39,0,0,0,28.91,61l-.91-6.94a49.07,49.07,0,0,1-2,6.5c-.09.24-.76,1.77-.3.77.54-1.2-.57,1.16-.54,1.09-.53,1.08-1.09,2.13-1.69,3.17a59,59,0,0,1-3.75,5.66c1-1.28.12-.16-.08.08l-1,1.23c-.88,1-1.78,2-2.72,3-1.6,1.64-3.29,3.2-5,4.67-.41.35-.84.68-1.25,1-1.06.91,1-.74-.1.08s-2.17,1.59-3.29,2.34a94.7,94.7,0,0,1-14,7.63l-1.7.74c1.16-.49-.28.1-.43.16-1.16.45-2.31.91-3.47,1.34-2.63,1-5.29,1.86-8,2.7-5.35,1.68-10.78,3.13-16.22,4.51q-16,4.05-32.15,7.22a561.57,561.57,0,0,1-64.27,8.91,618.05,618.05,0,0,1-66.81,1.89,592.89,592.89,0,0,1-130.34-17.61A602.14,602.14,0,0,1,207,494.16c-2.3-.85-4.59-1.7-6.86-2.6-.92-.36-1.83-.74-2.75-1.11-1.38-.55,2,.88-.26-.11l-1.72-.76a107.33,107.33,0,0,1-11.7-6.1c-1.69-1-3.35-2.11-5-3.27l-1.18-.87c1.52,1.13.19.13-.18-.17-.84-.69-1.65-1.4-2.45-2.13a59.5,59.5,0,0,1-4.37-4.61c-.3-.34-.91-1.35.12.18-.25-.38-.54-.75-.8-1.13a32.47,32.47,0,0,1-1.81-2.93c-.44-.8-.84-1.63-1.23-2.46.84,1.78-.1-.34-.34-1.08s-.54-1.79-.74-2.7c-.14-.58-.22-1.17-.35-1.76s-.08-.47.05.38l-.08-.94c0-1.26-.11-2.5-.06-3.76q0-1.17.18-2.34c.17-1.55-.22,1.15.07-.39a58.82,58.82,0,0,1,2.21-8.26,56,56,0,0,1,2.56-6.34c1.22-2.68,2.52-5.33,3.81-8l8.07-16.56,32.06-65.77q32.18-66,64.34-132,16-32.9,32.05-65.78l16.15-33.12c4.78-9.81,9.36-19.78,15.16-29.05q1.92-3.06,4-6c.35-.49.71-1,1.08-1.45-.85,1.1.33-.4.54-.66.86-1,1.74-2.07,2.65-3.08q2.34-2.55,4.9-4.88,1.11-1,2.25-1.95l1.15-.93c1.47-1.2-1.19.8.52-.39a88.08,88.08,0,0,1,10.63-6.5c.87-.45,1.75-.87,2.64-1.28l1.68-.75c1.22-.54-1.38.52-.12.06,2.08-.76,4.13-1.57,6.25-2.23a96.45,96.45,0,0,1,12.66-3.06c1-.17,2-.31,3-.47-2.17.35,1.18-.12,1.73-.18,2.27-.24,4.55-.4,6.82-.5a128.19,128.19,0,0,1,13.44.15q3.09.2,6.16.54l1.54.18c2.48.27-1.23-.2.29,0,1.15.18,2.3.34,3.45.53,20,3.33,36.35,10.31,53.68,19.57,19,10.17,37,22.15,55.5,33.18,36.33,21.63,78,39.57,121.18,32.25a95.73,95.73,0,0,0,28.9-10,9.07,9.07,0,0,0,3.23-12.31,9.19,9.19,0,0,0-12.31-3.23Z" transform="translate(-4.21 -6.03)" style="fill: #44298c"/>
  <path d="M673.38,125a129.81,129.81,0,0,1-5.53,16l.91-2.15A136.11,136.11,0,0,1,651.1,169l1.41-1.83A143.47,143.47,0,0,1,627,192.63l1.82-1.41a139.94,139.94,0,0,1-30.78,18l2.15-.91a129.62,129.62,0,0,1-29.76,8.57c-2.09.33-4.36,2.39-5.38,4.14a9,9,0,0,0,3.23,12.31,10.36,10.36,0,0,0,6.93.91A139.82,139.82,0,0,0,633,210.41a151.37,151.37,0,0,0,43.78-47.31,139.19,139.19,0,0,0,14-33.35c1.24-4.53-1.53-10-6.28-11.07A9.16,9.16,0,0,0,673.38,125Z" transform="translate(-4.21 -6.03)" style="fill: #44298c"/>
  <path d="M145.45,442,84.18,469.79,53.55,483.66c-9.11,4.12-18.54,7.87-27.3,12.7-7.72,4.25-15.17,10.16-18.95,18.33a34.69,34.69,0,0,0-.48,27.54c7.59,19,25.83,27.89,44.09,34.3C127,603.26,206.7,620,287,627.88a1046.45,1046.45,0,0,0,243.21-5,1019.11,1019.11,0,0,0,117.65-23.16q29.37-7.6,58.24-17c18.1-5.88,36.89-11.5,54-20,14-6.92,28.92-18.11,32.21-34.33,3.87-19.14-7.79-34.49-22.45-45.22-15.75-11.52-34.51-19.69-52.41-27.2a384.11,384.11,0,0,0-57.54-19q-14.57-3.54-29.38-5.93c-4.79-.78-9.69,1.25-11.07,6.29-1.18,4.29,1.46,10.28,6.29,11.07a374.52,374.52,0,0,1,110.05,35.75c13.34,6.81,30.35,14.55,37.35,28.19a19.87,19.87,0,0,1,2,7.7c0,.67,0,1.35,0,2-.14,2.95.39-1.32-.17,1.52-.13.63-.28,1.26-.45,1.87-.11.38-1.23,3.29-.78,2.32-2.57,5.54-7,9.78-12,13.16-13.57,9.3-29.09,13.77-44.7,19.13q-27.39,9.4-55.3,17.2a1016.11,1016.11,0,0,1-113.11,24.75A1026,1026,0,0,1,320,612.56,1007.34,1007.34,0,0,1,94.81,571.87q-13.86-4.18-27.6-8.77C59,560.35,50.53,557.8,42.73,554c-6.92-3.41-13.52-7.77-17.43-14.56-3.26-5.65-4.51-12.18-1.46-17.61,3.34-6,10.26-9.46,16.58-12.49,9.17-4.39,18.52-8.43,27.78-12.62L126,470.51l28.54-12.92c4.43-2,5.5-8.43,3.23-12.32-2.66-4.55-7.87-5.24-12.31-3.23Z" transform="translate(-4.21 -6.03)" style="fill: #44298c"/>
  <path d="M132.87,294.75c9.84,4.58,20.93,2.33,29.09-4.58,7.44-6.3,11.16-15.95,12.43-25.38a83.31,83.31,0,0,0,.16-17.86l-11.79,1.59A107.89,107.89,0,0,0,170,274.88c3.41,7.87,8.59,16.45,16.68,20.19,5,2.3,10.94,3.27,16.16,1.1,2.8-1.16,4.73-3.37,4.3-6.58a6,6,0,0,0-5.9-5.2c-9-.45-17.55,3.18-24.38,8.84s-11.22,13.68-13.52,22a60.13,60.13,0,0,0-2,15.1h12c.21-16.86-9.81-33.09-25.33-39.92a46.38,46.38,0,0,0-14.55-3.78c-3.13-.3-6.13,3-6,6,.16,3.5,2.65,5.68,6,6,.39,0,.8.12,1.19.13,0,0-1.28-.2-.61-.08l.59.09q1.38.22,2.73.57a36.25,36.25,0,0,1,4.74,1.51c.18.07.37.16.55.22-1.31-.41-.68-.3-.33-.13l1.08.5c.78.38,1.54.79,2.29,1.22s1.37.81,2,1.25l1.15.79.48.35c.66.45-.88-.72-.27-.21a41.65,41.65,0,0,1,3.69,3.34c.6.63,1.19,1.29,1.75,2l.42.52c-.51-.63-.07-.08,0,.05l.48.67a38.22,38.22,0,0,1,2.72,4.57c.18.37.36.74.53,1.11.09.19.16.38.25.56.29.6-.2-.48-.2-.49.19.84.65,1.68.92,2.5a36.82,36.82,0,0,1,1.42,5.77l.09.6c.14.82-.12-1.2,0-.37,0,.54.11,1.09.14,1.63.07,1,.09,2,.08,3.07a6,6,0,0,0,12,0c0-1.89.13-3.78.34-5.66,0-.2.08-.43.08-.63,0,.15-.22,1.43-.05.34.07-.41.13-.83.2-1.24.17-1,.36-1.93.59-2.89a46.21,46.21,0,0,1,1.61-5.42,5.13,5.13,0,0,1,.53-1.37s-.48,1.09-.2.47c.09-.19.17-.38.25-.57.4-.89.84-1.76,1.3-2.62s.89-1.57,1.38-2.33c.26-.41.53-.82.81-1.22l.36-.51c.1-.14.7-.9.15-.22s.38-.46.52-.63.51-.59.78-.88c.62-.68,1.26-1.33,1.93-2s1.28-1.12,1.94-1.67-.94.67-.28.21l.47-.34q.56-.41,1.14-.78c1.49-1,3.12-1.63,4.64-2.52-1.39.81-.1.05.38-.12s1-.34,1.47-.49a27.19,27.19,0,0,1,2.83-.7l.57-.1c.85-.17-.21.1-.45,0a6.41,6.41,0,0,0,1.55-.15,26.9,26.9,0,0,1,3.11,0l-1.59-11.79c-.8.33-1.62.51-2.44.76-.62.18.6-.07.62-.07a3.8,3.8,0,0,0-.58.06c-.53,0-1,0-1.58,0-.23,0-1.55-.14-.58,0s-.52-.13-.77-.19-.77-.2-1.15-.32l-.76-.27c-.79-.28.14-.05.32.14a5.08,5.08,0,0,0-1.07-.53q-.62-.35-1.2-.72c-.19-.13-1.22-.91-.56-.36s.09.07,0,0-.52-.43-.77-.66a23.57,23.57,0,0,1-1.87-1.87c-.28-.3-.54-.61-.8-.93l-.39-.47c-.51-.62.85,1.19.07.07a57.88,57.88,0,0,1-5.57-10c0-.1-.29-.52-.26-.62,0,.06.53,1.33.08.19-.16-.41-.33-.83-.49-1.25-.38-1-.73-2-1.07-2.95q-1-2.88-1.75-5.81a129.11,129.11,0,0,1-2.75-13.47,6,6,0,0,0-2.76-3.59,6.21,6.21,0,0,0-3.83-.71c-2.74.37-5.45,2.91-5.2,5.9a90.29,90.29,0,0,1,.27,13.76c0,.63-.1,1.26-.16,1.89,0,.23-.06.47-.08.71-.06.7.06-.39.06-.43a17.1,17.1,0,0,1-.67,3.73,39.25,39.25,0,0,1-1.66,5.51,3.66,3.66,0,0,0-.21.55c.32-1.24.32-.75.14-.35s-.38.83-.58,1.24c-.43.87-.89,1.73-1.4,2.57s-1,1.52-1.52,2.26c-.27.38-.64.48.23-.29a4.23,4.23,0,0,0-.37.45c-.33.39-.67.78-1,1.15a26.73,26.73,0,0,1-2,1.88l-.6.5c-.49.42.45-.34.45-.34a11.78,11.78,0,0,0-1.29.88,21.55,21.55,0,0,1-2.4,1.33,5.33,5.33,0,0,1-.71.32s1.43-.54.34-.16c-.49.17-1,.35-1.49.5s-1,.27-1.51.39a5.7,5.7,0,0,0-1.54.27c.11-.07,1.5-.14.44-.08l-.78.06c-.51,0-1,0-1.55,0s-1-.12-1.54-.11c1.32,0,.93.16.45.05L141,285c-.5-.12-1-.25-1.48-.42l-.55-.19c-1.29-.43,1.24.58,0,0-2.84-1.32-6.6-.89-8.21,2.16-1.4,2.65-.88,6.79,2.16,8.21Z" transform="translate(-4.21 -6.03)" style="fill: #44298c"/>
  <path d="M136.72,299.16a37.24,37.24,0,0,1,7,2c.71.27-1.39-.63-.23-.09l.68.32c.57.26,1.12.55,1.67.85a32.3,32.3,0,0,1,3.18,2l.61.44c.09.07,1.1.81.29.21s.11.1.27.23l.71.61a33.25,33.25,0,0,1,2.55,2.49q.63.67,1.23,1.41c.13.16.83,1,.23.27s.13.2.2.29a35.84,35.84,0,0,1,2,3.17c2.46,4.39,9.81,3.61,11-1.44a30.76,30.76,0,0,1,1-3.23c.25-.7-.58,1.24-.12.29.13-.27.25-.54.38-.8.24-.48.5-1,.77-1.41s.62-1,1-1.49c.17-.25.35-.48.52-.72.42-.6-1,1.16-.17.23a31.82,31.82,0,0,1,2.34-2.45c.32-.29,1-.68,1.21-1-.17.32-1.06.79-.22.18l.73-.52a24.89,24.89,0,0,1,2.92-1.69c.26-.12.56-.23.81-.37-.2.12-1.22.48-.45.19.55-.21,1.11-.41,1.67-.58s1.14-.32,1.72-.45,2.47-.39.51-.14c2.46-.31,4.46-1.26,5.49-3.69a6.08,6.08,0,0,0-1.24-6.55c-.69-.75-1.36-1.5-2-2.27l-.83-1c-.19-.25-1.46-1.75-.4-.49a45,45,0,0,1-3.25-4.61,71.76,71.76,0,0,1-5.5-10.31c-1-2.31-4.48-3.5-6.78-2.76a6.26,6.26,0,0,0-4.4,5.79c-.08,1.29-.2,2.57-.35,3.86-.08.77.19-1.18,0,0l-.15.9c-.12.67-.25,1.35-.39,2a54.53,54.53,0,0,1-2.2,7.66c-.21.57-.43,1.14-.66,1.7-.42,1.07.3-.63,0,0-.13.27-.24.55-.37.83-.52,1.11-1,2.23-1.67,3.29-.18.29-.39.56-.55.86-.36.64.73-.75.19-.25a7.67,7.67,0,0,0-.56.58c-.33.31-.18.2.45-.31l-.32.21a3.7,3.7,0,1,0,.4-.1,2.66,2.66,0,0,0-.73.21l.86-.12c-.52,0-.5,0,.05.07,1,.18-.11-.1-.28-.16L161,302l4.2-7.67c1.51-2.75.76-6.66-2.15-8.21a6.1,6.1,0,0,0-8.21,2.16L150.63,296c-2,3.65-.06,7.43,3.59,8.82,4,1.52,8.87-.26,11.67-3.31,2.56-2.79,4-6.34,5.47-9.8A60.68,60.68,0,0,0,175.71,272l-11.18,3a76,76,0,0,0,13.87,21.1l4.24-10.24a30.93,30.93,0,0,0-17.12,7.7,29.47,29.47,0,0,0-9,15.11l11-1.43a39.81,39.81,0,0,0-27.56-19.63,6.58,6.58,0,0,0-4.63.6,6.17,6.17,0,0,0-2.76,3.59c-.66,2.9.89,6.83,4.2,7.38Z" transform="translate(-4.21 -6.03)" style="fill: #44298c"/>
  <path d="M607.41,291.8a268.33,268.33,0,0,0,17.06-46.08h-8.68L631,294.09l7.53-4.38a520.61,520.61,0,0,0-45.08-33.38l-3.46,8.23a405.36,405.36,0,0,0,53.7,3.95l-1.2-8.84a147.41,147.41,0,0,0-41.8,24.48c-1.82,1.51-1.68,4.82,0,6.36a4.6,4.6,0,0,0,6.36,0c.79-.65,1.58-1.3,2.37-1.93l1-.82c1.13-.88-.67.51.48-.36,1.51-1.15,3-2.27,4.59-3.36q4.65-3.26,9.56-6.14c3.27-1.91,6.62-3.7,10-5.34,1.7-.82,3.43-1.61,5.17-2.36.15-.06,1.29-.54.53-.23l1.22-.5,2.84-1.12a4.57,4.57,0,0,0,3.23-4.94,4.51,4.51,0,0,0-4.42-3.9q-13-.08-26.07-1-6.39-.45-12.75-1.12-3.2-.33-6.36-.72c-1.15-.13-2.29-.28-3.42-.42l-.76-.1-1.95-.27c-2.25-.32-4.36.36-5.31,2.6a4.53,4.53,0,0,0,1.84,5.62q11.37,7.5,22.34,15.6c3.62,2.67,7,5.28,10.21,7.76q5.42,4.23,10.7,8.61a4.67,4.67,0,0,0,5.46.71,4.59,4.59,0,0,0,2.06-5.09l-15.16-48.36c-1.3-4.15-7.49-4.41-8.68,0q-3.07,11.49-7.18,22.66c-1.29,3.51-2.87,7.54-4.18,10.64-.54,1.29-1.48,3.45-2.21,5.07-.84,1.86-1.7,3.72-2.58,5.56-1,2.12-.65,4.95,1.62,6.15,2,1.06,5.07.66,6.15-1.61Z" transform="translate(-4.21 -6.03)" style="fill: #44298c"/>
  <path d="M611.73,268.13l8,15.82A4.55,4.55,0,0,0,624.8,286a4.62,4.62,0,0,0,3.31-4.34A45.35,45.35,0,0,0,621.94,260a4.5,4.5,0,1,0-7.77,4.54,30.39,30.39,0,0,1,2.31,4.55c-.41-1.08,0,0,.06.19.17.42.33.85.48,1.28.26.75.5,1.51.72,2.27a39.14,39.14,0,0,1,1,4.66c0,.22.08.45.11.67q-.14-.94,0-.18c0,.34.07.68.1,1,.09.91.13,1.82.16,2.73l8.38-2.28-8-15.82a4.54,4.54,0,0,0-6.16-1.61,4.61,4.61,0,0,0-1.61,6.16Z" transform="translate(-4.21 -6.03)" style="fill: #44298c"/>
  <path d="M320.59,11.77l9.63,24.47c.86,2.18,3,3.94,5.54,3.14,2.12-.69,4.06-3.19,3.14-5.54L329.27,9.38c-.86-2.19-3-4-5.54-3.15-2.11.69-4.06,3.19-3.14,5.54Z" transform="translate(-4.21 -6.03)" style="fill: #44298c"/>
  <path d="M298,40.41l21,12.14a4.5,4.5,0,1,0,4.54-7.77l-21-12.14A4.5,4.5,0,0,0,298,40.41Z" transform="translate(-4.21 -6.03)" style="fill: #44298c"/>
</svg>
