<svg id="witchcraft" xmlns="http://www.w3.org/2000/svg" viewBox="0 0 789.85 669.16">
  <defs>
    <style>
      .cls-1 {
        fill: #4b3a68;
        stroke: #4b3a68;
        stroke-miterlimit: 10;
      }
    </style>
  </defs>
  <g>
    <path class="cls-1" d="M402.3,366.68,382.75,351.6c-4.2-3.27-8.5-6.57-13.44-8.27s-10.75-1.52-14.9,1.81c-4.62,3.69-6.2,10.35-6.35,16.51-.34,14.53,5.68,28.7,14.7,39.61s20.82,18.79,33.18,25c3.68,1.82,7.58,3.54,11.63,3.32,5.26-.29,9.86-3.8,13.84-7.47a107.62,107.62,0,0,0,28.45-44.61c1.94-5.83,3.41-12.2,1.86-18.18a20,20,0,0,0-15.84-14.2c-7.21-1.2-14.67,1.46-20.49,6.15s-10.1,11.26-13.33,18.24a47.53,47.53,0,0,1,30.72-26.78c3.68-.94,8-1.26,10.85,1.38,2.2,2,3,5.33,3.41,8.36a75.76,75.76,0,0,1,0,22.3,15.21,15.21,0,0,0,2.64-20.41,13.46,13.46,0,0,0-9.88-5.74c2.32-.7,4.76-1.41,7.11-.82,3.13.79,5.45,3.79,6.37,7.08a24.1,24.1,0,0,1,.13,10.18c-3.7,22.26-17.8,41-37.4,49.58-4.15,1.77-8.66,3.06-13.06,2.27-5.91-1.07-10.64-5.64-15-10-9.54-9.6-19.16-19.19-26.52-30.71-2.18-3.42-4.22-7.21-4.33-11.35s2.36-8.63,6.2-9.25c2.4-.37,4.77.76,6.84,2.08,5.28,3.37,9.68,8.1,14.77,11.78s11.38,6.35,17.34,4.75c5.49-1.47,9.58-6.18,13.9-10.06s10.06-7.24,15.43-5.33c5.84,2.07,8.48,9.91,7,16.28s-6,11.39-10.88,15.47c-6.84,5.78-14.78,10.4-23.41,11.73s-18-.88-24.36-7.27-8.92-17.19-5-25.49l13,15.35c3.43,4,7.45,8.39,12.56,8.53,4.61.15,8.69-3.26,11.52-7.14s4.85-8.42,8-12.05,7.81-6.34,12.25-5c-5.32,13.42-17.56,22.24-31.23,22.5" transform="translate(-0.01 -6.7)"/>
    <path class="cls-1" d="M406.8,358.4l-15.5-12c-4.62-3.58-9.18-7.54-14.41-10.09-6.48-3.19-13.7-4.8-20.73-2.6a21.76,21.76,0,0,0-9.58,6.06,28.62,28.62,0,0,0-5.61,10c-2,5.54-2.21,12-1.67,17.84a66.88,66.88,0,0,0,4.21,18.4,76,76,0,0,0,8.89,16.73,84.34,84.34,0,0,0,12.11,13.78A117.23,117.23,0,0,0,396,436.6a28,28,0,0,0,10.19,2.49,23.78,23.78,0,0,0,11.44-2.79,39.41,39.41,0,0,0,8.34-5.93q3.13-2.73,6-5.77a118.14,118.14,0,0,0,27.12-46.52c2.15-7,3.28-15.15,1-22.33-4.18-13.16-17-21.8-30-20.52a36.59,36.59,0,0,0-18.3,6.87,54.42,54.42,0,0,0-13.65,15.18,66.74,66.74,0,0,0-3.91,7.27l15.55,9.68a50.77,50.77,0,0,1,5.09-8.86l-1.38,1.94a50.33,50.33,0,0,1,8.5-9l-1.82,1.49a47.62,47.62,0,0,1,10.32-6.46l-2.15,1a36.59,36.59,0,0,1,9.43-2.93l-2.4.34a15.84,15.84,0,0,1,3.83-.05l-2.39-.34a9.94,9.94,0,0,1,2.49.7l-2.15-1a8.37,8.37,0,0,1,1.58,1L437,350.53a9.37,9.37,0,0,1,1.32,1.42L436.88,350a10.85,10.85,0,0,1,1.12,2.07l-.9-2.3a27.82,27.82,0,0,1,1.46,6.65l-.32-2.55a77.55,77.55,0,0,1,0,18.77l.33-2.54c-.09.67-.18,1.34-.28,2a11.37,11.37,0,0,0,.45,6.25,9,9,0,0,0,3.69,4.58,9.89,9.89,0,0,0,4.54,1.31c2.53.12,4.49-1.24,6.36-2.81,9.51-8.42,10.81-23.47,2.91-33.6h0a23.64,23.64,0,0,0-2.77-3,26,26,0,0,0-7.2-4.52,21.42,21.42,0,0,0-6.54-1.43l2.39,18.85a31.11,31.11,0,0,1,3.54-.9l-2.39.35a12,12,0,0,1,2.68-.09l-2.39-.34a8.32,8.32,0,0,1,1.9.5l-2.15-1a9.29,9.29,0,0,1,1.82,1.12L443.3,356a11.09,11.09,0,0,1,1.75,1.87l-1.4-1.94a13.13,13.13,0,0,1,1.42,2.67l-.91-2.29a15.64,15.64,0,0,1,.83,3.45l-.32-2.55a28,28,0,0,1-.13,6.4l.32-2.56a66,66,0,0,1-4,15.39l.91-2.3A69.19,69.19,0,0,1,433.62,389l1.41-1.94a67,67,0,0,1-11.44,12.2l1.82-1.51a60.06,60.06,0,0,1-13,8.12l2.15-1a34.61,34.61,0,0,1-8.6,2.74l2.4-.34a19.46,19.46,0,0,1-5,.05l2.39.34a17.28,17.28,0,0,1-4.31-1.3l2.15,1a28.25,28.25,0,0,1-5.89-3.84l1.83,1.49a183.48,183.48,0,0,1-14.59-14.4,161.85,161.85,0,0,1-13.76-16.2l1.41,1.95a52.87,52.87,0,0,1-6.65-11.09l.91,2.29a18.91,18.91,0,0,1-1-3.95l.32,2.56a14.45,14.45,0,0,1,0-2.79l-.32,2.55a11.91,11.91,0,0,1,.69-2.78l-.91,2.29a11,11,0,0,1,1.16-2.13l-1.49,1.83a8.82,8.82,0,0,1,1.37-1.49l-1.82,1.5a8.09,8.09,0,0,1,1.37-.9l-2.15,1a7.64,7.64,0,0,1,1.56-.49l-2.4.35a8.2,8.2,0,0,1,2.1,0l-2.39-.35a13.08,13.08,0,0,1,2.44.78l-2.15-1a36.61,36.61,0,0,1,7.34,5l-1.82-1.5c4.06,3.37,7.92,7.07,12.25,10.05a33.45,33.45,0,0,0,16.06,6,23.51,23.51,0,0,0,15.45-4.63c4-2.91,7.4-6.62,11.23-9.78l-1.82,1.49a27.06,27.06,0,0,1,5.44-3.46l-2.15,1a16,16,0,0,1,3.92-1.2l-2.39.34a14.35,14.35,0,0,1,2.78,0l-2.39-.34a10.66,10.66,0,0,1,2.58.72l-2.15-1a10.62,10.62,0,0,1,2.17,1.35l-1.82-1.5a11.25,11.25,0,0,1,2,2.13l-1.4-1.94a15.4,15.4,0,0,1,1.56,3l-.9-2.29a18.59,18.59,0,0,1,.94,3.7l-.32-2.55a18.35,18.35,0,0,1,0,4.19l.32-2.56a19.47,19.47,0,0,1-1.16,4.47l.9-2.29a25.81,25.81,0,0,1-3,5.33l1.41-1.94a44.91,44.91,0,0,1-7.72,7.92l1.82-1.49a59.31,59.31,0,0,1-12.66,8.1l2.15-1A40.77,40.77,0,0,1,401.38,393l2.39-.35a32.3,32.3,0,0,1-9,0l2.39.35a29.26,29.26,0,0,1-7.51-2.19l2.15,1a26.35,26.35,0,0,1-5.68-3.52l1.82,1.51a24.58,24.58,0,0,1-4-4.27l1.41,1.95a25.58,25.58,0,0,1-2.94-5.33l.91,2.29a25.93,25.93,0,0,1-1.53-6l.32,2.56a23.88,23.88,0,0,1,0-5.73l-.32,2.54A21.58,21.58,0,0,1,383,373l-.91,2.29.46-1.07-14.14,1.94,9.68,11.41c2.76,3.25,5.41,6.72,8.67,9.43a26.44,26.44,0,0,0,8.08,4.9,18,18,0,0,0,9.41.56c4.85-.79,9.46-4.15,12.72-7.95,3.61-4.21,6-9.31,9.23-13.8l-1.4,1.94a22.7,22.7,0,0,1,3.74-4.08l-1.82,1.51a15.63,15.63,0,0,1,3.45-2.14l-2.15,1a13.15,13.15,0,0,1,3-.85l-2.39.34a11.05,11.05,0,0,1,2.3,0l-2.39-.35c.39.08.77.15,1.15.26l-6.29-11.81-.13.36.9-2.3a36.26,36.26,0,0,1-4.18,7.67l1.41-1.94a37.31,37.31,0,0,1-6.4,6.81l1.82-1.5a36.07,36.07,0,0,1-7.82,4.86l2.15-1a33.43,33.43,0,0,1-8.71,2.53l2.39-.34a33.45,33.45,0,0,1-4,.27,9.62,9.62,0,0,0,0,19.2,41,41,0,0,0,23.44-7.73,45,45,0,0,0,9.16-8.66,52.34,52.34,0,0,0,4.13-6,51.77,51.77,0,0,0,3.18-7.13c.79-2.06.19-5.58-.91-7.39a9.26,9.26,0,0,0-5.38-4.41c-7.41-2-14.8,1.06-20.17,6.6-4.2,4.26-6.71,10-10.21,14.92l1.41-1.94a23.83,23.83,0,0,1-3.82,4.13l1.82-1.49a17.13,17.13,0,0,1-3.28,2.08l2.15-1a12.28,12.28,0,0,1-2.89.85l2.39-.35a11.74,11.74,0,0,1-2.65,0l2.39.34a11.43,11.43,0,0,1-2.84-.89l2.15,1a16.78,16.78,0,0,1-3.24-2.13l1.82,1.5c-3.27-2.69-5.92-6.17-8.68-9.42l-9.67-11.41c-3.7-4.37-11.64-3.46-14.13,1.94A32.9,32.9,0,0,0,364.67,385a33.43,33.43,0,0,0,8.48,16.37c9.22,9.59,22.69,12.26,35,9.7a51,51,0,0,0,16.59-7,67.3,67.3,0,0,0,13.86-11.39c4.15-4.59,7.87-10.48,8.76-16.9a28.39,28.39,0,0,0-.36-11,25,25,0,0,0-4.69-9.43c-5.09-6.61-14.3-8.39-21.6-5.33a37.86,37.86,0,0,0-10.78,6.94c-2.26,2-4.37,4.16-6.68,6.09l1.82-1.51a24.91,24.91,0,0,1-5.32,3.46l2.15-1a16.32,16.32,0,0,1-3.85,1.12l2.39-.34a17.1,17.1,0,0,1-4.52-.06l2.39.34a22.79,22.79,0,0,1-5.63-1.73l2.15,1a41.29,41.29,0,0,1-8.75-5.77L387.9,360c-3.5-2.9-6.85-6-10.46-8.73-4-3-8.84-5.83-13.89-5.49A16,16,0,0,0,350.29,355,22.47,22.47,0,0,0,349,371.25a45.13,45.13,0,0,0,6.37,12.36q4,5.85,8.51,11.24c5.22,6.23,10.91,12,16.61,17.68a85.36,85.36,0,0,0,9.73,8.73,27.29,27.29,0,0,0,13.54,5.2,29.27,29.27,0,0,0,13.71-2.36c17.11-6.71,31.05-20.32,38.81-37.91a76,76,0,0,0,6.44-24.2c.44-5.12-.39-10.86-3.09-15.22-3.32-5.33-8.43-8.85-14.56-8.93a26.2,26.2,0,0,0-7.73,1.38,9.61,9.61,0,0,0-6.44,10.53,9.38,9.38,0,0,0,2.47,5.5,9.81,9.81,0,0,0,6.37,2.82l.71.07-2.39-.34a14.43,14.43,0,0,1,3.44,1l-2.15-1a15.91,15.91,0,0,1,3.12,2l-1.83-1.51a16.27,16.27,0,0,1,2.55,2.69l-1.4-1.95a17.09,17.09,0,0,1,1.82,3.27l-.91-2.29a15.58,15.58,0,0,1,.87,3.3l-.32-2.54a17.28,17.28,0,0,1,0,4.19l.33-2.56a18.69,18.69,0,0,1-.95,3.69l.9-2.3a16.41,16.41,0,0,1-1.77,3.31l1.41-1.94a15.09,15.09,0,0,1-2.52,2.71l15,9.31a89.84,89.84,0,0,0,.41-24.62c-.51-4-1.14-8.12-3.23-11.62A16.61,16.61,0,0,0,442,332.82c-7.41-1.42-14.53,1.07-21.24,4.21a54.19,54.19,0,0,0-14.65,10.49,56.35,56.35,0,0,0-11.85,17,10.84,10.84,0,0,0-.9,7.39,9.67,9.67,0,0,0,4.13,5.73c4.07,2.3,10.08,1.36,12.32-3.44a64.2,64.2,0,0,1,6.07-10.49l-1.41,2a42.72,42.72,0,0,1,6.93-7.46l-1.82,1.5a32.51,32.51,0,0,1,7.13-4.46l-2.15,1a27.38,27.38,0,0,1,6.7-2l-2.39.34a23.18,23.18,0,0,1,6.55,0l-2.4-.34a20.62,20.62,0,0,1,5.24,1.55l-2.15-1a21.63,21.63,0,0,1,4.64,2.91L439,356.21a21.74,21.74,0,0,1,3.52,3.77l-1.39-2a20,20,0,0,1,2.14,3.91l-.91-2.3a20,20,0,0,1,1.17,4.52l-.32-2.54a26.39,26.39,0,0,1,0,6.28l.32-2.55a64,64,0,0,1-4.39,15.25l.9-2.29a109.92,109.92,0,0,1-13.09,23.84l1.38-1.9a96.13,96.13,0,0,1-15.86,17.32l1.82-1.5a28.65,28.65,0,0,1-6.07,3.9l2.15-1a17.15,17.15,0,0,1-3.94,1.17l2.39-.34a16,16,0,0,1-3.91,0l2.39.34a25.38,25.38,0,0,1-6.46-2l2.15,1a112.24,112.24,0,0,1-24.59-15.16l1.82,1.49a79,79,0,0,1-13.68-14.37l1.4,1.94a68.42,68.42,0,0,1-8-14.44l.91,2.29A59.27,59.27,0,0,1,357.16,367l.32,2.55a48.11,48.11,0,0,1-.17-11.44l-.32,2.55a28.48,28.48,0,0,1,1.58-6.52l-.91,2.3a18.31,18.31,0,0,1,2-3.7l-1.41,1.94a15,15,0,0,1,2.55-2.73l-1.82,1.5a14.3,14.3,0,0,1,2.67-1.62l-2.15,1a15.59,15.59,0,0,1,3.71-1.07l-2.39.34a19.63,19.63,0,0,1,5.08,0l-2.39-.34a22.92,22.92,0,0,1,5.46,1.65l-2.15-1c5.49,2.48,10.21,6.54,15,10.25l15.9,12.43c1.78,1.39,4.9,1.57,6.93,1a9.68,9.68,0,0,0,6.29-11.79h0a10.9,10.9,0,0,0-4.14-5.74Z" transform="translate(-0.01 -6.7)"/>
  </g>
  <path class="cls-1" d="M412.89,369.19a97.7,97.7,0,0,1,12.17-12.8l-1.82,1.51a35.35,35.35,0,0,1,7.54-4.79l-2.15,1a27.64,27.64,0,0,1,7.08-2.07l-2.39.34a23,23,0,0,1,5.62,0l-2.4-.34a19.23,19.23,0,0,1,4.62,1.28l-2.15-1a17.48,17.48,0,0,1,3.94,2.44l-1.82-1.5a19.17,19.17,0,0,1,3.12,3.36l-1.41-1.94a20.88,20.88,0,0,1,2.24,4.07l-.91-2.29a20.28,20.28,0,0,1,1.18,4.61l-.32-2.54a21.35,21.35,0,0,1,0,4.66l.32-2.55a21.12,21.12,0,0,1-1.25,4.9l.91-2.29a20.17,20.17,0,0,1-2.2,4l1.41-1.94c-.25.33-.51.66-.77,1a10.54,10.54,0,0,0-2.63,6.78,10.14,10.14,0,0,0,2.63,6.79c3.4,3.32,9.42,4,12.73,0,4.71-5.74,7.66-13.41,6.88-21.15-.74-7.33-3.72-14.35-9.19-19.05a26.24,26.24,0,0,0-19.74-6.59,36.9,36.9,0,0,0-18.77,7.32c-5.74,4.37-10.52,9.68-15.19,15.27a10.41,10.41,0,0,0-2.66,6.79,10.13,10.13,0,0,0,2.64,6.78c3.42,3.35,9.38,4,12.73,0Z" transform="translate(-0.01 -6.7)"/>
  <path class="cls-1" d="M675.74,123.72c-1.42.8-2.84,1.57-4.29,2.29-.66.32-1.31.64-2,.95,1.67-.78-.94.38-1,.43a85.38,85.38,0,0,1-9,3.1,82.75,82.75,0,0,1-8.35,1.93c-.84.15-1.68.3-2.53.42,2-.29-.83.09-1,.11-1.71.19-3.42.34-5.14.44a109.41,109.41,0,0,1-18.19-.46l-2.61-.3c-2.79-.32,1,.18-.66-.08s-3.2-.52-4.79-.81c-3.21-.61-6.39-1.34-9.55-2.14a165.39,165.39,0,0,1-18.33-6A150.26,150.26,0,0,1,572,116.34,384.72,384.72,0,0,1,537.51,95.9C514.66,81.08,492.3,65.18,467.63,54,445.81,44,422.3,38.13,398.4,39.71c-23,1.55-45.83,9.94-62.35,27.64-9.41,10.08-16.12,22.57-22,35.18C307.4,116.73,301,131,294.47,145.31l-80,175.06L174.8,407.15,155,450.53c-6.75,14.78-13.34,29.92-10.5,46.75,4.25,25.13,28.76,38.56,48.94,46.81a562.61,562.61,0,0,0,79.26,25.59,590.75,590.75,0,0,0,165.46,16.48,591.36,591.36,0,0,0,83-9.6q20.7-3.87,41.11-9.26c13.47-3.57,26.84-7.61,39.4-14,11.28-5.74,21.77-13.86,29.53-24.37a71.3,71.3,0,0,0,10.13-19c1.21-3.49,2.77-7.93,1.81-11.64s-3.6-7.76-5.32-11.27q-9.67-19.8-18.12-40.26c-5-12.23-10-25.51-14.71-39.15a727.79,727.79,0,0,1-23.19-84.23A694.22,694.22,0,0,1,569,238.24q-1.86-21.23-2.45-42.55c-.14-5-4-9.83-9-9.6a9.5,9.5,0,0,0-9,9.6A743.9,743.9,0,0,0,563,321.5,721.12,721.12,0,0,0,597.8,440.59q12.88,33.29,28.91,65l-.91-7.4a54.94,54.94,0,0,1-2,6.93c-.09.26-.76,1.89-.3.82.54-1.28-.57,1.24-.54,1.16-.53,1.16-1.09,2.27-1.69,3.38a63.17,63.17,0,0,1-3.76,6c1-1.37.12-.17-.08.08l-1,1.31c-.88,1.07-1.78,2.14-2.72,3.2-1.6,1.75-3.29,3.41-5,5-.41.37-.84.73-1.25,1.07-1.06,1,1-.79-.1.08s-2.17,1.7-3.29,2.5a94.25,94.25,0,0,1-14,8.13l-1.7.79c1.16-.52-.28.11-.43.17-1.16.48-2.31,1-3.47,1.43-2.63,1.07-5.29,2-8,2.88-5.35,1.79-10.78,3.34-16.22,4.81q-16,4.32-32.15,7.7a530.84,530.84,0,0,1-64.27,9.5,582,582,0,0,1-66.81,2,558.2,558.2,0,0,1-130.34-18.77,575.76,575.76,0,0,1-63.39-20.75c-2.3-.91-4.59-1.82-6.86-2.77l-2.75-1.19c-1.38-.58,2,.94-.26-.12l-1.72-.81a105.38,105.38,0,0,1-11.7-6.5c-1.69-1.07-3.35-2.25-5-3.49l-1.18-.92c1.52,1.2.19.13-.18-.18-.84-.74-1.65-1.5-2.45-2.28a60,60,0,0,1-4.37-4.91c-.3-.36-.91-1.44.12.19-.25-.4-.54-.8-.8-1.2a35.86,35.86,0,0,1-1.81-3.13c-.44-.85-.84-1.74-1.23-2.62.84,1.9-.1-.36-.34-1.15s-.54-1.91-.74-2.88c-.14-.62-.22-1.25-.35-1.88s-.08-.5.05.41l-.08-1c0-1.35-.11-2.67-.06-4a17.41,17.41,0,0,1,.18-2.5c.17-1.65-.22,1.23.07-.41A67.56,67.56,0,0,1,164,475.5a61,61,0,0,1,2.56-6.76c1.22-2.86,2.52-5.68,3.81-8.53l8.1-17.66,32-70.12q32.18-70.37,64.34-140.74,16-35.07,32-70.13l16.15-35.31c4.78-10.46,9.36-21.09,15.16-30.92q1.92-3.27,4-6.4c.35-.52.71-1.07,1.08-1.55-.85,1.18.33-.42.54-.7.86-1.07,1.74-2.21,2.65-3.29q2.34-2.72,4.9-5.2l2.25-2.13,1.15-1c1.47-1.28-1.19.85.52-.42a88.42,88.42,0,0,1,10.63-6.93c.87-.48,1.75-.93,2.64-1.36l1.68-.8c1.22-.58-1.38.55-.12.06,2.08-.81,4.13-1.67,6.25-2.38A91.54,91.54,0,0,1,389,60c1-.18,2-.33,3-.5-2.17.37,1.18-.13,1.73-.19,2.27-.26,4.55-.43,6.82-.54a123,123,0,0,1,13.44.16q3.09.21,6.16.58l1.54.19c2.48.29-1.23-.21.29,0l3.45.57c20,3.55,36.35,11,53.68,20.86,19,10.85,37,23.62,55.5,35.38,36.33,23.06,78,42.19,121.18,34.38a91.31,91.31,0,0,0,28.9-10.66A10,10,0,0,0,688,127.09a8.88,8.88,0,0,0-12.31-3.45Z" transform="translate(-0.01 -6.7)"/>
  <path class="cls-1" d="M669.68,134.09a143.84,143.84,0,0,1-5.53,17.06l.91-2.29A147.85,147.85,0,0,1,647.4,181l1.41-2A148.5,148.5,0,0,1,623.3,206.2l1.82-1.5a138,138,0,0,1-30.78,19.19l2.15-1a123.28,123.28,0,0,1-29.76,9.13c-2.09.36-4.36,2.55-5.38,4.42a10,10,0,0,0,3.23,13.12,9.69,9.69,0,0,0,6.93,1,135.37,135.37,0,0,0,57.79-25.4,158,158,0,0,0,43.78-50.45,153.87,153.87,0,0,0,14-35.55c1.24-4.83-1.53-10.67-6.28-11.81A9.11,9.11,0,0,0,669.68,134.09Z" transform="translate(-0.01 -6.7)"/>
  <path class="cls-1" d="M141.75,472.08,80.51,501.67,49.85,516.46c-9.11,4.4-18.54,8.39-27.3,13.54-7.72,4.53-15.17,10.84-18.95,19.55a39.24,39.24,0,0,0-.48,29.36c7.59,20.26,25.83,29.74,44.09,36.57C123.3,644,203,661.83,283.3,670.23a982.1,982.1,0,0,0,243.21-5.33,964,964,0,0,0,117.65-24.69q29.37-8.12,58.24-18.13c18.1-6.27,36.89-12.26,54-21.32,14-7.38,28.92-19.31,32.21-36.61,3.87-20.4-7.79-36.77-22.45-48.21-15.75-12.28-34.51-21-52.41-29a367.76,367.76,0,0,0-57.54-20.26q-14.57-3.76-29.38-6.32c-4.79-.83-9.69,1.33-11.07,6.71-1.18,4.57,1.46,11,6.29,11.8A358.34,358.34,0,0,1,732.1,517c13.34,7.27,30.35,15.52,37.35,30.06a22.31,22.31,0,0,1,2,8.21v2.13c-.14,3.2.39-1.4-.17,1.62-.13.68-.28,1.35-.45,2-.11.4-1.23,3.51-.78,2.47-2.57,5.91-7,10.43-12,14-13.57,9.92-29.09,14.68-44.7,20.4q-27.39,10-55.3,18.34a963.16,963.16,0,0,1-113.11,26.43A962.82,962.82,0,0,1,316.3,653.94,951.31,951.31,0,0,1,91.11,610.51q-13.86-4.47-27.6-9.35c-8.21-2.93-16.68-5.65-24.48-9.7-6.92-3.64-13.52-8.29-17.43-15.53-3.26-6-4.51-13-1.46-18.77,3.34-6.4,10.26-10.09,16.58-13.32,9.17-4.68,18.52-9,27.78-13.45l57.8-27.95,28.54-13.77c4.43-2.14,5.5-9,3.23-13.14-2.66-4.85-7.87-5.59-12.31-3.44Z" transform="translate(-0.01 -6.7)"/>
  <path class="cls-1" d="M129.17,315.05c9.84,4.88,20.93,2.48,29.09-4.89,7.44-6.71,11.16-17,12.43-27.06a94.64,94.64,0,0,0,.16-19l-11.79,1.7a121.33,121.33,0,0,0,7.24,28.1c3.41,8.39,8.59,17.54,16.68,21.53,5,2.45,10.94,3.48,16.16,1.17,2.8-1.24,4.73-3.59,4.3-7a6.15,6.15,0,0,0-5.9-5.55c-9-.48-17.55,3.39-24.38,9.43S161.94,328,159.64,336.88a68.19,68.19,0,0,0-2,16.1h12c.21-18-9.81-35.28-25.33-42.56a44,44,0,0,0-14.55-4c-3.13-.32-6.13,3.2-6,6.4a6.38,6.38,0,0,0,6,6.39c.39,0,.8.13,1.19.14,0,0-1.28-.21-.61-.08l.59.09c.92.16,1.83.36,2.73.61a34.81,34.81,0,0,1,4.74,1.61l.55.24c-1.31-.44-.68-.32-.33-.14l1.08.53c.78.41,1.54.84,2.29,1.3s1.37.86,2,1.33l1.15.85.48.37c.66.48-.88-.77-.27-.22a40,40,0,0,1,3.69,3.56c.6.67,1.19,1.37,1.75,2.13l.42.55c-.51-.67-.07-.08,0,.06l.48.71a41.93,41.93,0,0,1,2.72,4.92c.18.39.36.78.53,1.18.09.2.16.4.25.6.29.64-.2-.52-.2-.53.19.9.65,1.8.92,2.67a41.55,41.55,0,0,1,1.42,6.15l.09.64c.14.88-.12-1.28,0-.39,0,.57.11,1.16.14,1.73.07,1.07.09,2.14.08,3.28a6,6,0,1,0,12,0,58.07,58.07,0,0,1,.34-6c0-.21.08-.46.08-.67,0,.16-.22,1.53-.05.36.07-.43.13-.88.2-1.32.17-1.06.36-2.06.59-3.08a52.06,52.06,0,0,1,1.61-5.78,5.8,5.8,0,0,1,.53-1.46s-.48,1.16-.2.5c.09-.2.17-.4.25-.61.4-.94.84-1.87,1.3-2.79s.89-1.67,1.38-2.48c.26-.44.53-.88.81-1.3l.36-.55c.1-.15.7-1,.15-.23s.38-.49.52-.67.51-.63.78-.94c.62-.73,1.26-1.42,1.93-2.13a26.16,26.16,0,0,1,1.94-1.79c.66-.58-.94.72-.28.23l.47-.36c.37-.3.75-.57,1.14-.84,1.49-1.06,3.12-1.73,4.64-2.68-1.39.86-.1.05.38-.13l1.47-.52a25.08,25.08,0,0,1,2.83-.75l.57-.11c.85-.18-.21.11-.45,0a5.8,5.8,0,0,0,1.55-.16,26.89,26.89,0,0,1,3.11,0L196,304.2a21.79,21.79,0,0,1-2.44.81c-.62.2.6-.07.62-.07a5.7,5.7,0,0,0-.58.06H192c-.23,0-1.55-.15-.58,0s-.52-.14-.77-.2-.77-.21-1.15-.34l-.76-.29c-.79-.3.14-.05.32.15a4.05,4.05,0,0,0-1.07-.56c-.41-.25-.81-.5-1.2-.77-.19-.14-1.22-1-.56-.39h0c-.09-.07-.52-.45-.77-.7a25.14,25.14,0,0,1-1.87-2c-.28-.32-.54-.65-.8-1l-.39-.51c-.51-.66.85,1.27.07.08a63.13,63.13,0,0,1-5.57-10.66c0-.11-.29-.56-.26-.66,0,.06.53,1.41.08.2l-.49-1.33c-.38-1.07-.73-2.14-1.07-3.2-.67-2-1.25-4.11-1.75-6.2a144.89,144.89,0,0,1-2.75-14.36,6.42,6.42,0,0,0-2.76-3.83,5.92,5.92,0,0,0-3.83-.75,6.19,6.19,0,0,0-5.2,6.29,102.61,102.61,0,0,1,.27,14.67c0,.67-.1,1.34-.16,2,0,.25-.06.5-.08.76-.06.75.06-.42.06-.46a19.14,19.14,0,0,1-.67,4,43.68,43.68,0,0,1-1.66,5.87,5.89,5.89,0,0,0-.21.59c.32-1.32.32-.8.14-.37s-.38.88-.58,1.32c-.43.93-.89,1.84-1.4,2.74s-1,1.62-1.52,2.41c-.27.4-.64.51.23-.31a4.37,4.37,0,0,0-.37.48l-1,1.23a27,27,0,0,1-2,2l-.6.53c-.49.45.45-.36.45-.36a10.61,10.61,0,0,0-1.29.94,22.25,22.25,0,0,1-2.4,1.42,6.59,6.59,0,0,1-.71.34s1.43-.58.34-.17c-.49.18-1,.37-1.49.53s-1,.29-1.51.42a5.43,5.43,0,0,0-1.54.28c.11-.07,1.5-.15.44-.08l-.78.06H139.3c-.55,0-1-.13-1.54-.11,1.32,0,.93.17.45.05l-.91-.12a13.24,13.24,0,0,1-1.48-.45l-.55-.2c-1.29-.46,1.24.62,0,0-2.84-1.41-6.6-.95-8.21,2.3-1.4,2.83-.88,7.24,2.16,8.76Z" transform="translate(-0.01 -6.7)"/>
  <path class="cls-1" d="M133,319.75a36,36,0,0,1,7,2.13c.71.29-1.39-.67-.23-.09l.68.34c.57.27,1.12.58,1.67.9a30.48,30.48,0,0,1,3.18,2.14l.61.46.29.23c-.81-.64.11.11.27.24l.71.65a35.59,35.59,0,0,1,2.55,2.66q.63.72,1.23,1.5c.13.17.83,1.07.23.29s.13.21.2.31c.72,1.09,1.39,2.22,2,3.38a6,6,0,0,0,11-1.54,34.63,34.63,0,0,1,1-3.44c.25-.75-.58,1.32-.12.31.13-.29.25-.58.38-.85a16.47,16.47,0,0,1,.77-1.51c.27-.43.62-1.06,1-1.59.17-.26.35-.51.52-.76.42-.64-1,1.23-.17.24s1.52-1.78,2.34-2.61a8.74,8.74,0,0,0,1.21-1.07c-.17.34-1.06.85-.22.2l.73-.56a24.37,24.37,0,0,1,2.92-1.8c.26-.13.56-.25.81-.4-.2.13-1.22.52-.45.21.55-.23,1.11-.44,1.67-.62s1.14-.34,1.72-.48,2.47-.42.51-.15c2.46-.33,4.46-1.34,5.49-3.93a6.81,6.81,0,0,0-1.24-7c-.69-.8-1.36-1.6-2-2.42l-.83-1.06c-.19-.27-1.46-1.87-.4-.53a48,48,0,0,1-3.25-4.91,78.84,78.84,0,0,1-5.5-11c-1-2.47-4.48-3.74-6.78-2.95a6.64,6.64,0,0,0-4.4,6.18c-.08,1.37-.2,2.74-.35,4.11-.08.82.19-1.26,0,0l-.15,1c-.12.72-.25,1.44-.39,2.13a61.5,61.5,0,0,1-2.2,8.17c-.21.61-.43,1.22-.66,1.81-.42,1.14.3-.67,0,0-.13.29-.24.59-.37.89a32.21,32.21,0,0,1-1.67,3.51c-.18.3-.39.59-.55.91-.36.69.73-.8.19-.26a8.09,8.09,0,0,0-.56.61q-.49.5.45-.33l-.32.23a4,4,0,0,0-2.44,4.93,3.66,3.66,0,0,0,4.63,2.6,4,4,0,0,0,2.44-4.93,3.69,3.69,0,0,0-4.23-2.71,2.39,2.39,0,0,0-.73.23l.86-.13c-.52,0-.5,0,.05.07,1,.19-.11-.1-.28-.17l3.46,9.28,4.2-8.18c1.51-2.93.76-7.1-2.15-8.75a5.88,5.88,0,0,0-8.21,2.3l-4.21,8.26a6.66,6.66,0,0,0,3.59,9.41c4,1.62,8.87-.28,11.67-3.53,2.56-3,4-6.76,5.47-10.45a68.39,68.39,0,0,0,4.35-21L160.83,294a81.54,81.54,0,0,0,13.87,22.5l4.24-10.92a30.07,30.07,0,0,0-17.12,8.21,31.87,31.87,0,0,0-9,16.11l11-1.52a40,40,0,0,0-27.56-20.93,6.21,6.21,0,0,0-4.63.64,6.51,6.51,0,0,0-2.76,3.82c-.66,3.1.89,7.29,4.2,7.87Z" transform="translate(-0.01 -6.7)"/>
  <path class="cls-1" d="M603.71,311.9a299.24,299.24,0,0,0,17.06-49.13h-8.68l15.21,51.57,7.53-4.67a525.63,525.63,0,0,0-45.08-35.59l-3.46,8.78a380.36,380.36,0,0,0,53.7,4.26l-1.2-9.42A145.51,145.51,0,0,0,597,303.8c-1.82,1.61-1.68,5.14,0,6.78a4.4,4.4,0,0,0,6.36,0c.79-.69,1.58-1.39,2.37-2.06l1-.87c1.13-.94-.67.54.48-.39,1.51-1.22,3-2.42,4.59-3.58q4.65-3.46,9.56-6.54c3.27-2,6.62-3.95,10-5.7,1.7-.87,3.43-1.71,5.17-2.51.15-.07,1.29-.58.53-.25l1.22-.53,2.84-1.2a4.88,4.88,0,0,0,3.23-5.26,4.61,4.61,0,0,0-4.42-4.16q-13-.07-26.07-1.07-6.39-.48-12.75-1.19c-2.13-.24-4.25-.49-6.36-.77-1.15-.14-2.29-.3-3.42-.45l-.76-.1-1.95-.29c-2.25-.34-4.36.38-5.31,2.77a5,5,0,0,0,1.84,6q11.37,8,22.34,16.63c3.62,2.85,7,5.63,10.21,8.28q5.41,4.5,10.7,9.18a4.44,4.44,0,0,0,5.46.75,5,5,0,0,0,2.06-5.42l-15.16-51.62c-1.3-4.42-7.49-4.7-8.68,0q-3.08,12.25-7.18,24.16c-1.29,3.75-2.87,8-4.18,11.35-.54,1.37-1.48,3.68-2.21,5.4q-1.26,3-2.58,5.93c-1,2.26-.65,5.28,1.62,6.56,2,1.13,5.07.7,6.15-1.72Z" transform="translate(-0.01 -6.7)"/>
  <path class="cls-1" d="M608,286.67l8,16.86a4.42,4.42,0,0,0,5.07,2.19,4.89,4.89,0,0,0,3.31-4.63A50.78,50.78,0,0,0,618.24,278a4.35,4.35,0,0,0-6.18-1.63,5,5,0,0,0-1.65,6.35l.06.12a32.67,32.67,0,0,1,2.31,4.85c-.41-1.15,0,0,.06.2.17.45.33.91.48,1.37.26.8.5,1.61.72,2.42a43.72,43.72,0,0,1,1,5,5.52,5.52,0,0,0,.11.71c-.09-.67-.09-.73,0-.19,0,.36.07.72.1,1.07.09,1,.13,1.94.16,2.91l8.38-2.43-8-16.87a4.39,4.39,0,0,0-6.16-1.72,5.1,5.1,0,0,0-1.61,6.57Z" transform="translate(-0.01 -6.7)"/>
  <path class="cls-1" d="M316.89,13.34l9.62,26.08c.86,2.33,3,4.21,5.54,3.35,2.12-.73,4.06-3.4,3.14-5.9l-9.62-26.08c-.86-2.34-3-4.27-5.54-3.36-2.11.73-4.06,3.4-3.14,5.91Z" transform="translate(-0.01 -6.7)"/>
  <path class="cls-1" d="M294.3,43.87l21,12.94a4.34,4.34,0,0,0,6.18-1.63A5,5,0,0,0,320,48.59l-.11-.06-21-12.94a4.34,4.34,0,0,0-6.13,1.81A5,5,0,0,0,294.3,43.87Z" transform="translate(-0.01 -6.7)"/>
</svg>
